<svg width="480" height="400" viewBox="0 0 480 400" fill="none" xmlns="http://www.w3.org/2000/svg">
<rect width="480" height="400" fill="white"/>
<path d="M107.524 220.474L103.654 222.718C103.413 222.837 103.149 222.899 102.88 222.899C102.612 222.899 102.347 222.837 102.106 222.718L98.4654 220.474C98.0068 220.215 97.9494 219.812 98.4654 219.582L102.221 217.597C102.459 217.471 102.725 217.405 102.995 217.405C103.264 217.405 103.53 217.471 103.769 217.597L107.41 219.697C107.868 219.898 107.926 220.301 107.524 220.474Z" fill="#083C94"/>
<path d="M116.525 225.739L112.655 227.983C112.414 228.102 112.15 228.164 111.881 228.164C111.613 228.164 111.348 228.102 111.107 227.983L107.466 225.883C107.008 225.595 106.95 225.221 107.466 224.991L111.336 222.747C111.577 222.627 111.842 222.565 112.11 222.565C112.379 222.565 112.644 222.627 112.884 222.747L116.525 224.847C116.869 225.135 116.927 225.509 116.525 225.739Z" fill="#083C94"/>
<path d="M107.038 231.234L103.168 233.478C102.927 233.598 102.662 233.66 102.394 233.66C102.125 233.66 101.86 233.598 101.62 233.478L97.9789 231.378C97.5202 231.091 97.4915 230.688 97.9789 230.458L101.849 228.242C102.09 228.123 102.354 228.061 102.623 228.061C102.891 228.061 103.156 228.123 103.397 228.242L107.038 230.343C107.382 230.601 107.439 231.004 107.038 231.234Z" fill="#083C94"/>
<path d="M126.099 231.263L122.229 233.507C121.989 233.626 121.724 233.688 121.455 233.688C121.187 233.688 120.922 233.626 120.681 233.507L117.041 231.378C116.582 231.119 116.525 230.716 117.041 230.486L120.911 228.242C121.149 228.116 121.415 228.05 121.685 228.05C121.954 228.05 122.22 228.116 122.459 228.242L126.099 230.342C126.386 230.63 126.443 231.033 126.099 231.263Z" fill="#083C94"/>
<path d="M116.553 236.758L112.712 239.002C112.471 239.121 112.206 239.183 111.938 239.183C111.669 239.183 111.405 239.121 111.164 239.002L107.494 236.873C107.036 236.614 107.007 236.211 107.494 235.981L111.336 233.737C111.575 233.611 111.84 233.545 112.11 233.545C112.38 233.545 112.645 233.611 112.884 233.737L116.553 235.837C116.926 236.125 116.955 236.528 116.553 236.758Z" fill="#083C94"/>
<path d="M135.044 236.47L131.174 238.714C130.934 238.834 130.669 238.896 130.4 238.896C130.132 238.896 129.867 238.834 129.626 238.714L126.1 236.556C125.642 236.269 125.584 235.895 126.1 235.665L129.97 233.421C130.211 233.301 130.476 233.239 130.744 233.239C131.013 233.239 131.278 233.301 131.518 233.421L135.159 235.521C135.388 235.866 135.446 236.24 135.044 236.47Z" fill="#083C94"/>
<path d="M125.556 241.965L121.686 244.209C121.445 244.329 121.181 244.391 120.912 244.391C120.644 244.391 120.379 244.329 120.138 244.209L116.497 242.109C116.039 241.821 116.01 241.419 116.497 241.189L120.367 238.916C120.608 238.796 120.873 238.734 121.141 238.734C121.41 238.734 121.675 238.796 121.915 238.916L125.556 241.016C125.9 241.332 126.101 241.735 125.556 241.965Z" fill="#083C94"/>
<path d="M144.047 241.706L140.177 243.951C139.938 244.077 139.672 244.142 139.403 244.142C139.133 244.142 138.867 244.077 138.629 243.951L134.988 241.764C134.529 241.505 134.472 241.102 134.988 240.872L138.858 238.628C139.099 238.509 139.364 238.447 139.632 238.447C139.9 238.447 140.165 238.509 140.406 238.628L144.047 240.757C144.391 241.074 144.448 241.476 144.047 241.706Z" fill="#083C94"/>
<path d="M134.7 247.201L130.83 249.416C130.589 249.536 130.324 249.598 130.056 249.598C129.787 249.598 129.523 249.536 129.282 249.416L125.641 247.316C125.183 247.057 125.125 246.654 125.641 246.424L129.511 244.18C129.752 244.061 130.017 243.999 130.285 243.999C130.554 243.999 130.819 244.061 131.059 244.18L134.7 246.281C134.901 246.568 134.958 246.971 134.7 247.201Z" fill="#083C94"/>
<path d="M153.563 247.202L149.693 249.446C149.453 249.565 149.188 249.627 148.919 249.627C148.651 249.627 148.386 249.565 148.145 249.446L144.504 247.346C144.046 247.058 143.988 246.684 144.504 246.454L148.375 244.21C148.615 244.09 148.88 244.028 149.149 244.028C149.417 244.028 149.682 244.09 149.923 244.21L153.563 246.31C153.907 246.598 153.965 246.972 153.563 247.202Z" fill="#083C94"/>
<path d="M144.075 252.697L140.205 254.999C139.969 255.117 139.709 255.179 139.445 255.179C139.181 255.179 138.921 255.117 138.685 254.999L135.016 252.898C134.557 252.611 134.529 252.208 135.016 251.978L138.886 249.762C139.127 249.643 139.392 249.581 139.66 249.581C139.928 249.581 140.193 249.643 140.434 249.762L144.075 251.863C144.419 252.122 144.476 252.467 144.075 252.697Z" fill="#083C94"/>
<path d="M162.565 252.438L158.695 254.682C158.456 254.808 158.191 254.874 157.921 254.874C157.651 254.874 157.386 254.808 157.147 254.682L153.506 252.582C153.048 252.323 152.99 251.92 153.506 251.69L157.262 249.244C157.503 249.125 157.767 249.063 158.036 249.063C158.304 249.063 158.569 249.125 158.81 249.244L162.451 251.373C162.909 251.805 162.967 252.121 162.565 252.438Z" fill="#083C94"/>
<path d="M153.076 257.875L149.206 260.091C148.965 260.21 148.7 260.272 148.432 260.272C148.163 260.272 147.898 260.21 147.658 260.091L144.017 257.875C143.558 257.616 143.53 257.213 144.017 256.983L147.772 254.998C148.013 254.879 148.278 254.817 148.546 254.817C148.815 254.817 149.08 254.879 149.32 254.998L152.961 257.098C153.42 257.3 153.477 257.703 153.076 257.875Z" fill="#083C94"/>
<path d="M171.566 257.645L167.696 259.89C167.455 260.009 167.191 260.071 166.922 260.071C166.654 260.071 166.389 260.009 166.148 259.89L162.507 257.761C162.049 257.502 161.991 257.099 162.507 256.869L166.234 254.567C166.475 254.448 166.74 254.386 167.008 254.386C167.277 254.386 167.541 254.448 167.782 254.567L171.423 256.696C171.968 257.012 171.968 257.415 171.566 257.645Z" fill="#083C94"/>
<path d="M162.078 263.14L158.208 265.384C157.969 265.51 157.704 265.576 157.434 265.576C157.164 265.576 156.899 265.51 156.66 265.384L153.019 263.284C152.56 263.025 152.503 262.622 153.019 262.392L156.889 260.148C157.13 260.029 157.395 259.967 157.663 259.967C157.932 259.967 158.196 260.029 158.437 260.148L162.078 262.277C162.422 262.507 162.479 262.91 162.078 263.14Z" fill="#083C94"/>
<path d="M181.083 263.169L177.213 265.413C176.975 265.539 176.709 265.605 176.439 265.605C176.17 265.605 175.904 265.539 175.665 265.413L171.967 263.226C171.509 262.967 171.451 262.565 171.967 262.335L175.837 260.09C176.078 259.971 176.343 259.909 176.611 259.909C176.88 259.909 177.145 259.971 177.385 260.09L181.026 262.219C181.428 262.536 181.485 262.939 181.083 263.169Z" fill="#083C94"/>
<path d="M171.595 268.664L167.725 270.88C167.484 270.999 167.22 271.061 166.951 271.061C166.683 271.061 166.418 270.999 166.177 270.88L162.536 268.78C162.078 268.521 162.049 268.118 162.536 267.888L166.235 265.586C166.475 265.467 166.74 265.405 167.009 265.405C167.277 265.405 167.542 265.467 167.783 265.586L171.423 267.686C171.968 268.032 171.968 268.434 171.595 268.664Z" fill="#083C94"/>
<path d="M190.086 268.376L186.302 270.621C186.061 270.74 185.796 270.802 185.528 270.802C185.259 270.802 184.994 270.74 184.754 270.621L181.113 268.492C180.654 268.233 180.597 267.83 181.113 267.6L184.983 265.356C185.224 265.236 185.488 265.174 185.757 265.174C186.025 265.174 186.29 265.236 186.531 265.356L190.172 267.485C190.43 267.744 190.487 268.146 190.086 268.376Z" fill="#083C94"/>
<path d="M180.567 273.872L176.697 276.116C176.458 276.242 176.193 276.308 175.923 276.308C175.653 276.308 175.388 276.242 175.149 276.116L171.508 274.015C171.05 273.757 170.992 273.354 171.508 273.124L175.378 270.88C175.619 270.76 175.884 270.698 176.152 270.698C176.421 270.698 176.686 270.76 176.926 270.88L180.567 273.009C180.94 273.239 180.997 273.641 180.567 273.872Z" fill="#083C94"/>
<path d="M199.087 273.584L195.217 275.828C194.976 275.947 194.711 276.009 194.443 276.009C194.174 276.009 193.909 275.947 193.669 275.828L190.028 273.699C189.569 273.44 189.512 273.037 190.028 272.807L193.898 270.563C194.137 270.437 194.402 270.371 194.672 270.371C194.942 270.371 195.207 270.437 195.446 270.563L199.087 272.663C199.431 272.951 199.488 273.354 199.087 273.584Z" fill="#083C94"/>
<path d="M189.597 279.079L185.727 281.323C185.486 281.442 185.221 281.504 184.953 281.504C184.685 281.504 184.42 281.442 184.179 281.323L180.567 279.137C180.108 278.878 180.051 278.475 180.567 278.245L184.437 276.001C184.678 275.881 184.943 275.819 185.211 275.819C185.479 275.819 185.744 275.881 185.985 276.001L189.626 278.13C189.941 278.446 189.998 278.849 189.597 279.079Z" fill="#083C94"/>
<path d="M208.604 279.108L204.734 281.352C204.493 281.471 204.229 281.533 203.96 281.533C203.692 281.533 203.427 281.471 203.186 281.352L199.546 279.223C199.087 278.964 199.03 278.561 199.546 278.331L203.416 276.087C203.656 275.968 203.921 275.906 204.19 275.906C204.458 275.906 204.723 275.968 204.964 276.087L208.604 278.216C208.948 278.475 209.006 278.878 208.604 279.108Z" fill="#083C94"/>
<path d="M199.116 284.603L195.246 286.847C195.007 286.973 194.742 287.039 194.472 287.039C194.202 287.039 193.937 286.973 193.698 286.847L190.057 284.747C189.599 284.488 189.541 284.085 190.057 283.855L193.927 281.611C194.168 281.492 194.433 281.43 194.701 281.43C194.97 281.43 195.235 281.492 195.475 281.611L199.116 283.74C199.46 283.97 199.517 284.373 199.116 284.603Z" fill="#083C94"/>
<path d="M217.605 284.315L213.735 286.646C213.483 286.779 213.203 286.849 212.918 286.849C212.633 286.849 212.353 286.779 212.101 286.646L208.461 284.517C208.002 284.258 207.945 283.855 208.461 283.625L212.331 281.381C212.569 281.255 212.835 281.189 213.105 281.189C213.374 281.189 213.64 281.255 213.879 281.381L217.519 283.481C217.835 283.769 218.007 284.085 217.605 284.315Z" fill="#083C94"/>
<path d="M208.117 289.81L204.247 292.054C204.006 292.174 203.741 292.236 203.473 292.236C203.204 292.236 202.94 292.174 202.699 292.054L199.058 289.925C198.6 289.667 198.542 289.264 199.058 289.034L202.814 286.646C203.054 286.526 203.319 286.464 203.588 286.464C203.856 286.464 204.121 286.526 204.362 286.646L208.002 288.775C208.461 289.177 208.518 289.523 208.117 289.81Z" fill="#083C94"/>
<path d="M226.607 289.523L222.737 291.767C222.496 291.886 222.232 291.948 221.963 291.948C221.695 291.948 221.43 291.886 221.189 291.767L217.548 289.523C217.09 289.235 217.032 288.832 217.548 288.602L221.418 286.387C221.659 286.268 221.924 286.206 222.192 286.206C222.461 286.206 222.726 286.268 222.967 286.387L226.607 288.487C226.951 288.89 226.98 289.293 226.607 289.523Z" fill="#083C94"/>
<path d="M217.117 295.018L213.247 297.262C213.006 297.381 212.741 297.443 212.473 297.443C212.204 297.443 211.94 297.381 211.699 297.262L208.058 295.133C207.6 294.874 207.542 294.471 208.058 294.241L211.928 291.997C212.167 291.871 212.433 291.805 212.702 291.805C212.972 291.805 213.238 291.871 213.476 291.997L217.117 294.097C217.461 294.385 217.518 294.788 217.117 295.018Z" fill="#083C94"/>
<path d="M236.124 295.047L232.168 297.291C231.927 297.41 231.662 297.472 231.394 297.472C231.125 297.472 230.861 297.41 230.62 297.291L226.979 295.162C226.52 294.903 226.463 294.5 226.979 294.27L230.849 292.026C231.088 291.9 231.353 291.834 231.623 291.834C231.893 291.834 232.158 291.9 232.397 292.026L236.038 294.126C236.468 294.414 236.525 294.817 236.124 295.047Z" fill="#083C94"/>
<path d="M226.636 300.541L222.765 302.786C222.525 302.905 222.26 302.967 221.991 302.967C221.723 302.967 221.458 302.905 221.217 302.786L217.577 300.657C217.118 300.398 217.061 299.995 217.577 299.765L221.447 297.521C221.688 297.401 221.952 297.339 222.221 297.339C222.489 297.339 222.754 297.401 222.995 297.521L226.636 299.65C226.98 299.909 227.037 300.311 226.636 300.541Z" fill="#083C94"/>
<path d="M245.126 300.254L241.256 302.498C241.015 302.617 240.75 302.679 240.482 302.679C240.213 302.679 239.948 302.617 239.708 302.498L236.067 300.398C235.608 300.11 235.551 299.707 236.067 299.477L239.937 297.262C240.178 297.143 240.443 297.081 240.711 297.081C240.979 297.081 241.244 297.143 241.485 297.262L245.126 299.362C245.47 299.621 245.527 300.024 245.126 300.254Z" fill="#083C94"/>
<path d="M235.637 305.749L231.767 307.993C231.527 308.113 231.262 308.175 230.993 308.175C230.725 308.175 230.46 308.113 230.219 307.993L226.579 305.864C226.12 305.605 226.063 305.203 226.579 304.973L230.449 302.728C230.687 302.602 230.953 302.537 231.223 302.537C231.492 302.537 231.758 302.602 231.997 302.728L235.637 304.829C235.981 305.116 236.039 305.519 235.637 305.749Z" fill="#083C94"/>
<path d="M254.127 305.49L250.257 307.706C250.016 307.825 249.751 307.887 249.483 307.887C249.214 307.887 248.949 307.825 248.709 307.706L245.068 305.605C244.609 305.346 244.552 304.944 245.068 304.713L248.938 302.469C249.179 302.35 249.444 302.288 249.712 302.288C249.98 302.288 250.245 302.35 250.486 302.469L254.127 304.57C254.471 304.857 254.499 305.26 254.127 305.49Z" fill="#083C94"/>
<path d="M244.638 310.957L240.768 313.201C240.528 313.32 240.263 313.382 239.994 313.382C239.726 313.382 239.461 313.32 239.22 313.201L235.58 311.101C235.121 310.813 235.064 310.439 235.58 310.209L239.45 307.965C239.69 307.846 239.955 307.784 240.224 307.784C240.492 307.784 240.757 307.846 240.998 307.965L244.638 310.065C244.982 310.353 245.04 310.727 244.638 310.957Z" fill="#083C94"/>
<path d="M263.702 310.985L259.832 313.229C259.591 313.348 259.326 313.41 259.058 313.41C258.789 313.41 258.525 313.348 258.284 313.229L254.643 311.129C254.184 310.841 254.127 310.438 254.643 310.208L258.513 307.993C258.754 307.874 259.019 307.812 259.287 307.812C259.556 307.812 259.821 307.874 260.061 307.993L263.702 310.093C263.989 310.352 264.046 310.755 263.702 310.985Z" fill="#083C94"/>
<path d="M254.156 316.48L250.286 318.724C250.045 318.844 249.78 318.906 249.512 318.906C249.244 318.906 248.979 318.844 248.738 318.724L245.097 316.595C244.639 316.336 244.581 315.934 245.097 315.703L248.967 313.459C249.206 313.333 249.472 313.268 249.741 313.268C250.011 313.268 250.277 313.333 250.515 313.459L254.156 315.56C254.5 315.847 254.557 316.25 254.156 316.48Z" fill="#083C94"/>
<path d="M272.646 316.222L268.776 318.437C268.535 318.556 268.27 318.618 268.002 318.618C267.733 318.618 267.469 318.556 267.228 318.437L263.702 316.279C263.243 316.02 263.186 315.617 263.702 315.387L267.572 313.143C267.813 313.024 268.077 312.962 268.346 312.962C268.614 312.962 268.879 313.024 269.12 313.143L272.761 315.243C272.99 315.589 273.019 315.991 272.646 316.222Z" fill="#083C94"/>
<path d="M263.157 321.688L259.287 323.932C259.046 324.051 258.781 324.113 258.513 324.113C258.244 324.113 257.98 324.051 257.739 323.932L254.098 321.832C253.64 321.544 253.582 321.17 254.098 320.94L257.968 318.696C258.209 318.577 258.474 318.515 258.742 318.515C259.011 318.515 259.276 318.577 259.516 318.696L263.157 320.796C263.501 321.17 263.702 321.458 263.157 321.688Z" fill="#083C94"/>
<path d="M281.619 321.429L277.777 323.673C277.539 323.799 277.273 323.865 277.003 323.865C276.734 323.865 276.468 323.799 276.229 323.673L272.588 321.573C272.13 321.314 272.072 320.911 272.588 320.681L276.459 318.437C276.694 318.318 276.954 318.256 277.218 318.256C277.482 318.256 277.742 318.318 277.978 318.437L281.647 320.566C281.991 320.796 282.02 321.17 281.619 321.429Z" fill="#083C94"/>
<path d="M272.302 326.924L268.432 329.168C268.193 329.294 267.927 329.36 267.657 329.36C267.388 329.36 267.122 329.294 266.883 329.168L263.243 327.068C262.784 326.809 262.727 326.406 263.243 326.176L267.113 323.932C267.354 323.813 267.618 323.75 267.887 323.75C268.155 323.75 268.42 323.813 268.661 323.932L272.302 326.061C272.502 326.291 272.56 326.694 272.302 326.924Z" fill="#083C94"/>
<path d="M291.165 326.924L287.295 329.14C287.054 329.259 286.789 329.321 286.521 329.321C286.252 329.321 285.987 329.259 285.747 329.14L282.106 327.039C281.647 326.78 281.59 326.378 282.106 326.148L285.976 323.903C286.217 323.784 286.482 323.722 286.75 323.722C287.019 323.722 287.283 323.784 287.524 323.903L291.165 326.004C291.509 326.32 291.537 326.723 291.165 326.924Z" fill="#083C94"/>
<path d="M281.677 332.42L277.807 334.664C277.566 334.783 277.301 334.845 277.033 334.845C276.764 334.845 276.499 334.783 276.258 334.664L272.618 332.563C272.159 332.276 272.102 331.902 272.618 331.671L276.488 329.427C276.729 329.308 276.993 329.246 277.262 329.246C277.53 329.246 277.795 329.308 278.036 329.427L281.677 331.528C282.021 331.815 282.078 332.189 281.677 332.42Z" fill="#083C94"/>
<path d="M300.625 321.458L296.755 323.673C296.52 323.792 296.26 323.854 295.996 323.854C295.732 323.854 295.472 323.792 295.236 323.673L291.567 321.573C291.108 321.314 291.079 320.911 291.567 320.681L295.236 318.293C295.477 318.174 295.742 318.112 296.01 318.112C296.279 318.112 296.543 318.174 296.784 318.293L300.425 320.393C300.97 320.825 300.97 321.17 300.625 321.458Z" fill="#083C94"/>
<path d="M310.114 315.962L306.244 318.207C306.005 318.333 305.74 318.398 305.47 318.398C305.2 318.398 304.935 318.333 304.696 318.207L301.055 316.106C300.597 315.847 300.539 315.445 301.055 315.214L304.925 312.97C305.166 312.851 305.431 312.789 305.699 312.789C305.968 312.789 306.233 312.851 306.473 312.97L310.114 315.099C310.458 315.416 310.515 315.732 310.114 315.962Z" fill="#083C94"/>
<path d="M319.602 310.467L315.732 312.711C315.494 312.837 315.228 312.903 314.958 312.903C314.689 312.903 314.423 312.837 314.184 312.711L310.544 310.611C310.085 310.352 310.028 309.949 310.544 309.719L314.414 307.475C314.654 307.356 314.919 307.294 315.188 307.294C315.456 307.294 315.721 307.356 315.962 307.475L319.602 309.604C319.946 309.834 320.004 310.237 319.602 310.467Z" fill="#083C94"/>
<path d="M329.062 304.972L325.221 307.216C324.982 307.342 324.717 307.408 324.447 307.408C324.177 307.408 323.912 307.342 323.673 307.216L320.004 305.116C319.574 304.857 319.516 304.454 320.004 304.224L323.902 301.894C324.143 301.774 324.408 301.712 324.676 301.712C324.945 301.712 325.21 301.774 325.45 301.894L329.12 304.023C329.435 304.339 329.464 304.742 329.062 304.972Z" fill="#083C94"/>
<path d="M338.551 299.477L334.681 301.722C334.44 301.841 334.175 301.903 333.907 301.903C333.638 301.903 333.373 301.841 333.133 301.722L329.635 299.535C329.177 299.276 329.119 298.873 329.635 298.643L333.505 296.399C333.746 296.28 334.011 296.218 334.279 296.218C334.548 296.218 334.813 296.28 335.053 296.399L338.694 298.528C338.895 298.845 338.952 299.247 338.551 299.477Z" fill="#083C94"/>
<path d="M348.041 293.982L344.171 296.226C343.93 296.345 343.665 296.407 343.397 296.407C343.128 296.407 342.863 296.345 342.623 296.226L338.982 294.097C338.523 293.838 338.466 293.435 338.982 293.205L342.852 290.961C343.093 290.842 343.358 290.78 343.626 290.78C343.895 290.78 344.159 290.842 344.4 290.961L348.041 293.09C348.385 293.349 348.442 293.752 348.041 293.982Z" fill="#083C94"/>
<path d="M357.529 288.487L353.659 290.731C353.418 290.85 353.153 290.912 352.885 290.912C352.617 290.912 352.352 290.85 352.111 290.731L348.47 288.602C348.012 288.343 347.954 287.94 348.47 287.71L352.34 285.466C352.581 285.347 352.846 285.285 353.114 285.285C353.383 285.285 353.648 285.347 353.888 285.466L357.529 287.595C357.873 287.854 357.902 288.257 357.529 288.487Z" fill="#083C94"/>
<path d="M366.903 282.992L363.033 285.236C362.792 285.355 362.527 285.417 362.259 285.417C361.99 285.417 361.726 285.355 361.485 285.236L357.844 283.107C357.385 282.848 357.357 282.445 357.844 282.215L361.714 279.971C361.953 279.845 362.218 279.779 362.488 279.779C362.758 279.779 363.023 279.845 363.262 279.971L366.903 282.071C367.333 282.359 367.39 282.762 366.903 282.992Z" fill="#083C94"/>
<path d="M376.478 277.496L372.637 279.74C372.396 279.86 372.131 279.922 371.863 279.922C371.594 279.922 371.329 279.86 371.089 279.74L367.448 277.611C366.989 277.353 366.932 276.95 367.448 276.72L371.318 274.476C371.557 274.35 371.822 274.284 372.092 274.284C372.362 274.284 372.627 274.35 372.866 274.476L376.507 276.576C376.822 276.863 376.879 277.266 376.478 277.496Z" fill="#083C94"/>
<path d="M385.967 272.002L382.097 274.246C381.856 274.365 381.591 274.427 381.323 274.427C381.054 274.427 380.789 274.365 380.548 274.246L376.908 272.117C376.449 271.858 376.392 271.455 376.908 271.225L380.778 268.981C381.017 268.855 381.282 268.789 381.552 268.789C381.822 268.789 382.087 268.855 382.326 268.981L385.967 271.081C386.311 271.369 386.339 271.772 385.967 272.002Z" fill="#083C94"/>
<path d="M300.167 332.16L296.297 334.404C296.058 334.53 295.792 334.596 295.523 334.596C295.253 334.596 294.987 334.53 294.749 334.404L291.108 332.304C290.649 332.045 290.592 331.642 291.108 331.412L294.978 329.168C295.219 329.048 295.484 328.986 295.752 328.986C296.021 328.986 296.285 329.048 296.526 329.168L300.167 331.297C300.511 331.527 300.539 331.93 300.167 332.16Z" fill="#083C94"/>
<path d="M309.569 326.665L305.699 328.909C305.46 329.035 305.195 329.101 304.925 329.101C304.655 329.101 304.39 329.035 304.151 328.909L300.51 326.809C300.051 326.55 300.023 326.147 300.51 325.917L304.38 323.673C304.621 323.554 304.886 323.492 305.154 323.492C305.423 323.492 305.687 323.554 305.928 323.673L309.569 325.802C309.97 326.032 310.028 326.435 309.569 326.665Z" fill="#083C94"/>
<path d="M319.115 321.17L315.245 323.414C315.004 323.534 314.739 323.596 314.471 323.596C314.202 323.596 313.938 323.534 313.697 323.414L310.056 321.285C309.598 321.027 309.54 320.624 310.056 320.394L313.926 318.15C314.167 318.03 314.432 317.968 314.7 317.968C314.969 317.968 315.234 318.03 315.474 318.15L319.115 320.279C319.459 320.537 319.516 320.94 319.115 321.17Z" fill="#083C94"/>
<path d="M328.604 315.675L324.734 317.919C324.493 318.038 324.229 318.1 323.96 318.1C323.692 318.1 323.427 318.038 323.186 317.919L319.546 315.79C319.087 315.531 319.03 315.128 319.546 314.898L323.416 312.654C323.656 312.535 323.921 312.473 324.19 312.473C324.458 312.473 324.723 312.535 324.964 312.654L328.604 314.783C328.948 315.042 328.977 315.416 328.604 315.675Z" fill="#083C94"/>
<path d="M338.064 310.18L334.194 312.424C333.953 312.543 333.688 312.605 333.42 312.605C333.151 312.605 332.887 312.543 332.646 312.424L329.005 310.295C328.547 310.036 328.518 309.633 329.005 309.403L332.875 307.159C333.116 307.04 333.381 306.978 333.649 306.978C333.918 306.978 334.183 307.04 334.423 307.159L338.064 309.288C338.408 309.662 338.465 309.95 338.064 310.18Z" fill="#083C94"/>
<path d="M347.553 304.684L343.682 306.929C343.442 307.048 343.177 307.11 342.908 307.11C342.64 307.11 342.375 307.048 342.134 306.929L338.494 304.8C338.035 304.541 337.978 304.138 338.494 303.908L342.364 301.664C342.603 301.538 342.868 301.472 343.138 301.472C343.408 301.472 343.673 301.538 343.912 301.664L347.553 303.764C347.897 304.051 347.954 304.454 347.553 304.684Z" fill="#083C94"/>
<path d="M357.042 299.189L353.172 301.433C352.931 301.553 352.666 301.615 352.398 301.615C352.129 301.615 351.864 301.553 351.624 301.433L347.983 299.304C347.524 299.045 347.467 298.643 347.983 298.412L351.853 296.168C352.092 296.042 352.357 295.977 352.627 295.977C352.897 295.977 353.162 296.042 353.401 296.168L357.042 298.269C357.386 298.556 357.443 298.959 357.042 299.189Z" fill="#083C94"/>
<path d="M366.502 293.695L362.66 295.939C362.419 296.058 362.155 296.12 361.886 296.12C361.618 296.12 361.353 296.058 361.112 295.939L357.443 293.81C356.984 293.551 356.955 293.148 357.443 292.918L361.284 290.674C361.523 290.548 361.788 290.482 362.058 290.482C362.328 290.482 362.593 290.548 362.832 290.674L366.502 292.774C366.903 293.062 366.903 293.465 366.502 293.695Z" fill="#083C94"/>
<path d="M375.99 288.199L372.12 290.443C371.88 290.562 371.615 290.624 371.346 290.624C371.078 290.624 370.813 290.562 370.572 290.443L366.903 288.285C366.444 287.998 366.387 287.595 366.903 287.365L370.773 285.121C371.015 285.007 371.28 284.949 371.547 284.949C371.814 284.949 372.079 285.007 372.321 285.121L375.962 287.221C376.334 287.566 376.392 287.969 375.99 288.199Z" fill="#083C94"/>
<path d="M385.479 282.704L381.609 284.948C381.369 285.067 381.104 285.13 380.835 285.13C380.567 285.13 380.302 285.067 380.061 284.948L376.421 282.848C375.962 282.56 375.905 282.158 376.421 281.927L380.291 279.712C380.531 279.593 380.796 279.531 381.065 279.531C381.333 279.531 381.598 279.593 381.839 279.712L385.479 281.812C385.823 282.071 385.881 282.474 385.479 282.704Z" fill="#083C94"/>
<path d="M261.466 191.04L262.419 188.769C264.961 188.48 267.422 187.695 269.664 186.46C272.771 184.666 274.201 182.281 274.01 179.914V158.922L257.996 157.815L242.745 165.697L216.132 176.422L197.697 165.869L177.87 177.319C170.778 178.636 157.109 181.135 156.061 181.498C154.65 181.937 136.024 190.124 135.967 190.143L111.184 194.761V215.792L128.608 225.849L127.197 229.665L121.478 230.181V250.982H121.345C121.192 255.238 126.301 259.57 137.073 260.257C145.957 259.207 150.665 255.829 151.352 252.146C155.165 243.749 164.487 246.65 164.525 246.669L197.601 265.753L230.678 246.669C231.266 245.996 231.567 245.119 231.516 244.226V223.234C232.174 223.506 232.811 223.825 233.423 224.188C234.476 224.689 235.408 225.412 236.156 226.308C236.903 227.204 237.447 228.252 237.75 229.379C241.563 237.776 250.886 234.875 250.924 234.856L284 215.772V194.78L261.466 191.04Z" fill="#5243C2"/>
<path d="M261.466 191.04L262.419 188.769C264.961 188.48 267.422 187.695 269.664 186.46C272.771 184.666 274.201 182.281 274.01 179.914V158.922L257.996 157.815L242.745 165.697L216.132 176.422L197.697 165.869L177.87 177.319C170.778 178.636 157.109 181.135 156.061 181.498C154.65 181.937 136.024 190.124 135.967 190.143L111.184 194.761V215.792L128.608 225.849L127.197 229.665L121.478 230.181V250.982H121.345C121.192 255.238 126.301 259.57 137.073 260.257C145.957 259.207 150.665 255.829 151.352 252.146C155.165 243.749 164.487 246.65 164.525 246.669L197.601 265.753L230.678 246.669C231.266 245.996 231.567 245.119 231.516 244.226V223.234C232.174 223.506 232.811 223.825 233.423 224.188C234.476 224.689 235.408 225.412 236.156 226.308C236.903 227.204 237.447 228.252 237.75 229.379C241.563 237.776 250.886 234.875 250.924 234.856L284 215.772V194.78L261.466 191.04Z" fill="url(#paint0_linear)"/>
<path d="M197.735 267.337L197.048 266.993L164.048 247.929C162.962 247.623 155.775 246.02 152.724 252.566C151.733 257.222 145.995 260.6 137.282 261.612C126.092 260.925 120.792 256.555 120.125 252.184V228.998L126.301 228.425L127.026 226.517L109.906 216.574V193.674L110.974 193.387L135.757 188.788C141.476 186.231 154.573 180.544 155.851 180.143C156.671 179.895 163.991 178.502 177.584 175.983L197.601 164.228L198.288 164.552L216.208 174.895L242.116 164.495L257.729 156.441L258.263 156.556L275.307 157.72V159.037V181.365C275.011 182.734 274.409 184.018 273.548 185.122C272.686 186.226 271.586 187.12 270.331 187.739C268.306 188.869 266.1 189.638 263.811 190.01L285.601 193.483V194.704V216.612L284.82 217.013L251.534 236.211C248.598 237.146 240.21 237.891 236.683 229.99V229.685C236.423 228.76 235.966 227.903 235.344 227.172C234.722 226.44 233.95 225.852 233.08 225.448V244.226C233.138 245.461 232.707 246.669 231.879 247.585L231.554 247.852L197.735 267.337ZM164.792 245.295H164.906L165.211 245.429L197.62 264.207L229.801 245.601C230.064 245.249 230.199 244.818 230.182 244.379V221.212L232.088 221.994C232.839 222.28 233.565 222.624 234.262 223.024C235.458 223.615 236.517 224.449 237.371 225.475C238.225 226.501 238.854 227.694 239.218 228.979C242.268 235.582 249.418 233.921 250.542 233.616L282.799 214.971V195.887L259.56 192.128L261.466 187.586H262.248C264.614 187.315 266.905 186.589 268.996 185.449C271.513 183.998 272.809 182.128 272.676 180.201L272.542 178.712H272.695V160.392L258.263 159.38L243.355 167.014L215.96 177.968L215.331 177.548L197.601 167.357L178.099 178.579C165.268 180.964 157.128 182.51 156.442 182.72C155.755 182.93 147.691 186.384 136.596 191.25L136.177 191.403L112.518 195.811V214.895L130.267 225.143L128.17 230.868L127.293 230.982L122.736 231.402V250.925C122.603 254.265 127.064 258.139 137.187 258.787C145.842 257.757 149.541 254.494 150.055 251.784L150.151 251.478C153.468 244.112 161.055 244.207 164.792 245.295Z" fill="#083C94"/>
<path d="M137.492 238.768V259.76L143.383 258.787L149.693 255.161L151.847 251.173L154.993 247.738L159.778 246.23H162.199V225.124H159.473L154.917 226.707L152.496 228.845L149.941 233.997L145.213 237.642L137.588 238.749L137.492 238.768Z" fill="#083C94"/>
<path d="M197.602 244.685V265.677L231.345 245.696L232.165 225.143L228.352 226.479L197.697 244.665L197.602 244.685Z" fill="#083C94"/>
<path d="M223.682 200.62V218.311L215.694 216.86L208.068 210.696L208.64 204.399L216.685 200.582H223.587L223.682 200.62Z" fill="#083C94"/>
<path d="M246.501 214.246V235.372L251.134 234.895L284.21 215.811V194.819L253.707 212.834L246.501 214.246Z" fill="#083C94"/>
<path d="M273.419 161.67L273.858 181.651L269.682 186.498L251.228 175.506L250.428 172.853L253.878 169.685L263.029 167.777L271.513 164.533L273.419 161.67Z" fill="#083C94"/>
<path d="M239.315 208.311H236.569V229.418H239.315V208.311Z" fill="#083C94"/>
<path d="M370.589 244.665L346.912 243.73L327.6 240.906L284.115 215.792L258.168 230.753H257.768L234.891 215.83L223.453 207.395L207.934 209.666V230.181C207.915 230.314 207.915 230.449 207.934 230.581V230.849C208.141 232.082 208.642 233.246 209.396 234.243C210.149 235.24 211.133 236.04 212.262 236.574C215.034 238.074 218.111 238.922 221.26 239.055C223.095 239.313 224.906 239.721 226.674 240.276L224.215 245.219L211.614 241.039L197.602 244.665V265.657L230.659 284.741C230.659 284.741 240.191 287.661 243.832 279.283C244.136 278.154 244.679 277.103 245.426 276.204C246.173 275.305 247.106 274.578 248.16 274.073C248.775 273.717 249.412 273.398 250.066 273.119V294.111C250.03 294.999 250.337 295.868 250.924 296.535L283.981 315.618L317.057 296.535C317.057 296.535 326.589 293.615 330.231 302.012C330.917 305.657 335.55 309.035 344.319 310.084C354.614 309.474 359.57 305.752 360.142 301.84V301.439C360.161 301.179 360.161 300.917 360.142 300.657V280.6H351.945L350.115 277.623L370.608 265.791V244.799L370.589 244.665Z" fill="#5243C2"/>
<path d="M370.589 244.665L346.912 243.73L327.6 240.906L284.115 215.792L258.168 230.753H257.768L234.891 215.83L223.453 207.395L207.934 209.666V230.181C207.915 230.314 207.915 230.449 207.934 230.581V230.849C208.141 232.082 208.642 233.246 209.396 234.243C210.149 235.24 211.133 236.04 212.262 236.574C215.034 238.074 218.111 238.922 221.26 239.055C223.095 239.313 224.906 239.721 226.674 240.276L224.215 245.219L211.614 241.039L197.602 244.665V265.657L230.659 284.741C230.659 284.741 240.191 287.661 243.832 279.283C244.136 278.154 244.679 277.103 245.426 276.204C246.173 275.305 247.106 274.578 248.16 274.073C248.775 273.717 249.412 273.398 250.066 273.119V294.111C250.03 294.999 250.337 295.868 250.924 296.535L283.981 315.618L317.057 296.535C317.057 296.535 326.589 293.615 330.231 302.012C330.917 305.657 335.55 309.035 344.319 310.084C354.614 309.474 359.57 305.752 360.142 301.84V301.439C360.161 301.179 360.161 300.917 360.142 300.657V280.6H351.945L350.115 277.623L370.608 265.791V244.799L370.589 244.665Z" fill="url(#paint1_linear)"/>
<path d="M284.172 317.336L283.391 317.012L250.009 297.546C249.584 297.072 249.259 296.516 249.052 295.913C248.846 295.31 248.763 294.671 248.808 294.035V275.39C247.945 275.81 247.181 276.411 246.57 277.152C245.958 277.893 245.512 278.756 245.262 279.684V279.989C241.678 288.005 233.1 287.127 230.392 286.192L196.229 266.574V243.673L197.297 243.387L211.328 239.57L211.843 239.704L223.453 243.52L224.654 241.078C223.454 240.774 222.238 240.532 221.013 240.352C217.673 240.217 214.411 239.309 211.481 237.7C209.23 236.549 207.509 234.574 206.677 232.185H206.448V230.811C206.428 230.569 206.428 230.327 206.448 230.085V208.483L207.63 208.254L223.72 205.945L235.73 214.666L258.035 229.246L284.115 214.189L284.84 214.628L328.058 239.608L347.122 242.375L371.905 243.406V244.704V266.497L371.276 266.936L352.022 278.081L352.803 279.188H361.649V300.791C361.668 301.083 361.668 301.376 361.649 301.668V303.405H361.268C359.723 308.042 353.642 311.039 344.472 311.611C335.645 310.561 329.964 307.203 328.973 302.584C325.942 296.001 318.774 297.642 317.649 297.947L284.172 317.336ZM251.916 295.638L284.096 314.245L316.791 295.39C320.451 294.264 328.23 294.111 331.623 301.611V301.917C332.119 304.607 335.76 307.832 344.529 308.901C354.29 308.31 358.389 304.703 358.847 301.802V301.42V281.936H351.221L348.209 277.184L369.179 264.99V246.02L346.493 245.066L326.914 242.089L284.096 217.395L258.436 232.185L257.006 231.86L234.129 216.918L223.053 208.769L209.212 210.792V230.715C209.411 231.721 209.845 232.665 210.478 233.471C211.111 234.276 211.925 234.921 212.853 235.353C215.444 236.755 218.319 237.551 221.261 237.681C223.201 237.935 225.115 238.363 226.98 238.959L228.486 239.456L224.807 246.879L223.625 246.517L211.405 242.471L198.918 245.734V265.104L231.174 283.73C232.261 284.035 239.429 285.734 242.498 279.092C242.851 277.806 243.474 276.609 244.326 275.582C245.177 274.556 246.237 273.723 247.436 273.138C248.134 272.742 248.86 272.397 249.609 272.108L251.515 271.344V294.245C251.481 294.742 251.623 295.235 251.916 295.638Z" fill="#083C94"/>
<path d="M337.532 263.787L370.57 244.703L284.115 194.666L250.981 213.788C250.981 213.788 241.449 216.707 237.808 208.311C237.121 204.608 232.394 201.231 223.491 200.2C207.439 201.192 203.645 210.524 212.052 215.467C214.823 216.974 217.9 217.829 221.05 217.967C235.615 220.143 230.583 225.6 230.583 225.6L197.602 244.627L230.64 263.711C230.64 263.711 240.172 266.63 243.813 258.234C244.499 254.55 249.227 251.154 258.13 250.123C274.182 251.115 277.976 260.447 269.473 265.39C266.701 266.89 263.624 267.738 260.475 267.871C245.91 270.046 250.943 275.504 250.943 275.504L284 294.588L317.076 275.504C317.076 275.504 326.608 272.585 330.25 280.981C330.936 284.684 335.645 288.061 344.548 289.092C360.6 288.1 364.375 278.768 355.872 273.825C353.101 272.318 350.024 271.464 346.874 271.325C332.461 269.226 337.532 263.787 337.532 263.787Z" fill="#5243C2"/>
<path d="M337.532 263.787L370.57 244.703L284.115 194.666L250.981 213.788C250.981 213.788 241.449 216.707 237.808 208.311C237.121 204.608 232.394 201.231 223.491 200.2C207.439 201.192 203.645 210.524 212.052 215.467C214.823 216.974 217.9 217.829 221.05 217.967C235.615 220.143 230.583 225.6 230.583 225.6L197.602 244.627L230.64 263.711C230.64 263.711 240.172 266.63 243.813 258.234C244.499 254.55 249.227 251.154 258.13 250.123C274.182 251.115 277.976 260.447 269.473 265.39C266.701 266.89 263.624 267.738 260.475 267.871C245.91 270.046 250.943 275.504 250.943 275.504L284 294.588L317.076 275.504C317.076 275.504 326.608 272.585 330.25 280.981C330.936 284.684 335.645 288.061 344.548 289.092C360.6 288.1 364.375 278.768 355.872 273.825C353.101 272.318 350.024 271.464 346.874 271.325C332.461 269.226 337.532 263.787 337.532 263.787Z" fill="url(#paint2_linear)"/>
<path d="M284.171 296.211L283.465 295.886L250.008 276.554C249.466 275.974 249.087 275.261 248.91 274.486C248.732 273.712 248.763 272.905 248.997 272.146C249.951 269.436 253.63 267.642 260.283 266.65C263.264 266.535 266.179 265.738 268.805 264.322C271.588 262.7 272.923 260.505 272.427 258.482C271.779 255.715 267.661 252.261 258.186 251.65C249.36 252.7 245.68 255.944 245.185 258.635V258.94C241.829 266.574 234.013 266.326 230.353 265.181L230.067 265.047L196.285 245.505V243.921L196.952 243.482L229.819 224.399C229.991 224.189 230.11 223.94 230.167 223.675C230.223 223.409 230.215 223.134 230.143 222.872C229.876 222.147 228.446 220.315 221.049 219.208C217.709 219.066 214.446 218.151 211.517 216.536C207.705 214.303 205.798 211.002 206.58 207.7C207.495 203.884 212.299 199.437 223.432 198.75C232.393 199.762 238.169 203.139 239.141 207.815C242.192 214.399 249.36 212.739 250.465 212.433L284.114 193.063L284.838 193.502L371.942 243.845V245.429L371.275 245.849L338.427 264.932C338.257 265.143 338.138 265.391 338.082 265.657C338.026 265.922 338.033 266.197 338.103 266.459C338.37 267.184 339.781 269.016 347.197 270.123C350.537 270.268 353.799 271.182 356.729 272.795C360.542 275.028 362.448 278.329 361.647 281.631C360.751 285.447 355.833 289.894 344.795 290.581C335.835 289.57 330.077 286.192 329.086 281.516C326.055 274.951 318.887 276.593 317.762 276.898L284.171 296.211ZM251.914 274.493L284.095 293.081L316.751 274.245C319.687 273.272 328.056 272.49 331.621 280.467V280.772C332.117 283.482 335.815 286.745 344.718 287.776C354.041 287.184 358.197 283.711 358.845 280.925C359.341 278.825 358.025 276.707 355.223 275.085C352.642 273.678 349.771 272.888 346.835 272.776C340.067 271.764 336.368 269.971 335.396 267.261C335.165 266.502 335.137 265.695 335.314 264.922C335.491 264.148 335.868 263.435 336.406 262.852L336.712 262.604L367.748 244.666L284.095 196.25L251.419 215.086C247.758 216.231 239.98 216.422 236.587 208.865V208.559C236.091 205.849 232.374 202.586 223.471 201.555C214.148 202.166 209.992 205.62 209.344 208.407C208.848 210.506 210.183 212.624 212.966 214.246C215.555 215.65 218.431 216.44 221.374 216.555C228.141 217.567 231.821 219.361 232.812 222.07C233.043 222.83 233.071 223.636 232.894 224.41C232.717 225.183 232.34 225.896 231.802 226.479L231.478 226.727L200.441 244.666L231.344 262.528C232.431 262.814 239.599 264.436 242.668 257.891C243.64 253.272 249.302 249.914 257.919 248.864H258.244C269.377 249.551 274.276 253.94 275.192 257.814C275.973 261.135 274.124 264.436 270.254 266.669C267.321 268.274 264.061 269.188 260.722 269.341C253.401 270.429 252.01 272.28 251.743 273.024C251.659 273.266 251.631 273.524 251.66 273.778C251.69 274.033 251.777 274.277 251.914 274.493Z" fill="#083C94"/>
<path d="M284.306 294.684V315.676L312.444 299.455L318.354 296.382V275.39L284.325 294.665L284.306 294.684Z" fill="#083C94"/>
<path d="M340.583 288.329V309.321L352.021 308.901L360.028 303.176L360.447 298.272V283.463L354.213 287.68L347.141 289.245L340.563 288.348C340.563 288.348 340.583 288.31 340.583 288.329Z" fill="#083C94"/>
<path d="M339.515 269.264L349.542 271.669L356.196 273.902L370.78 265.791V244.799L344.09 260.218L338.371 263.558L336.96 265.925L337.837 268.081L339.515 269.264Z" fill="#083C94"/>
<path d="M256.834 249.837L254.927 250.753L249.341 252.662L245.529 255.219L243.355 259.723L241.887 262.432L237.217 264.551L232.984 264.188V285.18L240.362 283.768L245.452 276.554L249.551 273.596L251 271.688L256.719 268.864L256.834 249.837Z" fill="#083C94"/>
<path d="M332.995 283.405H330.25V304.817H332.995V283.405Z" fill="#083C94"/>
<path d="M222.481 217.357H219.735V231.307H222.481V217.357Z" fill="#083C94"/>
<path d="M258.244 150.201C249.341 151.232 244.632 154.61 243.946 158.312C240.133 166.709 230.81 163.789 230.772 163.789L197.696 144.705L111.202 194.628L144.221 213.788C144.221 213.788 149.311 219.227 134.689 221.422C128.322 221.822 122.45 224.532 120.658 229.685C122.393 238.96 138.521 241.135 147.024 236.231C148.078 235.729 149.009 235.003 149.754 234.103C150.498 233.203 151.037 232.151 151.332 231.021C155.145 222.624 164.467 225.525 164.505 225.544L197.601 244.666L230.677 225.582C230.677 225.582 235.748 220.143 221.145 217.948C214.911 217.529 209.039 214.819 207.266 209.761C209.001 200.487 225.11 198.311 233.613 203.235C234.668 203.733 235.601 204.456 236.349 205.352C237.096 206.249 237.639 207.298 237.94 208.426C241.753 216.822 251.076 213.922 251.114 213.903L284.152 194.819L251.114 175.735C251.114 175.735 246.024 170.296 260.646 168.102C263.796 167.963 266.873 167.108 269.644 165.602C278.147 160.697 274.372 151.365 258.206 150.335L258.244 150.201Z" fill="white"/>
<path d="M197.735 246.211L197.048 245.887L164.048 226.803C162.943 226.497 155.775 224.894 152.724 231.421C152.371 232.71 151.749 233.909 150.897 234.939C150.046 235.969 148.986 236.806 147.787 237.394C144.5 239.057 140.89 239.984 137.21 240.109C133.529 240.234 129.865 239.555 126.473 238.119C124.718 237.439 123.158 236.336 121.931 234.908C120.704 233.48 119.848 231.771 119.438 229.933V229.475V229.055C121.345 223.94 127.064 220.505 134.69 220.028C142.01 218.94 143.402 217.108 143.669 216.364C143.73 216.104 143.733 215.834 143.677 215.574C143.621 215.313 143.507 215.068 143.345 214.856L109.906 195.506V193.922L110.573 193.483L197.697 143.063L198.421 143.502L231.307 162.586C232.393 162.891 239.561 164.494 242.631 157.968C243.622 153.292 249.379 149.915 258.092 148.903H258.244C269.378 149.59 274.296 153.979 275.192 157.853C275.974 161.155 274.125 164.456 270.274 166.689C267.34 168.295 264.081 169.215 260.742 169.38C253.44 170.468 252.029 172.3 251.781 173.044C251.713 173.302 251.705 173.572 251.758 173.833C251.811 174.095 251.923 174.341 252.087 174.552L285.525 193.845V195.429L284.858 195.849L251.534 215.085C248.598 216.04 240.21 216.784 236.683 208.864V208.559C236.418 207.626 235.953 206.762 235.321 206.027C234.689 205.292 233.905 204.704 233.022 204.303C230.119 202.86 226.94 202.058 223.7 201.953C220.46 201.847 217.235 202.441 214.244 203.692C212.949 204.191 211.783 204.977 210.835 205.992C209.888 207.007 209.182 208.224 208.773 209.551C210.679 214.265 216.532 216.25 221.47 216.574C228.237 217.566 231.917 219.36 232.908 222.07C233.143 222.829 233.173 223.636 232.996 224.41C232.818 225.185 232.439 225.898 231.898 226.478L231.593 226.726L197.735 246.211ZM160.941 223.654C162.317 223.645 163.686 223.845 165.002 224.246L165.288 224.36L197.697 243.081L229.877 224.494C230.046 224.282 230.164 224.034 230.22 223.769C230.276 223.504 230.27 223.229 230.201 222.967C229.934 222.223 228.523 220.391 221.107 219.284C213.482 218.826 207.762 215.467 205.989 210.124L205.818 209.647L206.009 209.15C206.439 207.353 207.303 205.689 208.527 204.305C209.75 202.92 211.294 201.858 213.024 201.212C216.41 199.768 220.071 199.083 223.749 199.205C227.428 199.327 231.035 200.253 234.319 201.918C235.51 202.508 236.564 203.341 237.414 204.363C238.265 205.385 238.892 206.574 239.256 207.853C242.307 214.437 249.456 212.776 250.58 212.471L281.483 194.666L250.104 176.479C249.562 175.899 249.182 175.186 249.001 174.412C248.821 173.639 248.846 172.831 249.074 172.071C250.009 169.361 253.707 167.567 260.341 166.575C263.322 166.462 266.238 165.665 268.863 164.246C271.665 162.624 272.981 160.43 272.485 158.407C271.837 155.64 267.719 152.185 258.244 151.575C249.437 152.624 245.757 155.869 245.242 158.559V158.865C241.754 166.67 233.537 166.059 230.601 165.162H230.487L230.182 165.01L197.601 146.25L113.891 194.666L145.251 212.853C145.786 213.437 146.161 214.151 146.338 214.923C146.515 215.696 146.489 216.501 146.262 217.261C145.308 219.971 141.61 221.765 134.976 222.757C129.885 223.12 123.976 225.028 122.126 229.837C122.56 231.142 123.28 232.334 124.233 233.325C125.186 234.315 126.349 235.08 127.636 235.562C130.626 236.818 133.851 237.413 137.092 237.308C140.332 237.202 143.512 236.399 146.414 234.952C147.287 234.553 148.066 233.972 148.697 233.248C149.328 232.524 149.798 231.673 150.074 230.753L150.17 230.448C151.063 228.354 152.572 226.582 154.496 225.368C156.42 224.154 158.669 223.557 160.941 223.654Z" fill="#083C94"/>
<path d="M318.677 141.499L266.232 134.037V112.606L256.071 106.881L228.618 100.488L158.424 139.018L152.057 141.499H145.651V162.491L178.728 181.575C178.728 181.575 188.26 184.495 191.901 176.098C192.198 174.971 192.737 173.922 193.481 173.025C194.226 172.129 195.157 171.406 196.209 170.907C196.825 170.551 197.462 170.232 198.116 169.953V190.945C198.097 191.059 198.097 191.175 198.116 191.289C198.203 191.993 198.494 192.657 198.955 193.197L232.031 212.281L265.088 193.197C265.088 193.197 274.62 190.277 278.261 198.674C278.948 202.357 283.657 205.754 292.54 206.785C303.026 206.136 308.23 201.975 308.287 197.777V176.861L298.012 174.59L318.506 162.739V141.747C318.506 141.747 318.696 141.499 318.677 141.499Z" fill="#5243C2"/>
<path d="M318.677 141.499L266.232 134.037V112.606L256.071 106.881L228.618 100.488L158.424 139.018L152.057 141.499H145.651V162.491L178.728 181.575C178.728 181.575 188.26 184.495 191.901 176.098C192.198 174.971 192.737 173.922 193.481 173.025C194.226 172.129 195.157 171.406 196.209 170.907C196.825 170.551 197.462 170.232 198.116 169.953V190.945C198.097 191.059 198.097 191.175 198.116 191.289C198.203 191.993 198.494 192.657 198.955 193.197L232.031 212.281L265.088 193.197C265.088 193.197 274.62 190.277 278.261 198.674C278.948 202.357 283.657 205.754 292.54 206.785C303.026 206.136 308.23 201.975 308.287 197.777V176.861L298.012 174.59L318.506 162.739V141.747C318.506 141.747 318.696 141.499 318.677 141.499Z" fill="url(#paint3_linear)"/>
<path d="M232.164 214.227L231.44 213.788L198.078 194.495C197.389 193.697 196.969 192.702 196.877 191.651C196.877 191.327 196.877 191.174 196.877 191.021V172.3C196.008 172.705 195.235 173.29 194.611 174.017C193.986 174.745 193.524 175.597 193.255 176.518V176.823C189.88 184.361 182.083 184.208 178.404 183.063L178.137 182.93L144.222 163.426V140.163H151.847L157.967 137.759L228.504 99.0188L229.095 99.2096L256.528 105.507L256.795 105.774L267.509 111.824V132.816L320.069 140.221V163.369L319.402 163.789L301.844 173.941L309.832 175.735V176.861V197.987C309.832 202.395 305.256 207.681 292.674 208.464C283.733 207.433 277.976 204.056 276.984 199.399C273.953 192.815 266.785 194.476 265.679 194.781L232.164 214.227ZM200.003 192.453L232.184 211.04L264.859 192.205C268.52 191.06 276.298 190.869 279.691 198.426V198.731C280.187 201.441 283.905 204.685 292.788 205.735C302.435 205.105 306.972 201.327 307.029 198.101V177.93L296.868 175.678L296.582 173.77L317.229 161.823V142.74L264.764 135.221V113.408L255.442 108.16L228.752 101.939L159.092 140.221L152.057 142.969H147.024V161.938L179.281 180.564C180.367 180.869 187.554 182.567 190.605 175.945C190.958 174.656 191.58 173.457 192.432 172.427C193.283 171.397 194.343 170.56 195.542 169.972C196.245 169.589 196.971 169.251 197.716 168.961L199.622 168.178V191.441C199.66 191.806 199.791 192.154 200.003 192.453Z" fill="#083C94"/>
<path d="M241.754 126.499C243.546 121.366 249.38 118.637 255.785 118.236C270.35 116.079 265.317 110.602 265.317 110.602L232.203 91.4424L145.709 141.48L178.747 160.564C178.747 160.564 188.279 163.483 191.92 155.087C192.607 151.384 197.316 148.007 206.219 146.976C222.29 147.968 226.064 157.3 217.562 162.243C214.791 163.749 211.714 164.604 208.563 164.743C193.998 166.899 199.031 172.376 199.031 172.376L232.108 191.46L265.165 172.376C265.165 172.376 274.697 169.457 278.338 177.853C279.024 181.537 283.752 184.933 292.636 185.964C308.688 184.972 312.482 175.64 303.96 170.697C301.196 169.195 298.124 168.346 294.981 168.216C280.416 166.041 285.449 160.583 285.449 160.583L318.487 141.499L285.468 122.415C285.468 122.415 276.05 119.515 272.295 127.892C272.011 129.001 271.494 130.037 270.777 130.929C270.06 131.821 269.16 132.549 268.139 133.064C259.636 137.968 243.508 135.793 241.773 126.518L241.754 126.499Z" fill="white"/>
<path d="M232.164 193.102L231.44 192.586L198.078 173.331C197.543 172.747 197.169 172.032 196.996 171.259C196.822 170.485 196.853 169.68 197.086 168.922C198.021 166.213 201.719 164.419 208.353 163.426C211.334 163.314 214.25 162.517 216.875 161.098C219.677 159.476 220.993 157.281 220.497 155.259C219.849 152.472 215.693 148.999 206.142 148.408C197.468 149.438 193.769 152.701 193.254 155.411V155.717C189.003 165.049 178.785 162.052 178.346 162.052L178.06 161.919L144.336 142.339V140.755L145.003 140.316L232.107 89.9541L232.813 90.2785L266.232 109.687C266.77 110.269 267.147 110.983 267.324 111.756C267.502 112.529 267.473 113.336 267.242 114.095C266.289 116.805 262.591 118.618 255.956 119.591C250.981 119.916 245.033 121.977 243.164 126.633C243.587 127.954 244.3 129.164 245.25 130.175C246.199 131.185 247.363 131.97 248.655 132.473C251.644 133.727 254.868 134.324 258.108 134.222C261.348 134.12 264.528 133.321 267.433 131.881C268.304 131.483 269.08 130.905 269.711 130.184C270.342 129.464 270.813 128.618 271.093 127.702V127.396C274.449 119.858 282.265 120.03 285.925 121.175L286.192 121.29L319.917 140.793V142.358L319.268 142.797L286.402 161.881C286.231 162.091 286.113 162.34 286.057 162.605C286 162.87 286.007 163.145 286.078 163.407C286.345 164.152 287.774 165.984 295.171 167.09C298.511 167.226 301.773 168.134 304.703 169.743C308.516 171.976 310.423 175.277 309.641 178.579C308.726 182.396 303.922 186.861 292.769 187.548H292.407H292.293C283.714 186.499 278.052 183.14 277.041 178.522C274.01 171.919 266.842 173.579 265.736 173.884L232.164 193.102ZM199.984 171.327L232.183 189.934L264.821 171.098C267.757 170.106 276.126 169.323 279.691 177.319V177.625C280.187 180.315 283.866 183.56 292.712 184.609C302.13 183.999 306.286 180.544 306.934 177.777C307.43 175.678 306.095 173.541 303.312 171.938C300.743 170.576 297.903 169.807 295 169.686C288.232 168.693 284.553 166.9 283.561 164.19C283.326 163.431 283.296 162.624 283.474 161.849C283.651 161.075 284.03 160.362 284.572 159.781L284.896 159.514L315.913 141.595L285.029 123.732C283.981 123.446 276.774 121.824 273.705 128.37C273.352 129.656 272.729 130.853 271.878 131.88C271.026 132.906 269.966 133.739 268.768 134.324C265.484 135.986 261.878 136.913 258.2 137.038C254.522 137.163 250.862 136.484 247.473 135.049C245.705 134.375 244.132 133.272 242.894 131.84C241.657 130.408 240.793 128.691 240.381 126.843V126.461L240.495 126.118C242.402 120.851 248.121 117.435 255.747 116.958C263.029 115.851 264.459 114.019 264.726 113.293C264.796 113.031 264.803 112.757 264.747 112.491C264.691 112.226 264.572 111.978 264.402 111.767L232.183 93.0838L148.397 141.518L179.28 159.362C180.405 159.667 187.554 161.27 190.605 154.743C191.596 150.068 197.353 146.69 206.066 145.679C217.352 146.366 222.27 150.755 223.223 154.629C224.005 157.93 222.156 161.232 218.305 163.465C215.371 165.071 212.112 165.991 208.773 166.155C201.49 167.243 200.079 169.075 199.813 169.8C199.721 170.051 199.689 170.319 199.718 170.584C199.748 170.849 199.839 171.103 199.984 171.327Z" fill="#083C94"/>
<path d="M232.184 191.536V212.528L260.322 196.403L266.232 193.292V172.3L232.203 191.498C232.203 191.498 232.184 191.517 232.184 191.536Z" fill="#083C94"/>
<path d="M288.519 185.182V206.174L299.957 205.773L307.983 200.048L308.421 195.143V180.296L302.188 184.514L295.134 186.059L288.557 185.162L288.519 185.182Z" fill="#083C94"/>
<path d="M287.393 166.098L297.402 168.502L304.074 170.735L318.658 162.624V141.632L291.968 157.052L286.249 160.392L284.819 162.777L285.696 164.914L287.393 166.098Z" fill="#083C94"/>
<path d="M204.694 146.594L202.788 147.51L197.202 149.418L193.389 151.976L191.197 156.479L189.71 159.208L185.058 161.327L180.807 160.945V181.937L188.165 180.525L193.313 173.502L197.411 170.525L198.86 168.617L204.58 165.773L204.694 146.594Z" fill="#083C94"/>
<path d="M266.118 115.64V133.999L261.257 135.335L250.352 134.571L243.909 130.755L242.612 125.583L245.872 121.461L253.364 118.656L261.734 117.339L266.004 113.713L266.118 115.64Z" fill="#083C94"/>
<path d="M280.874 180.239H278.129V201.65H280.874V180.239Z" fill="#083C94"/>
<path d="M187.307 75.3928C186.992 75.3941 186.681 75.461 186.394 75.5892C186.106 75.7174 185.848 75.9041 185.637 76.1374C185.425 76.3708 185.264 76.6457 185.165 76.9446C185.065 77.2435 185.028 77.5599 185.058 77.8737L191.73 111.461C191.73 115.488 195.657 119.514 203.512 121.461C207.894 122.542 212.474 122.542 216.857 121.461C224.711 119.553 228.638 115.488 228.638 111.461L235.311 77.8737C235.34 77.5599 235.303 77.2435 235.204 76.9446C235.104 76.6457 234.943 76.3708 234.732 76.1374C234.52 75.9041 234.262 75.7174 233.975 75.5892C233.687 75.461 233.376 75.3941 233.061 75.3928H187.307Z" fill="#5243C2"/>
<path d="M187.307 75.3928C186.992 75.3941 186.681 75.461 186.394 75.5892C186.106 75.7174 185.848 75.9041 185.637 76.1374C185.425 76.3708 185.264 76.6457 185.165 76.9446C185.065 77.2435 185.028 77.5599 185.058 77.8737L191.73 111.461C191.73 115.488 195.657 119.514 203.512 121.461C207.894 122.542 212.474 122.542 216.857 121.461C224.711 119.553 228.638 115.488 228.638 111.461L235.311 77.8737C235.34 77.5599 235.303 77.2435 235.204 76.9446C235.104 76.6457 234.943 76.3708 234.732 76.1374C234.52 75.9041 234.262 75.7174 233.975 75.5892C233.687 75.461 233.376 75.3941 233.061 75.3928H187.307Z" fill="url(#paint4_linear)"/>
<path d="M210.145 124.056C207.768 124.058 205.399 123.769 203.092 123.198C195.066 121.289 190.052 116.805 189.937 111.652L183.303 78.2364C183.219 77.6499 183.261 77.0523 183.425 76.4831C183.589 75.9139 183.873 75.3862 184.256 74.935C184.636 74.5189 185.098 74.1868 185.614 73.9601C186.129 73.7333 186.686 73.6169 187.249 73.6182H233.003C233.566 73.6169 234.123 73.7333 234.639 73.9601C235.154 74.1868 235.616 74.5189 235.996 74.935C236.375 75.3603 236.66 75.8601 236.834 76.4024C237.008 76.9447 237.067 77.5174 237.007 78.0838L230.353 111.671C230.239 116.824 225.225 121.213 217.199 123.217C214.891 123.782 212.522 124.064 210.145 124.056ZM187.306 77.1868C187.239 77.1837 187.171 77.1958 187.108 77.2222C187.045 77.2487 186.989 77.2887 186.944 77.3395C186.901 77.3889 186.869 77.4465 186.849 77.5089C186.83 77.5713 186.823 77.637 186.83 77.7021L193.502 111.461C193.502 114.915 197.601 118.16 203.93 119.743C208.014 120.736 212.276 120.736 216.36 119.743C222.689 118.16 226.788 114.915 226.788 111.461V111.118L233.461 77.5303C233.403 77.4729 233.351 77.4088 233.308 77.3395C233.263 77.2887 233.207 77.2487 233.144 77.2222C233.082 77.1958 233.014 77.1837 232.946 77.1868H187.306Z" fill="#083C94"/>
<path d="M232.984 75.5074H221.031L215.083 89.8775L213.577 122.167C214.656 122.035 215.725 121.837 216.78 121.576C224.634 119.667 228.562 115.602 228.562 111.576L235.234 78.0837C235.281 77.762 235.257 77.4339 235.166 77.1221C235.074 76.8102 234.915 76.522 234.702 76.2772C234.488 76.0324 234.224 75.8369 233.927 75.704C233.631 75.5711 233.309 75.5041 232.984 75.5074Z" fill="#083C94"/>
<path d="M211.689 124.19L213.443 89.1905L219.849 73.7136H232.984C233.541 73.7173 234.091 73.8355 234.6 74.0609C235.109 74.2863 235.566 74.6141 235.944 75.024C236.321 75.4338 236.61 75.9169 236.793 76.4433C236.976 76.9697 237.048 77.5281 237.007 78.0838L230.353 111.767C230.239 116.919 225.225 121.308 217.199 123.217C216.078 123.509 214.938 123.719 213.787 123.847L211.689 124.19ZM216.856 90.2592L215.445 120.068L216.341 119.858C222.689 118.293 226.788 115.049 226.788 111.595V111.251L233.461 77.664C233.461 77.664 233.461 77.5304 233.308 77.4731C233.264 77.4199 233.209 77.3769 233.146 77.3473C233.083 77.3176 233.015 77.3019 232.946 77.3014H222.232L216.856 90.2592Z" fill="#083C94"/>
<path d="M228.103 65.0496C237.998 70.7747 237.998 80.0303 228.103 85.7554C218.209 91.4806 202.157 91.4806 192.263 85.7554C182.368 80.0303 182.349 70.7556 192.225 65.0496C202.1 59.3436 218.171 59.3245 228.103 65.0496Z" fill="#5243C2"/>
<path d="M228.103 65.0496C237.998 70.7747 237.998 80.0303 228.103 85.7554C218.209 91.4806 202.157 91.4806 192.263 85.7554C182.368 80.0303 182.349 70.7556 192.225 65.0496C202.1 59.3436 218.171 59.3245 228.103 65.0496Z" fill="url(#paint5_linear)"/>
<path d="M210.145 91.7861C203.594 91.918 197.117 90.3744 191.329 87.3014C185.972 84.1908 183.017 79.9924 183.017 75.3932C183.017 70.794 185.972 66.6338 191.329 63.5041C201.699 57.4927 218.571 57.5118 228.961 63.5041C234.318 66.6338 237.273 70.8131 237.273 75.3932C237.273 79.9733 234.318 84.1908 228.961 87.3014C223.172 90.3744 216.696 91.918 210.145 91.7861ZM210.145 62.5117C204.212 62.4125 198.352 63.8314 193.121 66.6338C188.907 69.0765 186.582 72.2062 186.582 75.4505C186.582 78.6947 188.907 81.8244 193.121 84.2671C202.5 89.6869 217.79 89.6869 227.169 84.2671C231.382 81.8244 233.708 78.6947 233.708 75.4505C233.708 72.2062 231.382 69.0193 227.169 66.6338C221.937 63.8314 216.078 62.4125 210.145 62.5117Z" fill="#083C94"/>
<path d="M202.787 61.2327C199.086 61.8086 195.512 63.0225 192.225 64.8204C182.331 70.5455 182.331 79.8011 192.225 85.5262C196.346 87.7839 200.89 89.1615 205.57 89.572L202.787 61.2327Z" fill="#083C94"/>
<path d="M207.571 91.5757L205.398 91.4421C200.465 90.9988 195.676 89.5436 191.329 87.1674C185.972 84.0758 183.017 79.8392 183.017 75.2591C183.017 70.679 185.972 66.4615 191.329 63.37C194.798 61.4634 198.571 60.1721 202.481 59.5532L204.387 59.2097L207.571 91.5757ZM201.204 63.3509C198.373 63.9424 195.648 64.959 193.121 66.3661C188.907 68.7897 186.582 71.9195 186.582 75.1637C186.582 78.4079 188.907 81.5567 193.121 83.9804C196.369 85.7764 199.915 86.9723 203.587 87.5109L201.204 63.3509Z" fill="#083C94"/>
<path d="M195.695 77.5495L203.988 73.8664C204.546 73.6378 205.024 73.2499 205.363 72.751C205.702 72.2521 205.887 71.6644 205.894 71.061C205.892 70.5929 205.996 70.1305 206.2 69.709C206.403 69.2875 206.7 68.9181 207.068 68.6291C207.436 68.34 207.865 68.1389 208.322 68.0412C208.78 67.9434 209.253 67.9515 209.707 68.0649L216.665 69.6298C217.25 69.7607 217.783 70.0599 218.2 70.4906C218.617 70.9212 218.898 71.4645 219.01 72.0534L219.811 76.4427C219.925 77.0565 220.224 77.6209 220.666 78.0607C221.109 78.5005 221.675 78.7948 222.289 78.9045L224.196 79.248C224.904 79.3702 225.546 79.7405 226.007 80.2928C226.468 80.8451 226.718 81.5435 226.712 82.2632V82.8739C226.72 83.4855 226.542 84.085 226.201 84.5928C225.861 85.1007 225.374 85.4929 224.806 85.7173C220.036 87.5934 214.893 88.3221 209.79 87.8448C204.687 87.3675 199.768 85.6975 195.428 82.9693C194.95 82.6837 194.558 82.2731 194.295 81.7816C194.031 81.29 193.907 80.7361 193.934 80.1791C193.962 79.6221 194.14 79.0831 194.45 78.6199C194.76 78.1566 195.191 77.7866 195.695 77.5495Z" fill="white"/>
<path d="M212.566 89.782C206.135 89.7821 199.837 87.9413 194.417 84.4767C193.669 84.0107 193.061 83.35 192.659 82.5651C192.257 81.7802 192.076 80.9007 192.135 80.0207C192.194 79.1407 192.49 78.2931 192.993 77.5688C193.496 76.8444 194.185 76.2704 194.989 75.9082L203.32 72.225C203.544 72.1246 203.733 71.9609 203.865 71.7541C203.997 71.5473 204.066 71.3064 204.063 71.0609C204.063 70.3352 204.226 69.6187 204.539 68.9643C204.853 68.3099 205.309 67.7344 205.875 67.2801C206.44 66.8258 207.1 66.5045 207.806 66.3397C208.512 66.1749 209.246 66.171 209.954 66.3281L216.97 67.893C217.911 68.0815 218.775 68.5445 219.453 69.2237C220.132 69.9029 220.594 70.7679 220.783 71.7097L221.469 76.1753C221.518 76.4305 221.642 76.6652 221.825 76.8489C222.009 77.0326 222.243 77.157 222.498 77.2059L224.405 77.5494C225.529 77.7396 226.549 78.324 227.283 79.198C228.016 80.0721 228.415 81.1788 228.408 82.3203V82.931C228.415 83.905 228.124 84.8579 227.576 85.6626C227.028 86.4673 226.247 87.0855 225.339 87.4347C221.261 88.9938 216.931 89.7894 212.566 89.782ZM196.438 79.1715C196.224 79.2672 196.041 79.4188 195.907 79.6102C195.772 79.8017 195.692 80.026 195.675 80.2592C195.663 80.4976 195.715 80.7349 195.826 80.9463C195.936 81.1578 196.102 81.3357 196.304 81.4615C200.407 84.044 205.058 85.6244 209.883 86.0753C214.708 86.5261 219.572 85.8347 224.081 84.0569C224.32 83.9664 224.525 83.8042 224.668 83.5923C224.812 83.3805 224.886 83.1295 224.881 82.8737V82.263C224.886 81.9624 224.782 81.6701 224.59 81.4391C224.397 81.2081 224.129 81.0536 223.833 81.0035L221.926 80.66C220.967 80.4872 220.08 80.0317 219.381 79.3518C218.681 78.6719 218.2 77.7984 217.999 76.8433L217.16 72.3586C217.113 72.1109 216.994 71.8828 216.817 71.7028C216.641 71.5229 216.415 71.3991 216.169 71.3472L209.172 69.7823C208.983 69.7414 208.787 69.7441 208.598 69.7904C208.41 69.8367 208.235 69.9253 208.086 70.0495C207.935 70.167 207.814 70.3177 207.731 70.4898C207.649 70.6619 207.607 70.8508 207.609 71.0418C207.609 71.9794 207.336 72.8967 206.825 73.6826C206.314 74.4684 205.587 75.089 204.731 75.4692L196.438 79.1715Z" fill="#083C94"/>
<path d="M204.198 78.5989C207.104 78.5989 209.46 76.2407 209.46 73.3318C209.46 70.4229 207.104 68.0647 204.198 68.0647C201.292 68.0647 198.937 70.4229 198.937 73.3318C198.937 76.2407 201.292 78.5989 204.198 78.5989Z" fill="white"/>
<path d="M204.197 80.3736C202.805 80.3736 201.445 79.9606 200.289 79.1868C199.132 78.413 198.23 77.3132 197.698 76.0265C197.165 74.7398 197.026 73.3239 197.297 71.9579C197.569 70.5919 198.239 69.3371 199.223 68.3523C200.206 67.3675 201.46 66.6968 202.824 66.4251C204.189 66.1534 205.603 66.2928 206.889 66.8258C208.174 67.3588 209.273 68.2614 210.046 69.4194C210.819 70.5775 211.231 71.9389 211.231 73.3317C211.226 75.1978 210.484 76.986 209.165 78.3055C207.847 79.625 206.061 80.3685 204.197 80.3736ZM204.197 69.8585C203.511 69.8585 202.84 70.0622 202.269 70.4438C201.699 70.8254 201.254 71.3679 200.991 72.0025C200.729 72.6372 200.66 73.3355 200.794 74.0093C200.928 74.683 201.258 75.3019 201.743 75.7876C202.229 76.2734 202.847 76.6042 203.52 76.7382C204.193 76.8722 204.891 76.8034 205.525 76.5405C206.159 76.2777 206.7 75.8325 207.082 75.2613C207.463 74.6901 207.666 74.0186 207.666 73.3317C207.666 72.4105 207.301 71.5271 206.65 70.8757C206 70.2244 205.117 69.8585 204.197 69.8585Z" fill="#083C94"/>
<path d="M225.321 83.9803C228.258 83.9803 230.64 81.5965 230.64 78.6559C230.64 75.7153 228.258 73.3315 225.321 73.3315C222.383 73.3315 220.002 75.7153 220.002 78.6559C220.002 81.5965 222.383 83.9803 225.321 83.9803Z" fill="white"/>
<path d="M225.32 85.7174C223.914 85.7174 222.539 85.2999 221.369 84.5178C220.2 83.7356 219.288 82.6239 218.75 81.3232C218.212 80.0225 218.071 78.5913 218.346 77.2105C218.62 75.8297 219.297 74.5613 220.292 73.5658C221.286 72.5703 222.553 71.8924 223.933 71.6177C225.312 71.3431 226.742 71.484 228.041 72.0228C229.34 72.5616 230.451 73.4739 231.232 74.6445C232.014 75.8151 232.431 77.1913 232.431 78.5992C232.431 80.4871 231.682 82.2976 230.348 83.6325C229.015 84.9675 227.206 85.7174 225.32 85.7174ZM225.32 75.0496C224.621 75.0497 223.938 75.2565 223.356 75.6441C222.774 76.0316 222.32 76.5827 222.05 77.2279C221.78 77.8732 221.706 78.5839 221.839 79.2709C221.971 79.9578 222.303 80.5903 222.793 81.089C223.283 81.5876 223.91 81.9301 224.594 82.0734C225.278 82.2168 225.989 82.1546 226.638 81.8947C227.287 81.6348 227.844 81.1888 228.241 80.6126C228.637 80.0365 228.855 79.3559 228.866 78.6564C228.866 78.1903 228.774 77.7287 228.596 77.2981C228.418 76.8674 228.157 76.4761 227.827 76.1465C227.498 75.8169 227.107 75.5554 226.677 75.3771C226.247 75.1987 225.786 75.1069 225.32 75.1069V75.0496Z" fill="#083C94"/>
<path d="M330.536 244.436L303.789 229.475L329.011 214.895L355.758 229.856L330.536 244.436Z" fill="white"/>
<path d="M330.554 246.478L300.166 229.494L328.991 212.834L359.379 229.837L330.554 246.478ZM307.391 229.437L330.535 242.394L352.154 229.875L329.029 216.937L307.391 229.437Z" fill="#083C94"/>
<path d="M291.892 225.505C291.743 225.507 291.595 225.54 291.459 225.602C291.323 225.664 291.201 225.753 291.101 225.864C291 225.975 290.924 226.106 290.877 226.247C290.829 226.389 290.811 226.54 290.825 226.689L293.989 242.624C293.989 244.532 295.896 246.44 299.575 247.356C301.64 247.872 303.801 247.872 305.866 247.356C309.679 246.44 311.471 244.532 311.471 242.624L314.617 226.689C314.636 226.54 314.623 226.389 314.579 226.246C314.534 226.103 314.46 225.971 314.361 225.858C314.262 225.746 314.139 225.657 314.003 225.596C313.866 225.535 313.718 225.504 313.568 225.505H291.892Z" fill="white"/>
<path d="M302.721 249.513C301.52 249.517 300.323 249.376 299.156 249.093C294.904 248.043 292.331 245.696 292.216 242.814L289.109 227.032C289.039 226.625 289.06 226.207 289.169 225.809C289.278 225.41 289.473 225.041 289.74 224.726C290.007 224.411 290.34 224.159 290.715 223.987C291.09 223.815 291.499 223.727 291.911 223.731H313.587C313.985 223.733 314.378 223.817 314.743 223.978C315.107 224.138 315.434 224.373 315.703 224.666C315.969 224.965 316.169 225.316 316.291 225.698C316.412 226.079 316.452 226.482 316.409 226.879L313.263 242.814C313.149 245.696 310.575 248.043 306.324 249.093C305.144 249.376 303.934 249.517 302.721 249.513ZM292.75 227.299L295.781 242.566C295.781 243.539 297.078 244.837 300.014 245.562C301.798 245.999 303.662 245.999 305.447 245.562C308.364 244.837 309.679 243.539 309.679 242.566V242.204L312.653 227.242L292.75 227.299Z" fill="#083C94"/>
<path d="M311.223 220.601C315.913 223.31 315.913 227.719 311.223 230.429C308.591 231.765 305.681 232.461 302.73 232.461C299.779 232.461 296.869 231.765 294.237 230.429C289.547 227.719 289.547 223.31 294.237 220.601C296.869 219.264 299.779 218.568 302.73 218.568C305.681 218.568 308.591 219.264 311.223 220.601Z" fill="#5243C2"/>
<path d="M311.223 220.601C315.913 223.31 315.913 227.719 311.223 230.429C308.591 231.765 305.681 232.461 302.73 232.461C299.779 232.461 296.869 231.765 294.237 230.429C289.547 227.719 289.547 223.31 294.237 220.601C296.869 219.264 299.779 218.568 302.73 218.568C305.681 218.568 308.591 219.264 311.223 220.601Z" fill="url(#paint6_linear)"/>
<path d="M302.72 234.246C299.452 234.299 296.224 233.517 293.341 231.975C292.047 231.462 290.936 230.572 290.154 229.421C289.372 228.269 288.953 226.908 288.953 225.515C288.953 224.122 289.372 222.761 290.154 221.609C290.936 220.457 292.047 219.567 293.341 219.055C296.245 217.56 299.464 216.78 302.73 216.78C305.996 216.78 309.215 217.56 312.119 219.055C313.413 219.567 314.524 220.457 315.306 221.609C316.088 222.761 316.507 224.122 316.507 225.515C316.507 226.908 316.088 228.269 315.306 229.421C314.524 230.572 313.413 231.462 312.119 231.975C309.23 233.519 305.995 234.301 302.72 234.246ZM302.72 220.353C300.068 220.294 297.444 220.911 295.095 222.146C293.417 223.12 292.464 224.341 292.464 225.505C292.464 226.669 293.417 227.91 295.095 228.883C297.462 230.069 300.073 230.686 302.72 230.686C305.368 230.686 307.979 230.069 310.346 228.883C312.024 227.91 312.977 226.688 312.977 225.505C312.977 224.322 312.024 223.12 310.346 222.146C307.997 220.913 305.373 220.296 302.72 220.353Z" fill="#083C94"/>
<defs>
<linearGradient id="paint0_linear" x1="197.592" y1="157.815" x2="197.592" y2="265.753" gradientUnits="userSpaceOnUse">
<stop stop-color="#01CFFC"/>
<stop offset="0.838542" stop-color="#22D197" stop-opacity="0"/>
</linearGradient>
<linearGradient id="paint1_linear" x1="284.105" y1="207.395" x2="284.105" y2="315.618" gradientUnits="userSpaceOnUse">
<stop stop-color="#01CFFC"/>
<stop offset="0.838542" stop-color="#22D197" stop-opacity="0"/>
</linearGradient>
<linearGradient id="paint2_linear" x1="284.086" y1="194.666" x2="284.086" y2="294.588" gradientUnits="userSpaceOnUse">
<stop stop-color="#01CFFC"/>
<stop offset="0.838542" stop-color="#22D197" stop-opacity="0"/>
</linearGradient>
<linearGradient id="paint3_linear" x1="232.165" y1="100.488" x2="232.165" y2="212.281" gradientUnits="userSpaceOnUse">
<stop stop-color="#01CFFC"/>
<stop offset="0.838542" stop-color="#22D197" stop-opacity="0"/>
</linearGradient>
<linearGradient id="paint4_linear" x1="210.184" y1="75.3928" x2="210.184" y2="122.272" gradientUnits="userSpaceOnUse">
<stop stop-color="#01CFFC"/>
<stop offset="0.838542" stop-color="#22D197" stop-opacity="0"/>
</linearGradient>
<linearGradient id="paint5_linear" x1="210.177" y1="60.7629" x2="210.177" y2="90.0493" gradientUnits="userSpaceOnUse">
<stop stop-color="#01CFFC"/>
<stop offset="0.838542" stop-color="#22D197" stop-opacity="0"/>
</linearGradient>
<linearGradient id="paint6_linear" x1="302.73" y1="218.568" x2="302.73" y2="232.461" gradientUnits="userSpaceOnUse">
<stop stop-color="#01CFFC"/>
<stop offset="0.838542" stop-color="#22D197" stop-opacity="0"/>
</linearGradient>
</defs>
</svg>
