<svg width="480" height="400" viewBox="0 0 480 400" fill="none" xmlns="http://www.w3.org/2000/svg">
<rect width="480" height="400" fill="white"/>
<g clip-path="url(#clip0)">
<path d="M331.729 119.022L193.451 39.1337C185.573 34.6309 178.421 34.0499 173.084 36.7371L127.887 64.589C127.834 64.6125 127.787 64.6463 127.747 64.6883C127.708 64.7304 127.677 64.7799 127.657 64.8339C127.636 64.888 127.627 64.9455 127.629 65.0032C127.631 65.0609 127.645 65.1176 127.669 65.17C129.702 69.3823 148.435 108.745 150.141 116.008C150.867 119.058 156.748 149.053 163.573 184.022V201.67C163.967 212.411 167.158 222.863 172.83 231.991C179.909 268.304 185.899 299.606 186.081 300.405L206.592 348.773C206.612 348.842 206.649 348.905 206.699 348.956C206.749 349.007 206.811 349.045 206.879 349.066C206.947 349.088 207.02 349.092 207.09 349.079C207.16 349.066 207.226 349.036 207.282 348.991L254.113 321.72C254.216 321.66 254.295 321.564 254.335 321.451C254.374 321.338 254.373 321.215 254.331 321.103L250.701 311.226C249.722 306.19 249.079 301.095 248.777 295.974L308.677 362.354C308.765 362.422 308.874 362.459 308.985 362.459C309.097 362.459 309.205 362.422 309.294 362.354L352.858 335.41L353.511 335.011C358.666 331.779 361.825 325.206 361.825 315.947V171.24C361.861 152.103 348.283 128.609 331.729 119.022Z" fill="#5243C2"/>
<path d="M331.729 119.022L193.451 39.1337C185.573 34.6309 178.421 34.0499 173.084 36.7371L127.887 64.589C127.834 64.6125 127.787 64.6463 127.747 64.6883C127.708 64.7304 127.677 64.7799 127.657 64.8339C127.636 64.888 127.627 64.9455 127.629 65.0032C127.631 65.0609 127.645 65.1176 127.669 65.17C129.702 69.3823 148.435 108.745 150.141 116.008C150.867 119.058 156.748 149.053 163.573 184.022V201.67C163.967 212.411 167.158 222.863 172.83 231.991C179.909 268.304 185.899 299.606 186.081 300.405L206.592 348.773C206.612 348.842 206.649 348.905 206.699 348.956C206.749 349.007 206.811 349.045 206.879 349.066C206.947 349.088 207.02 349.092 207.09 349.079C207.16 349.066 207.226 349.036 207.282 348.991L254.113 321.72C254.216 321.66 254.295 321.564 254.335 321.451C254.374 321.338 254.373 321.215 254.331 321.103L250.701 311.226C249.722 306.19 249.079 301.095 248.777 295.974L308.677 362.354C308.765 362.422 308.874 362.459 308.985 362.459C309.097 362.459 309.205 362.422 309.294 362.354L352.858 335.41L353.511 335.011C358.666 331.779 361.825 325.206 361.825 315.947V171.24C361.861 152.103 348.283 128.609 331.729 119.022Z" fill="url(#paint0_linear)"/>
<path d="M309.039 366.676C308.357 366.698 307.678 366.57 307.05 366.3C306.423 366.03 305.862 365.625 305.409 365.114L254.585 308.357L254.911 310.282L258.288 319.832C258.644 320.845 258.636 321.95 258.265 322.958C257.894 323.966 257.183 324.812 256.255 325.352L207.826 353.567L205.648 353.022C205.035 352.83 204.469 352.511 203.987 352.085C203.506 351.66 203.119 351.138 202.853 350.553L182.087 301.022L168.982 233.407C163.111 223.831 159.822 212.897 159.434 201.67V184.385C151.484 143.569 146.764 119.421 146.147 116.843C144.949 111.796 133.441 86.8124 123.966 66.9493C123.474 65.9086 123.399 64.7189 123.757 63.6249C124.115 62.5308 124.878 61.6153 125.89 61.0666L173.084 31.7621L173.483 32.0526C177.164 31.0749 181.01 30.893 184.766 31.5192C188.522 32.1453 192.101 33.5651 195.265 35.6839L333.544 115.572C351.296 125.812 365.745 150.868 365.745 171.349V316.055C365.745 326.441 362.115 334.43 355.507 338.606L354.6 339.15L311.472 365.986C310.735 366.423 309.896 366.661 309.039 366.676ZM244.238 284.536L309.584 357.343L350.607 331.924L353.329 335.047L351.078 331.416C355.362 328.729 357.649 323.209 357.649 315.765V171.24C357.649 153.664 344.762 131.296 329.551 122.617L191.236 42.7649C184.919 39.1337 179.074 38.2621 174.79 40.4046H174.5L132.824 66.3683C139.722 80.8934 152.645 108.491 154.17 114.955C154.969 118.405 161.939 153.919 167.602 183.114V184.022V201.67C168.019 211.67 171.021 221.392 176.315 229.885L176.86 231.301L190.038 299.352L208.843 343.29L249.539 319.578L246.852 311.916C245.845 306.688 245.19 301.399 244.892 296.083L244.238 284.536Z" fill="#083C94"/>
<path d="M331.584 119.022L197.77 41.6758L132.425 82.6004L275.568 158.422L304.611 163.033L349.554 136.307C344.874 129.322 338.745 123.427 331.584 119.022Z" fill="white"/>
<path d="M305.519 167.355L273.608 162.053L124.366 82.8914L197.699 36.8831L333.654 115.464C341.359 120.165 347.939 126.499 352.931 134.02L355.472 137.651L305.519 167.355ZM276.876 154.464L303.776 158.713L343.71 135.146C339.868 130.126 335.114 125.876 329.697 122.618L198.025 46.3607L140.848 82.2741L276.876 154.464Z" fill="#083C94"/>
<path d="M315.938 186.855C315.938 186.855 259.958 200.073 256.328 201.38C253.351 202.506 198.497 246.735 179.765 267.433C183.395 286.606 186.045 299.861 186.154 300.369L206.665 348.738C206.685 348.806 206.722 348.869 206.772 348.92C206.822 348.971 206.884 349.009 206.952 349.031C207.02 349.052 207.093 349.057 207.163 349.043C207.233 349.03 207.299 349 207.355 348.956L254.186 321.685C254.289 321.624 254.368 321.529 254.408 321.416C254.447 321.303 254.446 321.179 254.404 321.067L250.774 311.19C249.795 306.155 249.152 301.06 248.85 295.939L308.677 362.355C308.766 362.423 308.874 362.459 308.986 362.459C309.097 362.459 309.206 362.423 309.294 362.355L352.858 335.411L353.512 335.011C358.667 331.78 361.825 325.207 361.825 315.947V171.241C361.794 167.57 361.343 163.915 360.482 160.347L315.938 186.855Z" fill="#083C94"/>
<path d="M355.989 181.123L322.849 201.183L325.687 205.874L358.827 185.814L355.989 181.123Z" fill="#5243C2"/>
<path d="M355.989 181.123L322.849 201.183L325.687 205.874L358.827 185.814L355.989 181.123Z" fill="url(#paint1_linear)"/>
<path d="M356.035 314.893L322.896 334.953L325.734 339.644L358.874 319.584L356.035 314.893Z" fill="#5243C2"/>
<path d="M356.035 314.893L322.896 334.953L325.734 339.644L358.874 319.584L356.035 314.893Z" fill="url(#paint2_linear)"/>
<path d="M287.512 146.62L149.015 66.6232C132.497 57.1092 119.138 64.8438 119.138 83.9081V229.159C119.138 248.26 132.497 271.428 149.015 280.978L164.771 290.092C166.311 291.09 167.628 292.396 168.64 293.927C169.652 295.458 170.337 297.181 170.652 298.989C173.861 319.068 184.743 337.114 201.001 349.319C205.394 352.587 208.879 349.791 207.572 344.162C205.646 336.189 204.575 328.033 204.377 319.833C204.377 316.201 207.1 314.495 210.368 316.419L287.512 360.794C304.03 370.308 317.426 362.573 317.426 343.509V198.439C317.426 179.338 304.03 156.171 287.512 146.62Z" fill="#5243C2"/>
<path d="M287.512 146.62L149.015 66.6232C132.497 57.1092 119.138 64.8438 119.138 83.9081V229.159C119.138 248.26 132.497 271.428 149.015 280.978L164.771 290.092C166.311 291.09 167.628 292.396 168.64 293.927C169.652 295.458 170.337 297.181 170.652 298.989C173.861 319.068 184.743 337.114 201.001 349.319C205.394 352.587 208.879 349.791 207.572 344.162C205.646 336.189 204.575 328.033 204.377 319.833C204.377 316.201 207.1 314.495 210.368 316.419L287.512 360.794C304.03 370.308 317.426 362.573 317.426 343.509V198.439C317.426 179.338 304.03 156.171 287.512 146.62Z" fill="url(#paint3_linear)"/>
<path d="M300.872 369C295.473 368.797 290.22 367.195 285.625 364.352L208.517 319.906C208.737 327.714 209.772 335.479 211.603 343.073C212.237 344.919 212.277 346.917 211.717 348.786C211.157 350.656 210.025 352.302 208.481 353.495C206.921 354.403 205.112 354.791 203.317 354.601C201.522 354.412 199.834 353.655 198.497 352.442C181.337 339.635 169.87 320.618 166.55 299.461C166.175 297.064 164.871 294.912 162.92 293.47L146.947 284.355C137.594 278.341 129.815 270.176 124.257 260.543C118.7 250.91 115.526 240.088 115 228.978V83.9083C115 73.0145 118.848 64.9893 125.891 60.9586C132.934 56.9279 141.828 57.6904 151.303 63.0647L289.8 142.953C299.157 148.963 306.939 157.126 312.497 166.76C318.055 176.394 321.226 187.219 321.746 198.33V343.581C321.746 354.475 318.116 362.5 310.856 366.531C307.811 368.238 304.361 369.091 300.872 369ZM207.682 311.263C209.36 311.305 210.998 311.78 212.438 312.643L289.582 357.199C296.262 361.048 302.288 361.811 306.608 359.305C310.928 356.799 313.288 351.207 313.288 343.509V198.439C312.769 188.797 309.995 179.411 305.191 171.036C300.387 162.661 293.685 155.529 285.625 150.216L146.947 70.2184C140.412 66.3692 134.241 65.6066 129.921 68.1122C125.601 70.6178 123.241 76.21 123.241 83.9083V229.16C123.808 238.786 126.622 248.146 131.458 256.489C136.293 264.832 143.015 271.926 151.085 277.202L166.841 286.316C168.908 287.63 170.676 289.362 172.033 291.401C173.39 293.44 174.305 295.74 174.719 298.154C177.695 317.198 188.018 334.316 203.471 345.833H203.725C203.751 345.47 203.751 345.106 203.725 344.743C201.693 336.417 200.573 327.894 200.385 319.325C200.312 317.904 200.608 316.488 201.244 315.215C201.88 313.942 202.835 312.856 204.015 312.062C205.146 311.479 206.411 311.203 207.682 311.263Z" fill="#083C94"/>
<path d="M259.814 187.146C242.389 162.09 222.676 171.858 218.32 178.068C213.963 166.847 194.287 134.492 176.825 139.249C158.674 144.406 162.05 166.338 170.98 192.012C178.241 212.819 210.696 268.595 217.594 280.361C218.32 281.559 219.445 282.249 220.135 281.85C228.484 277.202 258.144 260.062 265.804 246.771C274.735 231.375 278.111 213.473 259.814 187.146Z" fill="white"/>
<path d="M219.552 286.061C218.38 285.998 217.244 285.629 216.257 284.992C215.27 284.356 214.467 283.472 213.925 282.43C204.741 266.779 173.992 214.053 166.949 193.354C158.781 169.824 157.365 155.081 162.193 145.567C163.544 143.002 165.424 140.753 167.708 138.969C169.992 137.185 172.629 135.906 175.444 135.218C193.596 130.061 212.11 156.352 219.552 171.276C223.892 168.337 229.014 166.768 234.255 166.773C241.516 166.773 252.624 169.969 262.971 184.93C283.845 214.924 277.165 234.896 269.034 248.913C260.902 262.93 233.384 279.053 221.839 285.516C221.129 285.872 220.346 286.058 219.552 286.061ZM180.345 142.807C179.473 142.8 178.604 142.923 177.767 143.17C176.033 143.552 174.402 144.304 172.985 145.376C171.569 146.448 170.402 147.814 169.563 149.38C164.589 158.894 170.107 177.486 174.682 190.631C181.616 210.385 212.364 263.402 220.278 276.947C237.377 267.033 256.582 253.961 262.1 244.664C269.36 232.028 274.552 215.614 256.436 189.542C249.829 180.064 242.242 175.016 234.437 175.016C232.055 174.957 229.689 175.41 227.497 176.343C225.305 177.277 223.339 178.669 221.73 180.427L220.387 182.352L215.45 181.952L214.434 179.556C209.787 167.718 193.45 142.807 180.345 142.807Z" fill="#083C94"/>
<path d="M176.716 182.279C176.171 180.645 171.488 166.229 177.551 158.639C179.02 156.951 180.906 155.677 183.021 154.945C185.135 154.212 187.405 154.046 189.604 154.463L188.696 162.67C185.066 162.271 184.158 163.433 183.868 163.832C181.508 166.737 182.779 174.98 184.376 179.664L176.716 182.279Z" fill="#083C94"/>
<path d="M219.952 256.757C226.712 253.244 233.161 249.162 239.229 244.556L219.952 256.757Z" fill="#5243C2"/>
<path d="M219.952 256.757C226.712 253.244 233.161 249.162 239.229 244.556L219.952 256.757Z" fill="url(#paint4_linear)"/>
<path d="M221.768 260.461L218.138 253.198C224.647 249.762 230.874 245.815 236.761 241.396L241.771 247.933C235.473 252.673 228.781 256.864 221.768 260.461Z" fill="#083C94"/>
</g>
<defs>
<linearGradient id="paint0_linear" x1="244.727" y1="35.1228" x2="244.727" y2="362.459" gradientUnits="userSpaceOnUse">
<stop stop-color="#01CFFC"/>
<stop offset="0.838542" stop-color="#22D197" stop-opacity="0"/>
</linearGradient>
<linearGradient id="paint1_linear" x1="339.419" y1="191.153" x2="342.258" y2="195.843" gradientUnits="userSpaceOnUse">
<stop stop-color="#01CFFC"/>
<stop offset="0.838542" stop-color="#22D197" stop-opacity="0"/>
</linearGradient>
<linearGradient id="paint2_linear" x1="339.465" y1="324.923" x2="342.305" y2="329.614" gradientUnits="userSpaceOnUse">
<stop stop-color="#01CFFC"/>
<stop offset="0.838542" stop-color="#22D197" stop-opacity="0"/>
</linearGradient>
<linearGradient id="paint3_linear" x1="218.282" y1="62.5535" x2="218.282" y2="364.863" gradientUnits="userSpaceOnUse">
<stop stop-color="#01CFFC"/>
<stop offset="0.838542" stop-color="#22D197" stop-opacity="0"/>
</linearGradient>
<linearGradient id="paint4_linear" x1="229.591" y1="244.556" x2="229.591" y2="256.757" gradientUnits="userSpaceOnUse">
<stop stop-color="#01CFFC"/>
<stop offset="0.838542" stop-color="#22D197" stop-opacity="0"/>
</linearGradient>
<clipPath id="clip0">
<rect width="251" height="338" fill="white" transform="translate(115 31)"/>
</clipPath>
</defs>
</svg>
