<svg width="480" height="400" viewBox="0 0 480 400" fill="none" xmlns="http://www.w3.org/2000/svg">
<g clip-path="url(#clip0)">
<rect width="480" height="400" fill="white"/>
<g clip-path="url(#clip1)">
<path d="M188.186 307.045L184.559 309.167C184.334 309.289 184.082 309.353 183.826 309.353C183.57 309.353 183.318 309.289 183.093 309.167L179.658 307.122C179.234 306.891 179.195 306.505 179.658 306.273L183.285 304.189C183.513 304.074 183.764 304.014 184.019 304.014C184.273 304.014 184.525 304.074 184.752 304.189L188.186 306.196C188.533 306.466 188.572 306.852 188.186 307.045Z" fill="#083C94"/>
<path d="M188.223 317.387L184.596 319.509C184.366 319.613 184.116 319.667 183.863 319.667C183.61 319.667 183.36 319.613 183.13 319.509L179.695 317.541C179.271 317.271 179.232 316.885 179.695 316.692L183.323 314.57C183.553 314.465 183.803 314.411 184.056 314.411C184.309 314.411 184.559 314.465 184.789 314.57L188.146 316.422C188.571 316.808 188.609 317.194 188.223 317.387Z" fill="#083C94"/>
<path d="M197.02 312.254L193.393 314.338C193.168 314.459 192.916 314.523 192.66 314.523C192.404 314.523 192.152 314.459 191.927 314.338L188.531 312.37C188.068 312.138 188.029 311.752 188.531 311.521L192.158 309.437C192.385 309.322 192.637 309.262 192.891 309.262C193.146 309.262 193.397 309.322 193.624 309.437L197.02 311.405C197.483 311.637 197.522 312.022 197.02 312.254Z" fill="#083C94"/>
<path d="M206.09 307.084L202.424 309.206C202.2 309.31 201.957 309.364 201.71 309.364C201.463 309.364 201.22 309.31 200.996 309.206L197.562 307.238C197.137 306.968 197.06 306.582 197.562 306.389L201.189 304.267C201.419 304.162 201.669 304.108 201.922 304.108C202.175 304.108 202.425 304.162 202.655 304.267L206.09 306.235C206.398 306.505 206.437 306.891 206.09 307.084Z" fill="#083C94"/>
<path d="M187.761 327.419L184.134 329.541C183.906 329.653 183.655 329.712 183.401 329.712C183.147 329.712 182.896 329.653 182.668 329.541L179.272 327.496C178.809 327.226 178.77 326.878 179.272 326.647L182.899 324.563C183.127 324.448 183.378 324.388 183.633 324.388C183.887 324.388 184.138 324.448 184.366 324.563L187.8 326.57C188.109 326.84 188.147 327.226 187.761 327.419Z" fill="#083C94"/>
<path d="M196.711 322.287L193.161 324.371C192.941 324.486 192.696 324.546 192.447 324.546C192.199 324.546 191.954 324.486 191.733 324.371L188.299 322.364C187.875 322.133 187.797 321.747 188.299 321.554L191.926 319.432C192.154 319.319 192.405 319.261 192.66 319.261C192.914 319.261 193.165 319.319 193.393 319.432L196.827 321.4C197.02 321.67 197.02 322.056 196.711 322.287Z" fill="#083C94"/>
<path d="M205.626 317.116L201.999 319.238C201.771 319.35 201.52 319.409 201.266 319.409C201.012 319.409 200.761 319.35 200.533 319.238L197.021 317.193C196.674 316.923 196.635 316.421 197.021 316.421L200.88 314.337C201.1 314.222 201.345 314.162 201.594 314.162C201.842 314.162 202.087 314.222 202.308 314.337L205.511 316.421C205.935 316.421 206.012 316.923 205.626 317.116Z" fill="#083C94"/>
<path d="M214.542 311.985L210.914 314.068C210.687 314.184 210.436 314.244 210.181 314.244C209.926 314.244 209.675 314.184 209.448 314.068L206.014 312.062C205.589 311.83 205.551 311.444 206.014 311.251L209.641 309.129C209.869 309.017 210.12 308.958 210.374 308.958C210.628 308.958 210.879 309.017 211.107 309.129L214.503 311.097C214.889 311.367 214.927 311.753 214.542 311.985Z" fill="#083C94"/>
<path d="M196.251 332.32L192.623 334.404C192.396 334.519 192.145 334.579 191.89 334.579C191.635 334.579 191.384 334.519 191.157 334.404L187.723 332.436C187.298 332.166 187.26 331.78 187.723 331.587L191.388 329.464C191.61 329.352 191.854 329.294 192.102 329.294C192.35 329.294 192.595 329.352 192.816 329.464L196.251 331.432C196.559 331.857 196.636 332.088 196.251 332.32Z" fill="#083C94"/>
<path d="M205.163 327.188L201.535 329.271C201.31 329.393 201.058 329.457 200.802 329.457C200.546 329.457 200.294 329.393 200.069 329.271L196.635 327.226C196.21 326.995 196.172 326.609 196.635 326.377L200.185 324.139C200.412 324.024 200.663 323.964 200.918 323.964C201.173 323.964 201.424 324.024 201.651 324.139L205.047 326.146C205.51 326.57 205.549 326.956 205.163 327.188Z" fill="#083C94"/>
<path d="M214.079 322.017L210.451 324.139C210.224 324.255 209.973 324.315 209.718 324.315C209.463 324.315 209.212 324.255 208.985 324.139L205.551 322.171C205.126 321.901 205.088 321.515 205.551 321.322L209.178 319.2C209.406 319.088 209.657 319.029 209.911 319.029C210.165 319.029 210.416 319.088 210.644 319.2L214.079 321.168C214.426 321.438 214.465 321.785 214.079 322.017Z" fill="#083C94"/>
<path d="M223.029 316.885L219.17 318.969C218.952 319.09 218.706 319.154 218.456 319.154C218.206 319.154 217.96 319.09 217.742 318.969L214.308 317.001C213.883 316.769 213.806 316.383 214.308 316.152L217.935 314.068C218.162 313.953 218.414 313.893 218.668 313.893C218.923 313.893 219.174 313.953 219.401 314.068L222.836 316.075C223.337 316.422 223.376 316.654 223.029 316.885Z" fill="#083C94"/>
<path d="M205.2 337.49L201.573 339.573C201.342 339.678 201.092 339.732 200.839 339.732C200.586 339.732 200.336 339.678 200.106 339.573L196.672 337.605C196.247 337.335 196.209 336.949 196.672 336.756L200.299 334.634C200.529 334.53 200.779 334.476 201.032 334.476C201.285 334.476 201.535 334.53 201.765 334.634L205.161 336.602C205.547 336.911 205.586 337.297 205.2 337.49Z" fill="#083C94"/>
<path d="M214.116 332.358L210.489 334.442C210.263 334.563 210.011 334.627 209.755 334.627C209.499 334.627 209.247 334.563 209.022 334.442L205.588 332.474C205.163 332.242 205.125 331.856 205.588 331.625L209.215 329.541C209.442 329.426 209.694 329.366 209.948 329.366C210.203 329.366 210.454 329.426 210.681 329.541L214.116 331.548C214.463 331.856 214.502 332.126 214.116 332.358Z" fill="#083C94"/>
<path d="M223.069 327.188L219.403 329.31C219.18 329.414 218.936 329.468 218.689 329.468C218.443 329.468 218.199 329.414 217.976 329.31L214.541 327.342C214.117 327.072 214.04 326.686 214.541 326.493L218.169 324.371C218.399 324.267 218.649 324.213 218.902 324.213C219.155 324.213 219.405 324.267 219.635 324.371L223.069 326.339C223.378 326.609 223.416 326.995 223.069 327.188Z" fill="#083C94"/>
<path d="M231.982 322.055L228.355 324.139C228.129 324.26 227.878 324.324 227.622 324.324C227.366 324.324 227.114 324.26 226.888 324.139L223.454 322.171C223.03 321.939 222.991 321.553 223.454 321.322L227.12 319.238C227.34 319.123 227.585 319.063 227.834 319.063C228.082 319.063 228.327 319.123 228.548 319.238L231.982 321.245C232.291 321.438 232.368 321.823 231.982 322.055Z" fill="#083C94"/>
<path d="M240.894 316.885L237.267 319.008C237.037 319.112 236.787 319.166 236.534 319.166C236.281 319.166 236.031 319.112 235.801 319.008L232.366 317.04C231.942 316.77 231.903 316.384 232.366 316.191L236.032 314.068C236.262 313.964 236.512 313.91 236.765 313.91C237.018 313.91 237.268 313.964 237.498 314.068L240.894 316.036C241.241 316.422 241.28 316.692 240.894 316.885Z" fill="#083C94"/>
<path d="M213.691 342.391L209.832 344.474C209.612 344.589 209.367 344.649 209.118 344.649C208.87 344.649 208.625 344.589 208.404 344.474L204.97 342.468C204.545 342.236 204.468 341.85 204.97 341.657L208.597 339.574C208.825 339.461 209.076 339.403 209.33 339.403C209.585 339.403 209.835 339.461 210.064 339.574L213.498 341.542C214 341.773 214.038 342.159 213.691 342.391Z" fill="#083C94"/>
<path d="M222.606 337.22L218.979 339.342C218.751 339.455 218.5 339.513 218.246 339.513C217.991 339.513 217.741 339.455 217.512 339.342L214.078 337.374C213.654 337.104 213.615 336.757 214.078 336.525L217.744 334.442C217.964 334.327 218.209 334.267 218.458 334.267C218.706 334.267 218.951 334.327 219.172 334.442L222.606 336.448C222.915 336.641 222.992 337.027 222.606 337.22Z" fill="#083C94"/>
<path d="M231.518 332.089L227.891 334.173C227.664 334.288 227.412 334.348 227.158 334.348C226.903 334.348 226.652 334.288 226.425 334.173L222.99 332.166C222.566 331.934 222.527 331.549 222.99 331.356L226.849 329.233C227.077 329.121 227.328 329.062 227.582 329.062C227.836 329.062 228.087 329.121 228.315 329.233L231.711 331.201C231.75 331.471 231.75 331.857 231.518 332.089Z" fill="#083C94"/>
<path d="M240.434 326.918L236.807 329.04C236.579 329.152 236.328 329.211 236.074 329.211C235.82 329.211 235.569 329.152 235.341 329.04L231.752 326.995C231.327 326.725 231.289 326.377 231.752 326.146L235.611 324.139C235.838 324.024 236.089 323.964 236.344 323.964C236.599 323.964 236.85 324.024 237.077 324.139L240.511 326.146C240.782 326.339 240.82 326.725 240.434 326.918Z" fill="#083C94"/>
<path d="M249.387 321.786L245.721 323.87C245.501 323.985 245.256 324.045 245.007 324.045C244.759 324.045 244.514 323.985 244.293 323.87L240.859 321.863C240.396 321.632 240.357 321.246 240.859 321.053L244.486 318.931C244.714 318.818 244.965 318.76 245.219 318.76C245.474 318.76 245.725 318.818 245.953 318.931L249.387 320.899C249.696 321.169 249.734 321.555 249.387 321.786Z" fill="#083C94"/>
<path d="M213.23 352.425L209.602 354.509C209.375 354.624 209.124 354.684 208.869 354.684C208.614 354.684 208.363 354.624 208.136 354.509L204.74 352.502C204.316 352.232 204.277 351.846 204.74 351.653L208.599 349.531C208.82 349.419 209.065 349.361 209.313 349.361C209.561 349.361 209.805 349.419 210.027 349.531L213.461 351.499C213.538 351.846 213.615 352.193 213.23 352.425Z" fill="#083C94"/>
<path d="M222.142 347.291L218.515 349.375C218.29 349.496 218.038 349.56 217.782 349.56C217.526 349.56 217.274 349.496 217.049 349.375L213.614 347.291C213.19 347.06 213.151 346.674 213.614 346.442L217.473 344.358C217.7 344.243 217.951 344.183 218.206 344.183C218.461 344.183 218.712 344.243 218.939 344.358L222.335 346.365C222.489 346.674 222.528 347.06 222.142 347.291Z" fill="#083C94"/>
<path d="M231.055 342.122L227.428 344.206C227.201 344.321 226.95 344.381 226.695 344.381C226.44 344.381 226.189 344.321 225.962 344.206L222.527 342.238C222.103 341.968 222.064 341.582 222.527 341.389L226.155 339.266C226.383 339.154 226.634 339.096 226.888 339.096C227.142 339.096 227.393 339.154 227.621 339.266L231.055 341.234C231.403 341.543 231.441 341.89 231.055 342.122Z" fill="#083C94"/>
<path d="M240.008 336.989L236.149 339.073C235.931 339.195 235.685 339.259 235.435 339.259C235.185 339.259 234.939 339.195 234.721 339.073L231.287 337.105C230.824 336.874 230.785 336.488 231.287 336.256L234.914 334.172C235.141 334.057 235.392 333.997 235.647 333.997C235.902 333.997 236.153 334.057 236.38 334.172L239.815 336.179C240.316 336.372 240.355 336.758 240.008 336.989Z" fill="#083C94"/>
<path d="M248.92 331.856L245.293 333.94C245.066 334.055 244.815 334.115 244.56 334.115C244.305 334.115 244.054 334.055 243.827 333.94L240.393 331.856C239.968 331.586 239.929 331.2 240.393 331.007L244.02 328.885C244.248 328.772 244.499 328.714 244.753 328.714C245.007 328.714 245.258 328.772 245.486 328.885L248.92 330.853C249.229 331.238 249.268 331.586 248.92 331.856Z" fill="#083C94"/>
<path d="M257.837 326.686L254.209 328.77C253.984 328.892 253.732 328.955 253.476 328.955C253.22 328.955 252.968 328.892 252.743 328.77L249.309 326.802C248.884 326.57 248.846 326.185 249.309 325.953L252.974 323.869C253.195 323.754 253.44 323.694 253.688 323.694C253.937 323.694 254.182 323.754 254.402 323.869L257.837 325.876C258.184 326.069 258.222 326.455 257.837 326.686Z" fill="#083C94"/>
<path d="M222.18 357.595L218.553 359.717C218.323 359.822 218.073 359.876 217.82 359.876C217.567 359.876 217.317 359.822 217.087 359.717L213.652 357.749C213.228 357.479 213.189 357.093 213.652 356.9L217.28 354.778C217.51 354.673 217.76 354.619 218.013 354.619C218.266 354.619 218.516 354.673 218.746 354.778L222.142 356.746C222.528 357.016 222.566 357.402 222.18 357.595Z" fill="#083C94"/>
<path d="M231.096 352.462L227.469 354.545C227.242 354.661 226.991 354.721 226.736 354.721C226.481 354.721 226.23 354.661 226.003 354.545L222.568 352.539C222.144 352.307 222.105 351.921 222.568 351.69L226.196 349.606C226.421 349.485 226.673 349.421 226.929 349.421C227.185 349.421 227.437 349.485 227.662 349.606L231.096 351.574C231.444 351.844 231.482 352.23 231.096 352.462Z" fill="#083C94"/>
<path d="M240.046 347.292L236.38 349.414C236.156 349.518 235.913 349.572 235.666 349.572C235.419 349.572 235.176 349.518 234.952 349.414L231.518 347.292C231.093 347.022 231.016 346.636 231.518 346.443L235.145 344.321C235.375 344.216 235.625 344.162 235.878 344.162C236.131 344.162 236.381 344.216 236.611 344.321L240.046 346.289C240.354 346.713 240.393 347.292 240.046 347.292Z" fill="#083C94"/>
<path d="M248.962 342.159L245.335 344.243C245.108 344.358 244.857 344.418 244.602 344.418C244.347 344.418 244.096 344.358 243.869 344.243L240.435 342.236C240.01 342.005 239.971 341.619 240.435 341.387L244.293 339.304C244.512 339.182 244.757 339.118 245.007 339.118C245.257 339.118 245.503 339.182 245.721 339.304L249.155 341.272C249.271 341.542 249.348 341.928 248.962 342.159Z" fill="#083C94"/>
<path d="M257.875 336.988L254.247 339.111C254.017 339.215 253.767 339.269 253.514 339.269C253.261 339.269 253.011 339.215 252.781 339.111L249.347 337.143C248.922 336.873 248.884 336.487 249.347 336.294L253.013 334.172C253.236 334.068 253.48 334.014 253.726 334.014C253.973 334.014 254.217 334.068 254.44 334.172L257.875 336.14C258.222 336.41 258.26 336.796 257.875 336.988Z" fill="#083C94"/>
<path d="M221.716 367.627L218.089 369.749C217.861 369.862 217.61 369.92 217.356 369.92C217.102 369.92 216.851 369.862 216.623 369.749L213.188 367.781C212.764 367.511 212.725 367.164 213.188 366.932L216.816 364.849C217.043 364.733 217.294 364.673 217.549 364.673C217.804 364.673 218.055 364.733 218.282 364.849L221.716 366.855C222.064 367.048 222.102 367.434 221.716 367.627Z" fill="#083C94"/>
<path d="M230.671 362.496L226.812 364.579C226.592 364.694 226.347 364.754 226.098 364.754C225.85 364.754 225.605 364.694 225.384 364.579L222.143 362.727C221.718 362.496 221.641 362.11 222.143 361.917L225.77 359.795C225.998 359.682 226.249 359.624 226.503 359.624C226.758 359.624 227.008 359.682 227.236 359.795L230.671 361.763C230.979 361.878 231.018 362.264 230.671 362.496Z" fill="#083C94"/>
<path d="M239.469 357.324L235.842 359.446C235.614 359.559 235.363 359.617 235.109 359.617C234.855 359.617 234.604 359.559 234.376 359.446L230.941 357.478C230.517 357.208 230.478 356.861 230.941 356.629L234.8 354.546C235.021 354.431 235.265 354.371 235.514 354.371C235.763 354.371 236.008 354.431 236.228 354.546L239.662 356.552C239.894 356.745 239.971 357.131 239.469 357.324Z" fill="#083C94"/>
<path d="M248.499 352.192L244.871 354.276C244.644 354.391 244.393 354.451 244.138 354.451C243.883 354.451 243.632 354.391 243.405 354.276L239.971 352.269C239.546 352.038 239.508 351.652 239.971 351.459L243.637 349.337C243.858 349.225 244.102 349.167 244.35 349.167C244.598 349.167 244.843 349.225 245.064 349.337L248.499 351.305C248.846 351.575 248.885 351.961 248.499 352.192Z" fill="#083C94"/>
<path d="M257.411 347.021L253.783 349.143C253.555 349.256 253.305 349.314 253.05 349.314C252.796 349.314 252.545 349.256 252.317 349.143L248.883 347.291C248.458 347.021 248.42 346.674 248.883 346.442L252.51 344.358C252.737 344.243 252.988 344.183 253.243 344.183C253.498 344.183 253.749 344.243 253.976 344.358L257.411 346.365C257.758 346.442 257.797 346.828 257.411 347.021Z" fill="#083C94"/>
<path d="M266.48 341.89L262.814 343.974C262.593 344.089 262.349 344.149 262.1 344.149C261.851 344.149 261.606 344.089 261.386 343.974L257.952 341.967C257.489 341.736 257.45 341.35 257.952 341.157L261.579 339.035C261.807 338.922 262.058 338.864 262.312 338.864C262.566 338.864 262.817 338.922 263.045 339.035L266.48 341.003C266.673 341.273 266.711 341.659 266.48 341.89Z" fill="#083C94"/>
<path d="M230.207 372.528L226.579 374.612C226.352 374.727 226.101 374.787 225.846 374.787C225.591 374.787 225.34 374.727 225.113 374.612L221.679 372.644C221.254 372.374 221.216 371.988 221.679 371.795L225.537 369.673C225.759 369.561 226.003 369.502 226.251 369.502C226.499 369.502 226.744 369.561 226.965 369.673L230.4 371.641C230.515 371.949 230.593 372.297 230.207 372.528Z" fill="#083C94"/>
<path d="M239.119 367.396L235.491 369.48C235.266 369.601 235.014 369.665 234.758 369.665C234.502 369.665 234.25 369.601 234.025 369.48L230.591 367.512C230.166 367.28 230.128 366.894 230.591 366.663L234.257 364.579C234.477 364.464 234.722 364.404 234.971 364.404C235.219 364.404 235.464 364.464 235.684 364.579L239.119 366.586C239.466 366.779 239.466 367.164 239.119 367.396Z" fill="#083C94"/>
<path d="M248.036 362.225L244.409 364.309C244.182 364.424 243.931 364.484 243.676 364.484C243.421 364.484 243.17 364.424 242.943 364.309L239.47 362.302C239.045 362.032 239.007 361.646 239.47 361.454L243.097 359.331C243.325 359.219 243.576 359.16 243.83 359.16C244.084 359.16 244.335 359.219 244.563 359.331L247.998 361.299C248.384 361.646 248.422 361.994 248.036 362.225Z" fill="#083C94"/>
<path d="M256.988 357.094L253.322 359.177C253.103 359.299 252.858 359.363 252.608 359.363C252.358 359.363 252.112 359.299 251.894 359.177L248.46 357.209C247.997 356.978 247.958 356.592 248.46 356.36L252.087 354.277C252.314 354.161 252.565 354.101 252.82 354.101C253.075 354.101 253.326 354.161 253.553 354.277L256.988 356.283C257.296 356.476 257.335 356.862 256.988 357.094Z" fill="#083C94"/>
<path d="M265.902 351.922L262.043 354.005C261.823 354.12 261.578 354.18 261.329 354.18C261.081 354.18 260.836 354.12 260.615 354.005L257.181 352.037C256.756 351.767 256.679 351.381 257.181 351.188L260.808 349.066C261.036 348.954 261.287 348.895 261.541 348.895C261.796 348.895 262.046 348.954 262.275 349.066L265.709 351.034C266.21 351.343 266.249 351.69 265.902 351.922Z" fill="#083C94"/>
<path d="M274.816 346.791L271.189 348.874C270.964 348.996 270.712 349.06 270.456 349.06C270.2 349.06 269.948 348.996 269.723 348.874L266.481 346.829C266.057 346.598 266.018 346.212 266.481 345.98L270.147 343.896C270.368 343.781 270.613 343.721 270.861 343.721C271.11 343.721 271.355 343.781 271.575 343.896L275.009 345.903C275.125 346.173 275.202 346.559 274.816 346.791Z" fill="#083C94"/>
<path d="M239.161 377.699L235.533 379.821C235.303 379.926 235.053 379.98 234.8 379.98C234.547 379.98 234.297 379.926 234.067 379.821L230.633 377.853C230.208 377.583 230.17 377.197 230.633 377.004L234.492 374.882C234.722 374.778 234.972 374.724 235.225 374.724C235.478 374.724 235.728 374.778 235.958 374.882L239.354 376.85C239.469 377.12 239.469 377.506 239.161 377.699Z" fill="#083C94"/>
<path d="M248.075 372.567L244.448 374.651C244.22 374.766 243.969 374.826 243.714 374.826C243.46 374.826 243.208 374.766 242.981 374.651L239.47 372.605C239.045 372.374 239.007 371.988 239.47 371.757L243.097 369.673C243.322 369.551 243.574 369.488 243.83 369.488C244.086 369.488 244.338 369.551 244.563 369.673L247.998 371.641C248.422 371.949 248.461 372.335 248.075 372.567Z" fill="#083C94"/>
<path d="M257.026 367.396L253.36 369.519C253.136 369.622 252.892 369.676 252.646 369.676C252.399 369.676 252.156 369.622 251.932 369.519L248.498 367.551C248.035 367.281 247.996 366.895 248.498 366.702L252.125 364.579C252.355 364.475 252.605 364.421 252.858 364.421C253.111 364.421 253.361 364.475 253.591 364.579L257.026 366.547C257.334 366.817 257.373 367.203 257.026 367.396Z" fill="#083C94"/>
<path d="M265.938 362.263L262.272 364.347C262.052 364.462 261.807 364.522 261.559 364.522C261.31 364.522 261.065 364.462 260.845 364.347L257.41 362.34C256.986 362.109 256.909 361.723 257.41 361.491L261.038 359.408C261.263 359.286 261.515 359.222 261.771 359.222C262.027 359.222 262.279 359.286 262.504 359.408L265.938 361.376C266.247 361.646 266.479 362.032 265.938 362.263Z" fill="#083C94"/>
<path d="M274.855 357.093L271.228 359.215C270.997 359.319 270.747 359.373 270.495 359.373C270.242 359.373 269.992 359.319 269.761 359.215L266.481 357.17C266.057 356.9 266.018 356.514 266.481 356.321L270.147 354.198C270.371 354.095 270.615 354.041 270.861 354.041C271.108 354.041 271.351 354.095 271.575 354.198L275.009 356.166C275.164 356.514 275.241 356.9 274.855 357.093Z" fill="#083C94"/>
<path d="M247.65 382.6L243.984 384.684C243.763 384.798 243.518 384.859 243.27 384.859C243.021 384.859 242.776 384.798 242.556 384.684L239.122 382.677C238.659 382.445 238.62 382.06 239.122 381.867L242.749 379.744C242.977 379.632 243.228 379.573 243.482 379.573C243.736 379.573 243.987 379.632 244.215 379.744L247.65 381.712C247.958 382.021 247.997 382.368 247.65 382.6Z" fill="#083C94"/>
<path d="M256.562 377.429L252.897 379.551C252.675 379.663 252.431 379.721 252.183 379.721C251.935 379.721 251.69 379.663 251.469 379.551L248.034 377.583C247.61 377.313 247.533 376.965 248.034 376.734L251.662 374.65C251.889 374.535 252.14 374.475 252.395 374.475C252.65 374.475 252.901 374.535 253.128 374.65L256.562 376.657C256.871 376.85 256.91 377.236 256.562 377.429Z" fill="#083C94"/>
<path d="M265.475 372.297L261.848 374.303C261.621 374.418 261.37 374.478 261.115 374.478C260.86 374.478 260.609 374.418 260.382 374.303L256.947 372.297C256.523 372.065 256.484 371.679 256.947 371.486L260.613 369.364C260.834 369.252 261.079 369.194 261.327 369.194C261.575 369.194 261.82 369.252 262.041 369.364L265.475 371.332C265.822 371.718 265.861 372.065 265.475 372.297Z" fill="#083C94"/>
<path d="M274.391 367.126L270.764 369.248C270.536 369.36 270.285 369.419 270.031 369.419C269.777 369.419 269.526 369.36 269.298 369.248L265.863 367.28C265.439 367.01 265.4 366.663 265.863 366.431L269.491 364.347C269.718 364.232 269.969 364.172 270.224 364.172C270.478 364.172 270.73 364.232 270.957 364.347L274.391 366.354C274.738 366.586 274.777 366.933 274.391 367.126Z" fill="#083C94"/>
<path d="M256.099 387.5L252.472 389.584C252.247 389.706 251.995 389.769 251.739 389.769C251.483 389.769 251.231 389.706 251.006 389.584L247.571 387.616C247.147 387.384 247.108 386.999 247.571 386.767L251.237 384.683C251.458 384.568 251.702 384.508 251.951 384.508C252.2 384.508 252.444 384.568 252.665 384.683L256.099 386.69C256.446 386.883 256.485 387.269 256.099 387.5Z" fill="#083C94"/>
<path d="M265.011 382.329L261.384 384.452C261.154 384.556 260.904 384.61 260.651 384.61C260.398 384.61 260.148 384.556 259.918 384.452L256.483 382.484C256.059 382.214 256.02 381.828 256.483 381.635L260.111 379.513C260.339 379.4 260.59 379.342 260.844 379.342C261.098 379.342 261.349 379.4 261.577 379.513L265.011 381.481C265.359 381.751 265.397 382.021 265.011 382.329Z" fill="#083C94"/>
<path d="M273.965 377.197L270.106 379.281C269.881 379.403 269.629 379.466 269.373 379.466C269.117 379.466 268.865 379.403 268.639 379.281L265.244 377.313C264.781 377.082 264.742 376.696 265.244 376.464L268.871 374.38C269.092 374.253 269.34 374.18 269.595 374.166C269.85 374.153 270.104 374.2 270.337 374.303L273.772 376.31C274.196 376.58 274.196 376.966 273.965 377.197Z" fill="#083C94"/>
<path d="M274.198 387.5L270.339 389.738C270.109 389.842 269.859 389.896 269.606 389.896C269.353 389.896 269.103 389.842 268.873 389.738L265.477 387.77C265.014 387.5 264.975 387.152 265.477 386.921L269.104 384.799C269.335 384.694 269.585 384.64 269.838 384.64C270.09 384.64 270.34 384.694 270.571 384.799L274.005 386.767C274.198 386.921 274.198 387.307 274.198 387.5Z" fill="#083C94"/>
<path d="M282.919 382.367L279.061 384.451C278.84 384.566 278.595 384.626 278.347 384.626C278.098 384.626 277.853 384.566 277.633 384.451L274.198 382.445C273.774 382.213 273.697 381.827 274.198 381.596L277.826 379.512C278.051 379.39 278.303 379.327 278.559 379.327C278.815 379.327 279.067 379.39 279.292 379.512L282.726 381.48C283.228 381.75 283.267 382.02 282.919 382.367Z" fill="#083C94"/>
<path d="M282.456 392.401L278.828 394.484C278.601 394.6 278.35 394.66 278.095 394.66C277.84 394.66 277.589 394.6 277.362 394.484L273.928 392.478C273.503 392.246 273.465 391.86 273.928 391.668L277.787 389.545C278.008 389.433 278.252 389.375 278.5 389.375C278.748 389.375 278.993 389.433 279.214 389.545L282.649 391.513C282.764 391.822 282.842 392.169 282.456 392.401Z" fill="#083C94"/>
<path d="M291.368 387.23L287.74 389.352C287.512 389.465 287.262 389.523 287.007 389.523C286.753 389.523 286.502 389.465 286.274 389.352L282.84 387.384C282.415 387.114 282.377 386.767 282.84 386.535L286.467 384.452C286.694 384.336 286.945 384.276 287.2 384.276C287.455 384.276 287.706 384.336 287.933 384.452L291.368 386.458C291.715 386.651 291.754 387.037 291.368 387.23Z" fill="#083C94"/>
<path d="M309.237 376.927L305.571 379.05C305.35 379.162 305.105 379.22 304.857 379.22C304.609 379.22 304.365 379.162 304.144 379.05L300.709 377.082C300.285 376.812 300.208 376.464 300.709 376.233L304.336 374.149C304.564 374.034 304.815 373.974 305.07 373.974C305.324 373.974 305.576 374.034 305.803 374.149L309.237 376.156C309.546 376.348 309.584 376.734 309.237 376.927Z" fill="#083C94"/>
<path d="M290.906 397.456L287.279 399.54C287.053 399.662 286.801 399.725 286.546 399.725C286.29 399.725 286.038 399.662 285.812 399.54L282.417 397.572C281.954 397.341 281.915 396.955 282.417 396.723L286.044 394.639C286.271 394.524 286.522 394.464 286.777 394.464C287.032 394.464 287.283 394.524 287.51 394.639L290.945 396.646C291.253 396.685 291.292 397.07 290.906 397.456Z" fill="#083C94"/>
<path d="M299.857 392.132L296.191 394.254C295.968 394.358 295.724 394.412 295.478 394.412C295.231 394.412 294.987 394.358 294.764 394.254L291.329 392.286C290.905 392.016 290.828 391.63 291.329 391.437L294.957 389.315C295.187 389.211 295.437 389.156 295.69 389.156C295.943 389.156 296.193 389.211 296.423 389.315L299.857 391.283C300.166 391.553 300.205 391.9 299.857 392.132Z" fill="#083C94"/>
<path d="M308.928 386.999L305.301 389.083C305.076 389.204 304.824 389.268 304.568 389.268C304.312 389.268 304.06 389.204 303.835 389.083L300.4 387.115C299.976 386.883 299.937 386.497 300.4 386.266L304.259 384.182C304.48 384.067 304.724 384.007 304.973 384.007C305.222 384.007 305.467 384.067 305.687 384.182L309.121 386.189C308.928 386.382 309.16 386.767 308.928 386.999Z" fill="#083C94"/>
<path d="M317.685 382.02L314.058 384.143C313.828 384.247 313.578 384.301 313.325 384.301C313.072 384.301 312.822 384.247 312.592 384.143L309.157 382.02C308.733 381.75 308.694 381.364 309.157 381.171L312.784 378.933C313.015 378.829 313.265 378.775 313.518 378.775C313.771 378.775 314.02 378.829 314.251 378.933L317.647 380.901C318.032 381.248 318.071 381.596 317.685 382.02Z" fill="#083C94"/>
<path d="M308.928 397.455L305.301 399.578C305.071 399.682 304.821 399.736 304.568 399.736C304.315 399.736 304.065 399.682 303.835 399.578L300.4 397.61C299.976 397.34 299.937 396.992 300.4 396.761L304.066 394.639C304.29 394.535 304.534 394.481 304.78 394.481C305.027 394.481 305.27 394.535 305.494 394.639L308.928 396.607C309.121 396.722 309.198 397.108 308.928 397.455Z" fill="#083C94"/>
<path d="M317.723 392.169L314.096 394.253C313.869 394.368 313.618 394.428 313.363 394.428C313.108 394.428 312.857 394.368 312.63 394.253L309.195 392.246C308.771 392.015 308.732 391.629 309.195 391.397L312.823 389.313C313.048 389.192 313.3 389.128 313.556 389.128C313.812 389.128 314.064 389.192 314.289 389.313L317.685 391.281C318.071 391.552 318.109 391.937 317.723 392.169Z" fill="#083C94"/>
<path d="M275.085 50.1639C275.085 50.1639 277.207 34.7287 273.001 29.9824C269.142 26.1236 260.035 32.9537 250.774 34.0727C230.94 36.4266 239.198 68.0302 239.198 68.0302L275.085 50.1639Z" fill="#083C94"/>
<path d="M289.324 146.21C286.855 142.629 284.6 138.905 282.571 135.058C282.571 134.826 286.43 108.046 281.915 88.5205C282.841 90.3727 295.807 115.841 300.013 132.897L304.373 150.57C300.296 159.337 294.924 167.441 288.437 174.61L283.111 179.318C283.01 179.427 282.888 179.513 282.752 179.573C282.616 179.632 282.469 179.663 282.32 179.663C282.172 179.663 282.025 179.632 281.889 179.573C281.753 179.513 281.63 179.427 281.529 179.318L276.783 172.797C276.699 172.643 276.654 172.47 276.654 172.295C276.654 172.12 276.699 171.947 276.783 171.793C278.959 165.632 281.604 159.646 284.694 153.889C286.455 151.467 288.004 148.897 289.324 146.21Z" fill="#083C94"/>
<path d="M282.454 181.364H282.184C281.82 181.327 281.468 181.215 281.149 181.036C280.83 180.857 280.552 180.614 280.331 180.322L275.547 173.647C275.285 173.298 275.116 172.888 275.055 172.457C274.995 172.025 275.044 171.585 275.199 171.177C277.411 164.887 280.12 158.784 283.303 152.925C284.857 150.8 286.263 148.569 287.509 146.249C285.24 142.897 283.14 139.432 281.219 135.869L280.949 135.445V134.904C280.949 134.634 284.808 108.202 280.331 88.9461L280.023 87.6341L282.608 86.6309L283.264 87.9043C284.692 90.6826 297.31 115.61 301.478 132.589L305.954 150.764V151.227C301.814 160.214 296.308 168.506 289.631 175.808L284.19 180.631C283.72 181.079 283.103 181.34 282.454 181.364ZM278.055 172.103L282.377 177.969L287.432 173.647C293.674 166.72 298.874 158.92 302.867 150.494L298.661 133.322C295.187 121.377 290.681 109.757 285.194 98.5931C286.145 110.682 285.848 122.838 284.306 134.866C286.217 138.459 288.357 141.926 290.712 145.246L291.252 146.018L290.866 146.867C289.435 149.562 287.796 152.142 285.965 154.584C282.85 160.196 280.205 166.056 278.055 172.103Z" fill="#083C94"/>
<path d="M285.042 121.282C289.263 118.26 292.477 114.038 294.265 109.165C294.265 109.165 292.528 90.9131 281.299 86.8614C270.07 82.8097 279.524 111.905 279.524 111.905L285.042 121.282Z" fill="white"/>
<path d="M284.463 123.482L278.057 112.176C276.9 108.665 271.42 90.8369 276.282 86.1292C277.04 85.4566 277.982 85.027 278.987 84.8963C279.991 84.7655 281.012 84.9397 281.916 85.396C293.917 89.7179 295.808 108.24 295.885 109.012V109.398V109.784C293.895 114.992 290.369 119.474 285.775 122.633L284.463 123.482ZM280.952 111.134L285.505 119.083C288.63 116.322 291.073 112.875 292.644 109.012C292.335 106.426 290.097 91.7631 280.759 88.4059C279.061 87.7885 278.559 88.4059 278.405 88.4059C275.858 90.8369 278.328 103.069 280.952 111.057V111.134Z" fill="#083C94"/>
<path d="M289.632 147.714L288.86 144.705C290.706 144.328 292.61 144.328 294.456 144.705L293.877 147.753C292.476 147.484 291.038 147.471 289.632 147.714Z" fill="#083C94"/>
<path d="M285.466 347.909C285.466 347.909 287.781 348.873 290.521 355.626C293.801 362.115 298.159 368 303.41 373.029C306.535 375.615 301.905 385.648 291.833 381.094C287.318 379.049 281.028 374.264 277.864 372.759C275.722 371.742 273.863 370.215 272.45 368.31C271.037 366.406 270.113 364.184 269.761 361.839C269.069 358.804 269.069 355.652 269.761 352.616C271.652 347.832 279.794 345.786 279.794 345.786L285.466 347.909Z" fill="#5243C2"/>
<path d="M285.466 347.909C285.466 347.909 287.781 348.873 290.521 355.626C293.801 362.115 298.159 368 303.41 373.029C306.535 375.615 301.905 385.648 291.833 381.094C287.318 379.049 281.028 374.264 277.864 372.759C275.722 371.742 273.863 370.215 272.45 368.31C271.037 366.406 270.113 364.184 269.761 361.839C269.069 358.804 269.069 355.652 269.761 352.616C271.652 347.832 279.794 345.786 279.794 345.786L285.466 347.909Z" fill="url(#paint0_linear)"/>
<path d="M296.692 383.795C294.755 383.761 292.848 383.314 291.097 382.483C288.114 381.002 285.238 379.313 282.492 377.428C280.766 376.283 278.975 375.24 277.128 374.303C274.75 373.177 272.685 371.483 271.116 369.37C269.548 367.256 268.525 364.789 268.137 362.186C267.413 358.869 267.506 355.426 268.408 352.153C270.568 346.674 279.135 344.436 279.482 344.436H279.945L286.081 346.712C286.544 346.944 289.129 348.333 291.946 355.317C295.16 361.543 299.355 367.211 304.372 372.103C305.356 373.13 305.931 374.482 305.988 375.903C306.045 377.325 305.58 378.718 304.68 379.821C303.794 381.105 302.596 382.143 301.199 382.838C299.802 383.533 298.251 383.863 296.692 383.795ZM279.791 347.291C277.476 347.986 272.498 349.992 271.302 353.079C270.665 355.847 270.665 358.724 271.302 361.491C271.614 363.59 272.439 365.579 273.705 367.282C274.97 368.985 276.637 370.35 278.556 371.254C280.522 372.292 282.429 373.439 284.267 374.689C286.878 376.497 289.612 378.121 292.448 379.551C293.986 380.551 295.85 380.921 297.654 380.583C299.457 380.245 301.061 379.226 302.133 377.737C303.06 376.193 303.06 374.611 302.481 374.11C297.058 368.888 292.545 362.797 289.129 356.089C288.355 353.45 286.89 351.065 284.885 349.182L279.791 347.291Z" fill="#083C94"/>
<path d="M285.272 348.488C286.392 352.365 287.852 356.135 289.632 359.756C291.33 362.882 288.089 365.621 281.915 361.724C277.833 358.501 275.084 353.883 274.197 348.758L284.23 347.292L285.272 348.488Z" fill="white"/>
<path d="M287.161 365.197C284.919 365.057 282.759 364.31 280.909 363.036C276.464 359.575 273.498 354.554 272.613 348.99L272.343 347.446L284.845 345.517L286.698 347.755V348.064C287.694 351.813 288.984 355.477 290.556 359.023C291.055 359.799 291.276 360.72 291.185 361.638C291.094 362.555 290.696 363.415 290.055 364.078C289.258 364.79 288.229 365.188 287.161 365.197ZM276.009 350.032C276.925 354.147 279.261 357.809 282.607 360.373C285.694 362.341 287.662 362.303 288.202 361.801C288.743 361.3 288.202 360.952 288.202 360.489C286.476 356.862 285.069 353.092 283.996 349.222L283.688 348.874L276.009 350.032Z" fill="#083C94"/>
<path d="M201.151 281.345C199.383 288.098 199.706 295.23 202.077 301.796C206.206 310.864 196.597 317.231 188.533 307.391C183.618 301.129 180.761 293.5 180.352 285.551C179.578 283.861 179.178 282.025 179.178 280.168C179.178 278.31 179.578 276.474 180.352 274.785C181.983 273.118 184.038 271.928 186.296 271.343C188.553 270.758 190.928 270.801 193.163 271.466C203.08 273.974 201.151 281.345 201.151 281.345Z" fill="#5243C2"/>
<path d="M201.151 281.345C199.383 288.098 199.706 295.23 202.077 301.796C206.206 310.864 196.597 317.231 188.533 307.391C183.618 301.129 180.761 293.5 180.352 285.551C179.578 283.861 179.178 282.025 179.178 280.168C179.178 278.31 179.578 276.474 180.352 274.785C181.983 273.118 184.038 271.928 186.296 271.343C188.553 270.758 190.928 270.801 193.163 271.466C203.08 273.974 201.151 281.345 201.151 281.345Z" fill="url(#paint1_linear)"/>
<path d="M197.022 313.875C195.09 313.743 193.211 313.183 191.522 312.236C189.834 311.288 188.377 309.976 187.259 308.395C182.168 301.926 179.203 294.041 178.77 285.821C177.342 283.004 177.11 275.595 179.464 273.434C181.284 271.71 183.527 270.496 185.965 269.913C188.404 269.331 190.953 269.401 193.356 270.116C195.021 270.414 196.611 271.037 198.035 271.951C199.459 272.865 200.688 274.051 201.652 275.441C202.734 277.334 203.078 279.561 202.617 281.692C201.012 288.071 201.32 294.782 203.504 300.986C204.641 302.861 205.026 305.097 204.583 307.244C204.139 309.392 202.899 311.292 201.112 312.563C199.9 313.378 198.482 313.833 197.022 313.875ZM189.304 272.547C186.421 272.576 183.66 273.708 181.586 275.711C180.544 278.538 180.544 281.644 181.586 284.471L181.857 284.856V285.551C182.21 293.187 184.904 300.53 189.574 306.581C193.24 311.058 197.099 311.675 199.298 310.44C200.425 309.535 201.173 308.242 201.394 306.814C201.616 305.385 201.295 303.926 200.495 302.723C197.947 295.834 197.597 288.325 199.491 281.229C199.491 280.612 200.649 275.402 192.43 273.241C191.418 272.892 190.369 272.659 189.304 272.547Z" fill="#083C94"/>
<path d="M201.151 281.345L198.566 289.41C196.829 291.108 191.659 287.288 190.655 285.088C190.098 283.857 189.697 282.56 189.459 281.23C189.236 279.424 189.457 277.591 190.103 275.89C190.748 274.188 191.799 272.67 193.164 271.467L201.151 281.345Z" fill="white"/>
<path d="M197.408 291.338C197.126 291.375 196.841 291.375 196.559 291.338C193.48 290.426 190.878 288.35 189.304 285.55C188.702 284.318 188.236 283.024 187.915 281.691C187.614 279.653 187.808 277.573 188.479 275.625C189.151 273.678 190.281 271.92 191.774 270.501L193.163 269.266L202.926 280.843L199.955 290.026L199.685 290.297C199.402 290.623 199.053 290.886 198.66 291.065C198.267 291.245 197.84 291.338 197.408 291.338ZM192.893 273.974C192.112 274.96 191.539 276.094 191.208 277.308C190.876 278.521 190.793 279.789 190.964 281.035C191.202 282.228 191.564 283.392 192.044 284.508C193.288 286.369 195.145 287.734 197.292 288.367L199.376 281.691L192.893 273.974Z" fill="#083C94"/>
<path d="M277.207 192.4C279.343 214.981 273.454 237.592 260.575 256.263L249.616 265.061L230.631 270.116L200.648 281.345C200.407 281.459 200.143 281.517 199.876 281.517C199.609 281.517 199.346 281.459 199.104 281.345L198.024 280.843C196.766 280.214 195.672 279.3 194.829 278.175C193.985 277.05 193.414 275.744 193.162 274.361L192.815 272.547C192.749 272.195 192.783 271.831 192.913 271.497C193.042 271.163 193.262 270.872 193.548 270.656C197.021 268.148 208.366 259.504 215.504 254.681C226.193 247.233 232.869 243.104 240.278 241.445C247.687 239.786 237.307 190.933 237.307 190.933L257.102 181.364L277.207 192.4Z" fill="#083C94"/>
<path d="M199.953 283.042C199.419 283.043 198.892 282.924 198.41 282.695L197.329 282.155C195.869 281.426 194.595 280.372 193.605 279.074C192.615 277.777 191.935 276.269 191.618 274.668L191.271 272.855C191.155 272.217 191.216 271.56 191.448 270.955C191.679 270.349 192.071 269.819 192.583 269.42C195.979 266.874 207.478 258.23 214.617 253.291C224.765 246.229 232.02 241.483 239.969 239.785C243.094 239.129 241.165 216.401 235.801 191.164L235.608 189.968L257.218 179.626L278.711 191.396V192.167C280.78 215.127 274.82 238.093 261.848 257.149L261.54 257.497L250.272 266.488H249.963L230.978 271.504L201.188 282.811C200.795 282.965 200.376 283.043 199.953 283.042ZM239.081 191.704C242.4 207.448 248.458 241.174 240.586 242.833C232.714 244.493 226.232 249.007 216.314 255.838C209.214 260.777 197.754 269.382 194.396 271.89C194.363 271.949 194.345 272.015 194.345 272.083C194.345 272.151 194.363 272.217 194.396 272.276L194.705 273.974C194.906 275.09 195.358 276.145 196.026 277.061C196.695 277.977 197.562 278.729 198.564 279.26L199.644 279.762C199.687 279.78 199.733 279.789 199.779 279.789C199.826 279.789 199.872 279.78 199.915 279.762L229.936 268.456L248.728 263.478L259.301 255.066C271.563 236.921 277.317 215.158 275.624 193.325L256.909 183.099L239.081 191.704Z" fill="#083C94"/>
<path d="M261.309 202.663C261.309 202.663 282.378 262.398 282.648 274.707C282.918 285.975 285.311 337.992 285.774 348.024C285.791 348.494 285.664 348.957 285.408 349.35C285.153 349.744 284.782 350.049 284.346 350.224C281.457 351.361 278.244 351.361 275.355 350.224H274.815C274.444 350.076 274.117 349.835 273.867 349.524C273.617 349.213 273.452 348.843 273.387 348.449C271.734 338.429 269.15 328.585 265.669 319.045C260.306 305.423 263.894 283.698 263.894 283.698C263.894 283.698 256.562 262.513 246.105 252.828C235.648 243.142 220.56 218.099 220.753 202.162C220.946 186.225 261.309 202.663 261.309 202.663Z" fill="#083C94"/>
<path d="M279.752 352.54C278.063 352.54 276.388 352.226 274.813 351.614L274.196 351.383C273.571 351.146 273.019 350.751 272.593 350.237C272.167 349.723 271.881 349.107 271.765 348.45C270.105 338.52 267.521 328.766 264.047 319.316C258.953 306.351 261.655 286.709 262.118 283.545C261.114 280.767 254.207 262.36 244.907 253.832C234.489 244.301 218.86 218.756 219.015 202.009C218.994 200.725 219.293 199.456 219.886 198.318C220.479 197.179 221.347 196.206 222.411 195.487C232.019 189.082 258.76 199.964 261.925 201.237L262.542 201.507L262.812 202.163C263.661 204.594 283.92 262.129 284.229 274.67C284.499 285.899 286.852 337.568 287.316 347.794C287.376 348.608 287.177 349.419 286.747 350.113C286.317 350.806 285.679 351.345 284.923 351.653C283.271 352.272 281.516 352.573 279.752 352.54ZM230.861 196.799C228.584 196.656 226.313 197.151 224.301 198.227C223.676 198.654 223.168 199.231 222.824 199.905C222.48 200.579 222.312 201.329 222.333 202.086C222.333 217.521 237.074 242.295 247.223 251.594C257.371 260.894 265.089 282.079 265.398 282.928V283.314V283.699C265.398 283.931 261.963 305.193 267.057 318.236C270.538 327.881 273.121 337.828 274.774 347.948C274.784 348.08 274.834 348.206 274.916 348.309C274.999 348.413 275.111 348.489 275.238 348.527L275.778 348.759C278.262 349.712 281.011 349.712 283.495 348.759C283.631 348.7 283.747 348.603 283.829 348.479C283.911 348.356 283.956 348.212 283.958 348.064C283.495 337.8 281.103 286.323 280.833 274.747C280.563 263.171 262.118 210.382 259.802 203.861C250.581 200.019 240.816 197.636 230.861 196.799Z" fill="#083C94"/>
<path d="M206.747 104.535C212.458 93.4607 235.611 84.8942 235.611 84.8942L245.026 86.3219L259.342 79.7234C259.342 79.7234 279.678 82.8876 282.765 86.9393C285.852 90.9911 287.589 119.778 284.888 130.775C283.074 138.223 283.46 163.652 283.884 179.435C283.994 183.463 283.024 187.447 281.077 190.975C279.13 194.503 276.276 197.446 272.809 199.5C269.838 201.237 266.442 192.285 266.442 192.285H265.786C264.32 198.729 263.047 202.703 263.047 202.703C263.047 202.703 210.992 213.083 215.043 189.082C219.095 165.08 214.079 127.65 214.079 127.65C214.079 127.65 200.881 115.765 206.747 104.535Z" fill="#5243C2"/>
<path d="M206.747 104.535C212.458 93.4607 235.611 84.8942 235.611 84.8942L245.026 86.3219L259.342 79.7234C259.342 79.7234 279.678 82.8876 282.765 86.9393C285.852 90.9911 287.589 119.778 284.888 130.775C283.074 138.223 283.46 163.652 283.884 179.435C283.994 183.463 283.024 187.447 281.077 190.975C279.13 194.503 276.276 197.446 272.809 199.5C269.838 201.237 266.442 192.285 266.442 192.285H265.786C264.32 198.729 263.047 202.703 263.047 202.703C263.047 202.703 210.992 213.083 215.043 189.082C219.095 165.08 214.079 127.65 214.079 127.65C214.079 127.65 200.881 115.765 206.747 104.535Z" fill="url(#paint2_linear)"/>
<path d="M240.28 206.484C231.251 206.484 221.835 205.134 216.896 200.31C215.393 198.828 214.293 196.987 213.699 194.962C213.105 192.937 213.036 190.793 213.5 188.734C217.359 166.662 213.191 133.013 212.613 128.305C210.259 126.028 199.531 114.799 205.358 103.84C211.455 92.264 233.99 83.8518 234.955 83.5045H235.341L244.679 84.8937L258.995 78.2952H259.458C262.97 78.8354 280.605 81.7681 283.885 86.0128C287.165 90.2574 288.978 120.202 286.277 131.161C284.965 136.563 284.618 153.696 285.312 179.396C285.432 183.694 284.4 187.946 282.324 191.712C280.248 195.477 277.203 198.619 273.505 200.812C273.097 201.076 272.634 201.241 272.152 201.294C271.67 201.348 271.181 201.288 270.726 201.121C268.725 200.001 267.151 198.251 266.25 196.143C265.208 200.426 264.398 202.973 264.359 203.089L264.05 203.976L263.163 204.169C255.619 205.616 247.961 206.391 240.28 206.484ZM208.098 105.268C202.85 115.147 215.005 126.26 215.121 126.376L215.545 126.762V127.34C215.545 128.845 220.562 165.118 216.51 189.081C216.115 190.648 216.136 192.29 216.569 193.846C217.002 195.402 217.833 196.819 218.98 197.956C228.009 206.716 256.14 202.163 261.426 201.198C261.851 199.693 262.816 196.374 263.858 191.782L264.166 190.316L267.138 190.856L267.446 191.667C268.149 194.189 269.586 196.446 271.575 198.149C274.829 196.24 277.512 193.493 279.345 190.195C281.177 186.897 282.092 183.168 281.994 179.396C281.454 161.028 281.261 137.643 283.036 130.312C285.853 118.735 283.692 91.1064 281.184 87.865C279.331 85.4339 267.408 82.5784 259.227 81.2664L245.104 87.9807L235.611 86.5144C232.678 87.672 213.23 95.5826 208.059 105.268H208.098Z" fill="#083C94"/>
<path d="M244.445 75.2461C244.21 78.497 243.414 81.6826 242.091 84.6615C243.961 87.4561 246.282 89.9206 248.959 91.9547C251.418 93.7636 254.308 94.8971 257.341 95.2423C260.374 95.5876 263.444 95.1326 266.247 93.9227C264.602 88.8625 263.756 83.5768 263.739 78.2559C264.318 72.2748 244.445 75.2461 244.445 75.2461Z" fill="white"/>
<path d="M259.227 96.8941C255.197 96.922 251.269 95.635 248.036 93.2283C245.208 91.0746 242.757 88.4666 240.782 85.5107L240.357 84.8933L240.666 84.1601C241.886 81.3686 242.641 78.3969 242.904 75.362V74.05L244.216 73.8185C246.84 73.4326 260.192 71.6576 264.089 75.362C264.516 75.764 264.845 76.2578 265.052 76.8061C265.26 77.3543 265.339 77.9426 265.285 78.5262C265.341 83.6358 266.161 88.7082 267.716 93.5755L268.179 94.9261L266.867 95.4664C264.441 96.4445 261.843 96.9298 259.227 96.8941ZM243.792 84.4688C245.489 86.8423 247.531 88.9493 249.85 90.72C251.899 92.2251 254.28 93.2144 256.792 93.604C259.305 93.9936 261.874 93.772 264.282 92.9581C262.746 88.1726 262.016 83.1652 262.121 78.1404C262.135 78.0171 262.118 77.8922 262.071 77.7775C262.023 77.6628 261.948 77.5619 261.851 77.4844C259.922 75.6707 251.741 75.8637 245.837 76.6354C245.497 79.3159 244.836 81.9458 243.869 84.4688H243.792Z" fill="#083C94"/>
<path d="M243.711 79.761C243.711 79.761 233.601 81.4589 232.135 88.559C234.755 93.0887 238.441 96.911 242.872 99.6948C247.303 102.479 252.346 104.14 257.564 104.534L258.992 95.3119C254.811 95.1053 250.784 93.6689 247.416 91.183C245.667 89.9511 244.352 88.1983 243.66 86.1748C242.967 84.1512 242.931 81.9605 243.557 79.9153L243.711 79.761Z" fill="#5243C2"/>
<path d="M243.711 79.761C243.711 79.761 233.601 81.4589 232.135 88.559C234.755 93.0887 238.441 96.911 242.872 99.6948C247.303 102.479 252.346 104.14 257.564 104.534L258.992 95.3119C254.811 95.1053 250.784 93.6689 247.416 91.183C245.667 89.9511 244.352 88.1983 243.66 86.1748C242.967 84.1512 242.931 81.9605 243.557 79.9153L243.711 79.761Z" fill="url(#paint3_linear)"/>
<path d="M258.993 106.232H257.527C252.04 105.842 246.735 104.102 242.083 101.167C237.431 98.2316 233.577 94.1922 230.862 89.408L230.631 88.752V88.2117C232.174 80.1469 242.94 78.256 243.403 78.1789L245.95 77.7544L245.063 80.3398C244.563 82.0918 244.63 83.9568 245.254 85.6684C245.878 87.3801 247.026 88.851 248.536 89.871C251.582 92.1286 255.211 93.4675 258.993 93.7298H260.845L258.993 106.232ZM233.911 88.3275C236.301 92.294 239.568 95.6604 243.461 98.1687C247.354 100.677 251.769 102.261 256.369 102.798L257.295 96.7397C253.522 96.2024 249.927 94.7883 246.799 92.6108C245.111 91.4372 243.754 89.8469 242.862 87.9943C241.969 86.1416 241.571 84.0897 241.706 82.0377C240.004 82.4 238.411 83.1582 237.057 84.251C235.702 85.3438 234.625 86.7404 233.911 88.3275Z" fill="#083C94"/>
<path d="M262.35 95.0798L267.598 102.797C269.788 100.85 271.312 98.2652 271.956 95.4063C272.599 92.5474 272.33 89.5586 271.186 86.8606L263.469 87.9411C264.033 89.103 264.228 90.4097 264.028 91.6859C263.828 92.962 263.242 94.1463 262.35 95.0798Z" fill="#5243C2"/>
<path d="M262.35 95.0798L267.598 102.797C269.788 100.85 271.312 98.2652 271.956 95.4063C272.599 92.5474 272.33 89.5586 271.186 86.8606L263.469 87.9411C264.033 89.103 264.228 90.4097 264.028 91.6859C263.828 92.962 263.242 94.1463 262.35 95.0798Z" fill="url(#paint4_linear)"/>
<path d="M267.213 105.152L260.345 94.8872L261.232 93.9611C261.884 93.2816 262.322 92.4264 262.494 91.5007C262.665 90.575 262.562 89.6194 262.197 88.7517L261.309 86.8609L272.23 85.3174L272.654 86.5136C273.886 89.5236 274.15 92.8422 273.41 96.009C272.67 99.1759 270.963 102.034 268.525 104.187L267.213 105.152ZM264.281 95.1573L267.831 100.328C269.124 98.7298 270.005 96.838 270.395 94.8193C270.785 92.8006 270.673 90.7169 270.069 88.7517L265.593 89.3691C265.782 90.3723 265.764 91.4038 265.538 92.3996C265.312 93.3953 264.884 94.334 264.281 95.1573Z" fill="#083C94"/>
<path d="M273.965 51.6308C276.29 57.7794 277.046 64.4106 276.164 70.9248C275.596 75.6387 274.294 80.2348 272.306 84.5464L271.225 86.9774C271.014 87.4539 270.667 87.8579 270.228 88.1392C269.789 88.4204 269.277 88.5666 268.755 88.5595C261.257 88.4817 254.047 85.653 248.497 80.6104L245.757 77.369C244.53 75.9564 243.858 74.1463 243.866 72.2754C242.863 71.9875 241.942 71.4671 241.177 70.7564C240.413 70.0456 239.827 69.1647 239.467 68.1851C239.152 67.2925 239.027 66.3441 239.1 65.4004C239.173 64.4568 239.443 63.5389 239.892 62.7056C240.174 62.1564 240.649 61.7306 241.226 61.5099C241.802 61.2892 242.44 61.289 243.017 61.5093L245.525 58.1908L254.478 46.3057L273.965 51.6308Z" fill="#083C94"/>
<path d="M268.756 90.1032C260.869 90.0163 253.289 87.0365 247.455 81.7296L244.6 78.411C243.34 76.9882 242.558 75.2072 242.361 73.3174C241.325 72.8863 240.389 72.2455 239.612 71.4354C238.835 70.6252 238.234 69.6632 237.847 68.6097C237.463 67.5163 237.31 66.3555 237.396 65.2001C237.483 64.0447 237.807 62.9196 238.348 61.8954C238.706 61.1888 239.261 60.6013 239.946 60.204C240.631 59.8067 241.416 59.6168 242.207 59.6573L253.783 44.5308L275.084 50.1646L275.393 50.8206C277.84 57.235 278.636 64.1613 277.708 70.9635C277.165 75.8311 275.863 80.5837 273.849 85.0481L272.769 87.4792C272.442 88.2701 271.884 88.9439 271.168 89.4121C270.452 89.8804 269.611 90.1213 268.756 90.1032ZM241.976 63.0916C241.802 63.0911 241.632 63.1375 241.482 63.2257C241.333 63.314 241.21 63.441 241.127 63.5932C240.784 64.2398 240.574 64.9481 240.507 65.6768C240.441 66.4055 240.52 67.1401 240.741 67.8379C241.038 68.5859 241.501 69.2563 242.096 69.798C242.692 70.3397 243.402 70.7383 244.175 70.9635L245.41 71.2336V72.4685C245.408 73.9677 245.942 75.4183 246.915 76.5588L249.655 79.7616C254.913 84.4703 261.698 87.1158 268.756 87.2091C268.967 87.2017 269.172 87.1367 269.349 87.021C269.526 86.9054 269.667 86.7436 269.759 86.5531L270.878 84.0835C272.829 79.9338 274.131 75.5088 274.737 70.9635C275.506 64.9478 274.885 58.8358 272.923 53.0973L254.903 48.158L243.326 63.3617L242.246 62.9372L241.976 63.0916Z" fill="#083C94"/>
<path d="M265.591 192.438L262.504 192.052C265.528 164.841 265.528 137.379 262.504 110.168L265.591 109.744C268.636 137.224 268.636 164.957 265.591 192.438Z" fill="#083C94"/>
<path d="M251.315 260.623C250.3 259.105 249.178 257.66 247.958 256.301L247.186 255.491C243.387 251.55 239.793 247.415 236.42 243.104L238.388 241.753C241.682 245.951 245.199 249.97 248.922 253.793L249.733 254.642C251.051 256.101 252.251 257.662 253.321 259.311L251.315 260.623Z" fill="#5243C2"/>
<path d="M251.315 260.623C250.3 259.105 249.178 257.66 247.958 256.301L247.186 255.491C243.387 251.55 239.793 247.415 236.42 243.104L238.388 241.753C241.682 245.951 245.199 249.97 248.922 253.793L249.733 254.642C251.051 256.101 252.251 257.662 253.321 259.311L251.315 260.623Z" fill="url(#paint5_linear)"/>
<path d="M263.245 204.51L260.978 205.274L269.91 231.786L272.177 231.022L263.245 204.51Z" fill="#5243C2"/>
<path d="M263.245 204.51L260.978 205.274L269.91 231.786L272.177 231.022L263.245 204.51Z" fill="url(#paint6_linear)"/>
<path d="M226.425 224.235L225.962 221.882C227.566 221.701 229.11 221.168 230.485 220.32C231.859 219.473 233.029 218.333 233.911 216.981C235.244 213.798 235.327 210.228 234.143 206.987L236.342 206.099C237.089 208.021 237.443 210.074 237.383 212.135C237.323 214.196 236.851 216.224 235.995 218.1C234.964 219.777 233.568 221.199 231.911 222.262C230.254 223.324 228.379 223.999 226.425 224.235Z" fill="#5243C2"/>
<path d="M226.425 224.235L225.962 221.882C227.566 221.701 229.11 221.168 230.485 220.32C231.859 219.473 233.029 218.333 233.911 216.981C235.244 213.798 235.327 210.228 234.143 206.987L236.342 206.099C237.089 208.021 237.443 210.074 237.383 212.135C237.323 214.196 236.851 216.224 235.995 218.1C234.964 219.777 233.568 221.199 231.911 222.262C230.254 223.324 228.379 223.999 226.425 224.235Z" fill="url(#paint7_linear)"/>
<path d="M264.819 284.201L263.005 282.619C264.3 281.062 265.87 279.754 267.635 278.76L268.716 280.883L268.176 279.802L268.716 280.883C267.236 281.758 265.918 282.88 264.819 284.201Z" fill="#5243C2"/>
<path d="M264.819 284.201L263.005 282.619C264.3 281.062 265.87 279.754 267.635 278.76L268.716 280.883L268.176 279.802L268.716 280.883C267.236 281.758 265.918 282.88 264.819 284.201Z" fill="url(#paint8_linear)"/>
<path d="M278.442 346.097C276.244 346.067 274.076 345.581 272.075 344.669L273.001 342.469C274.814 343.466 276.881 343.902 278.942 343.724C281.002 343.545 282.964 342.759 284.578 341.466L286.314 343.125C284.156 345.068 281.346 346.129 278.442 346.097Z" fill="#5243C2"/>
<path d="M278.442 346.097C276.244 346.067 274.076 345.581 272.075 344.669L273.001 342.469C274.814 343.466 276.881 343.902 278.942 343.724C281.002 343.545 282.964 342.759 284.578 341.466L286.314 343.125C284.156 345.068 281.346 346.129 278.442 346.097Z" fill="url(#paint9_linear)"/>
<path d="M203.503 279.84C201.417 278.628 199.637 276.955 198.299 274.948C196.962 272.941 196.101 270.655 195.785 268.264L198.178 267.955C198.439 269.995 199.167 271.947 200.304 273.66C201.442 275.373 202.959 276.801 204.738 277.833L203.503 279.84Z" fill="#5243C2"/>
<path d="M203.503 279.84C201.417 278.628 199.637 276.955 198.299 274.948C196.962 272.941 196.101 270.655 195.785 268.264L198.178 267.955C198.439 269.995 199.167 271.947 200.304 273.66C201.442 275.373 202.959 276.801 204.738 277.833L203.503 279.84Z" fill="url(#paint10_linear)"/>
<path d="M289.094 371.564V368.438C290.39 368.356 291.653 367.997 292.798 367.384C293.943 366.772 294.943 365.921 295.731 364.888L298.239 366.702C297.169 368.138 295.793 369.319 294.212 370.159C292.631 371 290.883 371.48 289.094 371.564Z" fill="#083C94"/>
<path d="M196.597 296.704C194.333 296.727 192.12 296.038 190.269 294.736L192.082 292.189C193.226 292.892 194.514 293.329 195.849 293.47C197.185 293.61 198.535 293.449 199.8 292.999L200.996 295.855C199.594 296.404 198.103 296.691 196.597 296.704Z" fill="#083C94"/>
<path d="M196.172 302.684C194.243 302.654 192.34 302.234 190.577 301.449L191.773 298.594C197.523 300.948 199.838 298.362 199.915 298.247L202.346 300.215C201.567 301.06 200.607 301.721 199.539 302.148C198.471 302.576 197.321 302.759 196.172 302.684Z" fill="#083C94"/>
<path d="M294.07 374.997L293.183 372.026C295.511 371.234 297.571 369.803 299.125 367.897L301.595 369.827C299.627 372.228 297.017 374.021 294.07 374.997Z" fill="#083C94"/>
<path d="M237.615 94.7726L234.837 93.3449C236.835 89.9367 239.786 87.187 243.326 85.4343L244.638 88.2898C241.708 89.7094 239.264 91.9653 237.615 94.7726Z" fill="#083C94"/>
<path d="M245.063 73.0853L242.709 72.7766C242.903 71.0115 243.645 69.3515 244.831 68.0303L246.529 69.6896L245.68 68.8406L246.529 69.6896C245.711 70.6489 245.2 71.832 245.063 73.0853Z" fill="#5243C2"/>
<path d="M245.063 73.0853L242.709 72.7766C242.903 71.0115 243.645 69.3515 244.831 68.0303L246.529 69.6896L245.68 68.8406L246.529 69.6896C245.711 70.6489 245.2 71.832 245.063 73.0853Z" fill="url(#paint11_linear)"/>
<path d="M240.433 74.6681C239.045 73.2363 238.011 71.4994 237.415 69.5963C236.818 67.6933 236.676 65.6771 236.999 63.7091C237.206 62.5555 237.71 61.4757 238.461 60.5758C239.212 59.676 240.184 58.9871 241.282 58.5769C242.234 58.3315 243.23 58.3154 244.189 58.5301C245.149 58.7448 246.043 59.184 246.8 59.8117L247.34 59.5802C247.34 57.2649 248.884 51.168 258.724 48.0038C270.3 44.145 274.66 50.0489 276.513 52.5186L276.744 52.8273L274.853 54.255L274.622 54.0235C272.808 51.631 269.451 47.1548 259.457 50.1647C249.462 53.1746 249.694 59.8503 249.733 60.1204V60.9693L246.337 62.4357L245.758 61.934C245.288 61.3975 244.679 61.0017 243.998 60.7906C243.317 60.5794 242.59 60.5612 241.899 60.7378C241.194 61.0275 240.577 61.497 240.11 62.0997C239.642 62.7023 239.341 63.4169 239.237 64.1721C239.03 65.735 239.18 67.3242 239.675 68.821C240.169 70.3178 240.995 71.6835 242.092 72.8158L240.433 74.6681Z" fill="#5243C2"/>
<path d="M240.433 74.6681C239.045 73.2363 238.011 71.4994 237.415 69.5963C236.818 67.6933 236.676 65.6771 236.999 63.7091C237.206 62.5555 237.71 61.4757 238.461 60.5758C239.212 59.676 240.184 58.9871 241.282 58.5769C242.234 58.3315 243.23 58.3154 244.189 58.5301C245.149 58.7448 246.043 59.184 246.8 59.8117L247.34 59.5802C247.34 57.2649 248.884 51.168 258.724 48.0038C270.3 44.145 274.66 50.0489 276.513 52.5186L276.744 52.8273L274.853 54.255L274.622 54.0235C272.808 51.631 269.451 47.1548 259.457 50.1647C249.462 53.1746 249.694 59.8503 249.733 60.1204V60.9693L246.337 62.4357L245.758 61.934C245.288 61.3975 244.679 61.0017 243.998 60.7906C243.317 60.5794 242.59 60.5612 241.899 60.7378C241.194 61.0275 240.577 61.497 240.11 62.0997C239.642 62.7023 239.341 63.4169 239.237 64.1721C239.03 65.735 239.18 67.3242 239.675 68.821C240.169 70.3178 240.995 71.6835 242.092 72.8158L240.433 74.6681Z" fill="url(#paint12_linear)"/>
<path d="M266.941 74.5143C266.211 74.5371 265.482 74.446 264.78 74.2442L265.552 71.9675C266.215 72.0975 266.896 72.0975 267.559 71.9675L267.79 71.7359L266.478 65.1374L268.793 64.5972L270.298 71.3115C270.388 71.6771 270.393 72.0585 270.313 72.4263C270.232 72.7941 270.069 73.1388 269.835 73.4338C269.61 73.7383 269.32 73.9894 268.987 74.1694C268.653 74.3495 268.284 74.454 267.906 74.4757L266.941 74.5143Z" fill="#5243C2"/>
<path d="M266.941 74.5143C266.211 74.5371 265.482 74.446 264.78 74.2442L265.552 71.9675C266.215 72.0975 266.896 72.0975 267.559 71.9675L267.79 71.7359L266.478 65.1374L268.793 64.5972L270.298 71.3115C270.388 71.6771 270.393 72.0585 270.313 72.4263C270.232 72.7941 270.069 73.1388 269.835 73.4338C269.61 73.7383 269.32 73.9894 268.987 74.1694C268.653 74.3495 268.284 74.454 267.906 74.4757L266.941 74.5143Z" fill="url(#paint13_linear)"/>
<path d="M261.387 63.8253C261.734 65.6003 261.001 67.2596 259.728 67.4911C258.455 67.7227 257.143 66.4878 256.795 64.7128C256.448 62.9377 257.22 61.2785 258.493 61.0469C259.766 60.8154 261.04 62.0502 261.387 63.8253Z" fill="#5243C2"/>
<path d="M261.387 63.8253C261.734 65.6003 261.001 67.2596 259.728 67.4911C258.455 67.7227 257.143 66.4878 256.795 64.7128C256.448 62.9377 257.22 61.2785 258.493 61.0469C259.766 60.8154 261.04 62.0502 261.387 63.8253Z" fill="url(#paint14_linear)"/>
<path d="M274.853 61.3541C275.2 63.1291 274.66 64.7498 273.618 64.9428C272.576 65.1357 271.495 63.8623 271.148 62.0873C270.801 60.3122 271.38 58.6915 272.383 58.4986C273.386 58.3056 274.505 59.579 274.853 61.3541Z" fill="#5243C2"/>
<path d="M274.853 61.3541C275.2 63.1291 274.66 64.7498 273.618 64.9428C272.576 65.1357 271.495 63.8623 271.148 62.0873C270.801 60.3122 271.38 58.6915 272.383 58.4986C273.386 58.3056 274.505 59.579 274.853 61.3541Z" fill="url(#paint15_linear)"/>
<path d="M266.866 82.1933C265.369 82.2274 263.894 81.8252 262.621 81.0356L264.049 79.0676C264.868 79.607 265.827 79.8945 266.808 79.8945C267.789 79.8945 268.748 79.607 269.567 79.0676L270.802 81.1128C269.605 81.8077 268.249 82.18 266.866 82.1933Z" fill="#5243C2"/>
<path d="M266.866 82.1933C265.369 82.2274 263.894 81.8252 262.621 81.0356L264.049 79.0676C264.868 79.607 265.827 79.8945 266.808 79.8945C267.789 79.8945 268.748 79.607 269.567 79.0676L270.802 81.1128C269.605 81.8077 268.249 82.18 266.866 82.1933Z" fill="url(#paint16_linear)"/>
<path d="M240.934 130.736C238.966 134.17 235.725 136.023 233.757 134.904C231.789 133.785 231.751 130.042 233.757 126.569C235.764 123.096 238.966 121.282 240.934 122.44C242.902 123.597 242.941 127.34 240.934 130.736Z" fill="#5243C2"/>
<path d="M240.934 130.736C238.966 134.17 235.725 136.023 233.757 134.904C231.789 133.785 231.751 130.042 233.757 126.569C235.764 123.096 238.966 121.282 240.934 122.44C242.902 123.597 242.941 127.34 240.934 130.736Z" fill="url(#paint17_linear)"/>
<path d="M235.029 136.795C234.301 136.79 233.585 136.604 232.945 136.254C230.206 134.634 229.936 130.042 232.405 125.797C233.385 124.001 234.823 122.496 236.573 121.437C237.3 120.879 238.176 120.549 239.09 120.49C240.004 120.43 240.916 120.643 241.709 121.102C242.502 121.56 243.141 122.244 243.546 123.066C243.951 123.888 244.102 124.812 243.982 125.72C243.918 127.762 243.333 129.755 242.284 131.508C241.613 132.926 240.597 134.152 239.33 135.076C238.063 135.999 236.584 136.59 235.029 136.795ZM239.467 123.482C238.932 123.523 238.415 123.696 237.962 123.983C236.699 124.774 235.663 125.877 234.952 127.186C233.216 130.196 233.447 132.859 234.373 133.399C235.299 133.939 237.73 132.782 239.428 129.81C240.199 128.523 240.636 127.064 240.702 125.566C240.751 125.212 240.714 124.851 240.593 124.515C240.472 124.179 240.271 123.877 240.007 123.636C239.848 123.528 239.659 123.473 239.467 123.482Z" fill="#083C94"/>
<path d="M242.593 131.585C240.625 135.058 237.383 136.91 235.415 135.752C233.447 134.595 233.409 130.89 235.415 127.456C237.422 124.022 240.625 122.131 242.593 123.481C244.561 124.832 244.599 128.15 242.593 131.585Z" fill="#5243C2"/>
<path d="M242.593 131.585C240.625 135.058 237.383 136.91 235.415 135.752C233.447 134.595 233.409 130.89 235.415 127.456C237.422 124.022 240.625 122.131 242.593 123.481C244.561 124.832 244.599 128.15 242.593 131.585Z" fill="url(#paint18_linear)"/>
<path d="M236.73 137.644C235.998 137.665 235.276 137.478 234.646 137.104C231.868 135.522 231.598 130.93 234.067 126.685C235.049 124.88 236.486 123.363 238.235 122.286C238.98 121.789 239.842 121.495 240.735 121.434C241.629 121.373 242.523 121.547 243.329 121.939C246.068 123.559 246.338 128.113 243.869 132.396C242.889 134.192 241.451 135.697 239.701 136.756C238.801 137.297 237.779 137.602 236.73 137.644ZM241.283 124.524C240.752 124.555 240.236 124.714 239.778 124.987C238.524 125.804 237.49 126.917 236.769 128.229C235.032 131.2 235.264 133.901 236.19 134.403C237.116 134.904 237.386 134.403 238.235 134.055C239.501 133.241 240.548 132.128 241.283 130.814C242.981 127.843 242.75 125.18 241.824 124.64C241.656 124.557 241.47 124.517 241.283 124.524Z" fill="#083C94"/>
<path d="M339.179 123.482C378.114 134.056 432.948 119.624 461.734 91.4544C476.089 77.254 481.221 62.2819 477.903 49.4707L474.044 34.7301L470.764 36.3122C463.294 28.6353 453.767 23.276 443.328 20.877C424.458 15.4361 396.636 4.55427 375.066 9.84082C352.144 15.4361 335.629 37.9715 320.772 52.5577C312.837 59.7961 307.168 69.1779 304.45 79.5693L300.591 79.8008L304.218 93.7697C307.498 106.928 319.345 117.849 339.179 123.482ZM338.947 57.8829C360.286 36.8524 400.997 26.2793 429.899 34.2284C458.802 42.1776 464.898 65.6005 443.559 86.438C432.87 96.9339 415.004 91.6088 398.566 95.892C382.127 100.175 367.039 114.067 352.607 110.092C323.744 102.105 317.608 78.6046 338.947 57.5742V57.8829Z" fill="#083C94"/>
<path d="M367.349 128.422C357.713 128.504 348.11 127.297 338.794 124.833C319.153 119.392 306.457 108.626 303.023 94.4641V94.1554L298.933 78.3729L303.293 78.1028C306.278 67.8926 311.988 58.688 319.809 51.4771C322.819 48.5058 325.828 45.2645 329.07 41.8301C341.727 28.2857 356.081 12.9277 374.835 8.33575C393.589 3.74378 415.391 10.651 433.335 16.0533C437.193 17.1724 440.589 18.2529 443.831 19.1404C454.206 21.6755 463.684 27.0152 471.228 34.5756L475.087 32.6848L479.486 49.432C482.997 63.285 477.093 78.6431 462.854 92.6891C440.319 114.723 401.847 128.422 367.349 128.422ZM305.608 92.226L305.878 93.4223C308.927 106.581 320.889 116.575 339.527 121.823C377.922 132.396 432.138 118.273 460.539 90.3352C474.045 77.0224 479.833 62.6676 476.322 49.8564L472.926 36.968L470.302 38.2414L469.53 37.3539C462.266 29.845 452.997 24.5812 442.827 22.1888C439.624 21.3013 436.267 20.2208 432.408 19.0632C414.851 13.7381 392.972 7.10093 375.568 11.3456C358.165 15.5903 343.656 30.8711 331.231 43.9525C327.989 47.4254 324.902 50.6668 321.892 53.6766C314.154 60.698 308.619 69.8127 305.956 79.9165L305.724 81.0355L302.791 81.2284L305.608 92.226ZM357.972 112.369C356.004 112.376 354.044 112.116 352.145 111.597C337.636 107.738 328.144 99.5963 325.404 89.139C322.664 78.6816 327.102 67.0667 337.829 56.4936C359.477 35.1158 400.959 24.3498 430.44 32.4146C444.988 36.2734 454.481 44.4155 457.221 54.8729C459.96 65.3302 455.523 76.9452 444.795 87.5183C437.695 94.5413 427.855 94.9272 417.398 95.2359C411.245 95.2635 405.114 95.9492 399.107 97.2811C393.079 99.099 387.249 101.516 381.704 104.497C373.446 108.549 365.728 112.369 358.011 112.369H357.972ZM408.87 32.8391C384.019 32.8391 356.274 42.6791 340.029 58.6931C330.15 68.4558 326.021 78.9903 328.452 88.3286C330.883 97.6669 339.604 104.883 353.033 108.587C361.561 110.941 370.591 106.504 380.045 101.796C385.785 98.7229 391.823 96.2406 398.065 94.387C404.275 93.0091 410.612 92.2848 416.973 92.226C426.775 91.8401 436.074 91.4543 442.287 85.3188C452.204 75.556 456.333 65.0215 453.863 55.6832C451.394 46.3449 442.711 39.129 429.283 35.4245C422.624 33.6595 415.759 32.7901 408.87 32.8391Z" fill="#083C94"/>
<path d="M335.127 107.738C374.062 118.466 428.895 104.188 457.643 75.8647C486.391 47.5412 478.172 15.8218 439.276 5.09438C400.379 -5.63308 345.468 8.64447 316.643 36.9681C287.818 65.2916 296.23 97.011 335.127 107.738ZM334.895 42.1388C356.234 20.954 396.945 10.3809 425.847 18.3301C454.749 26.2792 460.846 49.8179 439.507 70.8483C418.168 91.8788 377.458 102.452 348.555 94.5027C319.653 86.5536 313.556 63.0149 334.895 41.9845V42.1388Z" fill="white"/>
<path d="M363.297 112.831C353.648 112.909 344.033 111.702 334.703 109.242C315.409 103.878 302.675 93.2665 299.048 79.3363C295.42 65.406 301.209 50.1638 315.641 35.8862C344.697 7.21534 400.341 -7.25516 439.662 3.58807C458.956 8.9518 471.729 19.5635 475.356 33.4938C478.984 47.424 473.08 62.8592 458.763 76.9438C436.267 99.1319 397.679 112.831 363.297 112.831ZM410.953 3.08642C377.304 3.08642 339.797 16.4379 317.802 38.0857C304.334 51.3986 298.739 65.7533 302.058 78.5645C305.376 91.3757 317.493 101.177 335.552 106.232C373.908 116.805 428.163 102.682 456.564 74.7443C470.07 61.4315 475.665 47.0767 472.346 34.2655C469.028 21.4543 457.104 11.5758 438.852 6.59793C429.752 4.18274 420.368 3.00167 410.953 3.08642ZM369.432 98.6689C362.245 98.7299 355.082 97.8345 348.132 96.0063C333.623 92.1475 324.13 84.0054 321.39 73.5481C318.65 63.0907 323.088 51.4758 333.816 40.9027C355.463 19.5249 396.945 8.75886 426.427 16.8237C440.974 20.6825 450.467 28.8246 453.207 39.282C455.947 49.7393 451.509 61.3543 440.781 71.9274C423.803 88.4816 395.132 98.6689 369.432 98.6689ZM404.817 17.2482C379.967 17.2482 352.222 27.011 335.938 43.1022C326.059 52.8649 321.93 63.3994 324.361 72.7377C326.793 82.076 335.513 89.292 348.942 92.9964C377.304 100.714 417.397 90.3725 438.35 69.8436C448.268 60.0809 452.396 49.5464 449.927 40.2081C447.457 30.8698 438.736 23.6538 425.346 19.9494C418.655 18.1351 411.75 17.2266 404.817 17.2482Z" fill="#083C94"/>
<path d="M365.353 111.018L362.328 111.805L366.323 127.153L369.348 126.366L365.353 111.018Z" fill="#5243C2"/>
<path d="M365.353 111.018L362.328 111.805L366.323 127.153L369.348 126.366L365.353 111.018Z" fill="url(#paint19_linear)"/>
<path d="M467.897 67.4598L464.865 68.2412L468.83 83.6251L471.862 82.8437L467.897 67.4598Z" fill="#5243C2"/>
<path d="M467.897 67.4598L464.865 68.2412L468.83 83.6251L471.862 82.8437L467.897 67.4598Z" fill="url(#paint20_linear)"/>
<path d="M449.737 84.4796L446.705 85.261L450.67 100.645L453.702 99.8634L449.737 84.4796Z" fill="#5243C2"/>
<path d="M449.737 84.4796L446.705 85.261L450.67 100.645L453.702 99.8634L449.737 84.4796Z" fill="url(#paint21_linear)"/>
<path d="M345.331 34.2151L342.307 35.0024L346.302 50.3507L349.327 49.5633L345.331 34.2151Z" fill="#5243C2"/>
<path d="M345.331 34.2151L342.307 35.0024L346.302 50.3507L349.327 49.5633L345.331 34.2151Z" fill="url(#paint22_linear)"/>
<path d="M412.649 15.3242L409.624 16.1116L413.619 31.4598L416.644 30.6725L412.649 15.3242Z" fill="#5243C2"/>
<path d="M412.649 15.3242L409.624 16.1116L413.619 31.4598L416.644 30.6725L412.649 15.3242Z" fill="url(#paint23_linear)"/>
<path d="M233.45 202.935C233.257 202.739 233.148 202.476 233.148 202.201C233.148 201.927 233.257 201.663 233.45 201.468L330.19 106.889C330.524 106.721 330.899 106.654 331.271 106.696L342.847 109.822C343.464 110.056 344.017 110.434 344.46 110.923C344.903 111.413 345.223 112.001 345.394 112.639L348.018 123.482C348.179 123.891 348.179 124.346 348.018 124.755L251.046 219.334C250.851 219.528 250.588 219.636 250.313 219.636C250.038 219.636 249.775 219.528 249.58 219.334L233.45 202.935Z" fill="white"/>
<path d="M250.466 221.148C249.777 221.148 249.115 220.886 248.613 220.414L232.368 204.015C232.12 203.783 231.923 203.502 231.79 203.189C231.657 202.877 231.591 202.54 231.596 202.201C231.595 201.856 231.662 201.515 231.795 201.197C231.927 200.879 232.122 200.59 232.368 200.349L329.301 105.577C329.971 105.208 330.754 105.098 331.5 105.268L343.077 108.394C343.946 108.699 344.73 109.209 345.361 109.88C345.992 110.552 346.453 111.365 346.704 112.252L349.521 123.057C349.647 123.457 349.692 123.878 349.652 124.296C349.613 124.714 349.489 125.119 349.289 125.488L349.019 125.874L252.279 220.414C252.04 220.65 251.757 220.836 251.446 220.962C251.134 221.088 250.801 221.151 250.466 221.148ZM235.03 202.201L250.466 217.829L346.55 123.906L343.655 113.024C343.545 112.659 343.361 112.321 343.116 112.029C342.87 111.737 342.568 111.498 342.228 111.326L330.999 108.239L235.03 202.201Z" fill="#083C94"/>
<path d="M237.769 217.367L249.346 220.492C250.426 220.801 251.005 220.029 250.696 218.794L247.879 207.951C247.7 207.322 247.377 206.743 246.935 206.261C246.492 205.778 245.944 205.406 245.332 205.173L233.756 202.009C232.676 201.7 232.058 202.472 232.406 203.745L235.222 214.55C235.396 215.186 235.717 215.773 236.16 216.262C236.602 216.751 237.154 217.13 237.769 217.367Z" fill="#5243C2"/>
<path d="M237.769 217.367L249.346 220.492C250.426 220.801 251.005 220.029 250.696 218.794L247.879 207.951C247.7 207.322 247.377 206.743 246.935 206.261C246.492 205.778 245.944 205.406 245.332 205.173L233.756 202.009C232.676 201.7 232.058 202.472 232.406 203.745L235.222 214.55C235.396 215.186 235.717 215.773 236.16 216.262C236.602 216.751 237.154 217.13 237.769 217.367Z" fill="url(#paint24_linear)"/>
<path d="M249.618 222.112C249.336 222.149 249.051 222.149 248.769 222.112L237.386 218.986C236.516 218.681 235.733 218.171 235.101 217.499C234.47 216.827 234.009 216.014 233.758 215.127L230.941 204.284C230.773 203.772 230.741 203.225 230.849 202.697C230.957 202.169 231.202 201.678 231.559 201.274C231.91 200.947 232.34 200.718 232.808 200.61C233.275 200.501 233.762 200.518 234.221 200.657L245.605 203.821C246.475 204.126 247.258 204.636 247.889 205.308C248.521 205.979 248.981 206.793 249.232 207.68L252.049 218.523C252.217 219.038 252.245 219.588 252.129 220.117C252.014 220.646 251.76 221.135 251.393 221.533C251.15 221.741 250.868 221.9 250.563 221.999C250.259 222.099 249.937 222.137 249.618 222.112ZM238.042 215.86L248.808 218.832L246.222 208.374C246.118 208.011 245.936 207.675 245.69 207.389C245.443 207.102 245.138 206.872 244.795 206.715L234.028 203.744L236.768 214.201C236.872 214.569 237.054 214.911 237.3 215.203C237.546 215.496 237.851 215.733 238.196 215.899L238.042 215.86Z" fill="#083C94"/>
<path d="M346.086 116.111L348.015 123.481L250.542 218.793L248.651 211.577L346.086 116.111Z" fill="#083C94"/>
<path d="M334.563 116.003L284.271 165.133L286.455 167.369L336.747 118.239L334.563 116.003Z" fill="#083C94"/>
<path d="M274.797 174.829L258.125 191.116L260.309 193.352L276.981 177.065L274.797 174.829Z" fill="#083C94"/>
<path d="M280.231 191.377L251.451 218.565L253.094 220.304L281.874 193.116L280.231 191.377Z" fill="#5243C2"/>
<path d="M280.231 191.377L251.451 218.565L253.094 220.304L281.874 193.116L280.231 191.377Z" fill="url(#paint25_linear)"/>
<path d="M358.088 89.7557C339.913 87.3247 333.044 76.4815 332.735 76.0184L335.398 74.3591L334.086 75.2081L335.398 74.3591C335.398 74.3591 341.881 84.4306 358.551 86.6687L358.088 89.7557Z" fill="#083C94"/>
<path d="M444.562 51.2837C440.274 46.8026 434.865 43.5515 428.896 41.8682L429.822 38.897C436.314 40.751 442.199 44.2928 446.878 49.1614L444.562 51.2837Z" fill="#083C94"/>
<path d="M233.91 186.303C240.314 188.538 246.981 189.926 253.744 190.432C256.368 190.432 259.494 190.239 262.774 189.892C267.868 189.352 275.392 181.248 261.578 179.512L254.902 178.702L254.439 178.084L259.031 174.997V173.994L253.976 173.647C252.125 173.626 250.309 174.153 248.757 175.162C247.205 176.172 245.986 177.618 245.255 179.319C243.931 182.119 242.314 184.77 240.432 187.23L233.91 186.303Z" fill="#083C94"/>
<path d="M253.63 191.976C246.664 191.476 239.797 190.035 233.217 187.693L224.496 183.178L239.931 185.686C241.45 183.466 242.817 181.146 244.022 178.74C244.91 176.771 246.355 175.104 248.179 173.945C250.002 172.786 252.125 172.186 254.286 172.219L260.885 172.528V175.846L258.376 177.506L262.235 177.969C269.953 178.933 271.496 181.827 271.496 184.104C271.496 187.693 267.02 191.05 263.393 191.436C260.499 191.745 257.45 191.938 254.247 191.976H253.63ZM242.517 187.191C246.193 188.127 249.956 188.683 253.746 188.85C256.833 188.85 259.804 188.85 262.582 188.349C265.361 187.847 267.869 185.763 267.908 184.104C267.946 182.445 266.21 181.635 261.386 181.056L254.132 180.168L252.164 177.737L255.637 175.422H253.939C252.378 175.394 250.845 175.84 249.543 176.701C248.241 177.562 247.231 178.798 246.646 180.245C245.424 182.649 244.045 184.97 242.517 187.191Z" fill="#083C94"/>
<path d="M246.454 178.894L241.245 176.501C241.245 176.501 225.81 167.51 221.527 164.037C216.45 159.838 210.376 157.021 203.892 155.857C203.892 155.857 222.646 129.308 223.996 118.117C225.347 106.927 219.134 102.914 219.134 102.914C217.369 101.625 215.171 101.078 213.008 101.388C210.845 101.698 208.889 102.841 207.558 104.573C198.249 121.5 190.001 138.988 182.861 156.937C182.615 157.689 182.629 158.502 182.903 159.244C183.176 159.986 183.691 160.615 184.366 161.027C192.933 166.275 221.835 185.801 238.93 187.113L244.872 187.807C251.587 179.318 246.339 178.199 246.454 178.894Z" fill="#083C94"/>
<path d="M245.528 189.467L238.736 188.657C223.301 187.461 198.836 172.026 187.106 164.578L183.556 162.34C182.616 161.717 181.912 160.797 181.555 159.727C181.199 158.657 181.21 157.499 181.588 156.436C188.642 138.382 196.852 120.801 206.168 103.802C206.707 102.929 207.415 102.172 208.249 101.576C209.084 100.98 210.03 100.556 211.03 100.329C212.522 99.9631 214.071 99.8973 215.588 100.136C217.105 100.374 218.56 100.912 219.867 101.718C220.253 101.989 227.006 106.465 225.539 118.504C224.382 128.228 210.992 148.448 206.554 154.931C212.375 156.468 217.806 159.216 222.491 162.996C226.813 166.392 241.785 175.267 242.016 175.344L246.454 177.389C246.951 177.356 247.448 177.448 247.899 177.658C248.351 177.867 248.743 178.186 249.039 178.586C250.236 180.129 250.699 183.139 246.068 188.966L245.528 189.467ZM213.654 102.915C213.042 102.908 212.432 102.986 211.841 103.146C211.226 103.276 210.646 103.536 210.14 103.909C209.634 104.282 209.214 104.758 208.908 105.307C199.61 122.136 191.412 139.55 184.366 157.439C184.217 157.858 184.221 158.316 184.376 158.732C184.531 159.149 184.828 159.497 185.215 159.716L188.765 161.954C199.377 168.669 224.227 184.412 238.929 185.57L244.061 186.149C246.454 182.985 246.647 181.364 246.608 180.747L240.473 177.891C239.701 177.467 225.038 168.746 220.446 165.273C215.569 161.337 209.786 158.683 203.621 157.555L200.997 157.246L202.502 155.086C202.502 154.854 221.063 128.769 222.336 118.08C223.648 108.047 218.478 104.188 218.246 104.188C216.855 103.365 215.27 102.926 213.654 102.915Z" fill="#083C94"/>
<path d="M194.861 161.144L193.434 159.214C196.492 156.958 200.009 155.403 203.737 154.661L204.084 157.015C200.754 157.73 197.612 159.137 194.861 161.144Z" fill="#5243C2"/>
<path d="M194.861 161.144L193.434 159.214C196.492 156.958 200.009 155.403 203.737 154.661L204.084 157.015C200.754 157.73 197.612 159.137 194.861 161.144Z" fill="url(#paint26_linear)"/>
<path d="M195.67 120.664C195.616 120.806 195.595 120.958 195.608 121.109C195.622 121.26 195.669 121.406 195.747 121.536C195.825 121.666 195.932 121.776 196.059 121.859C196.186 121.942 196.33 121.995 196.48 122.015C198.409 122.208 202.422 123.558 208.326 130.157C211.499 133.302 213.937 137.11 215.465 141.309C215.513 141.495 215.616 141.663 215.76 141.79C215.905 141.918 216.084 141.999 216.275 142.024C216.465 142.049 216.659 142.016 216.831 141.93C217.004 141.844 217.146 141.708 217.24 141.54C221.485 134.864 232.328 115.03 220.79 102.952C220.79 102.914 207.092 90.9899 195.67 120.664Z" fill="white"/>
<path d="M216.314 143.586H216.043C215.558 143.516 215.104 143.308 214.734 142.986C214.365 142.665 214.096 142.243 213.96 141.772C212.511 137.786 210.191 134.174 207.168 131.199C201.38 124.717 197.637 123.713 196.325 123.482C195.932 123.446 195.553 123.318 195.219 123.108C194.884 122.898 194.604 122.613 194.401 122.274C194.198 121.936 194.078 121.554 194.05 121.161C194.022 120.767 194.088 120.372 194.241 120.009C198.872 108.047 204.737 100.985 211.143 99.3257C212.983 98.8904 214.899 98.8795 216.744 99.294C218.589 99.7085 220.316 100.538 221.793 101.718C234.025 114.529 223.607 134.441 218.552 142.39C218.316 142.768 217.985 143.077 217.592 143.287C217.199 143.497 216.759 143.6 216.314 143.586ZM197.29 120.433C202.135 121.91 206.381 124.898 209.406 128.961C212.391 132.021 214.785 135.605 216.468 139.534C220.597 132.781 229.897 114.645 219.594 103.802C218.497 102.999 217.239 102.442 215.907 102.169C214.576 101.896 213.2 101.913 211.876 102.22C206.512 103.725 201.534 110.015 197.367 120.588L197.29 120.433Z" fill="#083C94"/>
<path d="M240.238 187.5C239.371 185.828 239.061 183.923 239.353 182.063C239.644 180.203 240.522 178.484 241.859 177.158L243.75 178.586C240.316 183.101 242.168 186.072 242.245 186.303L240.238 187.5Z" fill="#5243C2"/>
<path d="M240.238 187.5C239.371 185.828 239.061 183.923 239.353 182.063C239.644 180.203 240.522 178.484 241.859 177.158L243.75 178.586C240.316 183.101 242.168 186.072 242.245 186.303L240.238 187.5Z" fill="url(#paint27_linear)"/>
<path d="M234.104 185.802C233.762 183.902 233.856 181.95 234.377 180.092C234.899 178.234 235.834 176.519 237.114 175.074L239.004 176.502C237.959 177.677 237.182 179.066 236.729 180.572C236.275 182.079 236.157 183.666 236.38 185.223L234.104 185.802Z" fill="#5243C2"/>
<path d="M234.104 185.802C233.762 183.902 233.856 181.95 234.377 180.092C234.899 178.234 235.834 176.519 237.114 175.074L239.004 176.502C237.959 177.677 237.182 179.066 236.729 180.572C236.275 182.079 236.157 183.666 236.38 185.223L234.104 185.802Z" fill="url(#paint28_linear)"/>
<path d="M253.473 179.048L253.049 176.694C254.691 176.389 256.315 175.99 257.911 175.498L258.605 177.813C256.919 178.319 255.205 178.731 253.473 179.048Z" fill="#5243C2"/>
<path d="M253.473 179.048L253.049 176.694C254.691 176.389 256.315 175.99 257.911 175.498L258.605 177.813C256.919 178.319 255.205 178.731 253.473 179.048Z" fill="url(#paint29_linear)"/>
<path d="M303.91 170.289H300.861C300.308 170.249 299.754 170.328 299.234 170.521C298.715 170.714 298.243 171.016 297.851 171.408L290.134 178.508C289.646 178.958 289.276 179.52 289.054 180.145C288.832 180.771 288.766 181.44 288.86 182.097C289.004 183.192 289.577 184.184 290.452 184.857C291.328 185.53 292.434 185.828 293.529 185.686L296.423 185.3C299.327 184.824 302.018 183.478 304.141 181.441C306.111 179.615 307.3 177.099 307.46 174.418C307.534 173.4 307.202 172.394 306.537 171.621C305.872 170.847 304.927 170.368 303.91 170.289Z" fill="#083C94"/>
<path d="M293.143 187.152C291.762 187.147 290.429 186.645 289.388 185.738C288.346 184.831 287.666 183.58 287.471 182.212C287.336 181.31 287.423 180.388 287.726 179.527C288.029 178.666 288.537 177.892 289.207 177.273L296.925 170.134C298.056 169.089 299.554 168.535 301.093 168.591H304.141C304.871 168.611 305.589 168.778 306.252 169.083C306.915 169.388 307.51 169.825 308 170.366C308.952 171.422 309.463 172.803 309.428 174.225C309.244 177.314 307.859 180.208 305.569 182.29C303.17 184.529 300.137 185.971 296.886 186.418L294.031 186.804L293.143 187.152ZM300.861 171.716C300.191 171.711 299.543 171.959 299.047 172.411L291.33 179.511C291.029 179.802 290.802 180.16 290.668 180.556C290.534 180.952 290.496 181.374 290.558 181.788C290.595 182.131 290.703 182.463 290.875 182.763C291.048 183.062 291.282 183.321 291.561 183.524C292.122 183.921 292.808 184.1 293.491 184.026L296.385 183.64C298.987 183.277 301.413 182.118 303.331 180.322C305.019 178.792 306.032 176.655 306.148 174.379C306.172 174.057 306.13 173.733 306.024 173.427C305.917 173.122 305.749 172.842 305.53 172.604C305.101 172.137 304.504 171.859 303.871 171.832H300.784L300.861 171.716Z" fill="#083C94"/>
<path d="M288.901 182.29L286.663 181.364C286.663 180.901 290.946 169.788 300.709 168.398L301.056 170.752C292.721 172.103 288.94 182.213 288.901 182.29Z" fill="#5243C2"/>
<path d="M288.901 182.29L286.663 181.364C286.663 180.901 290.946 169.788 300.709 168.398L301.056 170.752C292.721 172.103 288.94 182.213 288.901 182.29Z" fill="url(#paint30_linear)"/>
</g>
</g>
<defs>
<linearGradient id="paint0_linear" x1="286.808" y1="345.786" x2="286.808" y2="382.264" gradientUnits="userSpaceOnUse">
<stop stop-color="#01CFFC"/>
<stop offset="0.838542" stop-color="#22D197" stop-opacity="0"/>
</linearGradient>
<linearGradient id="paint1_linear" x1="191.123" y1="270.934" x2="191.123" y2="312.348" gradientUnits="userSpaceOnUse">
<stop stop-color="#01CFFC"/>
<stop offset="0.838542" stop-color="#22D197" stop-opacity="0"/>
</linearGradient>
<linearGradient id="paint2_linear" x1="245.735" y1="79.7234" x2="245.735" y2="204.936" gradientUnits="userSpaceOnUse">
<stop stop-color="#01CFFC"/>
<stop offset="0.838542" stop-color="#22D197" stop-opacity="0"/>
</linearGradient>
<linearGradient id="paint3_linear" x1="245.563" y1="79.761" x2="245.563" y2="104.534" gradientUnits="userSpaceOnUse">
<stop stop-color="#01CFFC"/>
<stop offset="0.838542" stop-color="#22D197" stop-opacity="0"/>
</linearGradient>
<linearGradient id="paint4_linear" x1="267.324" y1="86.8606" x2="267.324" y2="102.797" gradientUnits="userSpaceOnUse">
<stop stop-color="#01CFFC"/>
<stop offset="0.838542" stop-color="#22D197" stop-opacity="0"/>
</linearGradient>
<linearGradient id="paint5_linear" x1="244.871" y1="241.753" x2="244.871" y2="260.623" gradientUnits="userSpaceOnUse">
<stop stop-color="#01CFFC"/>
<stop offset="0.838542" stop-color="#22D197" stop-opacity="0"/>
</linearGradient>
<linearGradient id="paint6_linear" x1="262.111" y1="204.892" x2="271.044" y2="231.404" gradientUnits="userSpaceOnUse">
<stop stop-color="#01CFFC"/>
<stop offset="0.838542" stop-color="#22D197" stop-opacity="0"/>
</linearGradient>
<linearGradient id="paint7_linear" x1="231.676" y1="206.099" x2="231.676" y2="224.235" gradientUnits="userSpaceOnUse">
<stop stop-color="#01CFFC"/>
<stop offset="0.838542" stop-color="#22D197" stop-opacity="0"/>
</linearGradient>
<linearGradient id="paint8_linear" x1="265.86" y1="278.76" x2="265.86" y2="284.201" gradientUnits="userSpaceOnUse">
<stop stop-color="#01CFFC"/>
<stop offset="0.838542" stop-color="#22D197" stop-opacity="0"/>
</linearGradient>
<linearGradient id="paint9_linear" x1="279.195" y1="341.466" x2="279.195" y2="346.097" gradientUnits="userSpaceOnUse">
<stop stop-color="#01CFFC"/>
<stop offset="0.838542" stop-color="#22D197" stop-opacity="0"/>
</linearGradient>
<linearGradient id="paint10_linear" x1="200.261" y1="267.955" x2="200.261" y2="279.84" gradientUnits="userSpaceOnUse">
<stop stop-color="#01CFFC"/>
<stop offset="0.838542" stop-color="#22D197" stop-opacity="0"/>
</linearGradient>
<linearGradient id="paint11_linear" x1="244.619" y1="68.0303" x2="244.619" y2="73.0853" gradientUnits="userSpaceOnUse">
<stop stop-color="#01CFFC"/>
<stop offset="0.838542" stop-color="#22D197" stop-opacity="0"/>
</linearGradient>
<linearGradient id="paint12_linear" x1="256.787" y1="46.7295" x2="256.787" y2="74.6681" gradientUnits="userSpaceOnUse">
<stop stop-color="#01CFFC"/>
<stop offset="0.838542" stop-color="#22D197" stop-opacity="0"/>
</linearGradient>
<linearGradient id="paint13_linear" x1="267.575" y1="64.5972" x2="267.575" y2="74.5177" gradientUnits="userSpaceOnUse">
<stop stop-color="#01CFFC"/>
<stop offset="0.838542" stop-color="#22D197" stop-opacity="0"/>
</linearGradient>
<linearGradient id="paint14_linear" x1="259.093" y1="61.019" x2="259.093" y2="67.519" gradientUnits="userSpaceOnUse">
<stop stop-color="#01CFFC"/>
<stop offset="0.838542" stop-color="#22D197" stop-opacity="0"/>
</linearGradient>
<linearGradient id="paint15_linear" x1="273.002" y1="58.4792" x2="273.002" y2="64.9621" gradientUnits="userSpaceOnUse">
<stop stop-color="#01CFFC"/>
<stop offset="0.838542" stop-color="#22D197" stop-opacity="0"/>
</linearGradient>
<linearGradient id="paint16_linear" x1="266.711" y1="79.0676" x2="266.711" y2="82.1953" gradientUnits="userSpaceOnUse">
<stop stop-color="#01CFFC"/>
<stop offset="0.838542" stop-color="#22D197" stop-opacity="0"/>
</linearGradient>
<linearGradient id="paint17_linear" x1="237.346" y1="122.091" x2="237.346" y2="135.23" gradientUnits="userSpaceOnUse">
<stop stop-color="#01CFFC"/>
<stop offset="0.838542" stop-color="#22D197" stop-opacity="0"/>
</linearGradient>
<linearGradient id="paint18_linear" x1="239.004" y1="123.042" x2="239.004" y2="136.097" gradientUnits="userSpaceOnUse">
<stop stop-color="#01CFFC"/>
<stop offset="0.838542" stop-color="#22D197" stop-opacity="0"/>
</linearGradient>
<linearGradient id="paint19_linear" x1="363.841" y1="111.412" x2="367.836" y2="126.76" gradientUnits="userSpaceOnUse">
<stop stop-color="#01CFFC"/>
<stop offset="0.838542" stop-color="#22D197" stop-opacity="0"/>
</linearGradient>
<linearGradient id="paint20_linear" x1="466.381" y1="67.8505" x2="470.346" y2="83.2344" gradientUnits="userSpaceOnUse">
<stop stop-color="#01CFFC"/>
<stop offset="0.838542" stop-color="#22D197" stop-opacity="0"/>
</linearGradient>
<linearGradient id="paint21_linear" x1="448.221" y1="84.8703" x2="452.186" y2="100.254" gradientUnits="userSpaceOnUse">
<stop stop-color="#01CFFC"/>
<stop offset="0.838542" stop-color="#22D197" stop-opacity="0"/>
</linearGradient>
<linearGradient id="paint22_linear" x1="343.819" y1="34.6088" x2="347.814" y2="49.957" gradientUnits="userSpaceOnUse">
<stop stop-color="#01CFFC"/>
<stop offset="0.838542" stop-color="#22D197" stop-opacity="0"/>
</linearGradient>
<linearGradient id="paint23_linear" x1="411.136" y1="15.7179" x2="415.131" y2="31.0661" gradientUnits="userSpaceOnUse">
<stop stop-color="#01CFFC"/>
<stop offset="0.838542" stop-color="#22D197" stop-opacity="0"/>
</linearGradient>
<linearGradient id="paint24_linear" x1="241.544" y1="201.941" x2="241.544" y2="220.56" gradientUnits="userSpaceOnUse">
<stop stop-color="#01CFFC"/>
<stop offset="0.838542" stop-color="#22D197" stop-opacity="0"/>
</linearGradient>
<linearGradient id="paint25_linear" x1="265.841" y1="204.971" x2="267.484" y2="206.71" gradientUnits="userSpaceOnUse">
<stop stop-color="#01CFFC"/>
<stop offset="0.838542" stop-color="#22D197" stop-opacity="0"/>
</linearGradient>
<linearGradient id="paint26_linear" x1="198.759" y1="154.661" x2="198.759" y2="161.144" gradientUnits="userSpaceOnUse">
<stop stop-color="#01CFFC"/>
<stop offset="0.838542" stop-color="#22D197" stop-opacity="0"/>
</linearGradient>
<linearGradient id="paint27_linear" x1="241.498" y1="177.158" x2="241.498" y2="187.5" gradientUnits="userSpaceOnUse">
<stop stop-color="#01CFFC"/>
<stop offset="0.838542" stop-color="#22D197" stop-opacity="0"/>
</linearGradient>
<linearGradient id="paint28_linear" x1="236.453" y1="175.074" x2="236.453" y2="185.802" gradientUnits="userSpaceOnUse">
<stop stop-color="#01CFFC"/>
<stop offset="0.838542" stop-color="#22D197" stop-opacity="0"/>
</linearGradient>
<linearGradient id="paint29_linear" x1="255.827" y1="175.498" x2="255.827" y2="179.048" gradientUnits="userSpaceOnUse">
<stop stop-color="#01CFFC"/>
<stop offset="0.838542" stop-color="#22D197" stop-opacity="0"/>
</linearGradient>
<linearGradient id="paint30_linear" x1="293.86" y1="168.398" x2="293.86" y2="182.29" gradientUnits="userSpaceOnUse">
<stop stop-color="#01CFFC"/>
<stop offset="0.838542" stop-color="#22D197" stop-opacity="0"/>
</linearGradient>
<clipPath id="clip0">
<rect width="480" height="400" fill="white"/>
</clipPath>
<clipPath id="clip1">
<rect width="302.723" height="399.54" fill="white" transform="translate(177.728)"/>
</clipPath>
</defs>
</svg>
