<svg width="480" height="400" viewBox="0 0 480 400" fill="none" xmlns="http://www.w3.org/2000/svg">
<rect width="480" height="400" fill="white"/>
<g clip-path="url(#clip0)">
<path d="M167.274 345.131L163.457 347.341C163.222 347.465 162.96 347.529 162.694 347.529C162.428 347.529 162.166 347.465 161.93 347.341L158.339 345.273C157.887 345.018 157.83 344.621 158.339 344.395L162.157 342.185C162.394 342.068 162.655 342.007 162.92 342.007C163.185 342.007 163.446 342.068 163.683 342.185L167.274 344.281C167.727 344.508 167.783 344.904 167.274 345.131Z" fill="#083C94"/>
<path d="M176.718 339.721L172.929 341.931C172.694 342.055 172.432 342.12 172.166 342.12C171.9 342.12 171.638 342.055 171.402 341.931L167.783 339.919C167.359 339.664 167.302 339.268 167.783 339.041L171.572 336.832C171.809 336.714 172.071 336.653 172.335 336.653C172.6 336.653 172.861 336.714 173.099 336.832L176.718 338.928C177.086 339.098 177.114 339.495 176.718 339.721Z" fill="#083C94"/>
<path d="M186.078 334.254L182.261 336.463C182.024 336.581 181.762 336.642 181.497 336.642C181.233 336.642 180.971 336.581 180.734 336.463L177.143 334.254C176.691 333.999 176.634 333.602 177.143 333.376L180.847 331.421C181.085 331.304 181.346 331.243 181.611 331.243C181.875 331.243 182.137 331.304 182.374 331.421L185.965 333.517C186.417 333.687 186.474 334.084 186.078 334.254Z" fill="#083C94"/>
<path d="M166.907 355.669L163.09 357.878C162.853 357.996 162.591 358.057 162.327 358.057C162.062 358.057 161.801 357.996 161.563 357.878L157.972 355.782C157.52 355.527 157.463 355.13 157.972 354.904L161.789 352.694C162.027 352.577 162.288 352.516 162.553 352.516C162.818 352.516 163.079 352.577 163.316 352.694L166.907 354.791C167.275 355.045 167.275 355.442 166.907 355.669Z" fill="#083C94"/>
<path d="M176.267 350.259L172.449 352.468C172.212 352.586 171.951 352.647 171.686 352.647C171.421 352.647 171.16 352.586 170.922 352.468L167.275 350.315C166.822 350.06 166.766 349.664 167.275 349.437L171.092 347.228C171.33 347.11 171.591 347.049 171.856 347.049C172.12 347.049 172.382 347.11 172.619 347.228L176.21 349.324C176.606 349.636 176.634 350.032 176.267 350.259Z" fill="#083C94"/>
<path d="M185.598 344.848L181.78 347.058C181.548 347.175 181.291 347.236 181.031 347.236C180.771 347.236 180.514 347.175 180.282 347.058L176.662 344.961C176.21 344.706 176.182 344.31 176.662 344.083L180.48 341.874C180.717 341.756 180.978 341.695 181.243 341.695C181.508 341.695 181.769 341.756 182.007 341.874L185.598 343.97C185.937 344.225 185.993 344.621 185.598 344.848Z" fill="#083C94"/>
<path d="M194.956 339.438L191.139 341.647C190.901 341.765 190.64 341.826 190.375 341.826C190.111 341.826 189.849 341.765 189.612 341.647L186.021 339.551C185.569 339.296 185.512 338.9 186.021 338.673L189.838 336.464C190.074 336.339 190.336 336.275 190.602 336.275C190.868 336.275 191.13 336.339 191.365 336.464L194.956 338.531C195.295 338.815 195.352 339.211 194.956 339.438Z" fill="#083C94"/>
<path d="M176.295 361.108L172.478 363.317C172.242 363.441 171.98 363.506 171.714 363.506C171.448 363.506 171.186 363.441 170.951 363.317L167.275 361.165C166.822 360.91 166.766 360.513 167.275 360.286L171.092 358.077C171.33 357.96 171.591 357.898 171.856 357.898C172.12 357.898 172.382 357.96 172.619 358.077L176.21 360.173C176.634 360.485 176.691 360.881 176.295 361.108Z" fill="#083C94"/>
<path d="M185.653 355.697L181.836 357.906C181.601 358.03 181.339 358.095 181.073 358.095C180.807 358.095 180.545 358.03 180.309 357.906L176.718 355.838C176.266 355.583 176.209 355.187 176.718 354.96L180.535 352.751C180.773 352.633 181.034 352.572 181.299 352.572C181.564 352.572 181.825 352.633 182.062 352.751L185.653 354.847C185.993 355.073 186.049 355.47 185.653 355.697Z" fill="#083C94"/>
<path d="M194.985 350.287L191.196 352.496C190.961 352.62 190.699 352.685 190.433 352.685C190.167 352.685 189.905 352.62 189.67 352.496L186.079 350.428C185.626 350.173 185.57 349.777 186.079 349.55L189.896 347.341C190.128 347.224 190.385 347.163 190.645 347.163C190.905 347.163 191.162 347.224 191.394 347.341L195.014 349.437C195.353 349.663 195.381 350.06 194.985 350.287Z" fill="#083C94"/>
<path d="M204.344 344.877L200.527 347.086C200.289 347.204 200.028 347.265 199.763 347.265C199.498 347.265 199.237 347.204 199 347.086L195.55 344.933C195.098 344.678 195.07 344.282 195.55 344.055L199.367 341.846C199.605 341.728 199.866 341.667 200.131 341.667C200.396 341.667 200.657 341.728 200.894 341.846L204.485 343.942C204.683 344.253 204.74 344.65 204.344 344.877Z" fill="#083C94"/>
<path d="M175.757 371.645L171.94 373.855C171.704 373.979 171.442 374.044 171.176 374.044C170.91 374.044 170.648 373.979 170.413 373.855L166.822 371.787C166.369 371.532 166.341 371.135 166.822 370.909L170.639 368.699C170.876 368.582 171.138 368.521 171.402 368.521C171.667 368.521 171.928 368.582 172.166 368.699L175.757 370.795C176.153 371.079 176.209 371.419 175.757 371.645Z" fill="#083C94"/>
<path d="M185.173 366.234L181.356 368.444C181.118 368.561 180.857 368.622 180.592 368.622C180.327 368.622 180.066 368.561 179.829 368.444L176.238 366.348C175.785 366.093 175.729 365.696 176.238 365.47L180.055 363.26C180.292 363.143 180.554 363.082 180.818 363.082C181.083 363.082 181.344 363.143 181.582 363.26L185.173 365.356C185.512 365.611 185.569 366.008 185.173 366.234Z" fill="#083C94"/>
<path d="M194.533 360.825L190.716 363.034C190.479 363.152 190.217 363.213 189.953 363.213C189.688 363.213 189.427 363.152 189.189 363.034L185.598 360.938C185.146 360.683 185.089 360.286 185.598 360.06L189.415 357.85C189.653 357.733 189.914 357.672 190.179 357.672C190.444 357.672 190.705 357.733 190.942 357.85L194.533 359.947C194.873 360.201 194.929 360.598 194.533 360.825Z" fill="#083C94"/>
<path d="M203.864 355.414L200.047 357.623C199.814 357.74 199.558 357.801 199.298 357.801C199.037 357.801 198.781 357.74 198.548 357.623L194.929 355.527C194.477 355.272 194.448 354.876 194.929 354.649L198.718 352.439C198.955 352.322 199.217 352.261 199.481 352.261C199.746 352.261 200.007 352.322 200.245 352.439L203.864 354.536C204.204 354.791 204.26 355.187 203.864 355.414Z" fill="#083C94"/>
<path d="M213.223 350.004L209.405 352.213C209.168 352.33 208.907 352.391 208.642 352.391C208.377 352.391 208.116 352.33 207.879 352.213L204.288 350.117C203.835 349.862 203.779 349.465 204.288 349.239L208.105 347.029C208.34 346.905 208.602 346.84 208.868 346.84C209.134 346.84 209.396 346.905 209.632 347.029L213.223 349.097C213.562 349.38 213.619 349.777 213.223 350.004Z" fill="#083C94"/>
<path d="M184.692 376.744L180.875 378.954C180.638 379.071 180.377 379.132 180.112 379.132C179.847 379.132 179.586 379.071 179.348 378.954L175.757 376.744C175.305 376.489 175.248 376.093 175.757 375.866L179.575 373.657C179.812 373.539 180.073 373.478 180.338 373.478C180.603 373.478 180.864 373.539 181.101 373.657L184.692 375.753C185.032 376.149 185.088 376.546 184.692 376.744Z" fill="#083C94"/>
<path d="M194.053 371.362L190.236 373.571C189.998 373.689 189.737 373.75 189.472 373.75C189.207 373.75 188.946 373.689 188.709 373.571L185.118 371.475C184.665 371.22 184.609 370.824 185.118 370.597L188.935 368.388C189.17 368.264 189.432 368.199 189.698 368.199C189.964 368.199 190.226 368.264 190.462 368.388L194.053 370.455C194.392 370.739 194.449 371.079 194.053 371.362Z" fill="#083C94"/>
<path d="M203.411 365.951L199.594 368.161C199.357 368.278 199.095 368.339 198.831 368.339C198.566 368.339 198.305 368.278 198.067 368.161L194.476 366.065C194.024 365.81 193.967 365.413 194.476 365.186L198.293 362.977C198.529 362.853 198.791 362.788 199.057 362.788C199.323 362.788 199.585 362.853 199.82 362.977L203.411 365.045C203.75 365.413 203.779 365.725 203.411 365.951Z" fill="#083C94"/>
<path d="M212.742 360.541L208.925 362.75C208.687 362.867 208.426 362.929 208.161 362.929C207.897 362.929 207.635 362.867 207.398 362.75L203.807 360.654C203.355 360.399 203.326 360.002 203.807 359.776L207.624 357.566C207.86 357.442 208.122 357.377 208.388 357.377C208.654 357.377 208.916 357.442 209.151 357.566L212.516 359.747C213.081 359.917 213.138 360.314 212.742 360.541Z" fill="#083C94"/>
<path d="M222.102 355.131L218.284 357.34C218.047 357.458 217.786 357.519 217.521 357.519C217.256 357.519 216.995 357.458 216.757 357.34L213.166 355.272C212.714 354.989 212.658 354.593 213.166 354.366L216.984 352.185C217.221 352.067 217.482 352.006 217.747 352.006C218.012 352.006 218.273 352.067 218.511 352.185L222.102 354.253C222.441 354.508 222.497 354.904 222.102 355.131Z" fill="#083C94"/>
<path d="M194.081 382.211L190.264 384.421C190.028 384.545 189.766 384.609 189.5 384.609C189.234 384.609 188.972 384.545 188.737 384.421L185.146 382.409C184.693 382.154 184.665 381.758 185.146 381.531L188.963 379.322C189.201 379.204 189.462 379.143 189.727 379.143C189.991 379.143 190.253 379.204 190.49 379.322L194.081 381.418C194.42 381.588 194.477 381.984 194.081 382.211Z" fill="#083C94"/>
<path d="M203.439 376.744L199.622 378.954C199.385 379.071 199.124 379.132 198.859 379.132C198.594 379.132 198.333 379.071 198.095 378.954L194.504 376.744C194.052 376.489 193.995 376.093 194.504 375.866L198.322 373.657C198.559 373.539 198.82 373.478 199.085 373.478C199.35 373.478 199.611 373.539 199.848 373.657L203.439 375.753C203.779 376.178 203.835 376.574 203.439 376.744Z" fill="#083C94"/>
<path d="M212.799 371.39L208.982 373.6C208.744 373.717 208.483 373.778 208.218 373.778C207.953 373.778 207.692 373.717 207.455 373.6L203.864 371.504C203.411 371.249 203.355 370.852 203.864 370.625L207.681 368.416C207.918 368.299 208.18 368.238 208.444 368.238C208.709 368.238 208.97 368.299 209.208 368.416L212.799 370.512C213.138 370.767 213.195 371.079 212.799 371.39Z" fill="#083C94"/>
<path d="M222.13 365.98L218.341 368.189C218.103 368.307 217.842 368.368 217.577 368.368C217.313 368.368 217.051 368.307 216.814 368.189L213.195 366.093C212.742 365.838 212.714 365.441 213.195 365.215L216.984 363.005C217.221 362.888 217.482 362.827 217.747 362.827C218.012 362.827 218.273 362.888 218.511 363.005L222.13 365.102C222.497 365.413 222.526 365.753 222.13 365.98Z" fill="#083C94"/>
<path d="M231.489 360.569L227.672 362.779C227.435 362.896 227.173 362.957 226.909 362.957C226.644 362.957 226.383 362.896 226.145 362.779L222.554 360.683C222.102 360.428 222.045 360.031 222.554 359.805L226.371 357.595C226.607 357.471 226.869 357.406 227.135 357.406C227.401 357.406 227.663 357.471 227.898 357.595L231.489 359.663C231.829 359.946 231.885 360.343 231.489 360.569Z" fill="#083C94"/>
<path d="M202.959 387.338L199.142 389.548C198.904 389.665 198.643 389.726 198.378 389.726C198.114 389.726 197.852 389.665 197.615 389.548L194.024 387.451C193.571 387.196 193.543 386.8 194.024 386.573L197.841 384.364C198.078 384.246 198.34 384.185 198.604 384.185C198.869 384.185 199.13 384.246 199.368 384.364L202.959 386.46C203.298 386.715 203.355 387.111 202.959 387.338Z" fill="#083C94"/>
<path d="M212.318 381.928L208.501 384.137C208.264 384.254 208.003 384.316 207.738 384.316C207.473 384.316 207.212 384.254 206.974 384.137L203.383 382.041C202.931 381.786 202.874 381.389 203.383 381.163L207.2 378.953C207.436 378.829 207.698 378.764 207.964 378.764C208.23 378.764 208.492 378.829 208.727 378.953L212.318 381.021C212.658 381.304 212.714 381.701 212.318 381.928Z" fill="#083C94"/>
<path d="M221.677 376.517L217.86 378.727C217.622 378.844 217.361 378.905 217.096 378.905C216.831 378.905 216.57 378.844 216.333 378.727L212.742 376.631C212.289 376.376 212.233 375.979 212.742 375.752L216.559 373.543C216.794 373.419 217.056 373.354 217.322 373.354C217.588 373.354 217.85 373.419 218.086 373.543L221.677 375.611C222.016 375.894 222.044 376.291 221.677 376.517Z" fill="#083C94"/>
<path d="M231.008 371.078L227.191 373.288C226.953 373.405 226.692 373.466 226.427 373.466C226.162 373.466 225.901 373.405 225.664 373.288L222.073 371.078C221.62 370.824 221.592 370.427 222.073 370.2L225.89 367.991C226.125 367.867 226.387 367.802 226.653 367.802C226.919 367.802 227.181 367.867 227.417 367.991L231.008 370.059C231.347 370.484 231.404 370.88 231.008 371.078Z" fill="#083C94"/>
<path d="M240.367 365.697L236.55 367.906C236.313 368.023 236.051 368.084 235.787 368.084C235.522 368.084 235.261 368.023 235.023 367.906L231.432 365.838C230.98 365.555 230.923 365.158 231.432 364.932L235.136 362.581C235.374 362.463 235.635 362.402 235.9 362.402C236.164 362.402 236.426 362.463 236.663 362.581L240.254 364.648C240.791 365.073 240.791 365.413 240.367 365.697Z" fill="#083C94"/>
<path d="M211.838 392.465L208.021 394.674C207.783 394.792 207.522 394.853 207.257 394.853C206.992 394.853 206.731 394.792 206.494 394.674L202.903 392.578C202.45 392.323 202.394 391.927 202.903 391.7L206.72 389.491C206.955 389.367 207.217 389.302 207.483 389.302C207.749 389.302 208.011 389.367 208.247 389.491L211.838 391.558C212.177 391.842 212.234 392.238 211.838 392.465Z" fill="#083C94"/>
<path d="M221.196 387.055L217.379 389.264C217.142 389.382 216.88 389.443 216.616 389.443C216.351 389.443 216.09 389.382 215.852 389.264L212.261 387.197C211.809 386.913 211.752 386.517 212.261 386.29L216.078 384.109C216.316 383.992 216.577 383.93 216.842 383.93C217.107 383.93 217.368 383.992 217.605 384.109L221.196 386.177C221.536 386.432 221.592 386.828 221.196 387.055Z" fill="#083C94"/>
<path d="M230.528 381.644L226.739 383.854C226.501 383.971 226.24 384.032 225.975 384.032C225.711 384.032 225.449 383.971 225.212 383.854L221.593 381.786C221.168 381.502 221.112 381.106 221.593 380.879L225.41 378.698C225.642 378.581 225.899 378.52 226.159 378.52C226.419 378.52 226.676 378.581 226.908 378.698L230.528 380.766C230.895 381.021 230.924 381.417 230.528 381.644Z" fill="#083C94"/>
<path d="M239.888 376.234L236.071 378.443C235.833 378.561 235.572 378.622 235.307 378.622C235.042 378.622 234.781 378.561 234.544 378.443L230.953 376.375C230.5 376.092 230.444 375.724 230.953 375.497L234.77 373.288C235.007 373.17 235.268 373.109 235.533 373.109C235.798 373.109 236.059 373.17 236.297 373.288L239.888 375.356C240.227 375.639 240.284 376.007 239.888 376.234Z" fill="#083C94"/>
<path d="M249.273 370.852L245.456 373.033C245.219 373.151 244.958 373.212 244.693 373.212C244.428 373.212 244.167 373.151 243.929 373.033L240.338 370.965C239.886 370.71 239.829 370.314 240.338 370.087L244.156 367.878C244.393 367.76 244.654 367.699 244.919 367.699C245.184 367.699 245.445 367.76 245.682 367.878L249.273 369.946C249.584 370.229 249.641 370.625 249.273 370.852Z" fill="#083C94"/>
<path d="M230.584 392.493L226.767 394.703C226.529 394.82 226.268 394.881 226.003 394.881C225.739 394.881 225.477 394.82 225.24 394.703L221.649 392.607C221.197 392.352 221.14 391.955 221.649 391.729L225.466 389.519C225.702 389.395 225.964 389.33 226.23 389.33C226.496 389.33 226.758 389.395 226.993 389.519L230.584 391.587C230.923 391.87 230.98 392.267 230.584 392.493Z" fill="#083C94"/>
<path d="M239.942 387.083L236.125 389.292C235.888 389.41 235.627 389.471 235.362 389.471C235.097 389.471 234.836 389.41 234.598 389.292L231.007 387.196C230.555 386.941 230.498 386.545 231.007 386.318L234.825 384.109C235.06 383.985 235.322 383.92 235.588 383.92C235.854 383.92 236.116 383.985 236.351 384.109L239.942 386.176C240.282 386.46 240.31 386.856 239.942 387.083Z" fill="#083C94"/>
<path d="M249.273 381.673L245.456 383.882C245.224 384 244.967 384.06 244.707 384.06C244.447 384.06 244.19 384 243.958 383.882L240.338 381.786C239.886 381.531 239.858 381.135 240.338 380.908L244.156 378.699C244.391 378.575 244.653 378.51 244.919 378.51C245.185 378.51 245.447 378.575 245.682 378.699L249.273 380.766C249.613 381.05 249.669 381.446 249.273 381.673Z" fill="#083C94"/>
<path d="M258.634 376.262L254.817 378.472C254.579 378.589 254.318 378.65 254.053 378.65C253.788 378.65 253.527 378.589 253.29 378.472L249.699 376.404C249.246 376.121 249.19 375.724 249.699 375.498L253.516 373.316C253.753 373.199 254.015 373.138 254.279 373.138C254.544 373.138 254.805 373.199 255.043 373.316L258.634 375.384C258.973 375.639 259.03 376.036 258.634 376.262Z" fill="#083C94"/>
<path d="M239.463 397.621L235.646 399.83C235.408 399.947 235.147 400.008 234.882 400.008C234.617 400.008 234.356 399.947 234.119 399.83L230.528 397.762C230.075 397.479 230.019 397.082 230.528 396.856L234.345 394.675C234.582 394.557 234.844 394.496 235.108 394.496C235.373 394.496 235.634 394.557 235.872 394.675L239.463 396.742C239.802 396.997 239.859 397.394 239.463 397.621Z" fill="#083C94"/>
<path d="M248.822 392.21L245.005 394.42C244.768 394.537 244.506 394.598 244.242 394.598C243.977 394.598 243.716 394.537 243.478 394.42L239.887 392.352C239.435 392.068 239.378 391.672 239.887 391.445L243.62 389.208C243.857 389.09 244.118 389.029 244.383 389.029C244.648 389.029 244.909 389.09 245.146 389.208L248.737 391.275C249.275 391.587 249.275 391.984 248.822 392.21Z" fill="#083C94"/>
<path d="M258.152 386.8L254.335 389.009C254.098 389.126 253.836 389.188 253.572 389.188C253.307 389.188 253.046 389.126 252.808 389.009L249.274 386.885C248.821 386.601 248.793 386.233 249.274 386.006L253.091 383.797C253.328 383.68 253.59 383.618 253.854 383.618C254.119 383.618 254.38 383.68 254.618 383.797L258.209 385.865C258.492 386.205 258.548 386.573 258.152 386.8Z" fill="#083C94"/>
<path d="M267.512 381.418L263.695 383.599C263.457 383.716 263.196 383.777 262.931 383.777C262.666 383.777 262.405 383.716 262.168 383.599L258.577 381.531C258.124 381.276 258.068 380.88 258.577 380.653L262.394 378.443C262.631 378.326 262.893 378.265 263.157 378.265C263.422 378.265 263.683 378.326 263.921 378.443L267.512 380.511C267.851 380.795 267.908 381.191 267.512 381.418Z" fill="#083C94"/>
<path d="M257.757 397.366L253.968 399.547C253.73 399.664 253.469 399.725 253.204 399.725C252.94 399.725 252.678 399.664 252.441 399.547L248.822 397.479C248.369 397.224 248.341 396.827 248.822 396.601L252.611 394.391C252.848 394.274 253.109 394.213 253.374 394.213C253.639 394.213 253.9 394.274 254.137 394.391L257.757 396.459C258.011 396.742 258.068 397.139 257.757 397.366Z" fill="#083C94"/>
<path d="M267.031 391.955L263.214 394.165C262.979 394.289 262.717 394.354 262.451 394.354C262.185 394.354 261.923 394.289 261.687 394.165L258.096 392.097C257.644 391.842 257.587 391.446 258.096 391.219L261.913 389.01C262.151 388.892 262.412 388.831 262.677 388.831C262.942 388.831 263.203 388.892 263.44 389.01L267.031 391.106C267.371 391.332 267.427 391.729 267.031 391.955Z" fill="#083C94"/>
<path d="M276.391 386.545L272.573 388.754C272.338 388.878 272.076 388.943 271.81 388.943C271.544 388.943 271.282 388.878 271.047 388.754L267.456 386.686C267.003 386.431 266.947 386.035 267.456 385.808L271.273 383.599C271.51 383.481 271.771 383.42 272.036 383.42C272.301 383.42 272.562 383.481 272.8 383.599L276.391 385.695C276.73 385.921 276.787 386.318 276.391 386.545Z" fill="#083C94"/>
<path d="M276.419 397.365L272.602 399.575C272.364 399.692 272.103 399.753 271.838 399.753C271.573 399.753 271.312 399.692 271.075 399.575L267.484 397.507C267.031 397.224 267.003 396.855 267.484 396.629L271.301 394.419C271.538 394.302 271.8 394.241 272.064 394.241C272.329 394.241 272.59 394.302 272.828 394.419L276.419 396.487C276.758 396.77 276.815 397.139 276.419 397.365Z" fill="#083C94"/>
<path d="M285.777 391.984L281.96 394.165C281.723 394.282 281.461 394.343 281.197 394.343C280.932 394.343 280.671 394.282 280.433 394.165L276.842 392.097C276.39 391.842 276.333 391.446 276.842 391.219L280.659 389.01C280.897 388.892 281.158 388.831 281.423 388.831C281.688 388.831 281.949 388.892 282.186 389.01L285.777 391.077C286.032 391.361 286.173 391.757 285.777 391.984Z" fill="#083C94"/>
<path d="M294.657 397.111L290.84 399.405C290.605 399.529 290.343 399.594 290.077 399.594C289.811 399.594 289.549 399.529 289.313 399.405L285.722 397.338C285.27 397.083 285.213 396.686 285.722 396.46L289.539 394.25C289.777 394.133 290.038 394.072 290.303 394.072C290.568 394.072 290.829 394.133 291.066 394.25L294.657 396.346C294.997 396.573 295.053 396.884 294.657 397.111Z" fill="#083C94"/>
<path d="M191.677 325.954L195.296 328.05C195.748 328.305 195.777 328.702 195.296 328.928L191.507 331.138C191.271 331.262 191.009 331.327 190.743 331.327C190.477 331.327 190.215 331.262 189.98 331.138L186.361 329.07C185.908 328.815 185.88 328.418 186.361 328.192L190.15 325.982C190.385 325.86 190.645 325.795 190.91 325.79C191.175 325.785 191.437 325.841 191.677 325.954Z" fill="#083C94"/>
<path d="M209.915 325.756L213.506 327.824C213.958 328.079 214.015 328.475 213.506 328.702L209.689 330.855C209.451 330.972 209.19 331.033 208.925 331.033C208.661 331.033 208.399 330.972 208.162 330.855L204.684 328.588C204.232 328.333 204.175 327.937 204.684 327.71L208.501 325.501C208.741 325.433 208.993 325.421 209.238 325.465C209.482 325.509 209.714 325.609 209.915 325.756Z" fill="#083C94"/>
<path d="M204.259 334.056L200.442 336.266C200.204 336.383 199.943 336.444 199.678 336.444C199.413 336.444 199.152 336.383 198.915 336.266L195.324 334.254C194.871 333.999 194.843 333.603 195.324 333.376L199.141 331.167C199.378 331.049 199.639 330.988 199.904 330.988C200.169 330.988 200.43 331.049 200.668 331.167L204.259 333.263C204.598 333.433 204.655 333.829 204.259 334.056Z" fill="#083C94"/>
<path d="M223.007 334.084L219.19 336.294C218.954 336.418 218.692 336.483 218.426 336.483C218.16 336.483 217.898 336.418 217.663 336.294L214.072 334.254C213.619 333.999 213.563 333.603 214.072 333.376L217.889 331.167C218.126 331.049 218.388 330.988 218.652 330.988C218.917 330.988 219.178 331.049 219.416 331.167L223.007 333.263C223.346 333.461 223.403 333.858 223.007 334.084Z" fill="#083C94"/>
<path d="M213.648 339.495L209.859 341.704C209.623 341.828 209.361 341.893 209.095 341.893C208.829 341.893 208.567 341.828 208.332 341.704L204.713 339.636C204.289 339.381 204.232 338.985 204.713 338.758L208.502 336.549C208.739 336.431 209 336.37 209.265 336.37C209.53 336.37 209.791 336.431 210.029 336.549L213.648 338.645C214.015 338.871 214.044 339.268 213.648 339.495Z" fill="#083C94"/>
<path d="M232.309 328.589L228.491 330.799C228.254 330.916 227.993 330.977 227.728 330.977C227.463 330.977 227.202 330.916 226.965 330.799L223.374 328.702C222.921 328.447 222.865 328.051 223.374 327.824L227.191 325.615C229.071 326.269 230.808 327.279 232.309 328.589Z" fill="#083C94"/>
<path d="M231.885 339.211L228.068 341.421C227.83 341.538 227.569 341.599 227.304 341.599C227.039 341.599 226.778 341.538 226.541 341.421L222.95 339.324C222.497 339.069 222.441 338.673 222.95 338.446L226.767 336.237C227.002 336.113 227.264 336.048 227.53 336.048C227.796 336.048 228.058 336.113 228.294 336.237L231.885 338.305C232.309 338.588 232.309 338.984 231.885 339.211Z" fill="#083C94"/>
<path d="M222.525 344.621L218.708 346.831C218.476 346.948 218.219 347.009 217.959 347.009C217.699 347.009 217.442 346.948 217.21 346.831L213.59 344.735C213.138 344.48 213.11 344.083 213.59 343.856L217.407 341.647C217.645 341.53 217.906 341.469 218.171 341.469C218.436 341.469 218.697 341.53 218.934 341.647L222.525 343.743C222.865 343.998 222.921 344.395 222.525 344.621Z" fill="#083C94"/>
<path d="M241.244 333.8L237.427 336.01C237.19 336.127 236.928 336.188 236.664 336.188C236.399 336.188 236.138 336.127 235.9 336.01L232.309 333.857C231.857 333.602 231.8 333.206 232.309 332.979L236.126 330.769C236.362 330.645 236.624 330.581 236.89 330.581C237.156 330.581 237.418 330.645 237.653 330.769L241.244 332.837C241.583 333.177 241.64 333.574 241.244 333.8Z" fill="#083C94"/>
<path d="M250.575 328.39L246.786 330.6C246.548 330.717 246.287 330.778 246.022 330.778C245.758 330.778 245.496 330.717 245.259 330.6L241.64 328.589C244.608 328.282 247.596 328.215 250.575 328.39Z" fill="#083C94"/>
<path d="M240.791 344.338L236.974 346.548C236.736 346.665 236.475 346.726 236.21 346.726C235.946 346.726 235.684 346.665 235.447 346.548L231.856 344.48C231.404 344.197 231.347 343.8 231.856 343.573L235.673 341.392C235.911 341.275 236.172 341.214 236.437 341.214C236.701 341.214 236.963 341.275 237.2 341.392L240.791 343.46C241.102 343.715 241.159 344.112 240.791 344.338Z" fill="#083C94"/>
<path d="M231.404 349.749L227.587 351.958C227.35 352.076 227.088 352.137 226.824 352.137C226.559 352.137 226.298 352.076 226.06 351.958L222.469 349.862C222.017 349.607 221.988 349.211 222.469 348.984L226.286 346.775C226.522 346.651 226.784 346.586 227.05 346.586C227.316 346.586 227.578 346.651 227.813 346.775L231.404 348.842C231.744 349.126 231.8 349.522 231.404 349.749Z" fill="#083C94"/>
<path d="M250.123 338.928L246.306 341.137C246.068 341.255 245.807 341.316 245.542 341.316C245.278 341.316 245.016 341.255 244.779 341.137L241.188 339.069C240.736 338.786 240.679 338.389 241.188 338.163L245.005 335.982C245.243 335.864 245.504 335.803 245.769 335.803C246.033 335.803 246.295 335.864 246.532 335.982L250.123 338.05C250.462 338.304 250.491 338.701 250.123 338.928Z" fill="#083C94"/>
<path d="M255.75 330.572L259.341 332.639C259.793 332.923 259.85 333.291 259.341 333.518L255.524 335.727C255.286 335.844 255.025 335.906 254.76 335.906C254.495 335.906 254.234 335.844 253.997 335.727L250.406 333.659C249.953 333.376 249.925 333.008 250.406 332.781L254.223 330.572C254.46 330.454 254.722 330.393 254.986 330.393C255.251 330.393 255.512 330.454 255.75 330.572Z" fill="#083C94"/>
<path d="M250.15 349.777L246.333 351.986C246.096 352.104 245.835 352.165 245.57 352.165C245.305 352.165 245.044 352.104 244.806 351.986L241.215 349.89C240.763 349.635 240.706 349.238 241.215 349.012L245.033 346.802C245.268 346.678 245.53 346.614 245.796 346.614C246.062 346.614 246.324 346.678 246.559 346.802L250.15 348.87C250.49 349.154 250.546 349.55 250.15 349.777Z" fill="#083C94"/>
<path d="M240.791 355.187L236.974 357.397C236.741 357.514 236.485 357.575 236.224 357.575C235.964 357.575 235.708 357.514 235.475 357.397L231.856 355.3C231.403 355.046 231.375 354.649 231.856 354.422L235.645 352.213C235.882 352.095 236.143 352.034 236.408 352.034C236.673 352.034 236.934 352.095 237.172 352.213L240.791 354.309C241.13 354.564 241.187 354.961 240.791 355.187Z" fill="#083C94"/>
<path d="M259.51 344.366L255.693 346.576C255.455 346.693 255.194 346.754 254.929 346.754C254.664 346.754 254.403 346.693 254.166 346.576L250.575 344.48C250.122 344.225 250.066 343.828 250.575 343.601L254.392 341.392C254.627 341.268 254.889 341.203 255.155 341.203C255.421 341.203 255.683 341.268 255.919 341.392L259.51 343.46C259.849 343.743 259.906 344.14 259.51 344.366Z" fill="#083C94"/>
<path d="M268.841 338.956L265.052 341.166C264.815 341.283 264.553 341.344 264.289 341.344C264.024 341.344 263.763 341.283 263.525 341.166L259.934 339.07C259.482 338.815 259.425 338.418 259.934 338.192L263.751 335.982C263.982 335.858 264.239 335.793 264.501 335.793C264.762 335.793 265.02 335.858 265.25 335.982L268.869 338.05C269.208 338.333 269.237 338.73 268.841 338.956Z" fill="#083C94"/>
<path d="M274.497 330.6L278.088 332.668C278.54 332.923 278.597 333.319 278.088 333.546L274.271 335.755C274.033 335.873 273.772 335.934 273.507 335.934C273.242 335.934 272.981 335.873 272.744 335.755L269.153 333.687C268.7 333.404 268.672 333.008 269.153 332.781L272.97 330.571C273.211 330.464 273.473 330.411 273.737 330.416C274 330.421 274.26 330.484 274.497 330.6Z" fill="#083C94"/>
<path d="M259.029 354.904L255.212 357.114C254.975 357.231 254.713 357.292 254.449 357.292C254.184 357.292 253.923 357.231 253.685 357.114L250.094 355.046C249.642 354.762 249.585 354.366 250.094 354.139L253.911 351.93C254.151 351.818 254.411 351.76 254.675 351.76C254.939 351.76 255.199 351.818 255.438 351.93L259.029 353.998C259.369 354.281 259.425 354.677 259.029 354.904Z" fill="#083C94"/>
<path d="M249.67 360.315L245.853 362.524C245.615 362.641 245.354 362.703 245.089 362.703C244.824 362.703 244.563 362.641 244.326 362.524L240.791 360.371C240.339 360.116 240.311 359.72 240.791 359.493L244.609 357.284C244.844 357.16 245.106 357.095 245.372 357.095C245.638 357.095 245.9 357.16 246.135 357.284L249.726 359.351C250.009 359.748 250.066 360.088 249.67 360.315Z" fill="#083C94"/>
<path d="M268.389 349.494L264.572 351.703C264.334 351.821 264.073 351.882 263.808 351.882C263.543 351.882 263.282 351.821 263.045 351.703L259.454 349.635C259.001 349.352 258.945 348.955 259.454 348.729L263.271 346.548C263.508 346.43 263.769 346.369 264.034 346.369C264.299 346.369 264.56 346.43 264.798 346.548L268.389 348.615C268.728 348.87 268.756 349.267 268.389 349.494Z" fill="#083C94"/>
<path d="M277.72 344.084L273.902 346.293C273.67 346.41 273.413 346.471 273.153 346.471C272.893 346.471 272.636 346.41 272.404 346.293L268.785 344.225C268.332 343.942 268.304 343.545 268.785 343.347L272.573 341.138C272.811 341.02 273.072 340.959 273.337 340.959C273.602 340.959 273.863 341.02 274.1 341.138L277.691 343.206C278.059 343.46 278.116 343.857 277.72 344.084Z" fill="#083C94"/>
<path d="M287.078 338.673L283.261 340.882C283.024 341 282.762 341.061 282.498 341.061C282.233 341.061 281.972 341 281.734 340.882L278.143 338.814C277.691 338.559 277.634 338.163 278.143 337.936L281.96 335.727C282.198 335.609 282.459 335.548 282.724 335.548C282.988 335.548 283.25 335.609 283.487 335.727L287.078 337.795C287.417 338.078 287.474 338.474 287.078 338.673Z" fill="#083C94"/>
<path d="M291.207 330.26C291.445 330.142 291.706 330.081 291.971 330.081C292.236 330.081 292.497 330.142 292.734 330.26L296.325 332.327C296.778 332.611 296.834 333.007 296.325 333.234L292.508 335.415C292.271 335.532 292.009 335.593 291.745 335.593C291.48 335.593 291.219 335.532 290.981 335.415L287.39 333.347C286.938 333.092 286.881 332.696 287.39 332.469L291.207 330.26Z" fill="#083C94"/>
<path d="M305.826 326.974C306.278 327.257 306.306 327.654 305.826 327.881L302.037 330.09C301.798 330.202 301.537 330.259 301.273 330.259C301.01 330.259 300.749 330.202 300.51 330.09L296.891 328.022C299.849 327.521 302.832 327.171 305.826 326.974Z" fill="#083C94"/>
<path d="M267.908 360.06L264.091 362.241C263.854 362.358 263.592 362.419 263.328 362.419C263.063 362.419 262.802 362.358 262.564 362.241L258.973 360.173C258.521 359.918 258.464 359.521 258.973 359.295L262.79 357.085C263.028 356.968 263.289 356.907 263.554 356.907C263.819 356.907 264.08 356.968 264.317 357.085L267.908 359.153C268.248 359.436 268.304 359.748 267.908 360.06Z" fill="#083C94"/>
<path d="M258.549 365.414L254.732 367.623C254.494 367.74 254.233 367.801 253.968 367.801C253.703 367.801 253.442 367.74 253.205 367.623L249.614 365.414C249.161 365.13 249.105 364.762 249.614 364.535L253.431 362.326C253.668 362.209 253.93 362.147 254.194 362.147C254.459 362.147 254.72 362.209 254.958 362.326L258.549 364.394C258.888 364.847 258.945 365.215 258.549 365.414Z" fill="#083C94"/>
<path d="M277.268 354.649L273.45 356.83C273.213 356.947 272.952 357.008 272.687 357.008C272.422 357.008 272.161 356.947 271.924 356.83L268.333 354.762C267.88 354.507 267.824 354.111 268.333 353.884L272.15 351.675C272.387 351.557 272.648 351.496 272.913 351.496C273.178 351.496 273.439 351.557 273.677 351.675L277.268 353.742C277.55 354.082 277.55 354.422 277.268 354.649Z" fill="#083C94"/>
<path d="M286.597 349.239L282.78 351.448C282.545 351.573 282.283 351.637 282.017 351.637C281.751 351.637 281.489 351.573 281.253 351.448L277.549 349.296C277.097 349.041 277.069 348.644 277.549 348.418L281.366 346.208C281.604 346.091 281.865 346.03 282.13 346.03C282.395 346.03 282.656 346.091 282.893 346.208L286.484 348.276C286.937 348.616 286.993 349.012 286.597 349.239Z" fill="#083C94"/>
<path d="M295.958 343.828L292.141 346.038C291.905 346.162 291.643 346.226 291.377 346.226C291.111 346.226 290.849 346.162 290.614 346.038L287.023 343.97C286.571 343.715 286.514 343.318 287.023 343.092L290.84 340.882C291.078 340.765 291.339 340.704 291.604 340.704C291.868 340.704 292.13 340.765 292.367 340.882L295.958 342.978C296.297 343.205 296.354 343.601 295.958 343.828Z" fill="#083C94"/>
<path d="M305.316 338.418L301.499 340.627C301.264 340.751 301.002 340.816 300.736 340.816C300.47 340.816 300.208 340.751 299.972 340.627L296.381 338.559C295.929 338.304 295.872 337.908 296.381 337.681L300.17 335.387C300.408 335.269 300.669 335.208 300.934 335.208C301.198 335.208 301.46 335.269 301.697 335.387L305.288 337.483C305.656 337.795 305.825 338.191 305.316 338.418Z" fill="#083C94"/>
<path d="M314.648 333.007L310.83 335.217C310.6 335.341 310.343 335.406 310.081 335.406C309.82 335.406 309.562 335.341 309.332 335.217L305.826 333.064C305.373 332.809 305.345 332.412 305.826 332.186L309.643 329.976C309.88 329.859 310.141 329.798 310.406 329.798C310.671 329.798 310.932 329.859 311.17 329.976L314.761 332.073C314.987 332.384 315.044 332.781 314.648 333.007Z" fill="#083C94"/>
<path d="M320.303 324.623L323.894 326.719C324.346 326.974 324.403 327.371 323.894 327.597L320.076 329.807C319.839 329.924 319.578 329.985 319.313 329.985C319.048 329.985 318.787 329.924 318.549 329.807L314.958 327.711C314.506 327.456 314.45 327.059 314.958 326.833L318.776 324.623C319.013 324.506 319.274 324.445 319.539 324.445C319.804 324.445 320.065 324.506 320.303 324.623Z" fill="#083C94"/>
<path d="M333.366 322.187L329.549 324.397C329.311 324.514 329.05 324.575 328.785 324.575C328.52 324.575 328.259 324.514 328.022 324.397L324.431 322.3C327.401 322.022 330.389 321.984 333.366 322.187Z" fill="#083C94"/>
<path d="M277.295 365.413L273.478 367.623C273.24 367.74 272.979 367.801 272.714 367.801C272.45 367.801 272.188 367.74 271.951 367.623L268.36 365.555C267.907 365.271 267.851 364.875 268.36 364.648L272.177 362.439C272.416 362.327 272.677 362.27 272.941 362.27C273.204 362.27 273.465 362.327 273.704 362.439L277.295 364.507C277.549 364.847 277.691 365.243 277.295 365.413Z" fill="#083C94"/>
<path d="M267.936 370.88L264.119 373.09C263.882 373.207 263.621 373.268 263.356 373.268C263.091 373.268 262.83 373.207 262.592 373.09L259.001 371.078C258.549 370.824 258.521 370.427 259.001 370.2L262.819 367.991C263.054 367.867 263.316 367.802 263.582 367.802C263.848 367.802 264.11 367.867 264.345 367.991L267.936 370.059C268.276 370.257 268.332 370.654 267.936 370.88Z" fill="#083C94"/>
<path d="M286.655 360.059L282.838 362.269C282.601 362.386 282.339 362.447 282.075 362.447C281.81 362.447 281.549 362.386 281.311 362.269L277.72 360.201C277.268 359.918 277.211 359.521 277.72 359.294L281.537 357.113C281.775 356.996 282.036 356.935 282.301 356.935C282.566 356.935 282.827 356.996 283.064 357.113L286.655 359.181C286.995 359.436 287.051 359.748 286.655 360.059Z" fill="#083C94"/>
<path d="M295.986 354.649L292.197 356.859C291.96 356.976 291.699 357.037 291.434 357.037C291.169 357.037 290.908 356.976 290.67 356.859L287.051 354.791C286.599 354.508 286.57 354.111 287.051 353.913L290.84 351.703C291.078 351.586 291.339 351.525 291.604 351.525C291.868 351.525 292.13 351.586 292.367 351.703L295.986 353.771C296.354 354.083 296.382 354.423 295.986 354.649Z" fill="#083C94"/>
<path d="M305.345 349.239L301.528 351.448C301.29 351.566 301.029 351.627 300.764 351.627C300.499 351.627 300.238 351.566 300.001 351.448L296.41 349.38C295.957 349.125 295.901 348.729 296.41 348.502L300.227 346.293C300.464 346.175 300.726 346.114 300.99 346.114C301.255 346.114 301.516 346.175 301.754 346.293L305.345 348.361C305.825 348.644 305.825 349.04 305.345 349.239Z" fill="#083C94"/>
<path d="M314.704 343.857L310.887 346.038C310.65 346.155 310.388 346.216 310.124 346.216C309.859 346.216 309.598 346.155 309.36 346.038L305.826 343.913C305.373 343.658 305.317 343.262 305.826 343.035L309.643 340.826C309.88 340.708 310.142 340.647 310.406 340.647C310.671 340.647 310.932 340.708 311.17 340.826L314.761 342.894C315.044 343.233 315.1 343.63 314.704 343.857Z" fill="#083C94"/>
<path d="M324.064 338.446L320.246 340.655C320.007 340.767 319.747 340.825 319.483 340.825C319.219 340.825 318.959 340.767 318.719 340.655L315.128 338.588C314.676 338.333 314.619 337.936 315.128 337.71L318.946 335.5C319.178 335.383 319.435 335.322 319.695 335.322C319.955 335.322 320.212 335.383 320.444 335.5L324.064 337.568C324.403 337.823 324.431 338.219 324.064 338.446Z" fill="#083C94"/>
<path d="M333.394 333.036L329.577 335.245C329.342 335.369 329.08 335.434 328.814 335.434C328.548 335.434 328.286 335.369 328.05 335.245L324.459 333.177C324.007 332.922 323.979 332.526 324.459 332.299L328.277 330.09C328.514 329.972 328.775 329.911 329.04 329.911C329.305 329.911 329.566 329.972 329.803 330.09L333.394 332.186C333.734 332.412 333.79 332.809 333.394 333.036Z" fill="#083C94"/>
<path d="M342.754 327.626L338.937 329.835C338.701 329.959 338.439 330.024 338.173 330.024C337.907 330.024 337.645 329.959 337.41 329.835L333.819 327.767C333.366 327.512 333.31 327.116 333.819 326.889L337.636 324.68C337.873 324.562 338.135 324.501 338.399 324.501C338.664 324.501 338.926 324.562 339.163 324.68L342.754 326.776C343.093 327.002 343.15 327.399 342.754 327.626Z" fill="#083C94"/>
<path d="M286.175 370.597L282.358 372.807C282.12 372.924 281.859 372.985 281.594 372.985C281.329 372.985 281.068 372.924 280.831 372.807L277.24 370.739C276.787 370.484 276.731 370.087 277.24 369.861L281.057 367.651C281.294 367.534 281.556 367.473 281.82 367.473C282.085 367.473 282.346 367.534 282.584 367.651L286.175 369.719C286.514 370.002 286.571 370.399 286.175 370.597Z" fill="#083C94"/>
<path d="M276.814 376.008L272.997 378.217C272.76 378.335 272.499 378.396 272.234 378.396C271.969 378.396 271.708 378.335 271.47 378.217L267.879 376.149C267.427 375.866 267.399 375.498 267.879 375.271L271.697 373.062C271.934 372.944 272.195 372.883 272.46 372.883C272.725 372.883 272.986 372.944 273.223 373.062L276.814 375.13C277.154 375.385 277.21 375.781 276.814 376.008Z" fill="#083C94"/>
<path d="M295.533 365.215L291.688 367.396C291.45 367.514 291.189 367.575 290.924 367.575C290.66 367.575 290.398 367.514 290.161 367.396L286.598 365.414C286.146 365.159 286.089 364.762 286.598 364.535L290.415 362.326C290.653 362.209 290.914 362.147 291.179 362.147C291.444 362.147 291.705 362.209 291.942 362.326L295.533 364.394C295.873 364.592 295.901 364.989 295.533 365.215Z" fill="#083C94"/>
<path d="M304.864 359.748L301.047 361.957C300.81 362.075 300.548 362.136 300.284 362.136C300.019 362.136 299.758 362.075 299.52 361.957L295.929 359.748C295.477 359.493 295.448 359.097 295.929 358.87L299.746 356.66C299.984 356.543 300.245 356.482 300.51 356.482C300.775 356.482 301.036 356.543 301.273 356.66L304.864 358.728C305.204 359.181 305.26 359.578 304.864 359.748Z" fill="#083C94"/>
<path d="M314.308 354.394L310.49 356.603C310.255 356.727 309.993 356.792 309.727 356.792C309.461 356.792 309.199 356.727 308.964 356.603L305.373 354.535C304.92 354.28 304.864 353.884 305.373 353.657L309.19 351.448C309.427 351.33 309.688 351.269 309.953 351.269C310.218 351.269 310.479 351.33 310.717 351.448L314.308 353.544C314.562 353.771 314.619 354.082 314.308 354.394Z" fill="#083C94"/>
<path d="M323.582 348.984L319.765 351.194C319.529 351.318 319.267 351.382 319.001 351.382C318.735 351.382 318.473 351.318 318.238 351.194L314.647 349.126C314.195 348.871 314.138 348.474 314.647 348.248L318.464 346.038C318.702 345.921 318.963 345.86 319.228 345.86C319.492 345.86 319.754 345.921 319.991 346.038L323.582 348.134C323.921 348.418 323.978 348.757 323.582 348.984Z" fill="#083C94"/>
<path d="M332.913 343.573L329.096 345.783C328.865 345.907 328.608 345.972 328.346 345.972C328.085 345.972 327.828 345.907 327.597 345.783L323.978 343.715C323.526 343.46 323.497 343.064 323.978 342.837L327.767 340.627C328.004 340.51 328.266 340.449 328.53 340.449C328.795 340.449 329.056 340.51 329.294 340.627L332.913 342.724C333.252 342.95 333.309 343.347 332.913 343.573Z" fill="#083C94"/>
<path d="M342.273 338.163L338.456 340.373C338.219 340.49 337.958 340.551 337.693 340.551C337.428 340.551 337.167 340.49 336.929 340.373L333.338 338.277C332.886 338.022 332.829 337.625 333.338 337.398L337.156 335.189C337.393 335.072 337.654 335.01 337.919 335.01C338.184 335.01 338.445 335.072 338.682 335.189L342.273 337.285C342.585 337.54 342.585 337.937 342.273 338.163Z" fill="#083C94"/>
<path d="M351.632 332.752L347.815 334.962C347.577 335.079 347.316 335.14 347.051 335.14C346.786 335.14 346.525 335.079 346.288 334.962L342.697 332.866C342.244 332.611 342.188 332.214 342.697 331.988L346.514 329.778C346.751 329.661 347.013 329.6 347.277 329.6C347.542 329.6 347.803 329.661 348.041 329.778L351.632 331.874C351.971 332.129 352.028 332.526 351.632 332.752Z" fill="#083C94"/>
<path d="M295.053 375.752L291.235 377.962C291 378.086 290.738 378.151 290.472 378.151C290.206 378.151 289.944 378.086 289.709 377.962L286.033 375.809C285.58 375.554 285.524 375.158 286.033 374.931L289.85 372.721C290.087 372.604 290.349 372.543 290.613 372.543C290.878 372.543 291.139 372.604 291.377 372.721L294.968 374.818C295.392 375.129 295.448 375.526 295.053 375.752Z" fill="#083C94"/>
<path d="M285.694 381.163L281.877 383.373C281.642 383.497 281.38 383.561 281.114 383.561C280.848 383.561 280.586 383.497 280.35 383.373L276.759 381.305C276.307 381.05 276.25 380.653 276.759 380.427L280.576 378.217C280.814 378.1 281.075 378.039 281.34 378.039C281.605 378.039 281.866 378.1 282.103 378.217L285.694 380.313C286.034 380.54 286.034 380.936 285.694 381.163Z" fill="#083C94"/>
<path d="M304.384 370.342L300.595 372.552C300.36 372.676 300.098 372.74 299.832 372.74C299.566 372.74 299.304 372.676 299.068 372.552L295.449 370.484C295.025 370.229 294.968 369.832 295.449 369.606L299.266 367.396C299.499 367.279 299.755 367.218 300.016 367.218C300.276 367.218 300.532 367.279 300.765 367.396L304.384 369.492C304.752 369.719 304.78 370.115 304.384 370.342Z" fill="#083C94"/>
<path d="M313.743 364.931L309.926 367.141C309.689 367.258 309.427 367.319 309.163 367.319C308.898 367.319 308.637 367.258 308.399 367.141L304.808 365.045C304.356 364.79 304.299 364.393 304.808 364.167L308.625 361.957C308.863 361.84 309.124 361.779 309.389 361.779C309.654 361.779 309.915 361.84 310.152 361.957L313.743 364.053C314.083 364.308 314.139 364.705 313.743 364.931Z" fill="#083C94"/>
<path d="M323.102 359.521L319.285 361.731C319.047 361.848 318.786 361.909 318.521 361.909C318.256 361.909 317.995 361.848 317.758 361.731L314.308 359.578C313.856 359.323 313.799 358.927 314.308 358.7L318.125 356.49C318.363 356.373 318.624 356.312 318.889 356.312C319.154 356.312 319.415 356.373 319.652 356.49L323.243 358.587C323.441 358.898 323.498 359.295 323.102 359.521Z" fill="#083C94"/>
<path d="M332.462 354.083L328.645 356.292C328.407 356.41 328.146 356.471 327.881 356.471C327.617 356.471 327.355 356.41 327.118 356.292L323.527 354.083C323.074 353.828 323.018 353.431 323.527 353.205L327.344 350.995C327.582 350.878 327.843 350.817 328.108 350.817C328.372 350.817 328.634 350.878 328.871 350.995L332.462 353.091C332.801 353.488 332.83 353.884 332.462 354.083Z" fill="#083C94"/>
<path d="M341.793 348.701L337.976 350.91C337.738 351.027 337.477 351.089 337.212 351.089C336.947 351.089 336.686 351.027 336.449 350.91L332.858 348.814C332.405 348.559 332.377 348.162 332.858 347.936L336.675 345.726C336.91 345.602 337.172 345.537 337.438 345.537C337.704 345.537 337.966 345.602 338.202 345.726L341.793 347.794C342.132 348.077 342.189 348.417 341.793 348.701Z" fill="#083C94"/>
<path d="M351.066 343.29L347.249 345.5C347.012 345.617 346.751 345.678 346.486 345.678C346.221 345.678 345.96 345.617 345.722 345.5L342.131 343.403C341.679 343.148 341.622 342.752 342.131 342.525L345.949 340.316C346.184 340.192 346.446 340.127 346.712 340.127C346.978 340.127 347.24 340.192 347.475 340.316L351.066 342.384C351.491 342.752 351.547 343.064 351.066 343.29Z" fill="#083C94"/>
<path d="M360.512 337.879L356.695 340.089C356.457 340.206 356.196 340.267 355.931 340.267C355.666 340.267 355.405 340.206 355.168 340.089L351.577 337.993C351.124 337.738 351.068 337.341 351.577 337.115L355.394 334.905C355.629 334.781 355.891 334.716 356.157 334.716C356.423 334.716 356.685 334.781 356.921 334.905L360.512 336.973C360.851 337.256 360.908 337.653 360.512 337.879Z" fill="#083C94"/>
<path d="M304.44 381.163L300.623 383.373C300.386 383.49 300.125 383.551 299.86 383.551C299.595 383.551 299.334 383.49 299.096 383.373L295.505 381.305C295.053 381.05 294.996 380.653 295.505 380.427L299.323 378.217C299.56 378.1 299.821 378.039 300.086 378.039C300.351 378.039 300.612 378.1 300.849 378.217L304.44 380.285C304.78 380.568 304.836 380.965 304.44 381.163Z" fill="#083C94"/>
<path d="M295.081 386.573L291.264 388.783C291.026 388.9 290.765 388.961 290.5 388.961C290.235 388.961 289.974 388.9 289.737 388.783L286.033 386.658C285.58 386.375 285.552 385.978 286.033 385.78L289.85 383.571C290.087 383.453 290.348 383.392 290.613 383.392C290.878 383.392 291.139 383.453 291.377 383.571L294.968 385.638C295.42 385.95 295.477 386.347 295.081 386.573Z" fill="#083C94"/>
<path d="M313.799 375.781L309.982 377.962C309.744 378.079 309.483 378.14 309.218 378.14C308.953 378.14 308.692 378.079 308.455 377.962L304.864 375.894C304.411 375.639 304.355 375.242 304.864 375.016L308.681 372.806C308.918 372.689 309.18 372.628 309.444 372.628C309.709 372.628 309.97 372.689 310.208 372.806L313.799 374.874C314.138 375.157 314.308 375.554 313.799 375.781Z" fill="#083C94"/>
<path d="M323.13 370.371L319.313 372.58C319.074 372.692 318.813 372.749 318.549 372.749C318.286 372.749 318.025 372.692 317.786 372.58L314.308 370.427C313.856 370.173 313.827 369.776 314.308 369.549L318.125 367.34C318.363 367.222 318.624 367.161 318.889 367.161C319.153 367.161 319.415 367.222 319.652 367.34L323.243 369.408C323.469 369.748 323.526 370.144 323.13 370.371Z" fill="#083C94"/>
<path d="M332.49 364.96L328.673 367.169C328.438 367.293 328.176 367.358 327.91 367.358C327.644 367.358 327.382 367.293 327.146 367.169L323.555 365.102C323.103 364.847 323.046 364.45 323.555 364.223L327.372 362.014C327.61 361.897 327.871 361.835 328.136 361.835C328.401 361.835 328.662 361.897 328.899 362.014L332.49 364.11C332.83 364.337 332.886 364.733 332.49 364.96Z" fill="#083C94"/>
<path d="M341.849 359.55L338.031 361.759C337.796 361.883 337.534 361.948 337.268 361.948C337.002 361.948 336.74 361.883 336.505 361.759L332.914 359.748C332.461 359.493 332.405 359.096 332.914 358.87L336.731 356.66C336.968 356.543 337.229 356.482 337.494 356.482C337.759 356.482 338.02 356.543 338.258 356.66L341.849 358.757C342.188 358.927 342.245 359.323 341.849 359.55Z" fill="#083C94"/>
<path d="M351.066 354.082L347.277 356.292C347.042 356.416 346.78 356.481 346.514 356.481C346.248 356.481 345.986 356.416 345.751 356.292L342.131 354.224C341.679 353.969 341.651 353.573 342.131 353.346L345.92 351.136C346.158 351.019 346.419 350.958 346.684 350.958C346.948 350.958 347.21 351.019 347.447 351.136L351.066 353.233C351.547 353.516 351.575 353.912 351.066 354.082Z" fill="#083C94"/>
<path d="M360.539 348.729L356.722 350.938C356.484 351.056 356.223 351.117 355.958 351.117C355.694 351.117 355.432 351.056 355.195 350.938L351.604 348.842C351.152 348.587 351.095 348.191 351.604 347.964L355.421 345.755C355.659 345.637 355.92 345.576 356.185 345.576C356.449 345.576 356.711 345.637 356.948 345.755L360.539 347.851C360.878 348.106 360.935 348.417 360.539 348.729Z" fill="#083C94"/>
<path d="M313.318 386.318L309.501 388.528C309.266 388.652 309.004 388.716 308.738 388.716C308.472 388.716 308.21 388.652 307.974 388.528L304.383 386.46C303.931 386.205 303.874 385.808 304.383 385.582L308.201 383.372C308.438 383.255 308.699 383.194 308.964 383.194C309.229 383.194 309.49 383.255 309.727 383.372L313.318 385.468C313.658 385.695 313.714 386.091 313.318 386.318Z" fill="#083C94"/>
<path d="M303.96 391.729L300.143 393.938C299.907 394.062 299.645 394.127 299.379 394.127C299.113 394.127 298.851 394.062 298.616 393.938L295.025 391.87C294.572 391.615 294.516 391.219 295.025 390.992L298.842 388.783C299.08 388.665 299.341 388.604 299.606 388.604C299.87 388.604 300.132 388.665 300.369 388.783L303.96 390.851C304.299 391.105 304.356 391.502 303.96 391.729Z" fill="#083C94"/>
<path d="M322.79 380.908L318.973 383.117C318.737 383.241 318.475 383.306 318.209 383.306C317.943 383.306 317.681 383.241 317.446 383.117L313.855 381.05C313.403 380.795 313.346 380.398 313.855 380.171L317.672 377.962C317.905 377.845 318.161 377.784 318.422 377.784C318.682 377.784 318.938 377.845 319.171 377.962L322.79 380.058C323.016 380.285 323.045 380.681 322.79 380.908Z" fill="#083C94"/>
<path d="M332.01 375.498L328.193 377.707C327.957 377.831 327.695 377.896 327.429 377.896C327.163 377.896 326.901 377.831 326.666 377.707L323.075 375.639C322.622 375.384 322.594 374.988 323.075 374.761L326.892 372.552C327.129 372.434 327.39 372.373 327.655 372.373C327.92 372.373 328.181 372.434 328.419 372.552L332.01 374.648C332.349 374.874 332.406 375.271 332.01 375.498Z" fill="#083C94"/>
<path d="M341.368 370.087L337.551 372.297C337.314 372.414 337.052 372.475 336.788 372.475C336.523 372.475 336.262 372.414 336.024 372.297L332.433 370.201C331.981 369.946 331.924 369.549 332.433 369.323L336.25 367.113C336.488 366.996 336.749 366.935 337.014 366.935C337.279 366.935 337.54 366.996 337.777 367.113L341.368 369.209C341.708 369.464 341.764 369.861 341.368 370.087Z" fill="#083C94"/>
<path d="M350.728 364.677L346.91 366.886C346.673 367.004 346.412 367.065 346.147 367.065C345.882 367.065 345.621 367.004 345.383 366.886L341.792 364.79C341.34 364.535 341.284 364.139 341.792 363.912L345.61 361.702C345.847 361.585 346.108 361.524 346.373 361.524C346.638 361.524 346.899 361.585 347.137 361.702L350.728 363.799C351.067 364.054 351.067 364.45 350.728 364.677Z" fill="#083C94"/>
<path d="M360.059 359.266L356.241 361.476C356.004 361.593 355.743 361.654 355.478 361.654C355.213 361.654 354.952 361.593 354.714 361.476L351.123 359.38C350.671 359.125 350.643 358.728 351.123 358.501L354.941 356.292C355.176 356.168 355.438 356.103 355.704 356.103C355.97 356.103 356.232 356.168 356.468 356.292L360.059 358.36C360.398 358.643 360.454 359.04 360.059 359.266Z" fill="#083C94"/>
<path d="M322.196 391.446L318.379 393.655C318.142 393.772 317.88 393.833 317.616 393.833C317.351 393.833 317.09 393.772 316.852 393.655L313.261 391.559C312.809 391.304 312.752 390.907 313.261 390.681L317.078 388.471C317.316 388.354 317.577 388.293 317.842 388.293C318.107 388.293 318.368 388.354 318.605 388.471L322.196 390.567C322.536 390.907 322.592 391.219 322.196 391.446Z" fill="#083C94"/>
<path d="M331.528 386.035L327.739 388.245C327.502 388.362 327.241 388.423 326.976 388.423C326.711 388.423 326.45 388.362 326.212 388.245L322.593 386.148C322.141 385.893 322.112 385.497 322.593 385.27L326.382 383.061C326.62 382.943 326.881 382.882 327.146 382.882C327.41 382.882 327.672 382.943 327.909 383.061L331.528 385.157C331.868 385.412 331.924 385.808 331.528 386.035Z" fill="#083C94"/>
<path d="M340.887 380.625L337.07 382.834C336.832 382.951 336.571 383.013 336.306 383.013C336.041 383.013 335.78 382.951 335.543 382.834L331.952 380.738C331.499 380.483 331.443 380.086 331.952 379.86L335.769 377.65C336.004 377.526 336.266 377.461 336.532 377.461C336.798 377.461 337.06 377.526 337.296 377.65L340.887 379.718C341.226 380.001 341.283 380.398 340.887 380.625Z" fill="#083C94"/>
<path d="M350.247 375.214L346.43 377.423C346.192 377.541 345.931 377.602 345.666 377.602C345.402 377.602 345.14 377.541 344.903 377.423L341.312 375.327C340.86 375.072 340.803 374.676 341.312 374.449L345.129 372.24C345.365 372.116 345.627 372.051 345.893 372.051C346.159 372.051 346.421 372.116 346.656 372.24L350.247 374.308C350.586 374.591 350.643 374.987 350.247 375.214Z" fill="#083C94"/>
<path d="M170.584 12.3504L169.227 8.92288C179.105 5.11148 189.281 2.12697 199.651 0L200.33 3.6258C190.192 5.70935 180.243 8.62745 170.584 12.3504Z" fill="#083C94"/>
<path d="M340.124 329.778V306.749C340.124 306.749 340.124 306.579 340.124 306.607L330.058 306.749C325.959 302.548 321.284 298.952 316.175 296.07C283.941 277.431 231.631 277.431 199.368 296.07C193.353 299.345 187.948 303.639 183.393 308.76H175.193C175.178 308.786 175.17 308.815 175.17 308.845C175.17 308.875 175.178 308.904 175.193 308.93V329.665C175.193 341.874 183.251 354.111 199.368 363.43C231.631 382.097 283.941 382.097 316.175 363.43C332.066 354.252 340.124 342.015 340.124 329.778Z" fill="#083C94"/>
<path d="M257.532 379.35C236.042 379.35 214.553 374.619 198.153 365.187C181.753 355.754 173.044 343.262 173.044 329.835V307.174L174.995 307.004H182.431C186.954 301.99 192.264 297.751 198.153 294.455C230.868 275.533 284.082 275.533 316.91 294.455C321.946 297.307 326.577 300.823 330.681 304.908H340.775L341.963 306.041V306.919V329.948C341.963 343.403 333.056 355.98 316.854 365.328C300.652 374.676 279.021 379.35 257.532 379.35ZM176.776 310.743V329.807C176.776 341.874 185.033 353.289 200.047 361.986C231.744 380.313 283.319 380.313 315.016 361.986C330.03 353.289 338.287 341.874 338.287 329.778V308.448H329.154L328.475 307.825C324.498 303.752 319.967 300.262 315.016 297.458C283.319 279.13 231.744 279.13 200.047 297.458C194.296 300.678 189.133 304.855 184.778 309.808L184.241 310.46H183.28L176.776 310.743Z" fill="#083C94"/>
<path d="M253.205 356.915L257.531 325.048L201.63 294.795C200.81 295.22 199.934 295.616 199.114 296.098C193.191 299.389 187.874 303.672 183.393 308.76H175.193C175.178 308.786 175.17 308.815 175.17 308.845C175.17 308.875 175.178 308.904 175.193 308.93V329.637C175.193 341.874 183.251 354.111 199.368 363.43C214.779 372.325 234.713 376.942 254.873 377.339C253.488 366.518 253.205 356.915 253.205 356.915Z" fill="white"/>
<path d="M256.653 379.576H254.589C233.269 379.152 213.25 374.109 198.207 365.413C182.005 356.065 173.099 343.488 173.099 330.033V307.372L175.078 307.202H182.486C187.004 302.168 192.315 297.91 198.207 294.597C198.716 294.285 199.282 294.002 199.819 293.718L201.657 292.784L259.509 323.943L254.928 356.915C254.928 358.19 255.296 367.311 256.342 377.424L256.653 379.576ZM176.774 310.828V329.863C176.774 341.959 185.031 353.374 200.045 362.071C214.183 370.172 232.675 374.988 252.581 375.667C251.648 365.555 251.366 356.915 251.366 356.83V356.519L255.522 325.926L201.629 296.863C201.12 297.089 200.639 297.344 200.187 297.599C194.429 300.811 189.265 304.988 184.918 309.95L184.381 310.601H183.419L176.774 310.828Z" fill="#083C94"/>
<path d="M409.145 92.6848H105.889C105.889 92.6848 105.352 238.737 174.938 311.593C176.012 322.923 184.156 334.056 199.114 342.752C231.376 361.419 283.686 361.419 315.92 342.752C330.906 334.084 339.05 322.923 340.124 311.593C409.711 238.737 409.145 92.6848 409.145 92.6848Z" fill="#5243C2"/>
<path d="M409.145 92.6848H105.889C105.889 92.6848 105.352 238.737 174.938 311.593C176.012 322.923 184.156 334.056 199.114 342.752C231.376 361.419 283.686 361.419 315.92 342.752C330.906 334.084 339.05 322.923 340.124 311.593C409.711 238.737 409.145 92.6848 409.145 92.6848Z" fill="url(#paint0_linear)"/>
<path d="M257.531 358.473C236.041 358.473 214.552 353.743 198.152 344.31C183.392 335.812 174.542 324.482 173.1 312.414C104.249 239.728 103.994 94.2996 103.994 92.7133V90.8721H410.983V92.7133C410.983 94.1863 410.757 239.728 341.877 312.414C340.463 324.482 331.613 335.784 316.853 344.31C300.482 353.743 279.02 358.473 257.531 358.473ZM107.896 94.5262C108.151 111.522 112.307 243.213 176.408 310.29L176.832 310.743V311.395C177.878 322.47 186.135 333.036 200.103 341.109C231.8 359.437 283.375 359.437 315.072 341.109C329.04 333.036 337.297 322.47 338.343 311.395V310.743L338.795 310.29C402.868 243.213 407.024 111.635 407.307 94.5262H107.896Z" fill="#083C94"/>
<path d="M105.889 92.7129C105.889 92.7129 105.352 238.737 174.938 311.593C176.012 322.923 184.156 334.084 199.114 342.752C222.215 356.094 255.524 359.748 284.45 354.082C285.419 351.836 286.177 349.503 286.712 347.114C288.226 340.223 290.801 333.61 294.346 327.512C343.065 244.175 328.446 116.875 324.969 92.7129H105.889Z" fill="white"/>
<path d="M323.781 250.804L320.162 250.067C321.802 241.881 323.188 233.27 324.29 224.573L327.938 225.026C326.807 233.808 325.421 242.504 323.781 250.804Z" fill="#083C94"/>
<path d="M257.898 358.331C235.645 358.331 213.957 353.431 198.208 344.168C183.448 335.67 174.598 324.339 173.155 312.244C104.304 239.586 104.05 94.1289 104.05 92.571V90.7297H326.551L326.777 92.316C331.898 131.203 332.837 170.529 329.576 209.617L325.929 209.305C329.097 171.07 328.235 132.607 323.356 94.5538H107.895C108.15 111.55 112.306 243.24 176.407 310.318L176.831 310.771V311.394C177.878 322.498 186.134 333.064 200.102 341.137C221.874 353.714 255.494 357.963 285.721 351.958L286.456 355.583C277.048 357.423 267.483 358.343 257.898 358.331Z" fill="#083C94"/>
<path d="M257.531 180.383C341.265 180.383 409.145 141.119 409.145 92.6843C409.145 44.2494 341.265 4.98511 257.531 4.98511C173.797 4.98511 105.917 44.2494 105.917 92.6843C105.917 141.119 173.797 180.383 257.531 180.383Z" fill="#5243C2"/>
<path d="M257.531 180.383C341.265 180.383 409.145 141.119 409.145 92.6843C409.145 44.2494 341.265 4.98511 257.531 4.98511C173.797 4.98511 105.917 44.2494 105.917 92.6843C105.917 141.119 173.797 180.383 257.531 180.383Z" fill="url(#paint1_linear)"/>
<path d="M257.53 182.168C218.368 182.168 179.207 173.529 149.404 156.306C120.167 139.31 104.163 116.649 104.163 92.6844C104.163 68.7201 120.28 46.0022 149.404 29.0912C209.009 -5.41061 306.023 -5.41061 365.656 29.0912C394.893 46.0872 410.897 68.5785 410.897 92.6844C410.897 116.79 394.809 139.395 365.656 156.306C335.854 173.529 296.692 182.168 257.53 182.168ZM257.53 6.85481C219.019 6.85481 180.536 15.3528 151.242 32.3488C123.193 48.5799 107.726 70.0231 107.726 92.7694C107.726 115.516 123.193 136.959 151.242 153.19C209.829 187.182 305.203 187.182 363.818 153.19C391.868 136.959 407.306 115.516 407.306 92.7694C407.306 70.0231 391.868 48.5799 363.818 32.3488C334.525 15.3245 296.013 6.85481 257.53 6.85481Z" fill="#083C94"/>
<path d="M212.29 166.305C207.143 168.911 202.478 171.319 198.378 173.443C253.572 186.955 319.765 180.723 364.752 154.72C399.616 134.551 413.923 107.046 407.759 80.8154L212.29 166.305Z" fill="white"/>
<path d="M257.757 182.282C237.614 182.33 217.536 179.962 197.954 175.228L193.204 174.067L197.53 171.829C201.659 169.676 206.296 167.269 211.442 164.663L213.11 167.948L203.666 172.792C259.228 185.143 321.576 177.579 363.848 153.134C396.874 134.013 412.227 107.811 405.978 81.2407L409.541 80.3909C416.214 108.717 400.21 136.336 365.686 156.306C336.307 173.302 297.343 182.282 257.757 182.282Z" fill="#083C94"/>
<path d="M353.895 39.6572C361.982 39.4023 370.04 39.3173 378.014 39.4023C373.786 36.2161 369.366 33.293 364.781 30.6494C305.487 -3.56916 209.491 -3.56916 150.31 30.6777C110.441 53.8205 97.4629 86.3678 111.205 115.714C114.372 113.816 117.68 111.89 121.158 110.049L353.895 39.6572Z" fill="white"/>
<path d="M110.384 118.32L109.536 116.479C94.8893 85.3195 110.158 51.7525 149.348 29.0912C208.982 -5.41061 305.995 -5.41061 365.629 29.0912C370.269 31.7753 374.745 34.736 379.031 37.9574L383.499 41.3283H377.844C369.7 41.3283 361.614 41.3283 353.809 41.5832V37.9008C359.832 37.7025 365.996 37.6175 372.245 37.6175C369.418 35.7479 366.59 33.9917 363.762 32.3204C305.147 -1.6715 209.773 -1.6715 151.158 32.3204C114.399 53.5087 99.6962 84.2998 111.996 113.136L120.224 108.377L122.034 111.522C118.556 113.476 115.219 115.402 112.081 117.187L110.384 118.32Z" fill="#083C94"/>
<path d="M344.874 46.1439C296.636 20.4234 218.425 20.4234 170.102 46.1439C121.779 71.8645 122.033 113.533 170.102 139.225C218.171 164.917 296.551 164.946 344.789 139.225C393.027 113.505 393.112 71.8362 344.874 46.1439Z" fill="#5243C2"/>
<path d="M344.874 46.1439C296.636 20.4234 218.425 20.4234 170.102 46.1439C121.779 71.8645 122.033 113.533 170.102 139.225C218.171 164.917 296.551 164.946 344.789 139.225C393.027 113.505 393.112 71.8362 344.874 46.1439Z" fill="url(#paint2_linear)"/>
<path d="M257.53 160.301C225.579 160.301 193.628 153.814 169.31 140.868C144.993 127.923 132.156 110.984 132.156 92.7132C132.156 74.4426 145.361 57.305 169.31 44.558C217.945 18.6392 297.088 18.6392 345.751 44.558C369.7 57.305 382.905 74.4143 382.905 92.7132C382.905 111.012 369.7 128.121 345.751 140.868C321.801 153.615 289.482 160.301 257.53 160.301ZM257.53 28.7235C226.201 28.7235 194.9 35.0686 171.035 47.7589C148.415 59.8544 135.832 75.8306 135.832 92.6849C135.832 109.539 148.33 125.515 171.035 137.611C218.708 163.105 296.325 163.105 343.997 137.611C366.618 125.515 379.229 109.568 379.229 92.6849C379.229 75.8023 366.703 59.8544 343.997 47.7589C320.161 35.0686 288.86 28.7235 257.53 28.7235Z" fill="#083C94"/>
<path d="M344.873 86.1981C296.635 60.4776 218.425 60.4776 170.186 86.1981C155.738 93.8746 145.643 103.024 139.875 112.712C145.53 122.4 155.738 131.549 170.186 139.226C218.425 164.946 296.635 164.946 344.873 139.226C359.322 131.549 369.388 122.4 375.185 112.712C369.388 103.024 359.322 93.8746 344.873 86.1981Z" fill="#083C94"/>
<path d="M257.53 160.3C225.579 160.3 193.627 153.813 169.31 140.868C154.918 133.191 144.484 124.042 138.207 113.646L137.642 112.711L138.207 111.776C144.399 101.381 154.833 92.2311 169.31 84.5546C217.944 58.6358 297.088 58.6358 345.75 84.5546C360.114 92.2311 370.576 101.381 376.854 111.776L377.419 112.711L376.854 113.646C370.661 124.042 360.199 133.191 345.75 140.868C321.405 153.813 289.482 160.3 257.53 160.3ZM142.024 112.711C147.877 122.002 157.887 130.614 171.035 137.61C218.708 163.104 296.325 163.104 343.997 137.61C357.145 130.614 367.155 122.002 373.036 112.711C367.155 103.42 357.145 94.8088 343.997 87.8122C296.325 62.3182 218.736 62.3182 171.035 87.8122C157.887 94.8088 147.877 103.42 142.024 112.711Z" fill="#083C94"/>
<path d="M153.336 276.638L164.052 275.136C164.122 275.125 164.188 275.093 164.24 275.045C164.293 274.997 164.33 274.935 164.348 274.866C164.366 274.797 164.364 274.724 164.341 274.656C164.319 274.589 164.277 274.529 164.222 274.485L144.909 259.302L92.8257 237.943C91.316 237.36 89.867 236.629 88.4995 235.762C90.3374 228.737 93.3912 217.152 93.674 216.84C93.9567 216.529 125.512 186.956 125.512 186.956L132.101 180.469L140.923 171.971L121.13 156.278L96.0491 166.504C83.5684 172.053 73.1924 181.465 66.4445 193.357C58.7818 206.614 56.746 220.494 61.0439 230.494C63.8577 237.199 68.2068 243.147 73.7396 247.858L93.2498 263.211L96.5864 259.5L157.04 284.456L153.336 276.638Z" fill="white"/>
<path d="M160.914 287.996L97.1802 261.709L93.4478 265.703L72.6087 249.274C66.8227 244.363 62.2785 238.151 59.3474 231.145C54.8516 220.692 57.0005 206.189 64.8329 192.422C71.7172 180.115 82.3616 170.345 95.2009 164.549L121.271 153.927L142.704 170.781V172.452L142.11 173.075L126.672 188.173L95.2292 217.775C94.8333 219.021 93.4478 224.007 90.6203 234.771C91.5382 235.274 92.482 235.727 93.4478 236.13L146.041 257.772L165.353 272.955C165.697 273.221 165.954 273.585 166.09 273.999C166.226 274.413 166.235 274.858 166.116 275.278C166.007 275.693 165.776 276.065 165.454 276.348C165.131 276.631 164.732 276.81 164.307 276.864L156.107 278.025L160.914 287.996ZM96.2188 257.319L153.364 280.915L150.536 275.249L160.32 273.918L143.948 261.029L92.1189 239.529C90.5122 238.904 88.9689 238.126 87.5099 237.207L86.3789 236.47L86.7182 235.167C91.6665 216.188 91.8927 215.962 92.3734 215.509C92.854 215.055 112.562 196.53 124.325 185.511L138.265 171.886L120.762 158.147L96.5864 167.948C84.5098 173.445 74.5033 182.666 68.028 194.264C60.6481 207.039 58.6688 220.324 62.6556 229.757C65.3831 236.206 69.587 241.921 74.9273 246.441L93.052 260.604L96.2188 257.319Z" fill="#083C94"/>
<path d="M176.832 299.554C176.867 299.602 176.885 299.66 176.882 299.72C176.878 299.779 176.855 299.835 176.814 299.879C176.774 299.923 176.72 299.951 176.661 299.959C176.602 299.967 176.542 299.954 176.492 299.922L105.944 270.887C100.34 268.672 95.2432 265.341 90.9614 261.095C86.6796 256.85 83.3022 251.778 81.0336 246.187C76.7923 236.216 78.7716 222.336 86.406 209.051C93.0984 197.104 103.42 187.608 115.869 181.942L140.893 171.773L141.204 191.601L122.882 199.249C114.26 203.327 107.145 210.029 102.551 218.398C97.3204 227.434 96.5852 235.111 98.1404 238.822C99.451 242.152 101.43 245.177 103.954 247.711C106.478 250.244 109.494 252.232 112.815 253.552L164.758 274.966C164.841 274.999 164.911 275.059 164.956 275.136L176.832 299.554Z" fill="#5243C2"/>
<path d="M176.832 299.554C176.867 299.602 176.885 299.66 176.882 299.72C176.878 299.779 176.855 299.835 176.814 299.879C176.774 299.923 176.72 299.951 176.661 299.959C176.602 299.967 176.542 299.954 176.492 299.922L105.944 270.887C100.34 268.672 95.2432 265.341 90.9614 261.095C86.6796 256.85 83.3022 251.778 81.0336 246.187C76.7923 236.216 78.7716 222.336 86.406 209.051C93.0984 197.104 103.42 187.608 115.869 181.942L140.893 171.773L141.204 191.601L122.882 199.249C114.26 203.327 107.145 210.029 102.551 218.398C97.3204 227.434 96.5852 235.111 98.1404 238.822C99.451 242.152 101.43 245.177 103.954 247.711C106.478 250.244 109.494 252.232 112.815 253.552L164.758 274.966C164.841 274.999 164.911 275.059 164.956 275.136L176.832 299.554Z" fill="url(#paint3_linear)"/>
<path d="M176.606 301.763C176.345 301.818 176.075 301.818 175.814 301.763L105.125 272.729C99.309 270.397 94.0251 266.908 89.5928 262.472C85.1605 258.037 81.6719 252.747 79.3378 246.923C74.8137 236.414 76.793 221.911 84.8233 208.144C91.7155 195.836 102.357 186.059 115.191 180.242L141.092 169.705L142.788 170.781V171.829L143.099 192.989L123.561 200.949C115.322 204.882 108.519 211.301 104.107 219.305C99.2156 227.803 98.4521 234.969 99.8094 238.114C101.037 241.222 102.891 244.043 105.255 246.402C107.619 248.761 110.444 250.607 113.551 251.824L166.201 273.522L166.71 274.343L178.585 298.761C178.765 299.145 178.826 299.574 178.761 299.993C178.695 300.412 178.506 300.802 178.218 301.112C178.009 301.327 177.758 301.496 177.481 301.608C177.203 301.72 176.905 301.773 176.606 301.763ZM139.169 174.464L116.549 183.67C104.504 189.172 94.5351 198.394 88.1033 209.985C80.7233 222.761 78.744 236.017 82.7874 245.479C84.973 250.814 88.2069 255.654 92.2968 259.713C96.3867 263.771 101.249 266.964 106.596 269.103L173.354 296.551L163.543 276.468L112.109 255.251C108.593 253.83 105.402 251.706 102.733 249.008C100.064 246.309 97.9722 243.094 96.5859 239.558C94.9742 235.791 95.1722 227.718 101.082 217.463C105.933 208.795 113.368 201.863 122.345 197.635L139.565 190.638L139.169 174.464Z" fill="#083C94"/>
<path d="M294.713 109.256C272.093 122.314 266.438 141.435 277.748 157.411C302.319 155.23 325.817 149.168 344.846 139.084C359.295 131.379 369.361 122.258 375.158 112.542C371.393 106.477 366.61 101.111 361.02 96.6788C337.551 94.6676 312.753 98.8033 294.713 109.256Z" fill="#5243C2"/>
<path d="M294.713 109.256C272.093 122.314 266.438 141.435 277.748 157.411C302.319 155.23 325.817 149.168 344.846 139.084C359.295 131.379 369.361 122.258 375.158 112.542C371.393 106.477 366.61 101.111 361.02 96.6788C337.551 94.6676 312.753 98.8033 294.713 109.256Z" fill="url(#paint4_linear)"/>
<path d="M276.899 159.45L276.277 158.629C273.75 155.255 271.969 151.38 271.052 147.263C270.135 143.145 270.104 138.88 270.961 134.749C273.251 124.382 281.14 114.921 293.78 107.726C311.622 97.3867 336.193 92.7695 361.16 95.0073H361.726L362.178 95.3472C367.949 99.9202 372.885 105.46 376.769 111.72L377.334 112.655L376.769 113.618C370.576 123.985 360.114 133.135 345.665 140.811C327.201 150.669 303.761 157.071 277.804 159.365L276.899 159.45ZM295.618 110.842C283.911 117.612 276.616 126.138 274.552 135.486C273.834 138.945 273.832 142.515 274.547 145.974C275.262 149.434 276.679 152.709 278.709 155.598C303.648 153.275 326.212 147.1 343.997 137.554C357.145 130.557 367.155 121.974 373.036 112.655C369.553 107.293 365.25 102.513 360.284 98.4914C336.561 96.4802 312.442 101.041 295.618 110.757V110.842Z" fill="#083C94"/>
<path d="M223.318 121.606C214.956 121.795 206.684 119.845 199.283 115.941C192.582 112.088 188.906 106.848 188.906 101.211C188.906 95.5738 192.582 90.3618 199.283 86.5093C212.545 78.8328 234.091 78.8328 247.352 86.5093C254.025 90.2768 257.757 95.5172 257.757 101.126C257.757 106.735 254.082 112.003 247.409 115.856C239.998 119.795 231.706 121.775 223.318 121.606ZM223.318 83.4501C215.441 83.2956 207.655 85.1578 200.697 88.8604C195.042 92.203 191.734 96.5653 191.734 101.126C191.734 105.686 194.901 110.077 200.697 113.42C213.167 120.615 233.469 120.615 245.938 113.42C251.593 110.077 254.873 105.715 254.873 101.126C254.873 96.537 251.706 92.203 245.938 88.8604C238.979 85.1613 231.194 83.2993 223.318 83.4501Z" fill="#5243C2"/>
<path d="M223.318 121.606C214.956 121.795 206.684 119.845 199.283 115.941C192.582 112.088 188.906 106.848 188.906 101.211C188.906 95.5738 192.582 90.3618 199.283 86.5093C212.545 78.8328 234.091 78.8328 247.352 86.5093C254.025 90.2768 257.757 95.5172 257.757 101.126C257.757 106.735 254.082 112.003 247.409 115.856C239.998 119.795 231.706 121.775 223.318 121.606ZM223.318 83.4501C215.441 83.2956 207.655 85.1578 200.697 88.8604C195.042 92.203 191.734 96.5653 191.734 101.126C191.734 105.686 194.901 110.077 200.697 113.42C213.167 120.615 233.469 120.615 245.938 113.42C251.593 110.077 254.873 105.715 254.873 101.126C254.873 96.537 251.706 92.203 245.938 88.8604C238.979 85.1613 231.194 83.2993 223.318 83.4501Z" fill="url(#paint5_linear)"/>
<path d="M198.067 129.821C193.511 129.903 189.008 128.831 184.975 126.705C183.329 125.947 181.919 124.756 180.893 123.26C179.868 121.764 179.265 120.018 179.15 118.207C179.256 116.393 179.855 114.643 180.882 113.145C181.908 111.647 183.324 110.459 184.975 109.709C189.031 107.641 193.517 106.564 198.067 106.564C202.617 106.564 207.103 107.641 211.158 109.709C212.81 110.459 214.226 111.647 215.252 113.145C216.279 114.643 216.877 116.393 216.983 118.207C216.868 120.018 216.266 121.764 215.24 123.26C214.215 124.756 212.804 125.947 211.158 126.705C207.127 128.834 202.623 129.906 198.067 129.821ZM198.067 109.567C193.997 109.498 189.977 110.473 186.389 112.4C185.2 112.919 184.167 113.742 183.393 114.786C182.619 115.829 182.131 117.057 181.978 118.348C182.136 119.634 182.626 120.856 183.399 121.895C184.173 122.933 185.203 123.751 186.389 124.269C190.007 126.112 194.008 127.073 198.067 127.073C202.126 127.073 206.127 126.112 209.745 124.269C210.934 123.756 211.967 122.939 212.741 121.9C213.515 120.861 214.003 119.636 214.156 118.348C214.007 117.044 213.516 115.804 212.73 114.753C211.945 113.703 210.895 112.881 209.688 112.371C206.116 110.461 202.116 109.495 198.067 109.567Z" fill="#5243C2"/>
<path d="M198.067 129.821C193.511 129.903 189.008 128.831 184.975 126.705C183.329 125.947 181.919 124.756 180.893 123.26C179.868 121.764 179.265 120.018 179.15 118.207C179.256 116.393 179.855 114.643 180.882 113.145C181.908 111.647 183.324 110.459 184.975 109.709C189.031 107.641 193.517 106.564 198.067 106.564C202.617 106.564 207.103 107.641 211.158 109.709C212.81 110.459 214.226 111.647 215.252 113.145C216.279 114.643 216.877 116.393 216.983 118.207C216.868 120.018 216.266 121.764 215.24 123.26C214.215 124.756 212.804 125.947 211.158 126.705C207.127 128.834 202.623 129.906 198.067 129.821ZM198.067 109.567C193.997 109.498 189.977 110.473 186.389 112.4C185.2 112.919 184.167 113.742 183.393 114.786C182.619 115.829 182.131 117.057 181.978 118.348C182.136 119.634 182.626 120.856 183.399 121.895C184.173 122.933 185.203 123.751 186.389 124.269C190.007 126.112 194.008 127.073 198.067 127.073C202.126 127.073 206.127 126.112 209.745 124.269C210.934 123.756 211.967 122.939 212.741 121.9C213.515 120.861 214.003 119.636 214.156 118.348C214.007 117.044 213.516 115.804 212.73 114.753C211.945 113.703 210.895 112.881 209.688 112.371C206.116 110.461 202.116 109.495 198.067 109.567Z" fill="url(#paint6_linear)"/>
<path d="M336.364 96.7638C343.376 100.815 343.376 107.386 336.364 111.437C332.426 113.458 328.064 114.512 323.64 114.512C319.215 114.512 314.854 113.458 310.916 111.437C303.903 107.386 303.903 100.815 310.916 96.7638C314.858 94.7562 319.217 93.7097 323.64 93.7097C328.062 93.7097 332.422 94.7562 336.364 96.7638Z" fill="#083C94"/>
<path d="M350.671 174.237L349.738 170.696C368.938 164.478 386.038 153.044 399.136 137.667C408.272 126.866 415.165 114.347 419.41 100.843L422.887 101.976C417.558 118.992 408.196 134.463 395.6 147.067C383.005 159.67 367.55 169.031 350.558 174.35L350.671 174.237Z" fill="#083C94"/>
<path d="M100.12 240.861L107.698 250.86L161.167 273.493L144.909 259.301L100.12 240.861Z" fill="#083C94"/>
<path d="M273.79 141.038C295.48 141.038 313.064 130.867 313.064 118.32C313.064 105.773 295.48 95.6023 273.79 95.6023C252.099 95.6023 234.515 105.773 234.515 118.32C234.515 130.867 252.099 141.038 273.79 141.038Z" fill="#5243C2"/>
<path d="M273.79 141.038C295.48 141.038 313.064 130.867 313.064 118.32C313.064 105.773 295.48 95.6023 273.79 95.6023C252.099 95.6023 234.515 105.773 234.515 118.32C234.515 130.867 252.099 141.038 273.79 141.038Z" fill="url(#paint7_linear)"/>
<path d="M273.789 142.823C263.805 143.017 253.937 140.658 245.117 135.968C237.087 131.322 232.676 125.062 232.676 118.321C232.676 111.579 237.087 105.29 245.117 100.645C260.923 91.5235 286.654 91.4952 302.46 100.645C310.49 105.29 314.901 111.55 314.901 118.321C314.901 125.091 310.49 131.322 302.46 135.968C293.64 140.658 283.772 143.017 273.789 142.823ZM273.789 97.5005C264.443 97.3173 255.206 99.5307 246.955 103.931C240.112 107.868 236.352 113.023 236.352 118.406C236.352 123.788 240.112 128.915 246.955 132.852C261.743 141.35 285.834 141.35 300.679 132.852C307.521 128.915 311.282 123.788 311.282 118.406C311.282 113.023 307.521 107.868 300.679 103.931C292.419 99.4918 283.161 97.2487 273.789 97.4155V97.5005Z" fill="#083C94"/>
<path d="M141.092 112.202C142.396 114.335 143.842 116.379 145.418 118.32C150.373 117.317 155.142 115.549 159.556 113.08C171.375 106.225 174.061 96.0839 167.614 87.7559C156.875 93.559 147.757 101.963 141.092 112.202Z" fill="#5243C2"/>
<path d="M141.092 112.202C142.396 114.335 143.842 116.379 145.418 118.32C150.373 117.317 155.142 115.549 159.556 113.08C171.375 106.225 174.061 96.0839 167.614 87.7559C156.875 93.559 147.757 101.963 141.092 112.202Z" fill="url(#paint8_linear)"/>
<path d="M144.655 120.331L143.948 119.482C142.338 117.527 140.864 115.464 139.537 113.306L138.972 112.343L139.537 111.409C146.369 100.867 155.757 92.2323 166.823 86.3112L168.209 85.5181L169.198 86.7928C170.719 88.6255 171.818 90.7705 172.419 93.076C173.02 95.3816 173.108 97.7913 172.676 100.135C171.573 105.8 167.389 110.87 160.603 114.808C155.982 117.372 150.994 119.207 145.814 120.246L144.655 120.331ZM143.213 112.202C144.033 113.505 144.994 114.836 146.041 116.252C150.507 115.306 154.806 113.692 158.793 111.465C161.274 110.275 163.477 108.575 165.26 106.477C167.043 104.379 168.365 101.928 169.142 99.2848C169.71 96.1352 169.041 92.8875 167.276 90.2203C157.668 95.5658 149.446 103.095 143.27 112.202H143.213Z" fill="#083C94"/>
<path d="M343.912 114.836C330.821 122.4 328.955 133.985 338.257 142.738C340.519 141.69 342.753 140.614 344.902 139.48C359.351 131.776 369.417 122.654 375.214 112.967C374.204 111.315 373.11 109.717 371.934 108.18C362.178 107.952 352.527 110.244 343.912 114.836Z" fill="#5243C2"/>
<path d="M343.912 114.836C330.821 122.4 328.955 133.985 338.257 142.738C340.519 141.69 342.753 140.614 344.902 139.48C359.351 131.776 369.417 122.654 375.214 112.967C374.204 111.315 373.11 109.717 371.934 108.18C362.178 107.952 352.527 110.244 343.912 114.836Z" fill="url(#paint9_linear)"/>
<path d="M337.891 144.919L336.929 144.097C334.77 142.279 333.075 139.971 331.983 137.365C330.891 134.759 330.435 131.93 330.652 129.113C331.359 123.051 335.714 117.414 342.952 113.221C351.762 108.503 361.636 106.133 371.624 106.338H372.755L373.292 107.074C374.525 108.651 375.667 110.297 376.713 112.003L377.279 112.966L376.713 113.901C370.493 124.297 360.059 133.447 345.61 141.095C343.603 142.171 341.425 143.248 338.852 144.409L337.891 144.919ZM371.002 110.02C361.885 109.917 352.889 112.119 344.847 116.422C338.654 119.991 334.922 124.665 334.356 129.537C334.203 131.573 334.507 133.616 335.246 135.518C335.984 137.421 337.14 139.132 338.626 140.528C340.634 139.593 342.387 138.715 344.027 137.696C357.147 130.699 367.156 122.116 373.037 112.825C372.444 112.032 371.765 111.069 371.002 110.02Z" fill="#083C94"/>
<path d="M309.529 347.568H306.701V365.81H309.529V347.568Z" fill="#5243C2"/>
<path d="M309.529 347.568H306.701V365.81H309.529V347.568Z" fill="url(#paint10_linear)"/>
<path d="M77.8021 176.842L75.5254 179.733L95.4381 195.471L97.7148 192.58L77.8021 176.842Z" fill="#083C94"/>
<path d="M60.0335 221.472L57.7568 224.364L77.6696 240.101L79.9462 237.21L60.0335 221.472Z" fill="#083C94"/>
<path d="M399.617 172.481C399.617 172.481 372.104 253.835 334.894 294.965L366.562 276.695C366.562 276.695 399.617 212.818 399.617 172.481Z" fill="#083C94"/>
<path d="M57.4773 208.392L-597.586 587.275L-596.059 589.924L59.0042 211.042L57.4773 208.392Z" fill="#083C94"/>
</g>
<defs>
<linearGradient id="paint0_linear" x1="257.517" y1="92.6848" x2="257.517" y2="356.753" gradientUnits="userSpaceOnUse">
<stop stop-color="#01CFFC"/>
<stop offset="0.838542" stop-color="#22D197" stop-opacity="0"/>
</linearGradient>
<linearGradient id="paint1_linear" x1="257.531" y1="4.98511" x2="257.531" y2="180.383" gradientUnits="userSpaceOnUse">
<stop stop-color="#01CFFC"/>
<stop offset="0.838542" stop-color="#22D197" stop-opacity="0"/>
</linearGradient>
<linearGradient id="paint2_linear" x1="257.483" y1="26.8535" x2="257.483" y2="158.505" gradientUnits="userSpaceOnUse">
<stop stop-color="#01CFFC"/>
<stop offset="0.838542" stop-color="#22D197" stop-opacity="0"/>
</linearGradient>
<linearGradient id="paint3_linear" x1="127.862" y1="171.773" x2="127.862" y2="299.961" gradientUnits="userSpaceOnUse">
<stop stop-color="#01CFFC"/>
<stop offset="0.838542" stop-color="#22D197" stop-opacity="0"/>
</linearGradient>
<linearGradient id="paint4_linear" x1="323.625" y1="96.186" x2="323.625" y2="157.411" gradientUnits="userSpaceOnUse">
<stop stop-color="#01CFFC"/>
<stop offset="0.838542" stop-color="#22D197" stop-opacity="0"/>
</linearGradient>
<linearGradient id="paint5_linear" x1="223.332" y1="80.752" x2="223.332" y2="121.619" gradientUnits="userSpaceOnUse">
<stop stop-color="#01CFFC"/>
<stop offset="0.838542" stop-color="#22D197" stop-opacity="0"/>
</linearGradient>
<linearGradient id="paint6_linear" x1="198.067" y1="106.564" x2="198.067" y2="129.825" gradientUnits="userSpaceOnUse">
<stop stop-color="#01CFFC"/>
<stop offset="0.838542" stop-color="#22D197" stop-opacity="0"/>
</linearGradient>
<linearGradient id="paint7_linear" x1="273.79" y1="95.6023" x2="273.79" y2="141.038" gradientUnits="userSpaceOnUse">
<stop stop-color="#01CFFC"/>
<stop offset="0.838542" stop-color="#22D197" stop-opacity="0"/>
</linearGradient>
<linearGradient id="paint8_linear" x1="156.06" y1="87.7559" x2="156.06" y2="118.32" gradientUnits="userSpaceOnUse">
<stop stop-color="#01CFFC"/>
<stop offset="0.838542" stop-color="#22D197" stop-opacity="0"/>
</linearGradient>
<linearGradient id="paint9_linear" x1="353.832" y1="108.164" x2="353.832" y2="142.738" gradientUnits="userSpaceOnUse">
<stop stop-color="#01CFFC"/>
<stop offset="0.838542" stop-color="#22D197" stop-opacity="0"/>
</linearGradient>
<linearGradient id="paint10_linear" x1="308.115" y1="347.568" x2="308.115" y2="365.81" gradientUnits="userSpaceOnUse">
<stop stop-color="#01CFFC"/>
<stop offset="0.838542" stop-color="#22D197" stop-opacity="0"/>
</linearGradient>
<clipPath id="clip0">
<rect width="366" height="400" fill="white" transform="translate(57)"/>
</clipPath>
</defs>
</svg>
