<svg width="480" height="400" viewBox="0 0 480 400" fill="none" xmlns="http://www.w3.org/2000/svg">
<rect width="480" height="400" fill="white"/>
<g clip-path="url(#clip0)">
<path d="M246.179 358.499L243.324 360.17C243.143 360.252 242.946 360.294 242.747 360.294C242.548 360.294 242.352 360.252 242.17 360.17L239.468 358.62C239.134 358.408 239.104 358.104 239.468 357.952L242.353 356.281C242.529 356.199 242.72 356.157 242.914 356.157C243.108 356.157 243.3 356.199 243.476 356.281L246.179 357.83C246.422 358.104 246.482 358.499 246.179 358.499Z" fill="#083C94"/>
<path d="M252.859 362.419L250.005 364.059C249.826 364.15 249.629 364.197 249.428 364.197C249.228 364.197 249.03 364.15 248.851 364.059L246.149 362.479C245.815 362.297 245.784 361.993 246.149 361.841L249.003 360.17C249.182 360.082 249.38 360.036 249.58 360.036C249.78 360.036 249.977 360.082 250.157 360.17L252.859 361.72C253.102 361.932 253.133 362.236 252.859 362.419Z" fill="#083C94"/>
<path d="M245.814 366.459L242.96 368.13C242.781 368.218 242.583 368.264 242.383 368.264C242.183 368.264 241.986 368.218 241.806 368.13L239.104 366.58C238.77 366.368 238.739 366.094 239.104 365.912L242.14 364.271C242.319 364.181 242.517 364.133 242.717 364.133C242.918 364.133 243.115 364.181 243.294 364.271L245.966 365.851C246.088 366.003 246.118 366.307 245.814 366.459Z" fill="#083C94"/>
<path d="M259.508 366.277L256.653 367.917C256.476 368.013 256.278 368.063 256.077 368.063C255.875 368.063 255.677 368.013 255.5 367.917L252.797 366.368C252.463 366.186 252.433 365.882 252.797 365.7L255.682 364.059C255.855 363.968 256.048 363.921 256.244 363.921C256.439 363.921 256.632 363.968 256.805 364.059L259.508 365.639C259.751 365.791 259.811 366.094 259.508 366.277Z" fill="#083C94"/>
<path d="M252.495 370.318L249.458 371.959C249.285 372.049 249.092 372.096 248.896 372.096C248.701 372.096 248.508 372.049 248.335 371.959L245.632 370.409C245.298 370.196 245.237 369.893 245.632 369.741L248.486 368.07C248.666 367.981 248.863 367.935 249.063 367.935C249.263 367.935 249.461 367.981 249.64 368.07L252.343 369.619C252.859 369.862 252.859 370.136 252.495 370.318Z" fill="#083C94"/>
<path d="M259.326 374.268L256.472 375.938C256.291 376.021 256.094 376.063 255.895 376.063C255.696 376.063 255.499 376.021 255.318 375.938L252.616 374.389C252.282 374.176 252.251 373.873 252.616 373.721L255.652 372.05C255.828 371.968 256.02 371.926 256.214 371.926C256.408 371.926 256.599 371.968 256.775 372.05L259.478 373.599C259.569 373.69 259.63 374.116 259.326 374.268Z" fill="#083C94"/>
<path d="M287.079 382.379L284.043 384.05C283.871 384.146 283.678 384.196 283.481 384.196C283.285 384.196 283.091 384.146 282.92 384.05L280.217 382.501C279.883 382.318 279.822 382.015 280.217 381.832L283.071 380.192C283.25 380.101 283.448 380.054 283.648 380.054C283.849 380.054 284.046 380.101 284.225 380.192L286.928 381.772C287.322 381.923 287.353 382.227 287.079 382.379Z" fill="#083C94"/>
<path d="M280.187 386.45L277.151 388.09C276.972 388.181 276.774 388.228 276.574 388.228C276.373 388.228 276.176 388.181 275.997 388.09L273.325 386.541C272.96 386.328 272.93 386.024 273.325 385.872L276.179 384.201C276.359 384.113 276.556 384.067 276.756 384.067C276.956 384.067 277.153 384.113 277.333 384.201L280.035 385.751C280.187 385.994 280.339 386.267 280.187 386.45Z" fill="#083C94"/>
<path d="M293.729 386.238L290.875 387.909C290.696 387.997 290.498 388.043 290.298 388.043C290.098 388.043 289.901 387.997 289.721 387.909L287.019 386.359C286.685 386.146 286.654 385.873 287.019 385.691L289.873 384.05C290.052 383.959 290.25 383.912 290.45 383.912C290.651 383.912 290.848 383.959 291.027 384.05L293.729 385.6C294.003 385.843 294.033 386.086 293.729 386.238Z" fill="#083C94"/>
<path d="M286.714 390.309L283.859 391.949C283.681 392.04 283.483 392.087 283.283 392.087C283.082 392.087 282.884 392.04 282.706 391.949L280.003 390.37C279.669 390.187 279.639 389.884 280.003 389.701L283.04 388.061C283.211 387.965 283.405 387.915 283.601 387.915C283.798 387.915 283.991 387.965 284.163 388.061L286.866 389.61C286.957 389.823 287.017 390.127 286.714 390.309Z" fill="#083C94"/>
<path d="M300.409 390.096L297.372 391.736C297.199 391.827 297.006 391.874 296.81 391.874C296.615 391.874 296.422 391.827 296.249 391.736L293.546 390.156C293.212 389.974 293.151 389.67 293.546 389.518L296.4 387.847C296.58 387.759 296.777 387.713 296.977 387.713C297.177 387.713 297.375 387.759 297.554 387.847L300.257 389.397C300.651 389.64 300.682 389.913 300.409 390.096Z" fill="#083C94"/>
<path d="M293.363 394.136L290.509 395.807C290.33 395.895 290.132 395.941 289.932 395.941C289.732 395.941 289.535 395.895 289.355 395.807L286.683 394.258C286.319 394.075 286.288 393.771 286.683 393.589L289.537 391.949C289.716 391.858 289.914 391.811 290.114 391.811C290.315 391.811 290.513 391.858 290.691 391.949L293.394 393.528C293.637 393.68 293.667 393.984 293.363 394.136Z" fill="#083C94"/>
<path d="M307.515 394.167L304.66 395.808C304.481 395.898 304.284 395.946 304.083 395.946C303.883 395.946 303.685 395.898 303.506 395.808L300.804 394.258C300.47 394.046 300.44 393.742 300.804 393.59L303.84 391.919C304.015 391.831 304.207 391.785 304.402 391.785C304.597 391.785 304.79 391.831 304.964 391.919L307.666 393.468C307.697 393.711 307.757 393.985 307.515 394.167Z" fill="#083C94"/>
<path d="M300.44 398.208L297.403 399.879C297.232 399.975 297.038 400.025 296.842 400.025C296.645 400.025 296.452 399.975 296.28 399.879L293.577 398.329C293.243 398.147 293.183 397.843 293.577 397.661L296.432 396.02C296.61 395.93 296.808 395.882 297.009 395.882C297.209 395.882 297.407 395.93 297.586 396.02L300.288 397.6C300.683 397.752 300.713 397.995 300.44 398.208Z" fill="#083C94"/>
<path d="M314.469 390.096L311.614 391.767C311.437 391.863 311.239 391.913 311.037 391.913C310.836 391.913 310.638 391.863 310.461 391.767L307.758 390.218C307.424 390.035 307.394 389.731 307.758 389.549L310.612 387.909C310.791 387.818 310.989 387.771 311.189 387.771C311.39 387.771 311.587 387.818 311.766 387.909L314.438 389.488C314.742 389.64 314.772 389.944 314.469 390.096Z" fill="#083C94"/>
<path d="M321.481 386.055L318.627 387.695C318.448 387.786 318.251 387.833 318.05 387.833C317.85 387.833 317.652 387.786 317.473 387.695L314.771 386.146C314.437 385.933 314.406 385.629 314.771 385.478L317.625 383.807C317.805 383.718 318.002 383.672 318.202 383.672C318.402 383.672 318.599 383.718 318.779 383.807L321.481 385.356C321.755 385.599 321.785 385.842 321.481 386.055Z" fill="#083C94"/>
<path d="M328.528 381.983L325.491 383.654C325.319 383.75 325.126 383.8 324.93 383.8C324.733 383.8 324.54 383.75 324.368 383.654L321.665 382.105C321.331 381.923 321.271 381.619 321.665 381.437L324.52 379.796C324.698 379.705 324.896 379.658 325.097 379.658C325.297 379.658 325.495 379.705 325.673 379.796L328.376 381.376C328.771 381.528 328.771 381.832 328.528 381.983Z" fill="#083C94"/>
<path d="M335.54 377.943L332.686 379.583C332.507 379.674 332.309 379.721 332.109 379.721C331.908 379.721 331.711 379.674 331.532 379.583L328.829 378.034C328.495 377.821 328.465 377.517 328.829 377.366L331.866 375.695C332.04 375.606 332.232 375.561 332.428 375.561C332.623 375.561 332.815 375.606 332.989 375.695L335.692 377.244C335.783 377.487 335.844 377.76 335.54 377.943Z" fill="#083C94"/>
<path d="M342.556 373.872L339.701 375.543C339.524 375.638 339.326 375.688 339.124 375.688C338.923 375.688 338.725 375.638 338.547 375.543L335.845 373.993C335.511 373.811 335.481 373.507 335.845 373.325L338.881 371.684C339.055 371.594 339.248 371.546 339.443 371.546C339.639 371.546 339.831 371.594 340.005 371.684L342.707 373.264C342.829 373.416 342.859 373.689 342.556 373.872Z" fill="#083C94"/>
<path d="M349.569 369.831L346.715 371.472C346.536 371.563 346.339 371.61 346.138 371.61C345.938 371.61 345.74 371.563 345.561 371.472L342.859 369.923C342.525 369.71 342.494 369.406 342.859 369.254L345.713 367.583C345.892 367.495 346.09 367.449 346.29 367.449C346.49 367.449 346.687 367.495 346.867 367.583L349.569 369.133C349.843 369.376 350.025 369.649 349.569 369.831Z" fill="#083C94"/>
<path d="M314.104 397.995L311.25 399.635C311.071 399.726 310.873 399.773 310.673 399.773C310.472 399.773 310.275 399.726 310.096 399.635L307.515 397.995C307.181 397.812 307.151 397.509 307.515 397.326L310.369 395.686C310.546 395.59 310.745 395.54 310.946 395.54C311.148 395.54 311.346 395.59 311.523 395.686L314.225 397.235C314.377 397.539 314.408 397.995 314.104 397.995Z" fill="#083C94"/>
<path d="M321.147 393.955L318.263 395.626C318.089 395.714 317.896 395.76 317.701 395.76C317.506 395.76 317.313 395.714 317.139 395.626L314.437 394.076C314.103 393.863 314.042 393.59 314.437 393.408L317.291 391.767C317.47 391.676 317.668 391.629 317.868 391.629C318.069 391.629 318.266 391.676 318.445 391.767L321.147 393.317C321.39 393.499 321.421 393.803 321.147 393.955Z" fill="#083C94"/>
<path d="M328.162 389.913L325.308 391.554C325.129 391.644 324.931 391.692 324.731 391.692C324.53 391.692 324.333 391.644 324.154 391.554L321.451 389.974C321.117 389.792 321.087 389.488 321.451 389.305L324.488 387.665C324.66 387.569 324.853 387.519 325.05 387.519C325.246 387.519 325.44 387.569 325.611 387.665L328.314 389.214C328.405 389.427 328.466 389.731 328.162 389.913Z" fill="#083C94"/>
<path d="M335.176 385.843L332.321 387.514C332.142 387.602 331.945 387.648 331.745 387.648C331.544 387.648 331.347 387.602 331.168 387.514L328.465 385.843C328.131 385.63 328.101 385.357 328.465 385.174L331.35 383.534C331.523 383.443 331.716 383.396 331.912 383.396C332.107 383.396 332.3 383.443 332.473 383.534L335.176 385.083C335.449 385.387 335.479 385.843 335.176 385.843Z" fill="#083C94"/>
<path d="M259.326 382.592L256.289 384.232C256.116 384.323 255.923 384.37 255.728 384.37C255.532 384.37 255.339 384.323 255.166 384.232L252.463 382.653C252.099 382.47 252.069 382.166 252.463 381.984L255.318 380.344C255.495 380.248 255.693 380.198 255.895 380.198C256.096 380.198 256.294 380.248 256.472 380.344L259.174 381.893C259.569 382.106 259.599 382.41 259.326 382.592Z" fill="#083C94"/>
<path d="M265.975 386.42L263.121 388.091C262.942 388.179 262.744 388.225 262.544 388.225C262.344 388.225 262.147 388.179 261.967 388.091L259.265 386.542C258.931 386.359 258.901 386.055 259.265 385.873L262.301 384.233C262.475 384.142 262.668 384.095 262.863 384.095C263.059 384.095 263.251 384.142 263.425 384.233L266.127 385.812C266.218 385.843 266.279 386.268 265.975 386.42Z" fill="#083C94"/>
<path d="M258.932 390.49L256.047 392.131C255.873 392.221 255.681 392.269 255.485 392.269C255.29 392.269 255.097 392.221 254.923 392.131L252.221 390.551C251.887 390.369 251.826 390.065 252.221 389.913L255.075 388.242C255.255 388.154 255.452 388.108 255.652 388.108C255.852 388.108 256.05 388.154 256.229 388.242L258.932 389.792C259.205 390.035 259.235 390.308 258.932 390.49Z" fill="#083C94"/>
<path d="M273.02 390.491L270.166 392.162C269.989 392.257 269.791 392.308 269.589 392.308C269.388 392.308 269.19 392.257 269.012 392.162L266.31 390.612C265.976 390.43 265.945 390.126 266.31 389.944L269.164 388.303C269.343 388.213 269.541 388.165 269.741 388.165C269.942 388.165 270.139 388.213 270.318 388.303L273.02 389.883C273.294 390.035 273.324 390.339 273.02 390.491Z" fill="#083C94"/>
<path d="M266.007 394.562L263.152 396.203C262.974 396.293 262.776 396.341 262.576 396.341C262.375 396.341 262.177 396.293 261.999 396.203L259.296 394.653C258.962 394.44 258.932 394.137 259.296 393.985L262.181 392.314C262.355 392.226 262.547 392.18 262.743 392.18C262.938 392.18 263.13 392.226 263.304 392.314L266.007 393.863C266.28 394.106 266.31 394.38 266.007 394.562Z" fill="#083C94"/>
<path d="M279.702 394.349L276.665 396.02C276.491 396.108 276.298 396.154 276.103 396.154C275.908 396.154 275.716 396.108 275.542 396.02L272.839 394.471C272.505 394.258 272.444 393.985 272.839 393.803L275.693 392.162C275.872 392.071 276.07 392.024 276.27 392.024C276.471 392.024 276.668 392.071 276.847 392.162L279.55 393.711C279.944 393.894 279.975 394.198 279.702 394.349Z" fill="#083C94"/>
<path d="M342.191 381.801L339.337 383.442C339.158 383.533 338.961 383.58 338.76 383.58C338.56 383.58 338.362 383.533 338.183 383.442L335.481 381.862C335.147 381.68 335.116 381.376 335.481 381.194L338.335 379.553C338.512 379.457 338.711 379.407 338.912 379.407C339.113 379.407 339.312 379.457 339.489 379.553L342.191 381.103C342.465 381.315 342.495 381.619 342.191 381.801Z" fill="#083C94"/>
<path d="M349.236 377.73L346.351 379.401C346.177 379.489 345.984 379.535 345.789 379.535C345.594 379.535 345.402 379.489 345.227 379.401L342.525 377.852C342.161 377.639 342.13 377.366 342.525 377.183L345.379 375.543C345.558 375.452 345.756 375.405 345.956 375.405C346.157 375.405 346.354 375.452 346.533 375.543L349.236 377.092C349.478 377.275 349.509 377.578 349.236 377.73Z" fill="#083C94"/>
<path d="M356.249 365.669L353.213 367.34C353.039 367.429 352.846 367.474 352.651 367.474C352.456 367.474 352.264 367.429 352.089 367.34L349.387 365.791C349.053 365.578 348.992 365.305 349.387 365.123L352.241 363.482C352.42 363.391 352.618 363.344 352.818 363.344C353.019 363.344 353.216 363.391 353.395 363.482L356.098 365.062C356.492 365.214 356.523 365.518 356.249 365.669Z" fill="#083C94"/>
<path d="M363.263 361.537L360.408 363.178C360.23 363.268 360.032 363.316 359.831 363.316C359.631 363.316 359.433 363.268 359.254 363.178L356.552 361.598C356.218 361.415 356.188 361.112 356.552 360.96L359.437 359.289C359.611 359.201 359.803 359.155 359.998 359.155C360.194 359.155 360.386 359.201 360.56 359.289L363.263 360.838C363.505 361.142 363.566 361.537 363.263 361.537Z" fill="#083C94"/>
<path d="M355.885 373.69L353.03 375.33C352.853 375.426 352.655 375.476 352.453 375.476C352.252 375.476 352.054 375.426 351.877 375.33L349.174 373.781C348.84 373.598 348.81 373.295 349.174 373.112L352.211 371.472C352.384 371.381 352.577 371.334 352.772 371.334C352.968 371.334 353.161 371.381 353.334 371.472L356.036 373.052C356.097 373.112 356.097 373.416 355.885 373.69Z" fill="#083C94"/>
<path d="M362.898 369.527L360.044 371.168C359.865 371.259 359.668 371.306 359.467 371.306C359.267 371.306 359.069 371.259 358.89 371.168L356.188 369.619C355.854 369.406 355.823 369.102 356.188 368.95L359.042 367.279C359.222 367.191 359.419 367.145 359.619 367.145C359.819 367.145 360.016 367.191 360.196 367.279L362.898 368.829C363.172 369.072 363.202 369.345 362.898 369.527Z" fill="#083C94"/>
<path d="M350.572 322.892L347.718 324.533C347.539 324.623 347.341 324.671 347.141 324.671C346.94 324.671 346.743 324.623 346.564 324.533L343.952 322.953C343.618 322.74 343.588 322.436 343.952 322.285L346.989 320.614C347.163 320.525 347.355 320.479 347.551 320.479C347.746 320.479 347.938 320.525 348.112 320.614L350.815 322.163C350.815 322.436 350.876 322.71 350.572 322.892Z" fill="#083C94"/>
<path d="M357.221 318.73L354.367 320.401C354.187 320.489 353.99 320.535 353.79 320.535C353.59 320.535 353.392 320.489 353.213 320.401L350.541 318.852C350.176 318.639 350.146 318.365 350.541 318.183L353.395 316.543C353.574 316.452 353.771 316.405 353.972 316.405C354.172 316.405 354.37 316.452 354.549 316.543L357.251 318.122C357.494 318.274 357.524 318.578 357.221 318.73Z" fill="#083C94"/>
<path d="M356.887 326.66L353.851 328.3C353.679 328.396 353.486 328.446 353.289 328.446C353.092 328.446 352.899 328.396 352.727 328.3L350.025 326.751C349.691 326.568 349.63 326.265 350.025 326.082L352.879 324.442C353.058 324.351 353.255 324.304 353.456 324.304C353.656 324.304 353.854 324.351 354.033 324.442L356.735 326.022C357.13 326.173 357.16 326.477 356.887 326.66Z" fill="#083C94"/>
<path d="M301.442 384.323L245.814 351.906C245.572 351.809 245.364 351.641 245.218 351.424C245.071 351.208 244.994 350.952 244.994 350.691V339.693C244.994 339.569 245.041 339.45 245.126 339.359C245.21 339.269 245.326 339.214 245.45 339.207L283.223 327.753H283.435L301.077 317.758C301.783 317.368 302.57 317.146 303.375 317.109C304.181 317.072 304.984 317.221 305.723 317.545L343.587 339.723C343.665 339.754 343.752 339.754 343.83 339.723H361.806C361.935 339.723 362.058 339.774 362.149 339.866C362.241 339.957 362.292 340.08 362.292 340.209V351.268C362.235 351.58 362.103 351.873 361.907 352.121C361.711 352.37 361.458 352.568 361.168 352.696L306.118 384.11C305.408 384.505 304.616 384.73 303.805 384.767C302.993 384.803 302.184 384.652 301.442 384.323Z" fill="#5243C2"/>
<path d="M301.442 384.323L245.814 351.906C245.572 351.809 245.364 351.641 245.218 351.424C245.071 351.208 244.994 350.952 244.994 350.691V339.693C244.994 339.569 245.041 339.45 245.126 339.359C245.21 339.269 245.326 339.214 245.45 339.207L283.223 327.753H283.435L301.077 317.758C301.783 317.368 302.57 317.146 303.375 317.109C304.181 317.072 304.984 317.221 305.723 317.545L343.587 339.723C343.665 339.754 343.752 339.754 343.83 339.723H361.806C361.935 339.723 362.058 339.774 362.149 339.866C362.241 339.957 362.292 340.08 362.292 340.209V351.268C362.235 351.58 362.103 351.873 361.907 352.121C361.711 352.37 361.458 352.568 361.168 352.696L306.118 384.11C305.408 384.505 304.616 384.73 303.805 384.767C302.993 384.803 302.184 384.652 301.442 384.323Z" fill="url(#paint0_linear)"/>
<path d="M303.476 385.995C302.569 386.006 301.673 385.797 300.865 385.387L245.176 352.97C244.744 352.755 244.383 352.42 244.135 352.006C243.887 351.591 243.764 351.114 243.78 350.631V339.572C243.796 339.164 243.953 338.775 244.224 338.47C244.496 338.165 244.864 337.964 245.267 337.901L282.828 326.538L300.318 316.634C301.207 316.132 302.203 315.851 303.222 315.814C304.242 315.777 305.256 315.985 306.178 316.421L343.952 338.509H361.715C361.937 338.506 362.158 338.551 362.362 338.64C362.566 338.729 362.749 338.86 362.899 339.025C363.065 339.181 363.196 339.369 363.285 339.579C363.374 339.788 363.418 340.013 363.415 340.24V351.299C363.37 351.83 363.187 352.339 362.883 352.776C362.579 353.214 362.166 353.563 361.684 353.79L306.725 385.174C305.73 385.722 304.611 386.005 303.476 385.995ZM302.079 383.26C302.634 383.47 303.226 383.559 303.818 383.522C304.409 383.486 304.986 383.324 305.51 383.048L360.409 351.512C360.804 351.299 360.925 351.087 360.925 351.026V340.818H343.709C343.408 340.816 343.114 340.732 342.859 340.575L304.994 318.396C304.445 318.186 303.857 318.096 303.271 318.132C302.684 318.169 302.112 318.332 301.593 318.609L283.921 328.604C283.731 328.701 283.526 328.762 283.314 328.787L246.33 340.271V350.722C246.33 350.722 246.33 350.722 246.512 350.935L302.079 383.26Z" fill="#083C94"/>
<path d="M345.834 339.602H361.593C361.757 339.601 361.915 339.664 362.034 339.778C362.152 339.891 362.223 340.045 362.231 340.209V351.146C362.174 351.458 362.042 351.751 361.846 352C361.65 352.249 361.397 352.446 361.107 352.574L306.452 383.989C306.423 384.016 306.385 384.032 306.345 384.032C306.306 384.032 306.267 384.016 306.239 383.989V372.565C304.842 368.768 345.834 339.602 345.834 339.602Z" fill="#083C94"/>
<path d="M306.33 385.387L305.571 385.022C305.364 384.903 305.193 384.73 305.075 384.521C304.958 384.313 304.898 384.077 304.903 383.837V372.566C304.539 371.26 305.298 368.586 324.67 353.669C334.66 345.982 344.923 338.661 345.015 338.478H345.288C345.561 338.478 345.531 338.478 361.502 338.478C361.99 338.493 362.455 338.688 362.808 339.025C362.985 339.199 363.125 339.407 363.219 339.637C363.313 339.867 363.359 340.114 363.355 340.362V351.269C363.31 351.799 363.126 352.309 362.822 352.746C362.519 353.183 362.105 353.533 361.624 353.76L306.33 385.387ZM307.515 372.779V381.893L360.561 351.512C360.956 351.299 361.077 351.086 361.077 351.056V340.818H346.229C327.798 353.942 308.517 369.072 307.454 372.141V372.505L307.515 372.779Z" fill="#083C94"/>
<path d="M361.441 338.205L305.783 305.788C305.044 305.464 304.241 305.315 303.435 305.352C302.629 305.389 301.843 305.611 301.137 306.001L246.238 337.536C244.841 338.326 244.72 339.542 245.904 340.24L301.441 372.627C302.179 372.951 302.983 373.1 303.788 373.063C304.594 373.026 305.38 372.804 306.086 372.414L361.137 340.878C362.503 340.088 362.625 338.873 361.441 338.205Z" fill="white"/>
<path d="M303.597 374.298C302.679 374.327 301.768 374.118 300.955 373.69L245.297 341.273C244.88 341.069 244.527 340.754 244.275 340.363C244.024 339.972 243.884 339.52 243.87 339.056C243.899 338.509 244.076 337.981 244.38 337.526C244.685 337.071 245.107 336.708 245.601 336.473L300.53 304.937C301.421 304.442 302.416 304.165 303.435 304.128C304.453 304.091 305.466 304.296 306.39 304.725L362.17 337.233C362.585 337.44 362.937 337.755 363.188 338.146C363.439 338.536 363.58 338.987 363.597 339.45C363.568 339.997 363.391 340.525 363.087 340.98C362.782 341.435 362.36 341.798 361.866 342.033L306.815 373.478C305.832 374.025 304.723 374.308 303.597 374.298ZM246.33 339.056H246.512L302.2 371.563C302.746 371.789 303.336 371.887 303.925 371.85C304.514 371.813 305.087 371.642 305.601 371.351L360.5 339.815C360.864 339.633 360.986 339.45 361.016 339.359H360.834L305.145 306.851C304.596 306.641 304.009 306.551 303.422 306.587C302.835 306.624 302.263 306.787 301.745 307.064L246.785 338.6C246.582 338.713 246.406 338.868 246.269 339.056H246.33Z" fill="#083C94"/>
<path d="M251.53 344.281L251.188 355.668L253.647 355.742L253.989 344.354L251.53 344.281Z" fill="#083C94"/>
<path d="M351.257 347.094L351.101 357.027L352.983 357.057L353.139 347.123L351.257 347.094Z" fill="#5243C2"/>
<path d="M351.257 347.094L351.101 357.027L352.983 357.057L353.139 347.123L351.257 347.094Z" fill="url(#paint1_linear)"/>
<path d="M281.461 366.55L273.506 361.871C273.373 361.791 273.221 361.748 273.065 361.748C272.91 361.748 272.758 361.791 272.625 361.871L263 367.947C262.911 368.004 262.847 368.091 262.819 368.192C262.791 368.293 262.801 368.4 262.848 368.494L272.17 378.459C272.188 378.529 272.188 378.602 272.17 378.672V381.892C272.17 382.834 275.935 380.1 276.633 380.525L271.866 383.563C271.94 383.634 272.037 383.673 272.139 383.673C272.241 383.673 272.339 383.634 272.413 383.563L282.099 377.487C282.338 377.192 282.486 376.833 282.524 376.454V368.828C282.52 368.395 282.422 367.967 282.239 367.574C282.056 367.181 281.791 366.832 281.461 366.55Z" fill="white"/>
<path d="M272.414 384.931H272.05C271.837 384.885 271.638 384.794 271.465 384.662C271.292 384.531 271.149 384.364 271.048 384.172L270.44 383.169L271.078 382.804V381.954V378.916L261.969 369.011C261.753 368.651 261.686 368.221 261.782 367.812C261.879 367.404 262.131 367.049 262.485 366.824L272.141 360.748C272.459 360.548 272.828 360.442 273.204 360.442C273.579 360.442 273.948 360.548 274.266 360.748L282.222 365.396C282.794 365.783 283.264 366.303 283.592 366.911C283.92 367.52 284.096 368.199 284.104 368.89V376.728C284.072 377.386 283.827 378.015 283.406 378.521L283.102 378.794L273.416 384.87C273.101 385.014 272.744 385.036 272.414 384.931ZM264.519 368.373L273.234 377.761C273.381 378.009 273.455 378.293 273.446 378.581V380.313L273.841 380.131C275.299 379.402 276.361 378.885 277.242 379.341L281.432 376.728V369.133C281.424 368.871 281.36 368.613 281.245 368.377C281.13 368.142 280.966 367.933 280.764 367.766L272.991 363.208L264.519 368.373Z" fill="#083C94"/>
<path d="M265.339 376.971V377.609L272.08 383.29C272.169 383.443 272.314 383.554 272.485 383.6C272.656 383.645 272.838 383.621 272.991 383.533L282.434 377.639C282.674 377.344 282.821 376.985 282.859 376.606V369.467C282.859 369.42 282.847 369.375 282.824 369.334C282.801 369.294 282.769 369.26 282.729 369.236C282.69 369.211 282.645 369.197 282.598 369.195C282.552 369.193 282.506 369.203 282.464 369.224L272.9 375.3L265.339 376.971Z" fill="#083C94"/>
<path d="M272.595 384.84C272.445 384.869 272.29 384.869 272.14 384.84C271.731 384.756 271.365 384.53 271.107 384.202L263.972 378.125L264.215 375.968L272.2 374.145L281.735 368.069C281.966 367.936 282.227 367.866 282.494 367.866C282.76 367.866 283.022 367.936 283.253 368.069C283.489 368.194 283.685 368.383 283.819 368.614C283.954 368.845 284.02 369.109 284.012 369.376V376.728C283.98 377.385 283.734 378.014 283.314 378.52L283.01 378.794L273.567 384.688C273.262 384.824 272.927 384.876 272.595 384.84ZM267.342 377.761L272.656 382.227L281.492 376.728V371.35L273.628 376.242V376.515L267.342 377.761Z" fill="#083C94"/>
<path d="M271.442 383.807L263.486 379.158C263.098 378.882 262.78 378.518 262.559 378.095C262.337 377.673 262.218 377.205 262.211 376.728V369.102C262.211 368.16 262.788 367.704 263.486 368.13L271.442 372.778C271.834 373.058 272.154 373.427 272.376 373.855C272.598 374.282 272.715 374.757 272.717 375.239V382.804C272.717 383.807 272.14 384.232 271.442 383.807Z" fill="#5243C2"/>
<path d="M271.442 383.807L263.486 379.158C263.098 378.882 262.78 378.518 262.559 378.095C262.337 377.673 262.218 377.205 262.211 376.728V369.102C262.211 368.16 262.788 367.704 263.486 368.13L271.442 372.778C271.834 373.058 272.154 373.427 272.376 373.855C272.598 374.282 272.715 374.757 272.717 375.239V382.804C272.717 383.807 272.14 384.232 271.442 383.807Z" fill="url(#paint2_linear)"/>
<path d="M271.959 385.205C271.561 385.198 271.172 385.082 270.835 384.87L262.88 380.222C262.307 379.835 261.837 379.315 261.509 378.706C261.182 378.098 261.006 377.419 260.997 376.728V369.102C260.97 368.69 261.055 368.278 261.242 367.909C261.429 367.54 261.711 367.228 262.06 367.006C262.373 366.822 262.729 366.725 263.092 366.725C263.455 366.725 263.812 366.822 264.125 367.006L272.05 371.655C272.626 372.045 273.099 372.569 273.427 373.184C273.755 373.798 273.928 374.482 273.932 375.179V382.804C273.962 383.214 273.882 383.624 273.701 383.993C273.519 384.361 273.243 384.675 272.9 384.901C272.615 385.077 272.292 385.181 271.959 385.205ZM271.959 382.774L271.351 383.807L271.959 382.774ZM263.365 369.528V376.728C263.374 376.99 263.438 377.248 263.553 377.484C263.668 377.719 263.832 377.928 264.033 378.095L271.382 382.41V375.24C271.378 374.972 271.316 374.709 271.201 374.468C271.085 374.226 270.919 374.013 270.714 373.842L263.365 369.528Z" fill="#083C94"/>
<path d="M281.608 373.295L273.099 378.415L274.069 380.029L282.578 374.909L281.608 373.295Z" fill="#5243C2"/>
<path d="M281.608 373.295L273.099 378.415L274.069 380.029L282.578 374.909L281.608 373.295Z" fill="url(#paint3_linear)"/>
<path d="M310.552 334.194L274.752 313.383C274.51 313.279 274.306 313.104 274.165 312.882C274.024 312.66 273.954 312.4 273.963 312.137V301.109C273.97 300.982 274.023 300.863 274.113 300.773C274.203 300.684 274.322 300.63 274.449 300.623H292.485C292.485 300.623 292.667 300.623 292.728 300.623L310.37 290.658C311.076 290.268 311.862 290.046 312.668 290.009C313.473 289.972 314.277 290.121 315.015 290.445L332.93 300.775H333.173H351.149C351.278 300.775 351.401 300.826 351.492 300.917C351.584 301.008 351.635 301.132 351.635 301.261V312.32C351.586 312.634 351.457 312.931 351.26 313.181C351.063 313.431 350.805 313.626 350.511 313.747L315.046 334.194C314.343 334.527 313.576 334.699 312.799 334.699C312.022 334.699 311.254 334.527 310.552 334.194Z" fill="#5243C2"/>
<path d="M310.552 334.194L274.752 313.383C274.51 313.279 274.306 313.104 274.165 312.882C274.024 312.66 273.954 312.4 273.963 312.137V301.109C273.97 300.982 274.023 300.863 274.113 300.773C274.203 300.684 274.322 300.63 274.449 300.623H292.485C292.485 300.623 292.667 300.623 292.728 300.623L310.37 290.658C311.076 290.268 311.862 290.046 312.668 290.009C313.473 289.972 314.277 290.121 315.015 290.445L332.93 300.775H333.173H351.149C351.278 300.775 351.401 300.826 351.492 300.917C351.584 301.008 351.635 301.132 351.635 301.261V312.32C351.586 312.634 351.457 312.931 351.26 313.181C351.063 313.431 350.805 313.626 350.511 313.747L315.046 334.194C314.343 334.527 313.576 334.699 312.799 334.699C312.022 334.699 311.254 334.527 310.552 334.194Z" fill="url(#paint4_linear)"/>
<path d="M312.402 335.987C311.496 335.998 310.6 335.79 309.791 335.379L274.113 314.568C273.672 314.352 273.304 314.014 273.051 313.594C272.797 313.173 272.671 312.689 272.686 312.198V301.17C272.693 300.726 272.871 300.302 273.181 299.986C273.492 299.669 273.913 299.484 274.356 299.469H292.21L309.7 289.595C310.586 289.085 311.583 288.8 312.604 288.763C313.625 288.726 314.64 288.938 315.56 289.382L333.354 299.864L351.117 299.712C351.344 299.712 351.568 299.759 351.776 299.847C351.985 299.936 352.174 300.065 352.332 300.228C352.641 300.558 352.814 300.992 352.817 301.443V312.502C352.758 313.029 352.569 313.532 352.267 313.967C351.965 314.402 351.559 314.755 351.087 314.993L315.682 335.319C314.664 335.819 313.535 336.049 312.402 335.987ZM311.006 333.253C311.56 333.462 312.153 333.551 312.744 333.515C313.335 333.478 313.912 333.316 314.437 333.04L349.811 312.715C350.206 312.502 350.327 312.29 350.327 312.259V302.021H333.111C332.815 302.015 332.524 301.943 332.261 301.808L314.315 291.357C313.77 291.132 313.18 291.034 312.59 291.07C312.001 291.107 311.428 291.278 310.915 291.57L293.273 301.535C293.017 301.692 292.723 301.776 292.423 301.778H275.115V312.046C275.115 312.046 275.115 312.046 275.297 312.29L311.006 333.253Z" fill="#083C94"/>
<path d="M335.237 300.775H350.996C351.165 300.775 351.327 300.842 351.447 300.962C351.567 301.081 351.634 301.243 351.634 301.413V312.32C351.585 312.634 351.456 312.931 351.259 313.181C351.062 313.431 350.804 313.626 350.51 313.747L315.348 333.921H315.136V322.497C313.769 318.76 335.237 300.775 335.237 300.775Z" fill="#083C94"/>
<path d="M315.257 335.379L314.498 335.014C314.291 334.895 314.12 334.722 314.002 334.513C313.885 334.305 313.825 334.069 313.83 333.829V322.436C313.314 318.183 326.34 306.547 334.357 299.863L334.751 299.65C334.994 299.65 334.994 299.65 350.905 299.65C351.395 299.656 351.863 299.852 352.211 300.197C352.388 300.371 352.528 300.579 352.622 300.809C352.716 301.039 352.762 301.286 352.757 301.534V312.441C352.698 312.967 352.509 313.471 352.207 313.906C351.905 314.341 351.499 314.693 351.027 314.932L315.257 335.379ZM316.351 322.862V331.976L349.751 312.714C350.146 312.502 350.268 312.289 350.268 312.259V302.02H335.693C326.189 310.01 316.168 319.824 316.32 322.011L316.563 322.649L316.351 322.862Z" fill="#083C94"/>
<path d="M350.844 299.408L315.044 278.596C314.305 278.273 313.502 278.123 312.696 278.16C311.891 278.197 311.104 278.419 310.398 278.809L275.024 299.134C273.657 299.924 273.506 301.139 274.69 301.808L310.55 322.619C311.289 322.943 312.092 323.092 312.898 323.055C313.703 323.018 314.49 322.796 315.196 322.406L350.601 302.081C351.906 301.291 352.058 300.076 350.844 299.408Z" fill="white"/>
<path d="M312.525 324.29C311.608 324.305 310.701 324.096 309.883 323.682L274.114 302.871C273.699 302.664 273.347 302.348 273.096 301.958C272.845 301.568 272.703 301.117 272.687 300.653C272.719 300.103 272.899 299.573 273.21 299.118C273.52 298.663 273.948 298.301 274.448 298.071L309.822 277.745C310.711 277.243 311.707 276.962 312.726 276.925C313.746 276.888 314.76 277.096 315.682 277.533L351.452 298.344C351.867 298.551 352.218 298.867 352.47 299.257C352.721 299.647 352.862 300.098 352.879 300.562C352.85 301.108 352.673 301.637 352.369 302.091C352.064 302.546 351.642 302.91 351.148 303.144L315.743 323.469C314.759 324.017 313.65 324.3 312.525 324.29ZM275.116 300.774H275.298L311.128 321.586C311.675 321.802 312.264 321.896 312.852 321.859C313.44 321.822 314.012 321.656 314.529 321.373L350.025 301.018C350.235 300.928 350.407 300.766 350.51 300.562H350.328L314.438 279.66C313.889 279.449 313.301 279.359 312.714 279.396C312.127 279.432 311.555 279.595 311.037 279.872L275.632 300.197C275.415 300.29 275.234 300.449 275.116 300.653V300.774Z" fill="#083C94"/>
<path d="M280.317 305.862L279.976 317.25L282.434 317.324L282.776 305.936L280.317 305.862Z" fill="#083C94"/>
<path d="M340.712 308.324L340.556 318.257L342.438 318.287L342.594 308.353L340.712 308.324Z" fill="#5243C2"/>
<path d="M340.712 308.324L340.556 318.257L342.438 318.287L342.594 308.353L340.712 308.324Z" fill="url(#paint5_linear)"/>
<path d="M312.038 311.256L304.751 310.132L305.662 308.188C304.978 307.945 304.317 307.64 303.688 307.276C302.998 306.89 302.364 306.409 301.806 305.849L298.526 306.365L296.279 301.474L299.771 300.957C299.906 299.945 300.316 298.988 300.955 298.192L298.344 296.673L304.144 293.331L306.482 294.668C308.378 294.068 310.353 293.751 312.342 293.726L313.192 291.904L320.51 293.028L319.599 294.972C320.27 295.212 320.92 295.507 321.542 295.853C322.226 296.25 322.859 296.729 323.425 297.281L326.704 296.795L328.951 301.656L325.459 302.203C325.314 303.212 324.906 304.166 324.275 304.967L326.887 306.456L321.087 309.889L318.779 308.552C316.87 309.14 314.886 309.447 312.889 309.464L312.038 311.256ZM307.514 308.644L310.915 309.16L311.704 307.52H312.312C314.438 307.58 316.558 307.25 318.567 306.547H318.961L321.087 307.763L323.121 306.578L321.239 305.484L322.15 304.633C322.595 304.26 322.956 303.796 323.207 303.272C323.459 302.748 323.595 302.176 323.607 301.595V300.775L326.219 300.35L325.611 299.043L322.787 299.468L322.423 299.104C321.897 298.545 321.294 298.064 320.632 297.676C319.816 297.221 318.95 296.864 318.051 296.613L317.018 296.278L317.777 294.668L314.346 294.152L313.587 295.823H312.949C310.885 295.8 308.831 296.129 306.876 296.795H306.451L304.326 295.58L302.291 296.734L304.204 297.828L303.263 298.709C302.813 299.078 302.449 299.541 302.197 300.066C301.945 300.591 301.812 301.165 301.806 301.747V302.598L299.194 302.993L299.802 304.299L302.656 303.874L302.99 304.238C303.5 304.815 304.106 305.298 304.781 305.666C305.6 306.122 306.466 306.488 307.362 306.76L308.395 307.064L307.514 308.644ZM312.615 305.362C310.84 305.433 309.101 304.849 307.727 303.722C307.423 303.448 307.178 303.116 307.006 302.746C306.834 302.375 306.738 301.973 306.725 301.565C306.738 301.164 306.831 300.769 306.998 300.404C307.165 300.039 307.402 299.711 307.696 299.438C309.109 298.359 310.838 297.774 312.615 297.774C314.393 297.774 316.121 298.359 317.534 299.438C317.838 299.706 318.081 300.036 318.248 300.405C318.415 300.774 318.501 301.175 318.501 301.58C318.501 301.985 318.415 302.386 318.248 302.755C318.081 303.124 317.838 303.454 317.534 303.722C316.148 304.849 314.4 305.432 312.615 305.362ZM312.615 299.651C311.312 299.594 310.031 300.004 309.002 300.805C308.882 300.896 308.785 301.013 308.719 301.147C308.652 301.282 308.617 301.43 308.617 301.58C308.617 301.73 308.652 301.878 308.719 302.013C308.785 302.147 308.882 302.264 309.002 302.355C310.062 303.094 311.323 303.491 312.615 303.491C313.908 303.491 315.169 303.094 316.229 302.355C316.348 302.264 316.445 302.147 316.512 302.013C316.579 301.878 316.613 301.73 316.613 301.58C316.613 301.43 316.579 301.282 316.512 301.147C316.445 301.013 316.348 300.896 316.229 300.805C315.199 300.004 313.919 299.594 312.615 299.651Z" fill="#5243C2"/>
<path d="M312.038 311.256L304.751 310.132L305.662 308.188C304.978 307.945 304.317 307.64 303.688 307.276C302.998 306.89 302.364 306.409 301.806 305.849L298.526 306.365L296.279 301.474L299.771 300.957C299.906 299.945 300.316 298.988 300.955 298.192L298.344 296.673L304.144 293.331L306.482 294.668C308.378 294.068 310.353 293.751 312.342 293.726L313.192 291.904L320.51 293.028L319.599 294.972C320.27 295.212 320.92 295.507 321.542 295.853C322.226 296.25 322.859 296.729 323.425 297.281L326.704 296.795L328.951 301.656L325.459 302.203C325.314 303.212 324.906 304.166 324.275 304.967L326.887 306.456L321.087 309.889L318.779 308.552C316.87 309.14 314.886 309.447 312.889 309.464L312.038 311.256ZM307.514 308.644L310.915 309.16L311.704 307.52H312.312C314.438 307.58 316.558 307.25 318.567 306.547H318.961L321.087 307.763L323.121 306.578L321.239 305.484L322.15 304.633C322.595 304.26 322.956 303.796 323.207 303.272C323.459 302.748 323.595 302.176 323.607 301.595V300.775L326.219 300.35L325.611 299.043L322.787 299.468L322.423 299.104C321.897 298.545 321.294 298.064 320.632 297.676C319.816 297.221 318.95 296.864 318.051 296.613L317.018 296.278L317.777 294.668L314.346 294.152L313.587 295.823H312.949C310.885 295.8 308.831 296.129 306.876 296.795H306.451L304.326 295.58L302.291 296.734L304.204 297.828L303.263 298.709C302.813 299.078 302.449 299.541 302.197 300.066C301.945 300.591 301.812 301.165 301.806 301.747V302.598L299.194 302.993L299.802 304.299L302.656 303.874L302.99 304.238C303.5 304.815 304.106 305.298 304.781 305.666C305.6 306.122 306.466 306.488 307.362 306.76L308.395 307.064L307.514 308.644ZM312.615 305.362C310.84 305.433 309.101 304.849 307.727 303.722C307.423 303.448 307.178 303.116 307.006 302.746C306.834 302.375 306.738 301.973 306.725 301.565C306.738 301.164 306.831 300.769 306.998 300.404C307.165 300.039 307.402 299.711 307.696 299.438C309.109 298.359 310.838 297.774 312.615 297.774C314.393 297.774 316.121 298.359 317.534 299.438C317.838 299.706 318.081 300.036 318.248 300.405C318.415 300.774 318.501 301.175 318.501 301.58C318.501 301.985 318.415 302.386 318.248 302.755C318.081 303.124 317.838 303.454 317.534 303.722C316.148 304.849 314.4 305.432 312.615 305.362ZM312.615 299.651C311.312 299.594 310.031 300.004 309.002 300.805C308.882 300.896 308.785 301.013 308.719 301.147C308.652 301.282 308.617 301.43 308.617 301.58C308.617 301.73 308.652 301.878 308.719 302.013C308.785 302.147 308.882 302.264 309.002 302.355C310.062 303.094 311.323 303.491 312.615 303.491C313.908 303.491 315.169 303.094 316.229 302.355C316.348 302.264 316.445 302.147 316.512 302.013C316.579 301.878 316.613 301.73 316.613 301.58C316.613 301.43 316.579 301.282 316.512 301.147C316.445 301.013 316.348 300.896 316.229 300.805C315.199 300.004 313.919 299.594 312.615 299.651Z" fill="url(#paint6_linear)"/>
<path d="M321.238 294.212C320.353 293.724 319.416 293.336 318.445 293.058L319.264 291.295L313.89 290.475L313.1 292.207C310.86 292.157 308.629 292.506 306.511 293.24L304.295 291.964L300.378 294.212L302.594 295.488C302.04 295.953 301.595 296.534 301.29 297.19C300.986 297.847 300.83 298.562 300.833 299.286L297.797 299.772L299.254 302.81L302.291 302.324C302.879 302.953 303.554 303.495 304.295 303.934C305.18 304.422 306.117 304.81 307.088 305.088L306.269 306.851L311.613 307.701L312.433 305.939C314.67 305.984 316.899 305.645 319.022 304.937L321.238 306.213L325.155 303.934L322.939 302.658C323.495 302.195 323.941 301.614 324.246 300.957C324.55 300.3 324.705 299.584 324.7 298.86L327.736 298.374L326.279 295.336L323.242 295.792C322.652 295.174 321.977 294.642 321.238 294.212ZM317.018 300.562C315.784 301.465 314.295 301.952 312.767 301.952C311.238 301.952 309.749 301.465 308.515 300.562C308.271 300.391 308.072 300.164 307.934 299.899C307.796 299.635 307.724 299.341 307.724 299.043C307.724 298.744 307.796 298.451 307.934 298.186C308.072 297.922 308.271 297.694 308.515 297.524C309.749 296.62 311.238 296.133 312.767 296.133C314.295 296.133 315.784 296.62 317.018 297.524C317.262 297.694 317.461 297.922 317.599 298.186C317.737 298.451 317.809 298.744 317.809 299.043C317.809 299.341 317.737 299.635 317.599 299.899C317.461 300.164 317.262 300.391 317.018 300.562Z" fill="#083C94"/>
<path d="M154.175 358.135L151.32 359.806C151.141 359.894 150.944 359.94 150.744 359.94C150.543 359.94 150.346 359.894 150.167 359.806L147.464 358.256C147.13 358.074 147.1 357.77 147.464 357.588L150.349 355.947C150.522 355.857 150.715 355.81 150.911 355.81C151.106 355.81 151.299 355.857 151.472 355.947L154.175 357.527C154.448 357.679 154.478 357.983 154.175 358.135Z" fill="#083C94"/>
<path d="M160.855 361.993L157.97 363.664C157.794 363.746 157.602 363.788 157.408 363.788C157.214 363.788 157.023 363.746 156.847 363.664L154.144 362.115C153.78 361.902 153.749 361.598 154.144 361.446L156.998 359.775C157.18 359.693 157.376 359.65 157.575 359.65C157.774 359.65 157.971 359.693 158.152 359.775L160.855 361.325C161.098 361.537 161.128 361.841 160.855 361.993Z" fill="#083C94"/>
<path d="M153.81 366.064L150.956 367.704C150.779 367.8 150.581 367.85 150.379 367.85C150.178 367.85 149.98 367.8 149.802 367.704L147.1 366.155C146.766 365.972 146.736 365.669 147.1 365.486L149.954 363.846C150.133 363.755 150.331 363.708 150.531 363.708C150.732 363.708 150.929 363.755 151.108 363.846L153.81 365.426C154.084 365.578 154.114 365.881 153.81 366.064Z" fill="#083C94"/>
<path d="M167.503 365.851L164.801 367.613C164.622 367.704 164.424 367.751 164.224 367.751C164.024 367.751 163.826 367.704 163.647 367.613L160.945 366.034C160.611 365.851 160.58 365.547 160.945 365.396L163.981 363.725C164.155 363.636 164.348 363.591 164.543 363.591C164.738 363.591 164.93 363.636 165.105 363.725L167.807 365.274C167.837 365.365 167.837 365.669 167.503 365.851Z" fill="#083C94"/>
<path d="M160.491 369.892L157.606 371.563C157.432 371.651 157.24 371.697 157.045 371.697C156.85 371.697 156.657 371.651 156.483 371.563L153.781 370.013C153.447 369.801 153.386 369.527 153.781 369.345L156.635 367.704C156.814 367.613 157.011 367.566 157.212 367.566C157.412 367.566 157.61 367.613 157.789 367.704L160.491 369.284C160.734 369.436 160.764 369.74 160.491 369.892Z" fill="#083C94"/>
<path d="M174.55 369.922L171.695 371.563C171.517 371.654 171.319 371.701 171.119 371.701C170.918 371.701 170.72 371.654 170.542 371.563L167.839 369.983C167.505 369.801 167.475 369.497 167.839 369.345L170.693 367.674C170.873 367.586 171.07 367.54 171.27 367.54C171.47 367.54 171.668 367.586 171.847 367.674L174.55 369.223C174.823 369.467 174.853 369.74 174.55 369.922Z" fill="#083C94"/>
<path d="M167.534 373.963L164.68 375.634C164.5 375.723 164.303 375.769 164.103 375.769C163.903 375.769 163.705 375.723 163.526 375.634L160.824 374.085C160.49 373.903 160.459 373.599 160.824 373.417L163.708 371.776C163.882 371.685 164.074 371.638 164.27 371.638C164.465 371.638 164.658 371.685 164.832 371.776L167.534 373.356C167.838 373.508 167.838 373.69 167.534 373.963Z" fill="#083C94"/>
<path d="M181.592 365.852L178.556 367.523C178.377 367.611 178.179 367.657 177.979 367.657C177.779 367.657 177.582 367.611 177.402 367.523L174.73 365.973C174.366 365.791 174.335 365.487 174.73 365.305L177.584 363.664C177.763 363.574 177.961 363.526 178.161 363.526C178.362 363.526 178.559 363.574 178.738 363.664L181.441 365.244C181.835 365.396 181.866 365.7 181.592 365.852Z" fill="#083C94"/>
<path d="M188.607 361.811L185.723 363.451C185.549 363.542 185.357 363.589 185.161 363.589C184.965 363.589 184.773 363.542 184.599 363.451L181.897 361.871C181.563 361.689 181.502 361.385 181.897 361.233L184.751 359.562C184.931 359.474 185.128 359.428 185.328 359.428C185.528 359.428 185.725 359.474 185.905 359.562L188.607 361.112C188.85 361.355 188.881 361.537 188.607 361.811Z" fill="#083C94"/>
<path d="M195.621 357.74L192.767 359.411C192.587 359.499 192.39 359.545 192.19 359.545C191.99 359.545 191.792 359.499 191.613 359.411L188.91 357.862C188.576 357.679 188.546 357.375 188.91 357.193L191.795 355.553C191.968 355.462 192.161 355.415 192.357 355.415C192.552 355.415 192.745 355.462 192.919 355.553L195.621 357.132C195.864 357.284 195.925 357.588 195.621 357.74Z" fill="#083C94"/>
<path d="M181.227 373.69L178.343 375.33C178.169 375.421 177.977 375.468 177.781 375.468C177.585 375.468 177.393 375.421 177.219 375.33L174.517 373.69C174.183 373.507 174.122 373.204 174.517 373.021L177.371 371.381C177.548 371.285 177.747 371.235 177.948 371.235C178.15 371.235 178.348 371.285 178.525 371.381L181.227 372.93C181.47 373.295 181.501 373.69 181.227 373.69Z" fill="#083C94"/>
<path d="M188.243 369.71L185.389 371.381C185.208 371.464 185.011 371.506 184.812 371.506C184.613 371.506 184.416 371.464 184.235 371.381L181.533 369.832C181.199 369.619 181.168 369.315 181.533 369.164L184.417 367.493C184.593 367.411 184.785 367.369 184.979 367.369C185.173 367.369 185.365 367.411 185.541 367.493L188.243 369.042C188.486 369.255 188.547 369.558 188.243 369.71Z" fill="#083C94"/>
<path d="M195.167 365.669L192.313 367.309C192.134 367.4 191.936 367.447 191.736 367.447C191.535 367.447 191.338 367.4 191.159 367.309L188.456 365.729C188.122 365.547 188.092 365.243 188.456 365.061L191.311 363.421C191.488 363.325 191.686 363.275 191.888 363.275C192.089 363.275 192.287 363.325 192.464 363.421L195.167 364.97C195.531 365.183 195.562 365.486 195.167 365.669Z" fill="#083C94"/>
<path d="M193.223 347.593C193.223 347.593 193.223 339.025 193.223 338.478L174.003 340.21L172.241 329.607L154.539 339.754L151.169 338.812C151.14 338.785 151.102 338.769 151.062 338.769C151.023 338.769 150.984 338.785 150.956 338.812V347.927C150.979 348.225 151.074 348.514 151.232 348.768C151.391 349.022 151.609 349.234 151.867 349.385L169.691 359.715C170.441 360.141 171.288 360.365 172.15 360.365C173.013 360.365 173.86 360.141 174.61 359.715L192.677 349.324C192.952 349.159 193.182 348.929 193.346 348.653C193.51 348.377 193.604 348.065 193.618 347.745L193.223 347.593Z" fill="#5243C2"/>
<path d="M193.223 347.593C193.223 347.593 193.223 339.025 193.223 338.478L174.003 340.21L172.241 329.607L154.539 339.754L151.169 338.812C151.14 338.785 151.102 338.769 151.062 338.769C151.023 338.769 150.984 338.785 150.956 338.812V347.927C150.979 348.225 151.074 348.514 151.232 348.768C151.391 349.022 151.609 349.234 151.867 349.385L169.691 359.715C170.441 360.141 171.288 360.365 172.15 360.365C173.013 360.365 173.86 360.141 174.61 359.715L192.677 349.324C192.952 349.159 193.182 348.929 193.346 348.653C193.51 348.377 193.604 348.065 193.618 347.745L193.223 347.593Z" fill="url(#paint7_linear)"/>
<path d="M171.756 361.537C170.689 361.535 169.642 361.252 168.719 360.717L150.895 350.387C150.464 350.148 150.098 349.807 149.828 349.394C149.558 348.981 149.393 348.509 149.347 348.018V338.144L149.863 337.658C150.038 337.524 150.241 337.432 150.457 337.39C150.673 337.348 150.896 337.356 151.108 337.414L154.144 338.235L172.059 327.936L173.335 328.604L175.005 338.66L193.223 337.02H193.466C193.757 337.1 194.014 337.275 194.195 337.517C194.376 337.759 194.472 338.054 194.468 338.356V347.805C194.444 348.314 194.293 348.809 194.028 349.245C193.762 349.68 193.392 350.042 192.95 350.296L174.731 360.687C173.829 361.222 172.804 361.516 171.756 361.537ZM151.745 340.27V340.726C151.745 343.339 151.745 347.653 151.745 347.926C151.752 348.022 151.783 348.115 151.836 348.195C151.889 348.275 151.963 348.34 152.049 348.382L169.873 358.712C170.437 359.034 171.076 359.204 171.725 359.204C172.375 359.204 173.013 359.034 173.577 358.712L191.796 348.321C191.895 348.268 191.978 348.189 192.037 348.093C192.095 347.997 192.128 347.887 192.13 347.775V339.693L173.911 341.303L173.365 341.121L172.879 340.817L171.179 331.156L154.418 340.756H153.81L151.745 340.27Z" fill="#083C94"/>
<path d="M193.132 338.174L173.911 339.906L171.604 346.347V360.14C172.516 360.171 173.419 359.95 174.215 359.502L192.282 349.112C192.56 348.951 192.793 348.721 192.958 348.444C193.123 348.168 193.214 347.854 193.223 347.532C193.223 347.532 193.223 338.964 193.223 338.417C193.237 338.372 193.235 338.324 193.219 338.28C193.202 338.236 193.172 338.199 193.132 338.174Z" fill="#083C94"/>
<path d="M171.755 361.537H170.389V346.164L173.121 338.204L174.093 338.782L193.162 337.05H193.405C193.696 337.13 193.952 337.305 194.134 337.547C194.315 337.789 194.411 338.084 194.407 338.387V347.501C194.393 348.041 194.245 348.569 193.974 349.036C193.703 349.503 193.32 349.895 192.858 350.175L174.64 360.565C173.771 361.118 172.781 361.452 171.755 361.537ZM172.848 346.711V358.864L173.607 358.529L191.826 348.139C191.925 348.085 192.008 348.007 192.067 347.911C192.125 347.815 192.157 347.705 192.16 347.592V339.511L174.913 341.06L172.848 346.711Z" fill="#083C94"/>
<path d="M153.264 340.908L153.871 339.298L150.835 338.417C150.806 338.389 150.768 338.373 150.728 338.373C150.689 338.373 150.65 338.389 150.622 338.417V347.531C150.65 347.824 150.747 348.107 150.905 348.355C151.063 348.604 151.279 348.811 151.533 348.959L153.324 349.992V340.726L153.264 340.908Z" fill="#083C94"/>
<path d="M154.478 352.423L150.865 350.327C150.434 350.087 150.068 349.746 149.798 349.334C149.528 348.921 149.363 348.448 149.316 347.957V338.083L149.833 337.597C150.007 337.463 150.211 337.372 150.427 337.33C150.643 337.287 150.865 337.296 151.078 337.354L155.45 338.569L155.025 339.815C154.782 340.453 154.6 340.969 154.509 341.273L154.478 352.423ZM151.746 340.088V340.544C151.746 343.157 151.746 347.471 151.746 347.745C151.748 347.834 151.774 347.921 151.823 347.996C151.871 348.071 151.939 348.131 152.019 348.17V340.605L152.171 340.24L151.746 340.088Z" fill="#083C94"/>
<path d="M169.387 350.357L151.472 339.966C151.189 339.796 150.954 339.555 150.792 339.268C150.629 338.98 150.544 338.656 150.544 338.326C150.544 337.995 150.629 337.671 150.792 337.383C150.954 337.096 151.189 336.855 151.472 336.685L169.69 326.234C170.415 325.815 171.237 325.595 172.074 325.595C172.911 325.595 173.733 325.815 174.457 326.234L192.372 336.624C192.655 336.794 192.889 337.035 193.052 337.322C193.215 337.61 193.3 337.934 193.3 338.265C193.3 338.595 193.215 338.92 193.052 339.207C192.889 339.495 192.655 339.735 192.372 339.905L174.154 350.326C173.434 350.755 172.612 350.985 171.774 350.99C170.936 350.995 170.112 350.777 169.387 350.357Z" fill="white"/>
<path d="M171.755 352.211C170.692 352.218 169.644 351.946 168.719 351.421L150.804 341.03C150.326 340.761 149.929 340.368 149.657 339.892C149.384 339.416 149.245 338.875 149.255 338.326C149.245 337.778 149.384 337.237 149.657 336.761C149.929 336.284 150.326 335.891 150.804 335.622L169.023 325.171C169.946 324.638 170.993 324.357 172.059 324.357C173.125 324.357 174.172 324.638 175.095 325.171L193.01 335.562C193.508 335.817 193.925 336.204 194.217 336.681C194.508 337.158 194.662 337.706 194.662 338.266C194.662 338.825 194.508 339.373 194.217 339.85C193.925 340.327 193.508 340.715 193.01 340.97L174.792 351.39C173.876 351.941 172.824 352.225 171.755 352.211ZM171.998 326.842C171.391 326.838 170.794 326.996 170.268 327.298L152.049 337.749C151.948 337.808 151.864 337.892 151.806 337.993C151.748 338.095 151.718 338.21 151.718 338.326C151.718 338.443 151.748 338.558 151.806 338.659C151.864 338.76 151.948 338.845 152.049 338.904L169.964 349.294C170.498 349.606 171.106 349.771 171.725 349.771C172.344 349.771 172.952 349.606 173.486 349.294L191.705 338.873C191.808 338.817 191.894 338.734 191.953 338.632C192.012 338.53 192.042 338.414 192.039 338.296C192.042 338.178 192.012 338.062 191.953 337.96C191.894 337.858 191.808 337.775 191.705 337.719L173.911 327.328C173.336 326.979 172.67 326.81 171.998 326.842Z" fill="#083C94"/>
<path d="M341.37 256.053L338.334 257.694C338.162 257.789 337.969 257.84 337.772 257.84C337.576 257.84 337.382 257.789 337.211 257.694L334.508 256.144C334.174 255.962 334.113 255.658 334.508 255.476L337.362 253.835C337.541 253.745 337.739 253.697 337.939 253.697C338.14 253.697 338.337 253.745 338.516 253.835L341.219 255.415C341.613 255.567 341.644 255.871 341.37 256.053Z" fill="#083C94"/>
<path d="M348.02 259.881L345.166 261.552C344.987 261.641 344.789 261.687 344.589 261.687C344.389 261.687 344.192 261.641 344.012 261.552L341.31 260.003C340.976 259.79 340.945 259.517 341.31 259.334L344.164 257.694C344.343 257.603 344.541 257.556 344.741 257.556C344.942 257.556 345.139 257.603 345.318 257.694L348.02 259.243C348.294 259.425 348.324 259.729 348.02 259.881Z" fill="#083C94"/>
<path d="M340.916 263.952L338.062 265.593C337.883 265.684 337.685 265.731 337.485 265.731C337.284 265.731 337.087 265.684 336.908 265.593L334.205 264.013C333.871 263.831 333.841 263.527 334.205 263.375L337.09 261.704C337.264 261.616 337.457 261.57 337.652 261.57C337.847 261.57 338.039 261.616 338.213 261.704L340.916 263.254C341.25 263.466 341.311 263.77 340.916 263.952Z" fill="#083C94"/>
<path d="M354.7 263.74L351.663 265.381C351.49 265.471 351.297 265.518 351.101 265.518C350.906 265.518 350.713 265.471 350.54 265.381L347.837 263.831C347.503 263.619 347.442 263.315 347.837 263.163L350.691 261.492C350.871 261.403 351.068 261.357 351.268 261.357C351.468 261.357 351.666 261.403 351.845 261.492L354.548 263.041C354.942 263.284 354.973 263.558 354.7 263.74Z" fill="#083C94"/>
<path d="M347.656 267.781L344.801 269.452C344.624 269.547 344.426 269.597 344.224 269.597C344.023 269.597 343.825 269.547 343.647 269.452L340.915 267.841C340.55 267.659 340.52 267.355 340.915 267.173L343.769 265.532C343.948 265.442 344.145 265.394 344.346 265.394C344.546 265.394 344.744 265.442 344.923 265.532L347.625 267.112C347.929 267.355 347.959 267.629 347.656 267.781Z" fill="#083C94"/>
<path d="M361.744 267.811L358.89 269.482C358.709 269.565 358.512 269.607 358.313 269.607C358.114 269.607 357.917 269.565 357.736 269.482L355.034 267.933C354.699 267.72 354.669 267.417 355.034 267.265L357.918 265.594C358.094 265.512 358.286 265.47 358.48 265.47C358.674 265.47 358.866 265.512 359.042 265.594L361.744 267.143C361.987 267.356 362.169 267.629 361.744 267.811Z" fill="#083C94"/>
<path d="M354.732 271.882L351.695 273.522C351.524 273.618 351.33 273.668 351.134 273.668C350.937 273.668 350.744 273.618 350.572 273.522L347.869 271.973C347.535 271.791 347.475 271.487 347.869 271.304L350.724 269.664C350.903 269.573 351.1 269.526 351.301 269.526C351.501 269.526 351.699 269.573 351.878 269.664L354.58 271.244C354.975 271.396 355.005 271.699 354.732 271.882Z" fill="#083C94"/>
<path d="M368.76 263.77L365.906 265.41C365.729 265.506 365.531 265.556 365.329 265.556C365.128 265.556 364.929 265.506 364.752 265.41L362.171 263.8C361.837 263.618 361.807 263.314 362.171 263.132L365.025 261.491C365.204 261.401 365.402 261.353 365.602 261.353C365.803 261.353 366.001 261.401 366.179 261.491L368.851 263.071C369.034 263.284 369.064 263.588 368.76 263.77Z" fill="#083C94"/>
<path d="M375.773 259.699L372.919 261.37C372.738 261.453 372.541 261.495 372.342 261.495C372.143 261.495 371.946 261.453 371.765 261.37L369.063 259.821C368.729 259.608 368.698 259.304 369.063 259.152L371.917 257.481C372.098 257.399 372.295 257.357 372.494 257.357C372.693 257.357 372.89 257.399 373.071 257.481L375.773 259.031C376.047 259.244 376.077 259.517 375.773 259.699Z" fill="#083C94"/>
<path d="M382.819 255.658L379.782 257.299C379.611 257.395 379.417 257.445 379.221 257.445C379.024 257.445 378.831 257.395 378.659 257.299L375.956 255.75C375.622 255.567 375.562 255.263 375.956 255.081L378.811 253.441C378.989 253.35 379.187 253.302 379.388 253.302C379.588 253.302 379.786 253.35 379.964 253.441L382.667 255.02C383.062 255.203 383.092 255.476 382.819 255.658Z" fill="#083C94"/>
<path d="M368.395 271.67L365.541 273.31C365.362 273.401 365.165 273.448 364.964 273.448C364.764 273.448 364.566 273.401 364.387 273.31L361.685 271.73C361.351 271.548 361.32 271.244 361.685 271.092L364.539 269.421C364.719 269.333 364.916 269.287 365.116 269.287C365.316 269.287 365.513 269.333 365.693 269.421L368.395 270.971C368.669 271.183 368.699 271.487 368.395 271.67Z" fill="#083C94"/>
<path d="M375.439 267.598L372.402 269.269C372.228 269.357 372.036 269.403 371.841 269.403C371.645 269.403 371.453 269.357 371.279 269.269L368.576 267.72C368.242 267.507 368.182 267.234 368.576 267.051L371.431 265.411C371.61 265.32 371.807 265.273 372.008 265.273C372.208 265.273 372.406 265.32 372.585 265.411L375.287 266.991C375.682 267.142 375.712 267.355 375.439 267.598Z" fill="#083C94"/>
<path d="M382.454 263.558L379.6 265.198C379.421 265.289 379.223 265.336 379.023 265.336C378.822 265.336 378.625 265.289 378.446 265.198L375.743 263.618C375.409 263.436 375.379 263.132 375.743 262.98L378.78 261.309C378.954 261.221 379.146 261.175 379.342 261.175C379.537 261.175 379.729 261.221 379.903 261.309L382.606 262.859C382.697 263.071 382.758 263.375 382.454 263.558Z" fill="#083C94"/>
<path d="M380.147 246.514V237.4L360.926 239.131L359.134 228.194C359.107 228.178 359.075 228.17 359.043 228.17C359.011 228.17 358.98 228.178 358.952 228.194L341.28 238.341L337.91 237.4C337.881 237.372 337.843 237.356 337.804 237.356C337.764 237.356 337.726 237.372 337.697 237.4C337.697 238.25 337.697 246.514 337.697 246.514C337.725 246.811 337.822 247.098 337.98 247.351C338.138 247.605 338.353 247.817 338.608 247.972L356.098 258.484C356.846 258.916 357.694 259.144 358.558 259.144C359.421 259.144 360.269 258.916 361.017 258.484L379.236 248.094C379.511 247.929 379.741 247.698 379.905 247.422C380.069 247.147 380.163 246.835 380.177 246.514H380.147Z" fill="#5243C2"/>
<path d="M380.147 246.514V237.4L360.926 239.131L359.134 228.194C359.107 228.178 359.075 228.17 359.043 228.17C359.011 228.17 358.98 228.178 358.952 228.194L341.28 238.341L337.91 237.4C337.881 237.372 337.843 237.356 337.804 237.356C337.764 237.356 337.726 237.372 337.697 237.4C337.697 238.25 337.697 246.514 337.697 246.514C337.725 246.811 337.822 247.098 337.98 247.351C338.138 247.605 338.353 247.817 338.608 247.972L356.098 258.484C356.846 258.916 357.694 259.144 358.558 259.144C359.421 259.144 360.269 258.916 361.017 258.484L379.236 248.094C379.511 247.929 379.741 247.698 379.905 247.422C380.069 247.147 380.163 246.835 380.177 246.514H380.147Z" fill="url(#paint8_linear)"/>
<path d="M358.648 260.367C357.581 260.365 356.534 260.083 355.611 259.547L337.879 249.126C337.453 248.883 337.093 248.541 336.829 248.128C336.564 247.715 336.404 247.245 336.36 246.757C336.36 246.757 336.36 246.574 336.36 240.468V236.974L336.907 236.457C337.081 236.333 337.28 236.25 337.49 236.213C337.7 236.176 337.916 236.187 338.121 236.245L340.915 236.974L358.83 226.675L360.105 227.313L361.775 237.399L379.994 235.759H380.207C380.503 235.833 380.767 236.006 380.954 236.248C381.141 236.491 381.241 236.789 381.239 237.095V246.696C381.196 247.204 381.034 247.695 380.765 248.128C380.495 248.561 380.127 248.924 379.69 249.187L361.472 259.577C360.609 260.068 359.639 260.339 358.648 260.367ZM338.668 239.1V246.757C338.684 246.85 338.719 246.938 338.771 247.017C338.823 247.096 338.892 247.162 338.972 247.212L356.826 257.542C357.385 257.862 358.019 258.03 358.663 258.03C359.307 258.03 359.941 257.862 360.5 257.542L378.719 247.152C378.81 247.092 378.885 247.011 378.938 246.916C378.991 246.821 379.02 246.714 379.022 246.605V238.432L360.804 240.042L360.166 240.012L359.65 239.739L358.071 230.199L341.31 239.83H340.672L338.668 239.1Z" fill="#083C94"/>
<path d="M380.023 236.974L360.803 238.706L358.556 245.268V259.152C359.469 259.188 360.373 258.967 361.167 258.514L379.386 248.124C379.666 247.965 379.901 247.736 380.066 247.459C380.231 247.182 380.321 246.867 380.327 246.544V237.43C380.387 237.389 380.429 237.327 380.443 237.256C380.458 237.184 380.443 237.11 380.403 237.05C380.363 236.99 380.3 236.948 380.229 236.933C380.158 236.919 380.084 236.934 380.023 236.974Z" fill="#083C94"/>
<path d="M358.647 260.398H357.28V245.025L360.074 236.974L361.076 237.552L380.145 235.82H380.357C380.646 235.905 380.899 236.081 381.08 236.322C381.26 236.563 381.358 236.855 381.359 237.157V246.271C381.346 246.811 381.197 247.339 380.926 247.806C380.656 248.273 380.272 248.665 379.811 248.945L361.592 259.335C360.716 259.934 359.703 260.299 358.647 260.398ZM359.74 245.572V257.725L360.499 257.391L378.718 247C378.809 246.941 378.884 246.86 378.937 246.764C378.99 246.669 379.019 246.562 379.021 246.453V238.433L361.653 240.012L359.74 245.572Z" fill="#083C94"/>
<path d="M340.186 240.012C340.186 240.012 340.429 239.283 340.763 238.372L337.726 237.491C337.698 237.463 337.66 237.447 337.62 237.447C337.58 237.447 337.542 237.463 337.514 237.491C337.514 238.341 337.514 246.605 337.514 246.605C337.546 246.897 337.645 247.178 337.803 247.425C337.961 247.673 338.173 247.881 338.425 248.033L340.216 249.066V240.012H340.186Z" fill="#083C94"/>
<path d="M341.401 251.253L337.879 249.126C337.453 248.883 337.093 248.541 336.829 248.128C336.564 247.715 336.404 247.245 336.36 246.757C336.36 246.757 336.36 246.757 336.36 240.468V236.974L336.907 236.488C337.075 236.352 337.273 236.259 337.484 236.217C337.696 236.175 337.914 236.184 338.121 236.245L342.524 237.46L341.553 240.164L341.401 251.253ZM338.668 238.888V246.544C338.708 246.713 338.804 246.863 338.941 246.969V239.435V239.04L338.668 238.888Z" fill="#083C94"/>
<path d="M356.279 249.279L338.364 238.889C338.081 238.718 337.847 238.478 337.684 238.19C337.522 237.903 337.437 237.578 337.437 237.248C337.437 236.918 337.522 236.593 337.684 236.305C337.847 236.018 338.081 235.778 338.364 235.607L356.583 225.187C357.302 224.768 358.119 224.547 358.951 224.547C359.783 224.547 360.601 224.768 361.32 225.187L379.235 235.577C379.518 235.747 379.752 235.988 379.914 236.275C380.077 236.563 380.162 236.887 380.162 237.218C380.162 237.548 380.077 237.873 379.914 238.16C379.752 238.448 379.518 238.688 379.235 238.858L361.016 249.279C360.295 249.692 359.478 249.909 358.648 249.909C357.817 249.909 357 249.692 356.279 249.279Z" fill="white"/>
<path d="M358.678 251.131C357.613 251.154 356.562 250.88 355.642 250.341L337.879 240.012C337.401 239.743 337.004 239.349 336.732 238.873C336.459 238.397 336.32 237.856 336.33 237.308C336.309 236.749 336.443 236.195 336.716 235.707C336.989 235.219 337.391 234.817 337.879 234.543L356.098 224.122C357.014 223.57 358.064 223.279 359.134 223.279C360.204 223.279 361.254 223.57 362.17 224.122L380.085 234.513C380.583 234.768 381 235.155 381.292 235.632C381.583 236.109 381.737 236.657 381.737 237.217C381.737 237.776 381.583 238.324 381.292 238.801C381 239.278 380.583 239.665 380.085 239.92L361.867 250.341C360.897 250.893 359.794 251.166 358.678 251.131ZM358.921 225.763C358.305 225.762 357.699 225.919 357.16 226.218L338.942 236.67C338.841 236.729 338.757 236.813 338.699 236.914C338.641 237.015 338.61 237.13 338.61 237.247C338.61 237.364 338.641 237.478 338.699 237.58C338.757 237.681 338.841 237.765 338.942 237.824L356.826 248.215C357.361 248.527 357.968 248.691 358.587 248.691C359.206 248.691 359.814 248.527 360.349 248.215L378.567 237.794C378.671 237.738 378.757 237.654 378.816 237.552C378.874 237.45 378.904 237.334 378.901 237.217C378.904 237.099 378.874 236.983 378.816 236.881C378.757 236.779 378.671 236.695 378.567 236.639L360.652 226.249C360.13 225.932 359.532 225.763 358.921 225.763Z" fill="#083C94"/>
<path d="M269.801 30.6245C269.899 30.4219 269.916 30.1894 269.849 29.9747C269.781 29.76 269.634 29.5794 269.437 29.47L232.241 8.53731C230.844 7.62587 227.838 6.04604 227.838 6.04604C212.352 -1.15432 191.127 2.18762 168.081 18.3808C132.494 43.4454 104.072 93.3619 100.732 136.443C99.032 158.439 103.769 175.391 112.878 186.177L160.004 238.919C160.429 239.374 193.192 257.482 197.747 259.973C197.799 260.007 197.859 260.026 197.922 260.027C197.984 260.029 198.045 260.013 198.099 259.981C198.153 259.95 198.196 259.904 198.225 259.849C198.254 259.793 198.267 259.731 198.263 259.669L200.692 170.804C228.809 143.795 249.821 102.659 252.615 65.7453L254.194 63.6186L269.801 30.6245Z" fill="#5243C2"/>
<path d="M269.801 30.6245C269.899 30.4219 269.916 30.1894 269.849 29.9747C269.781 29.76 269.634 29.5794 269.437 29.47L232.241 8.53731C230.844 7.62587 227.838 6.04604 227.838 6.04604C212.352 -1.15432 191.127 2.18762 168.081 18.3808C132.494 43.4454 104.072 93.3619 100.732 136.443C99.032 158.439 103.769 175.391 112.878 186.177L160.004 238.919C160.429 239.374 193.192 257.482 197.747 259.973C197.799 260.007 197.859 260.026 197.922 260.027C197.984 260.029 198.045 260.013 198.099 259.981C198.153 259.95 198.196 259.904 198.225 259.849C198.254 259.793 198.267 259.731 198.263 259.669L200.692 170.804C228.809 143.795 249.821 102.659 252.615 65.7453L254.194 63.6186L269.801 30.6245Z" fill="url(#paint9_linear)"/>
<path d="M197.898 262.433C197.438 262.435 196.986 262.309 196.593 262.069C158.941 241.288 158.607 240.802 158.242 240.498L109.659 186.267C100.702 174.388 96.7242 157.193 98.3639 136.26C101.734 92.3286 130.489 41.926 166.714 16.4361C189.578 0.334036 211.623 -4.10163 228.809 3.88865C230.471 4.59205 232.05 5.47857 233.516 6.53182L270.591 27.343C271.315 27.7539 271.859 28.4232 272.112 29.2173C272.365 30.0113 272.31 30.8717 271.957 31.6268L256.107 65.0462L254.953 66.626C251.917 103.084 231.542 144.129 203.06 171.836L200.631 261.066L199.265 262.069C198.85 262.309 198.378 262.435 197.898 262.433ZM161.583 236.974C163.465 238.128 176.37 245.329 195.985 256.175L198.202 169.77L198.931 169.072C227.17 141.941 247.271 101.321 250.125 65.5627V64.8943L251.977 62.403L266.886 30.8672L231.056 10.6029C229.599 9.66109 226.744 8.17241 226.744 8.17241C211.562 1.06319 190.58 5.46847 169.477 20.3249C134.437 45.0857 106.41 93.9995 103.101 136.716C101.522 157.284 105.53 173.872 114.67 184.718L114.912 184.991L161.583 236.974Z" fill="#083C94"/>
<path d="M237.676 114.294L239.741 109.555C248.607 88.8349 253.192 67.0212 251.553 47.5164C251.553 45.9669 251.219 44.4783 251.006 42.9896L265.581 29.1661C265.688 29.087 265.775 28.9839 265.834 28.8652C265.894 28.7465 265.925 28.6154 265.925 28.4825C265.925 28.3496 265.894 28.2185 265.834 28.0998C265.775 27.9811 265.688 27.878 265.581 27.7989L231.148 8.11186C230.298 7.565 228.445 6.56241 228.445 6.56241C217.028 0.729207 202.241 0.911495 186.057 8.29415C166.624 17.0743 148.466 33.784 134.164 54.018L237.676 114.294Z" fill="white"/>
<path d="M238.738 117.697L130.55 54.6866L132.068 52.5599C147.25 31.1714 166.015 14.644 184.932 6.07651C201.238 -1.27576 217.179 -1.88339 229.507 4.43592C229.507 4.43592 231.511 5.52965 232.392 6.07651L266.582 25.7028C267.018 25.9582 267.39 26.3101 267.669 26.7313C267.947 27.1526 268.126 27.6322 268.191 28.1333C268.251 28.6358 268.191 29.1452 268.017 29.6203C267.843 30.0953 267.559 30.5227 267.189 30.8676L253.526 43.8404C253.677 44.9646 253.799 46.119 253.89 47.2735C255.469 65.8669 251.643 86.9515 242.777 108.401L238.738 117.697ZM137.473 53.289L236.521 111.013L237.523 108.735C246.633 87.2857 250.702 66.2011 249.153 47.9723C249.001 46.4532 248.819 44.9342 248.637 43.567L248.455 42.3518L262.422 29.1055L229.963 10.178C229.052 9.60074 227.291 8.62854 227.291 8.62854C216.147 2.94724 202.149 3.58525 186.906 10.4514C169.355 18.3809 151.896 33.4197 137.473 53.289Z" fill="#083C94"/>
<path d="M151.108 207.535C141.999 196.749 137.292 179.827 138.962 157.831C142.303 114.72 170.875 64.8035 206.341 39.739C252.343 7.35252 291.361 26.3408 291.361 78.3232C291.361 126.933 257.201 186.207 215.056 210.543C213.871 211.241 212.657 211.91 211.473 212.517C208.053 224.632 207.154 237.319 208.831 249.795C209.529 256.236 201.756 264.044 198.386 260.277L151.108 207.535Z" fill="#083C94"/>
<path d="M200.448 263.649C199.696 263.653 198.951 263.495 198.265 263.186C197.578 262.876 196.967 262.423 196.471 261.857L148.343 208.021C138.991 196.203 134.952 178.855 136.562 157.71C139.993 113.687 168.748 63.2847 204.973 37.7948C228.262 21.3889 251.46 17.1052 268.738 25.9765C284.892 34.3921 293.788 52.9551 293.788 78.3235C293.637 127.602 258.93 187.939 216.147 212.669C215.216 213.216 214.274 213.733 213.323 214.219C210.234 225.751 209.47 237.783 211.076 249.613C211.185 252.366 210.509 255.093 209.128 257.477C207.746 259.86 205.715 261.8 203.272 263.072C202.381 263.458 201.419 263.655 200.448 263.649ZM153.08 206.198L200.023 258.697C200.023 258.697 200.388 259.062 201.329 258.697C202.85 257.844 204.116 256.6 204.996 255.094C205.877 253.588 206.341 251.874 206.339 250.13C204.598 237.328 205.528 224.303 209.072 211.88L209.375 210.938L210.226 210.482C211.41 209.874 212.564 209.236 213.748 208.538C255.165 184.628 288.869 126.235 288.869 78.3842C288.869 54.8995 280.884 37.8252 266.369 30.2907C250.884 22.2396 229.507 26.4322 207.705 41.7748C172.574 66.4444 144.669 115.449 141.359 157.983C139.78 178.521 143.758 195.109 152.928 205.955L153.08 206.198Z" fill="#083C94"/>
<path d="M241.107 107.915C241.107 116.269 246.968 119.642 254.194 115.479C258.004 112.991 261.174 109.639 263.447 105.696C265.721 101.753 267.035 97.3301 267.282 92.7847C267.282 84.4602 261.421 81.0575 254.194 85.2501C250.384 87.7306 247.213 91.0761 244.939 95.0145C242.665 98.9528 241.352 103.373 241.107 107.915Z" fill="#083C94"/>
<path d="M248.363 119.672C246.748 119.687 245.157 119.278 243.748 118.487C242.049 117.336 240.689 115.752 239.808 113.898C238.928 112.045 238.558 109.989 238.738 107.945C238.97 102.982 240.387 98.147 242.87 93.8444C245.353 89.5419 248.829 85.8969 253.009 83.2144C254.625 81.896 256.603 81.0999 258.682 80.9314C260.76 80.7628 262.841 81.2299 264.648 82.2708C266.455 83.3116 267.904 84.8771 268.803 86.76C269.701 88.6429 270.006 90.7544 269.679 92.8149C269.444 97.7812 268.026 102.619 265.544 106.927C263.061 111.234 259.586 114.885 255.408 117.576C253.278 118.868 250.852 119.589 248.363 119.672ZM260.053 85.8272C258.402 85.9106 256.8 86.4237 255.408 87.3159C251.964 89.5917 249.096 92.6371 247.031 96.2119C244.965 99.7867 243.758 103.793 243.505 107.914C243.362 109.12 243.529 110.342 243.992 111.464C244.454 112.586 245.196 113.571 246.147 114.325C247.273 114.774 248.495 114.926 249.697 114.766C250.898 114.607 252.039 114.141 253.009 113.413C256.465 111.136 259.347 108.088 261.428 104.509C263.509 100.93 264.733 96.9165 265.003 92.7845C265.146 91.5792 264.978 90.3573 264.516 89.2352C264.054 88.1131 263.312 87.1281 262.361 86.3741C261.656 85.9855 260.858 85.7964 260.053 85.8272Z" fill="#5243C2"/>
<path d="M248.363 119.672C246.748 119.687 245.157 119.278 243.748 118.487C242.049 117.336 240.689 115.752 239.808 113.898C238.928 112.045 238.558 109.989 238.738 107.945C238.97 102.982 240.387 98.147 242.87 93.8444C245.353 89.5419 248.829 85.8969 253.009 83.2144C254.625 81.896 256.603 81.0999 258.682 80.9314C260.76 80.7628 262.841 81.2299 264.648 82.2708C266.455 83.3116 267.904 84.8771 268.803 86.76C269.701 88.6429 270.006 90.7544 269.679 92.8149C269.444 97.7812 268.026 102.619 265.544 106.927C263.061 111.234 259.586 114.885 255.408 117.576C253.278 118.868 250.852 119.589 248.363 119.672ZM260.053 85.8272C258.402 85.9106 256.8 86.4237 255.408 87.3159C251.964 89.5917 249.096 92.6371 247.031 96.2119C244.965 99.7867 243.758 103.793 243.505 107.914C243.362 109.12 243.529 110.342 243.992 111.464C244.454 112.586 245.196 113.571 246.147 114.325C247.273 114.774 248.495 114.926 249.697 114.766C250.898 114.607 252.039 114.141 253.009 113.413C256.465 111.136 259.347 108.088 261.428 104.509C263.509 100.93 264.733 96.9165 265.003 92.7845C265.146 91.5792 264.978 90.3573 264.516 89.2352C264.054 88.1131 263.312 87.1281 262.361 86.3741C261.656 85.9855 260.858 85.7964 260.053 85.8272Z" fill="url(#paint10_linear)"/>
<path d="M224.022 128.501C229.129 119.652 229.124 110.084 224.012 107.131C218.9 104.178 210.616 108.958 205.51 117.807C200.403 126.657 200.408 136.225 205.52 139.178C210.632 142.131 218.916 137.351 224.022 128.501Z" fill="#083C94"/>
<path d="M208.92 142.428C207.293 142.455 205.689 142.046 204.274 141.243C202.572 140.083 201.212 138.488 200.336 136.623C199.46 134.758 199.1 132.692 199.294 130.64C199.522 125.676 200.937 120.839 203.42 116.536C205.903 112.233 209.383 108.588 213.566 105.91C215.243 104.727 217.207 104.016 219.252 103.85C221.297 103.684 223.35 104.07 225.195 104.968C226.894 106.105 228.258 107.678 229.144 109.521C230.031 111.364 230.408 113.411 230.236 115.449C230.001 120.416 228.583 125.254 226.1 129.561C223.618 133.868 220.143 137.519 215.964 140.21C213.85 141.551 211.421 142.316 208.92 142.428ZM220.61 108.614C218.959 108.701 217.359 109.214 215.964 110.102C212.529 112.372 209.666 115.408 207.601 118.971C205.535 122.535 204.324 126.529 204.062 130.64C203.918 131.845 204.086 133.067 204.548 134.189C205.011 135.311 205.753 136.296 206.703 137.05C207.829 137.5 209.052 137.652 210.254 137.492C211.455 137.332 212.596 136.866 213.566 136.139C217.021 133.849 219.899 130.789 221.975 127.199C224.05 123.61 225.267 119.588 225.529 115.449C225.672 114.244 225.505 113.022 225.042 111.9C224.58 110.778 223.838 109.793 222.888 109.039C222.18 108.698 221.394 108.551 220.61 108.614Z" fill="#5243C2"/>
<path d="M208.92 142.428C207.293 142.455 205.689 142.046 204.274 141.243C202.572 140.083 201.212 138.488 200.336 136.623C199.46 134.758 199.1 132.692 199.294 130.64C199.522 125.676 200.937 120.839 203.42 116.536C205.903 112.233 209.383 108.588 213.566 105.91C215.243 104.727 217.207 104.016 219.252 103.85C221.297 103.684 223.35 104.07 225.195 104.968C226.894 106.105 228.258 107.678 229.144 109.521C230.031 111.364 230.408 113.411 230.236 115.449C230.001 120.416 228.583 125.254 226.1 129.561C223.618 133.868 220.143 137.519 215.964 140.21C213.85 141.551 211.421 142.316 208.92 142.428ZM220.61 108.614C218.959 108.701 217.359 109.214 215.964 110.102C212.529 112.372 209.666 115.408 207.601 118.971C205.535 122.535 204.324 126.529 204.062 130.64C203.918 131.845 204.086 133.067 204.548 134.189C205.011 135.311 205.753 136.296 206.703 137.05C207.829 137.5 209.052 137.652 210.254 137.492C211.455 137.332 212.596 136.866 213.566 136.139C217.021 133.849 219.899 130.789 221.975 127.199C224.05 123.61 225.267 119.588 225.529 115.449C225.672 114.244 225.505 113.022 225.042 111.9C224.58 110.778 223.838 109.793 222.888 109.039C222.18 108.698 221.394 108.551 220.61 108.614Z" fill="url(#paint11_linear)"/>
<path d="M162.616 153.274C162.616 161.629 168.477 165.001 175.703 160.839C179.513 158.35 182.682 154.999 184.956 151.056C187.23 147.113 188.543 142.69 188.79 138.144C188.79 129.789 182.93 126.417 175.703 130.579C171.894 133.068 168.724 136.42 166.45 140.363C164.177 144.305 162.863 148.729 162.616 153.274Z" fill="#083C94"/>
<path d="M169.841 165.001C168.235 165.017 166.653 164.608 165.256 163.816C163.547 162.673 162.178 161.091 161.291 159.236C160.404 157.381 160.032 155.322 160.215 153.274C160.458 148.309 161.879 143.474 164.36 139.168C166.842 134.862 170.313 131.209 174.487 128.513C176.163 127.352 178.116 126.656 180.148 126.496C182.18 126.336 184.219 126.717 186.055 127.601C187.754 128.752 189.114 130.337 189.995 132.19C190.876 134.044 191.245 136.099 191.066 138.144C190.85 143.097 189.456 147.927 187.001 152.234C184.545 156.54 181.098 160.198 176.946 162.904C174.803 164.217 172.352 164.94 169.841 165.001ZM181.531 131.186C179.885 131.277 178.288 131.778 176.885 132.645C173.449 134.936 170.588 137.989 168.523 141.567C166.459 145.145 165.247 149.151 164.983 153.274C164.839 154.479 165.007 155.701 165.469 156.823C165.932 157.945 166.674 158.93 167.624 159.684C168.75 160.133 169.973 160.285 171.175 160.125C172.376 159.966 173.517 159.5 174.487 158.773C177.928 156.487 180.793 153.435 182.858 149.856C184.923 146.277 186.132 142.268 186.389 138.144C186.533 136.938 186.365 135.717 185.903 134.594C185.44 133.472 184.698 132.487 183.748 131.733C183.07 131.358 182.305 131.169 181.531 131.186Z" fill="#5243C2"/>
<path d="M169.841 165.001C168.235 165.017 166.653 164.608 165.256 163.816C163.547 162.673 162.178 161.091 161.291 159.236C160.404 157.381 160.032 155.322 160.215 153.274C160.458 148.309 161.879 143.474 164.36 139.168C166.842 134.862 170.313 131.209 174.487 128.513C176.163 127.352 178.116 126.656 180.148 126.496C182.18 126.336 184.219 126.717 186.055 127.601C187.754 128.752 189.114 130.337 189.995 132.19C190.876 134.044 191.245 136.099 191.066 138.144C190.85 143.097 189.456 147.927 187.001 152.234C184.545 156.54 181.098 160.198 176.946 162.904C174.803 164.217 172.352 164.94 169.841 165.001ZM181.531 131.186C179.885 131.277 178.288 131.778 176.885 132.645C173.449 134.936 170.588 137.989 168.523 141.567C166.459 145.145 165.247 149.151 164.983 153.274C164.839 154.479 165.007 155.701 165.469 156.823C165.932 157.945 166.674 158.93 167.624 159.684C168.75 160.133 169.973 160.285 171.175 160.125C172.376 159.966 173.517 159.5 174.487 158.773C177.928 156.487 180.793 153.435 182.858 149.856C184.923 146.277 186.132 142.268 186.389 138.144C186.533 136.938 186.365 135.717 185.903 134.594C185.44 133.472 184.698 132.487 183.748 131.733C183.07 131.358 182.305 131.169 181.531 131.186Z" fill="url(#paint12_linear)"/>
<path d="M110.146 182.288L157.939 209.145L110.146 182.288Z" fill="#5243C2"/>
<path d="M110.146 182.288L157.939 209.145L110.146 182.288Z" fill="url(#paint13_linear)"/>
<path d="M111.27 180.275L108.936 184.434L156.722 211.288L159.057 207.129L111.27 180.275Z" fill="#083C94"/>
<path d="M100.398 142.519L148.192 169.406L100.398 142.519Z" fill="#5243C2"/>
<path d="M100.398 142.519L148.192 169.406L100.398 142.519Z" fill="url(#paint14_linear)"/>
<path d="M101.554 140.469L99.2188 144.627L147.001 171.489L149.336 167.33L101.554 140.469Z" fill="#083C94"/>
<path d="M185.146 7.50464L232.94 34.3617L185.146 7.50464Z" fill="#5243C2"/>
<path d="M185.146 7.50464L232.94 34.3617L185.146 7.50464Z" fill="url(#paint15_linear)"/>
<path d="M186.281 5.42857L183.946 9.5874L231.733 36.441L234.067 32.2821L186.281 5.42857Z" fill="#083C94"/>
</g>
<defs>
<linearGradient id="paint0_linear" x1="303.643" y1="317.103" x2="303.643" y2="384.772" gradientUnits="userSpaceOnUse">
<stop stop-color="#01CFFC"/>
<stop offset="0.838542" stop-color="#22D197" stop-opacity="0"/>
</linearGradient>
<linearGradient id="paint1_linear" x1="351.179" y1="352.061" x2="353.061" y2="352.09" gradientUnits="userSpaceOnUse">
<stop stop-color="#01CFFC"/>
<stop offset="0.838542" stop-color="#22D197" stop-opacity="0"/>
</linearGradient>
<linearGradient id="paint2_linear" x1="267.464" y1="367.97" x2="267.464" y2="383.971" gradientUnits="userSpaceOnUse">
<stop stop-color="#01CFFC"/>
<stop offset="0.838542" stop-color="#22D197" stop-opacity="0"/>
</linearGradient>
<linearGradient id="paint3_linear" x1="277.353" y1="375.855" x2="278.324" y2="377.469" gradientUnits="userSpaceOnUse">
<stop stop-color="#01CFFC"/>
<stop offset="0.838542" stop-color="#22D197" stop-opacity="0"/>
</linearGradient>
<linearGradient id="paint4_linear" x1="312.798" y1="290.003" x2="312.798" y2="334.699" gradientUnits="userSpaceOnUse">
<stop stop-color="#01CFFC"/>
<stop offset="0.838542" stop-color="#22D197" stop-opacity="0"/>
</linearGradient>
<linearGradient id="paint5_linear" x1="340.634" y1="313.291" x2="342.516" y2="313.32" gradientUnits="userSpaceOnUse">
<stop stop-color="#01CFFC"/>
<stop offset="0.838542" stop-color="#22D197" stop-opacity="0"/>
</linearGradient>
<linearGradient id="paint6_linear" x1="312.615" y1="291.904" x2="312.615" y2="311.256" gradientUnits="userSpaceOnUse">
<stop stop-color="#01CFFC"/>
<stop offset="0.838542" stop-color="#22D197" stop-opacity="0"/>
</linearGradient>
<linearGradient id="paint7_linear" x1="172.287" y1="329.607" x2="172.287" y2="360.365" gradientUnits="userSpaceOnUse">
<stop stop-color="#01CFFC"/>
<stop offset="0.838542" stop-color="#22D197" stop-opacity="0"/>
</linearGradient>
<linearGradient id="paint8_linear" x1="358.937" y1="228.17" x2="358.937" y2="259.144" gradientUnits="userSpaceOnUse">
<stop stop-color="#01CFFC"/>
<stop offset="0.838542" stop-color="#22D197" stop-opacity="0"/>
</linearGradient>
<linearGradient id="paint9_linear" x1="185.14" y1="2.44482" x2="185.14" y2="260.027" gradientUnits="userSpaceOnUse">
<stop stop-color="#01CFFC"/>
<stop offset="0.838542" stop-color="#22D197" stop-opacity="0"/>
</linearGradient>
<linearGradient id="paint10_linear" x1="254.25" y1="80.8977" x2="254.25" y2="119.672" gradientUnits="userSpaceOnUse">
<stop stop-color="#01CFFC"/>
<stop offset="0.838542" stop-color="#22D197" stop-opacity="0"/>
</linearGradient>
<linearGradient id="paint11_linear" x1="214.76" y1="103.812" x2="214.76" y2="142.429" gradientUnits="userSpaceOnUse">
<stop stop-color="#01CFFC"/>
<stop offset="0.838542" stop-color="#22D197" stop-opacity="0"/>
</linearGradient>
<linearGradient id="paint12_linear" x1="175.64" y1="126.46" x2="175.64" y2="165.001" gradientUnits="userSpaceOnUse">
<stop stop-color="#01CFFC"/>
<stop offset="0.838542" stop-color="#22D197" stop-opacity="0"/>
</linearGradient>
<linearGradient id="paint13_linear" x1="134.042" y1="182.288" x2="134.042" y2="209.145" gradientUnits="userSpaceOnUse">
<stop stop-color="#01CFFC"/>
<stop offset="0.838542" stop-color="#22D197" stop-opacity="0"/>
</linearGradient>
<linearGradient id="paint14_linear" x1="124.295" y1="142.519" x2="124.295" y2="169.406" gradientUnits="userSpaceOnUse">
<stop stop-color="#01CFFC"/>
<stop offset="0.838542" stop-color="#22D197" stop-opacity="0"/>
</linearGradient>
<linearGradient id="paint15_linear" x1="209.043" y1="7.50464" x2="209.043" y2="34.3617" gradientUnits="userSpaceOnUse">
<stop stop-color="#01CFFC"/>
<stop offset="0.838542" stop-color="#22D197" stop-opacity="0"/>
</linearGradient>
<clipPath id="clip0">
<rect width="285" height="400" fill="white" transform="translate(98)"/>
</clipPath>
</defs>
</svg>
