<svg width="800" height="406" viewBox="0 0 800 406" fill="none" xmlns="http://www.w3.org/2000/svg">
<rect width="799.94" height="405.67" fill="#151515"/>
<g clip-path="url(#clip0)">
<path d="M375.74 283.67H369.74C365.762 283.67 361.947 282.09 359.134 279.277C356.321 276.463 354.74 272.648 354.74 268.67V176.67C354.74 172.692 356.321 168.876 359.134 166.063C361.947 163.25 365.762 161.67 369.74 161.67C373.718 161.67 377.534 163.25 380.347 166.063C383.16 168.876 384.74 172.692 384.74 176.67V274.67C384.74 277.057 383.792 279.346 382.104 281.034C380.416 282.722 378.127 283.67 375.74 283.67Z" fill="white"/>
<path d="M323.74 159.67C290.05 159.67 262.74 188.98 262.74 222.67C262.74 256.36 290.05 285.67 323.74 285.67C357.43 285.67 384.74 256.36 384.74 222.67C384.74 188.98 357.43 159.67 323.74 159.67ZM323.74 255.67C306.62 255.67 292.74 239.79 292.74 222.67C292.74 205.55 306.62 189.67 323.74 189.67C340.86 189.67 354.74 205.55 354.74 222.67C354.74 239.79 340.86 255.67 323.74 255.67Z" fill="white"/>
<path d="M587.94 176.67C587.94 168.386 581.225 161.67 572.94 161.67C564.656 161.67 557.94 168.386 557.94 176.67V268.67C557.94 276.954 564.656 283.67 572.94 283.67C581.225 283.67 587.94 276.954 587.94 268.67V176.67Z" fill="white"/>
<path d="M664.94 283.67C660.962 283.67 657.147 282.09 654.334 279.277C651.521 276.464 649.94 272.648 649.94 268.67V217.67C649.94 217.32 649.94 216.97 649.94 216.67C649.807 212.133 648.55 207.701 646.281 203.77C644.012 199.84 640.802 196.534 636.94 194.15C632.943 191.605 628.382 190.078 623.658 189.703C618.934 189.328 614.189 190.117 609.84 192C603.333 194.826 597.794 199.492 593.903 205.424C590.012 211.356 587.94 218.296 587.94 225.39V229.68C587.94 232.067 586.992 234.356 585.304 236.044C583.617 237.732 581.327 238.68 578.94 238.68H566.94C564.553 238.68 562.264 237.732 560.576 236.044C558.889 234.356 557.94 232.067 557.94 229.68V225.39C557.938 212.451 561.717 199.793 568.813 188.974C575.909 178.154 586.012 169.644 597.88 164.49C606.701 160.665 616.323 159.054 625.909 159.796C635.495 160.539 644.754 163.612 652.88 168.75C660.862 173.763 667.495 180.654 672.201 188.82C676.908 196.987 679.544 206.181 679.88 215.6C679.88 216.27 679.88 216.98 679.88 217.68V268.68C679.878 272.646 678.305 276.45 675.505 279.259C672.705 282.068 668.907 283.654 664.94 283.67Z" fill="white"/>
<path d="M493.83 207.67H449.18C446.85 207.704 444.594 206.857 442.863 205.297C441.133 203.737 440.056 201.58 439.85 199.26C439.769 198.029 439.942 196.795 440.358 195.634C440.774 194.473 441.424 193.41 442.268 192.511C443.112 191.612 444.131 190.896 445.264 190.407C446.396 189.918 447.616 189.667 448.85 189.67H512.18C515.933 189.662 519.529 188.166 522.18 185.509C524.831 182.853 526.32 179.253 526.32 175.5C526.321 171.802 524.876 168.25 522.294 165.602C519.712 162.954 516.197 161.421 512.5 161.33L480 160.52C469.62 159.95 459.2 159.67 448.87 159.67C448.31 159.67 447.76 159.67 447.2 159.67H445.69V159.8C435.652 160.621 426.321 165.294 419.651 172.84C412.981 180.385 409.488 190.219 409.904 200.281C410.321 210.344 414.613 219.855 421.884 226.824C429.154 233.793 438.839 237.68 448.91 237.67H493.91C496.292 237.686 498.572 238.639 500.256 240.323C501.941 242.008 502.894 244.288 502.91 246.67V247.35C502.914 248.424 502.706 249.489 502.298 250.483C501.889 251.476 501.288 252.379 500.53 253.14C499.726 253.938 498.773 254.568 497.724 254.993C496.675 255.419 495.552 255.632 494.42 255.62H427.29C425.428 255.62 423.585 255.987 421.865 256.7C420.145 257.412 418.582 258.457 417.266 259.774C415.95 261.091 414.907 262.654 414.195 264.374C413.484 266.095 413.118 267.938 413.12 269.8C413.111 273.503 414.552 277.063 417.135 279.717C419.718 282.371 423.237 283.908 426.94 284L470.31 285.07C477.92 285.46 485.55 285.65 493.13 285.65H494.38C496.223 285.65 498.064 285.523 499.89 285.27C509.055 283.996 517.448 279.444 523.515 272.458C529.582 265.471 532.913 256.523 532.89 247.27V246.59C532.842 236.258 528.707 226.365 521.388 219.072C514.069 211.78 504.162 207.68 493.83 207.67Z" fill="white"/>
<path fill-rule="evenodd" clip-rule="evenodd" d="M143.62 130.98C142.925 130.284 141.983 129.893 141 129.89H133.6C132.617 129.893 131.675 130.284 130.98 130.98C130.284 131.675 129.893 132.617 129.89 133.6V141C129.889 141.489 129.984 141.973 130.169 142.424C130.355 142.876 130.628 143.287 130.972 143.633C131.317 143.98 131.726 144.255 132.177 144.443C132.628 144.631 133.111 144.729 133.6 144.73H141C141.489 144.73 141.973 144.633 142.424 144.446C142.876 144.258 143.286 143.983 143.63 143.636C143.975 143.29 144.248 142.878 144.433 142.426C144.619 141.973 144.713 141.489 144.71 141V133.6C144.707 132.617 144.316 131.675 143.62 130.98ZM133.6 120H141C142.788 119.997 144.558 120.347 146.211 121.03C147.863 121.712 149.365 122.713 150.63 123.976C151.895 125.239 152.898 126.74 153.583 128.391C154.11 129.662 154.44 131.004 154.564 132.37H200.425C200.549 131.003 200.88 129.661 201.407 128.389C202.093 126.737 203.097 125.236 204.363 123.973C205.629 122.709 207.132 121.708 208.785 121.027C210.439 120.345 212.211 119.996 213.999 120H221.399C225.006 120 228.465 121.433 231.016 123.983C233.566 126.534 234.999 129.993 234.999 133.6V141C235.002 142.786 234.653 144.555 233.972 146.206C233.291 147.857 232.291 149.358 231.03 150.623C229.769 151.887 228.271 152.891 226.622 153.577C225.362 154.101 224.033 154.432 222.679 154.56V182.42C222.679 183.73 222.159 184.987 221.232 185.913C220.306 186.84 219.049 187.36 217.739 187.36C217.085 187.368 216.437 187.246 215.83 187.001C215.224 186.757 214.672 186.394 214.207 185.935C213.742 185.475 213.373 184.928 213.121 184.325C212.869 183.721 212.739 183.074 212.739 182.42V154.564C211.381 154.441 210.046 154.114 208.781 153.592C207.126 152.909 205.622 151.906 204.356 150.64C203.09 149.375 202.086 147.872 201.401 146.218C200.878 144.953 200.55 143.618 200.426 142.26H154.562C154.435 143.616 154.106 144.947 153.583 146.209C152.898 147.86 151.895 149.361 150.63 150.624C149.365 151.887 147.863 152.888 146.211 153.571C144.948 154.092 143.615 154.419 142.259 154.543V200.429C143.616 200.555 144.948 200.884 146.211 201.408C147.863 202.094 149.364 203.098 150.627 204.364C151.891 205.63 152.892 207.133 153.573 208.786C154.084 210.025 154.408 211.331 154.537 212.66H182.419C183.073 212.66 183.72 212.79 184.324 213.042C184.927 213.294 185.474 213.663 185.934 214.128C186.393 214.593 186.756 215.145 187 215.751C187.245 216.358 187.367 217.006 187.359 217.66C187.359 218.97 186.839 220.227 185.912 221.153C184.986 222.08 183.729 222.6 182.419 222.6H154.547C154.425 223.975 154.095 225.325 153.565 226.605C152.881 228.255 151.88 229.754 150.617 231.017C149.354 232.28 147.855 233.281 146.204 233.965C144.554 234.648 142.786 235 141 235H133.6C129.997 235 126.54 233.57 123.99 231.024C121.44 228.478 120.005 225.024 120 221.42V214C119.999 212.213 120.349 210.444 121.032 208.793C121.715 207.141 122.717 205.641 123.98 204.377C125.243 203.113 126.743 202.11 128.393 201.426C129.664 200.9 131.004 200.57 132.369 200.446V154.544C129.214 154.258 126.242 152.875 123.983 150.617C121.433 148.066 120 144.607 120 141V133.6C120 129.993 121.433 126.534 123.983 123.983C126.534 121.433 129.993 120 133.6 120ZM142.431 210.549C141.977 210.362 141.491 210.267 141 210.27V210.29H133.6C132.617 210.293 131.675 210.684 130.98 211.38C130.284 212.075 129.893 213.017 129.89 214V221.4C129.893 222.383 130.284 223.325 130.98 224.021C131.675 224.716 132.617 225.107 133.6 225.11H141C141.983 225.113 142.927 224.726 143.626 224.035C144.325 223.343 144.722 222.403 144.73 221.42V214C144.733 213.51 144.638 213.023 144.451 212.57C144.265 212.116 143.99 211.704 143.643 211.357C143.297 211.01 142.884 210.735 142.431 210.549ZM193.75 191.85C194.597 191.378 195.55 191.127 196.52 191.12V191.1C197.323 191.103 198.117 191.273 198.85 191.6L231.81 206.16C232.83 206.615 233.677 207.383 234.228 208.354C234.78 209.325 235.006 210.446 234.874 211.555C234.742 212.663 234.259 213.7 233.496 214.515C232.732 215.329 231.728 215.877 230.63 216.08L225.63 216.99C223.601 217.367 221.74 218.367 220.306 219.851C218.872 221.335 217.937 223.229 217.63 225.27L216.88 230.27C216.713 231.374 216.196 232.396 215.406 233.185C214.616 233.974 213.594 234.49 212.489 234.657C211.385 234.823 210.256 234.632 209.269 234.111C208.281 233.589 207.486 232.766 207 231.76L191.37 199.34C190.946 198.471 190.751 197.507 190.803 196.541C190.856 195.575 191.154 194.638 191.67 193.82C192.187 192.999 192.902 192.322 193.75 191.85ZM221.399 129.89C222.382 129.893 223.324 130.284 224.02 130.98C224.715 131.675 225.107 132.617 225.109 133.6V141C225.107 141.983 224.715 142.925 224.02 143.62C223.324 144.316 222.382 144.707 221.399 144.71H213.999C213.51 144.713 213.026 144.619 212.573 144.433C212.121 144.248 211.709 143.975 211.363 143.63C211.016 143.286 210.741 142.876 210.553 142.424C210.366 141.973 210.269 141.489 210.269 141V133.6C210.27 133.112 210.368 132.628 210.556 132.177C210.744 131.726 211.019 131.317 211.366 130.973C211.712 130.628 212.123 130.355 212.575 130.169C213.027 129.984 213.511 129.889 213.999 129.89H221.399Z" fill="#5243C2"/>
<path fill-rule="evenodd" clip-rule="evenodd" d="M143.62 130.98C142.925 130.284 141.983 129.893 141 129.89H133.6C132.617 129.893 131.675 130.284 130.98 130.98C130.284 131.675 129.893 132.617 129.89 133.6V141C129.889 141.489 129.984 141.973 130.169 142.424C130.355 142.876 130.628 143.287 130.972 143.633C131.317 143.98 131.726 144.255 132.177 144.443C132.628 144.631 133.111 144.729 133.6 144.73H141C141.489 144.73 141.973 144.633 142.424 144.446C142.876 144.258 143.286 143.983 143.63 143.636C143.975 143.29 144.248 142.878 144.433 142.426C144.619 141.973 144.713 141.489 144.71 141V133.6C144.707 132.617 144.316 131.675 143.62 130.98ZM133.6 120H141C142.788 119.997 144.558 120.347 146.211 121.03C147.863 121.712 149.365 122.713 150.63 123.976C151.895 125.239 152.898 126.74 153.583 128.391C154.11 129.662 154.44 131.004 154.564 132.37H200.425C200.549 131.003 200.88 129.661 201.407 128.389C202.093 126.737 203.097 125.236 204.363 123.973C205.629 122.709 207.132 121.708 208.785 121.027C210.439 120.345 212.211 119.996 213.999 120H221.399C225.006 120 228.465 121.433 231.016 123.983C233.566 126.534 234.999 129.993 234.999 133.6V141C235.002 142.786 234.653 144.555 233.972 146.206C233.291 147.857 232.291 149.358 231.03 150.623C229.769 151.887 228.271 152.891 226.622 153.577C225.362 154.101 224.033 154.432 222.679 154.56V182.42C222.679 183.73 222.159 184.987 221.232 185.913C220.306 186.84 219.049 187.36 217.739 187.36C217.085 187.368 216.437 187.246 215.83 187.001C215.224 186.757 214.672 186.394 214.207 185.935C213.742 185.475 213.373 184.928 213.121 184.325C212.869 183.721 212.739 183.074 212.739 182.42V154.564C211.381 154.441 210.046 154.114 208.781 153.592C207.126 152.909 205.622 151.906 204.356 150.64C203.09 149.375 202.086 147.872 201.401 146.218C200.878 144.953 200.55 143.618 200.426 142.26H154.562C154.435 143.616 154.106 144.947 153.583 146.209C152.898 147.86 151.895 149.361 150.63 150.624C149.365 151.887 147.863 152.888 146.211 153.571C144.948 154.092 143.615 154.419 142.259 154.543V200.429C143.616 200.555 144.948 200.884 146.211 201.408C147.863 202.094 149.364 203.098 150.627 204.364C151.891 205.63 152.892 207.133 153.573 208.786C154.084 210.025 154.408 211.331 154.537 212.66H182.419C183.073 212.66 183.72 212.79 184.324 213.042C184.927 213.294 185.474 213.663 185.934 214.128C186.393 214.593 186.756 215.145 187 215.751C187.245 216.358 187.367 217.006 187.359 217.66C187.359 218.97 186.839 220.227 185.912 221.153C184.986 222.08 183.729 222.6 182.419 222.6H154.547C154.425 223.975 154.095 225.325 153.565 226.605C152.881 228.255 151.88 229.754 150.617 231.017C149.354 232.28 147.855 233.281 146.204 233.965C144.554 234.648 142.786 235 141 235H133.6C129.997 235 126.54 233.57 123.99 231.024C121.44 228.478 120.005 225.024 120 221.42V214C119.999 212.213 120.349 210.444 121.032 208.793C121.715 207.141 122.717 205.641 123.98 204.377C125.243 203.113 126.743 202.11 128.393 201.426C129.664 200.9 131.004 200.57 132.369 200.446V154.544C129.214 154.258 126.242 152.875 123.983 150.617C121.433 148.066 120 144.607 120 141V133.6C120 129.993 121.433 126.534 123.983 123.983C126.534 121.433 129.993 120 133.6 120ZM142.431 210.549C141.977 210.362 141.491 210.267 141 210.27V210.29H133.6C132.617 210.293 131.675 210.684 130.98 211.38C130.284 212.075 129.893 213.017 129.89 214V221.4C129.893 222.383 130.284 223.325 130.98 224.021C131.675 224.716 132.617 225.107 133.6 225.11H141C141.983 225.113 142.927 224.726 143.626 224.035C144.325 223.343 144.722 222.403 144.73 221.42V214C144.733 213.51 144.638 213.023 144.451 212.57C144.265 212.116 143.99 211.704 143.643 211.357C143.297 211.01 142.884 210.735 142.431 210.549ZM193.75 191.85C194.597 191.378 195.55 191.127 196.52 191.12V191.1C197.323 191.103 198.117 191.273 198.85 191.6L231.81 206.16C232.83 206.615 233.677 207.383 234.228 208.354C234.78 209.325 235.006 210.446 234.874 211.555C234.742 212.663 234.259 213.7 233.496 214.515C232.732 215.329 231.728 215.877 230.63 216.08L225.63 216.99C223.601 217.367 221.74 218.367 220.306 219.851C218.872 221.335 217.937 223.229 217.63 225.27L216.88 230.27C216.713 231.374 216.196 232.396 215.406 233.185C214.616 233.974 213.594 234.49 212.489 234.657C211.385 234.823 210.256 234.632 209.269 234.111C208.281 233.589 207.486 232.766 207 231.76L191.37 199.34C190.946 198.471 190.751 197.507 190.803 196.541C190.856 195.575 191.154 194.638 191.67 193.82C192.187 192.999 192.902 192.322 193.75 191.85ZM221.399 129.89C222.382 129.893 223.324 130.284 224.02 130.98C224.715 131.675 225.107 132.617 225.109 133.6V141C225.107 141.983 224.715 142.925 224.02 143.62C223.324 144.316 222.382 144.707 221.399 144.71H213.999C213.51 144.713 213.026 144.619 212.573 144.433C212.121 144.248 211.709 143.975 211.363 143.63C211.016 143.286 210.741 142.876 210.553 142.424C210.366 141.973 210.269 141.489 210.269 141V133.6C210.27 133.112 210.368 132.628 210.556 132.177C210.744 131.726 211.019 131.317 211.366 130.973C211.712 130.628 212.123 130.355 212.575 130.169C213.027 129.984 213.511 129.889 213.999 129.89H221.399Z" fill="url(#paint0_linear)"/>
</g>
<defs>
<linearGradient id="paint0_linear" x1="177.5" y1="120" x2="177.5" y2="235" gradientUnits="userSpaceOnUse">
<stop stop-color="#01CFFC"/>
<stop offset="0.838542" stop-color="#22D197" stop-opacity="0"/>
</linearGradient>
<clipPath id="clip0">
<rect width="559.94" height="165.67" fill="white" transform="translate(120 120)"/>
</clipPath>
</defs>
</svg>
